<?xml version="1.0" encoding="UTF-8"?>
<svg id="freepik_stories-image-upload" xmlns="http://www.w3.org/2000/svg" xmlns:svgjs="http://svgjs.com/svgjs" version="1.1" viewBox="0 0 500 500">
  <!-- Generator: Adobe Illustrator 29.1.0, SVG Export Plug-In . SVG Version: 2.1.0 Build 142)  -->
  <defs>
    <style>
      .st0 {
        fill: #036;
      }

      .st1 {
        fill: #e0e0e0;
      }

      .st2 {
        opacity: .3;
      }

      .st2, .st3, .st4, .st5, .st6 {
        isolation: isolate;
      }

      .st3 {
        opacity: .1;
      }

      .st4, .st5 {
        opacity: .2;
      }

      .st7 {
        fill: #e6e6e6;
      }

      .st8 {
        fill: #ebebeb;
      }

      .st9 {
        fill: #37474f;
      }

      .st10 {
        fill: #263238;
      }

      .st11 {
        fill: #f28f8f;
      }

      .st12, .st6 {
        fill: #fff;
      }

      .st13, .st5 {
        fill: #f60;
      }

      .st14 {
        fill: #f0f0f0;
      }

      .st15 {
        fill: #fafafa;
      }

      .st16 {
        fill: #f5f5f5;
      }

      .st17 {
        fill: #ffa8a7;
      }

      .st18 {
        fill: #455a64;
      }

      .st6 {
        opacity: .4;
      }
    </style>
  </defs>
  <g id="freepik--Floor--inject-61">
    <ellipse id="freepik--floor--inject-61" class="st16" cx="249.1" cy="360.9" rx="218.6" ry="120.2"/>
  </g>
  <g id="freepik--Shadows--inject-61">
    <ellipse id="freepik--Shadow--inject-61" class="st1" cx="377.9" cy="384.3" rx="38.2" ry="22"/>
    <path id="freepik--shadow--inject-61" class="st1" d="M60.9,402.4l-8.2-4.8c-2.6-1.5-2.6-3.9,0-5.4l246.8-142.5c3-1.5,6.5-1.5,9.4,0l8.2,4.8c2.6,1.5,2.6,3.9,0,5.4l-246.8,142.5c-3,1.5-6.5,1.5-9.4,0Z"/>
  </g>
  <g id="freepik--Clouds--inject-61">
    <g id="freepik--clouds--inject-61">
      <path id="el5mdrm54zm1f" class="st8" d="M99.6,66.9l-7.1,4.1c0-.4,0-.7,0-1.1v-2.4c0-4.2-2.6-6.2-5.8-4.3-1.4.9-2.6,2.1-3.4,3.5-.5-5.4-4.1-7.7-8.5-5.1-4.8,2.7-8.6,10.1-8.6,16.4v3.6c0,1.4.2,2.8.7,4.2l-5.9,3.4c-2,1.4-3.2,3.7-3.2,6.1,0,2.3,1.4,3.4,3.2,2.4l38.5-22.2c2-1.4,3.2-3.7,3.2-6.1,0-2.3-1.4-3.4-3.2-2.4Z"/>
      <path id="el99x5he1u24v" class="st8" d="M145.3,79.3l-5.4,3.1c0-.3,0-.5,0-.8v-1.8c0-3.2-1.9-4.7-4.3-3.3-1.1.7-1.9,1.6-2.6,2.6-.4-4-3.1-5.8-6.4-3.9-3.6,2.1-6.5,7.6-6.5,12.4v2.7c0,1.1.2,2.2.6,3.2l-4.5,2.6c-1.5,1.1-2.4,2.8-2.4,4.6,0,1.8,1.1,2.6,2.4,1.8l29.1-16.8c1.5-1.1,2.4-2.8,2.4-4.6,0-1.8-1.1-2.6-2.4-1.8Z"/>
    </g>
  </g>
  <g id="freepik--Window--inject-61">
    <g id="freepik--window--inject-61">
      <path id="elb2kc84bwwf9" class="st13" d="M63.2,204L319.4,56.1v-15h0c0-.3,0-.6,0-.9,0,0,0,0,0-.1,0-.2-.1-.5-.2-.7v-.2c-.2-.2-.3-.4-.4-.5h-.1c-.1-.3-.3-.4-.4-.5-.1,0-.2-.1-.3-.2,0,0,0,0,.1,0-.5-.3-2.1-1.3-3.8-2.2l-4.8-2.8h-.1c0,0-.3-.2-.3-.2-1-.3-2.1-.1-3,.5L78.7,164.4l-19.7,11.4c-.3.2-.6.4-.9.7-2.2,1.9-3.6,4.6-3.8,7.5v15l8.8,5.1h0Z"/>
      <path id="elq9gqcrhz3t" class="st16" d="M318.3,38.3h-.2c0-.1.2,0,.2,0Z"/>
      <path id="elsa2zt4jfygc" class="st16" d="M318.1,38.2c0,0-.1-.1-.2-.2h0s.1.2.1.2Z"/>
      <path id="elmwd0k0kkjus" class="st16" d="M318.6,38.6c0,0-.2-.2-.3-.3,0,0,.2.2.3.3Z"/>
      <path id="el1txogkd2b2i" class="st14" d="M67.9,180.9L314.6,38.4c2.6-1.5,4.7-.3,4.7,2.7v208.4c-.2,3.3-1.9,6.3-4.7,8.1l-246.8,142.5c-2.6,1.5-4.7.3-4.7-2.7v-208.4c.2-3.3,1.9-6.3,4.7-8.1Z"/>
      <path id="el5dmnjhcweqy" class="st13" d="M314.6,38.4L67.9,180.9c-2.8,1.8-4.5,4.8-4.7,8.1v15L319.4,56.1v-15c0-3-2.1-4.2-4.7-2.7Z"/>
      <g id="el30fiy1q778q">
        <path class="st3" d="M55.7,179.3c-.8,1.4-1.3,3-1.4,4.6v15l8.8,5.1v-15c0-1.6.5-3.2,1.4-4.6l-8.8-5.1Z"/>
      </g>
      <g id="elrtv8ng43myc">
        <path class="st6" d="M309.1,33c-1.1-.5-2.4-.4-3.3.3L59,175.8c-1.4.9-2.5,2.1-3.3,3.5l8.8,5.1c.8-1.4,1.9-2.7,3.3-3.5L314.6,38.4c.9-.7,2.2-.8,3.2-.4-1.3-.8-7.9-4.6-8.8-5Z"/>
      </g>
      <path id="elyncd3vn8gfo" class="st7" d="M64.5,400.4c-1.2-.7-8-4.6-8.8-5.1-.9-.7-1.4-1.8-1.3-3v-193.5l8.8,5.1v193.4c-.1,1.2.4,2.3,1.3,3Z"/>
      <path id="el0h88mea0zvls" class="st0" d="M289,59.1c-1.5.9-2.8,3.5-2.8,5.9s1.2,3.6,2.8,2.7,2.8-3.5,2.8-5.9-1.2-3.5-2.8-2.7Z"/>
      <path id="el3oopc65j0kg" class="st0" d="M299,53.3c-1.5.9-2.8,3.5-2.8,5.9s1.2,3.6,2.8,2.7,2.8-3.5,2.8-5.9-1.2-3.6-2.8-2.7Z"/>
      <path id="elnja4n68vzb" class="st0" d="M309,47.5c-1.5.9-2.8,3.5-2.8,5.9s1.2,3.6,2.8,2.7,2.8-3.5,2.8-5.9-1.2-3.6-2.8-2.7Z"/>
      <g id="el0erjj5njjn9m">
        <polygon class="st5" points="76.4 216.7 195.7 147.9 195.7 306 76.4 374.8 76.4 216.7"/>
      </g>
      <path id="eldm8t5puiswr" class="st13" d="M76.4,219c-.4,0-.7-.3-.8-.8v-1.5c0-.3.1-.5.4-.6l1.3-.8c.4-.2.8,0,1,.3.2.4,0,.8-.3,1l-.9.5v1.1c0,.4-.3.8-.7.8,0,0,0,0,0,0Z"/>
      <path id="elprvzhk37jqp" class="st13" d="M82.1,214.2c-.3,0-.5-.1-.7-.4-.2-.4,0-.8.3-1l2.6-1.5c.4-.2.8,0,1,.3.2.4,0,.8-.3,1l-2.6,1.5c-.1,0-.2.1-.3.1ZM89.1,210.1c-.3,0-.5-.1-.7-.4-.2-.4,0-.8.3-1l2.6-1.5c.4-.2.8,0,1,.4.1.3,0,.7-.2.9l-2.6,1.4c-.1,0-.2.1-.4.1h0ZM96.1,206.1c-.3,0-.5-.1-.7-.4-.2-.4,0-.8.3-1l2.6-1.5c.4-.2.8,0,1,.3.2.4,0,.8-.3,1l-2.6,1.5c-.1,0-.2,0-.4,0h0ZM103.1,202.1c-.4,0-.8-.3-.8-.7,0-.3.1-.5.4-.7l2.6-1.5c.4-.2.8,0,1,.3.2.4,0,.8-.3,1l-2.6,1.5c0,0-.2,0-.3,0h0ZM110.1,198.1c-.4,0-.7-.3-.7-.8,0-.3.1-.5.4-.6l2.6-1.5c.4-.2.8,0,1,.3.2.4,0,.8-.3,1l-2.6,1.5c-.1,0-.2,0-.3,0h0ZM117.1,194c-.3,0-.5-.1-.7-.4-.2-.4,0-.8.3-1l2.6-1.5c.4-.2.8,0,1,.3.2.4,0,.8-.3,1l-2.6,1.5c-.1,0-.2,0-.3,0h0ZM124.1,190c-.3,0-.5-.1-.7-.4-.2-.4,0-.8.3-1l2.6-1.5c.4-.2.8,0,1,.3.2.4,0,.8-.3,1l-2.6,1.5c0,0-.2,0-.3,0h0ZM131.1,186c-.4,0-.8-.3-.8-.7,0-.3.1-.5.4-.7l2.6-1.5c.4-.2.8,0,1,.3.2.4,0,.8-.3,1l-2.6,1.5c0,0-.1,0-.2,0h-.1ZM138.1,181.9c-.4,0-.7-.3-.7-.8,0-.3.1-.5.4-.6l2.6-1.5c.4-.2.8,0,1,.3.2.4,0,.8-.3,1l-2.6,1.5c0,0-.2,0-.2,0h-.1ZM145.1,177.9c-.4,0-.8-.3-.8-.7,0-.3.1-.5.4-.7l2.6-1.5c.4-.2.8,0,1,.3.2.4,0,.8-.3,1l-2.6,1.5c0,0-.1,0-.2,0h-.1ZM152.1,173.9c-.3,0-.5-.1-.6-.4-.2-.4,0-.8.3-1l2.6-1.5c.4-.2.8,0,1,.3.2.4,0,.8-.3,1l-2.6,1.5c0,0-.1,0-.2-.1l-.2.2ZM159.1,169.8c-.3,0-.5-.1-.6-.4-.2-.4,0-.8.3-1l2.6-1.5c.4-.2.8,0,1,.3.2.4,0,.8-.3,1l-2.6,1.5c0,0-.1,0-.2-.1l-.2.2ZM166.1,165.8c-.3,0-.5-.1-.6-.4-.2-.4,0-.8.3-1l2.6-1.5c.4-.2.8,0,1,.3.2.4,0,.8-.3,1l-2.6,1.5c0,0-.1-.1-.2-.2l-.2.2ZM173.1,161.8c-.4,0-.8-.3-.8-.7,0-.3.1-.5.4-.7l2.6-1.5c.4-.2.8,0,1,.3.2.4,0,.8-.3,1l-2.6,1.5c0,0-.1,0-.1-.1l-.2.2ZM180.1,157.7c-.4,0-.7-.3-.7-.8,0-.3.1-.5.4-.6l2.6-1.5c.4-.2.8,0,1,.3.2.4,0,.8-.3,1l-2.6,1.5s0,0-.1-.1l-.2.2ZM187.1,153.7c-.3,0-.5-.1-.6-.4-.2-.4,0-.8.3-1l2.6-1.5c.4-.2.8,0,1,.3.2.4,0,.8-.3,1l-2.6,1.5c0,0,0-.1-.1-.2l-.2.3Z"/>
      <path id="el27oifv4jvr2i" class="st13" d="M195.7,150.1c-.4,0-.8-.3-.8-.8v-.2h-.2c-.4.3-.8.2-1-.2-.2-.4,0-.8.3-1l1.3-.8c.2-.1.5-.1.8,0,.2.1.4.4.4.6v1.5c0,.4-.4.7-.8.7Z"/>
      <path id="elam27nru0yhe" class="st13" d="M195.7,300.3c-.4,0-.7-.3-.8-.7,0,0,0,0,0,0v-3c0-.4.3-.8.8-.8s.8.3.8.8v3c0,.4-.3.8-.8.8ZM195.7,292.4c-.4,0-.8-.3-.8-.8v-3c0-.4.3-.8.8-.8s.8.3.8.8v3c0,.4-.3.7-.8.8ZM195.7,284.5c-.4,0-.7-.3-.8-.7,0,0,0,0,0,0v-3c0-.4.3-.8.8-.8s.8.3.8.8v3c0,.4-.3.8-.8.8ZM195.7,276.6c-.4,0-.7-.3-.8-.7,0,0,0,0,0,0v-3c0-.4.3-.8.8-.8s.8.3.8.8v3c0,.4-.3.7-.8.7h0ZM195.7,268.7c-.4,0-.8-.3-.8-.8v-3c0-.4.3-.8.8-.8s.8.3.8.8v3c0,.4-.3.7-.8.7h0ZM195.7,260.8c-.4,0-.7-.3-.8-.7,0,0,0,0,0,0v-3c0-.4.3-.8.8-.8s.8.3.8.8v3c0,.4-.3.7-.8.7h0ZM195.7,252.9c-.4,0-.8-.3-.8-.8v-3c0-.4.3-.8.8-.8s.8.3.8.8v3c0,.4-.3.7-.8.7h0ZM195.7,245c-.4,0-.8-.3-.8-.8h0v-3c0-.4.3-.8.8-.8s.8.3.8.8h0v3c0,.4-.3.8-.7.8,0,0,0,0,0,0h0ZM195.7,237.1c-.4,0-.7-.3-.8-.7,0,0,0,0,0,0v-3c0-.4.3-.8.8-.8s.8.3.8.8v3c0,.4-.3.7-.8.7h0ZM195.7,229.2c-.4,0-.8-.3-.8-.8v-3c0-.4.3-.8.8-.8s.8.3.8.8v3c0,.4-.3.7-.8.7h0ZM195.7,221.3c-.4,0-.8-.3-.8-.8h0v-3c0-.4.3-.8.8-.8s.8.3.8.8h0v3c0,.4-.3.7-.8.7h0ZM195.7,213.4c-.4,0-.7-.3-.8-.7,0,0,0,0,0,0v-3c0-.4.3-.8.8-.8s.8.3.8.8v3c0,.4-.3.7-.8.7h0ZM195.7,205.5c-.4,0-.8-.3-.8-.8v-3c0-.4.3-.8.8-.8s.8.3.8.8v3c0,.4-.3.7-.8.7h0ZM195.7,197.6c-.4,0-.8-.3-.8-.8v-3c0-.4.3-.8.8-.8s.8.3.8.8v3c0,.4-.3.7-.8.7h0ZM195.7,189.6c-.4,0-.7-.3-.8-.7,0,0,0,0,0,0v-3c0-.4.3-.8.8-.8s.8.3.8.8v3c0,.4-.3.7-.8.7h0ZM195.7,181.7c-.4,0-.8-.3-.8-.8v-3c0-.4.3-.8.8-.8s.8.3.8.8v3c0,.4-.3.7-.8.7h0ZM195.7,173.8c-.4,0-.8-.3-.8-.8v-3c0-.4.3-.8.8-.8s.8.3.8.8v3c0,.4-.3.7-.8.7h0ZM195.7,165.9c-.4,0-.7-.3-.8-.7,0,0,0,0,0,0v-3c0-.4.3-.8.8-.8s.8.3.8.8v3c0,.4-.3.7-.8.7h0ZM195.7,158c-.4,0-.8-.3-.8-.8v-3c0-.4.3-.8.8-.8s.8.3.8.8v3c0,.4-.3.7-.8.7h0Z"/>
      <path id="elyde7h0wii0i" class="st13" d="M194.4,307.5c-.4,0-.8-.3-.8-.7,0-.3.1-.5.4-.7l.9-.5v-1.1c0-.4.3-.8.8-.8s.8.3.8.8v1.5c0,.3-.1.5-.4.6l-1.3.8c-.1,0-.2,0-.4,0Z"/>
      <path id="elci4x5pungvb" class="st13" d="M82.1,372.3c-.3,0-.5-.1-.6-.4-.2-.4,0-.8.3-1l2.6-1.5c.4-.2.8,0,1,.3.2.4,0,.8-.3,1l-2.6,1.5c-.1,0-.2,0-.3,0ZM89.1,368.2c-.3,0-.5-.1-.7-.4-.2-.4,0-.8.3-1l2.6-1.5c.4-.2.8,0,1,.3s0,.8-.3,1l-2.6,1.5c-.1,0-.2,0-.4,0h0ZM96.1,364.2c-.3,0-.5-.1-.7-.4-.2-.4,0-.8.3-1l2.6-1.5c.4-.2.8,0,1,.3.2.4,0,.8-.3,1l-2.6,1.5c0,0-.2,0-.3.1h0ZM103.1,360.2c-.4,0-.8-.3-.8-.7,0-.3.1-.5.4-.7l2.6-1.5c.4-.2.8,0,1,.3.2.4,0,.8-.3,1l-2.6,1.5c0,0-.2.1-.3.1h0ZM110.1,356.2c-.4,0-.7-.3-.7-.8,0-.3.1-.5.4-.6l2.6-1.5c.4-.2.8,0,1,.3.2.4,0,.8-.3,1l-2.5,1.5c-.1,0-.2,0-.4.1h0ZM117.1,352.1c-.4,0-.7-.3-.7-.8,0-.3.1-.5.4-.6l2.6-1.5c.4-.2.8,0,1,.4.1.3,0,.7-.2.9l-2.6,1.5c0,0-.2,0-.3,0h0ZM124.1,348c-.4,0-.8-.3-.8-.7,0-.3.1-.5.4-.7l2.6-1.5c.4-.2.8,0,1,.3.2.4,0,.8-.3,1l-2.6,1.5c0,0-.1,0-.2,0h-.1ZM131.1,344c-.4,0-.7-.3-.7-.8,0-.3.1-.5.4-.6l2.6-1.5c.4-.2.8,0,1,.3.2.4,0,.8-.3,1l-2.6,1.5c0,0-.2,0-.2,0h-.1ZM138.1,339.9c-.3,0-.5-.1-.6-.4-.2-.4,0-.8.3-1l2.8-1.6c.4-.2.8,0,1,.3s0,.8-.3,1h0l-2.6,1.5c-.1,0-.2,0-.4,0h-.1ZM145.1,335.9c-.4,0-.8-.3-.8-.7,0-.3.1-.5.4-.7l2.6-1.5c.4-.2.8,0,1,.3.2.4,0,.8-.3,1l-2.6,1.5c0,0-.1,0-.2,0h-.2ZM152.1,331.9c-.4,0-.8-.3-.8-.7,0-.3.1-.5.4-.7l2.6-1.5c.4-.2.8,0,1,.3s0,.8-.3,1h0l-2.6,1.5c0,0-.1,0-.2,0h-.2ZM159.1,327.8c-.4,0-.7-.3-.7-.8,0-.3.1-.5.4-.6l2.6-1.5c.4-.2.8,0,1,.3.2.4,0,.8-.3,1l-2.6,1.5c0,0-.1,0-.2,0h-.2ZM166.1,323.8c-.3,0-.5-.1-.6-.4-.2-.4,0-.8.3-1l2.6-1.5c.4-.2.8,0,1,.3s0,.8-.3,1l-2.6,1.5c0,0-.1,0-.2,0h-.2ZM173.1,319.7c-.3,0-.5-.1-.6-.4-.2-.4,0-.8.3-1l2.6-1.5c.3-.2.8-.2,1,.2.2.3.2.8-.2,1,0,0,0,0-.1,0l-2.6,1.5s0,0-.1,0h-.2ZM180.1,315.7c-.3,0-.5-.1-.6-.4-.2-.4,0-.8.3-1l2.6-1.5c.4-.2.8,0,1,.3.2.4,0,.8-.3,1l-2.6,1.5s0,0-.1,0h-.2ZM187.1,311.6c-.3,0-.5-.1-.6-.4-.2-.4,0-.8.3-1l2.6-1.5c.4-.2.8,0,1,.3.2.4,0,.8-.3,1l-2.6,1.5s0,0,0,0h-.3Z"/>
      <path id="el0wcsfeuaj2ki" class="st13" d="M76.4,375.6c-.4,0-.7-.3-.8-.7,0,0,0,0,0,0v-1.5c0-.4.3-.8.8-.8s.8.3.8.8v.2h.2c.4-.3.8-.2,1,.2.2.4,0,.8-.3,1l-1.3.8c-.1,0-.2.1-.3.1Z"/>
      <path id="elqrzyvp9plc" class="st13" d="M76.4,369.1c-.4,0-.8-.3-.8-.8v-3c0-.4.3-.8.8-.8s.8.3.8.8v3c0,.4-.3.8-.8.8ZM76.4,361.2c-.4,0-.7-.3-.8-.8v-3c0-.4.3-.8.8-.8s.8.3.8.8v3c0,.4-.3.7-.8.7h0ZM76.4,353.3c-.4,0-.7-.3-.8-.8v-3c0-.4.3-.8.8-.8s.8.3.8.8v3c0,.4-.3.7-.8.7h0ZM76.4,345.4h0c-.4,0-.8-.3-.8-.8v-3c0-.4.3-.8.8-.8h0c.4,0,.8.3.8.8v3c0,.4-.3.7-.8.7h0ZM76.4,337.5c-.4,0-.7-.3-.8-.8v-3c0-.4.3-.8.8-.8s.8.3.8.8v3c0,.4-.3.7-.8.7h0ZM76.4,329.6c-.4,0-.7-.3-.8-.8v-3c0-.4.3-.8.8-.8s.8.3.8.8v3c0,.4-.3.7-.8.7h0ZM76.4,321.7c-.4,0-.8-.3-.8-.8v-3c0-.4.3-.8.8-.8s.8.3.8.8v3c0,.4-.3.7-.8.7h0ZM76.4,313.8c-.4,0-.7-.3-.8-.8v-3c0-.4.3-.8.8-.8s.8.3.8.8v3c0,.4-.3.7-.8.7h0ZM76.4,305.9c-.4,0-.7-.3-.8-.8v-3c0-.4.3-.8.8-.8s.8.3.8.8v3c0,.4-.3.7-.8.7h0ZM76.4,298h0c-.4,0-.8-.3-.8-.8v-3c0-.4.3-.8.8-.8h0c.4,0,.7.3.8.7,0,0,0,0,0,0v3c0,.4-.3.7-.8.7h0ZM76.4,290.1c-.4,0-.7-.3-.8-.8v-3c0-.4.3-.8.8-.8s.8.3.8.8v3c0,.4-.3.7-.8.7h0ZM76.4,282.2c-.4,0-.8-.3-.8-.8v-3c0-.4.3-.8.8-.8s.8.3.8.8v3c0,.4-.3.7-.8.7h0ZM76.4,274.3c-.4,0-.8-.3-.8-.8v-3c0-.4.3-.8.8-.8s.8.3.8.8v3c0,.4-.3.7-.8.7h0ZM76.4,266.4c-.4,0-.7-.3-.8-.8v-3c0-.4.3-.8.8-.8s.8.3.8.8v3c0,.4-.3.7-.8.7h0ZM76.4,258.5c-.4,0-.8-.3-.8-.8v-3c0-.4.3-.8.8-.8s.8.3.8.8v3c0,.4-.3.7-.8.7h0ZM76.4,250.6c-.4,0-.7-.3-.8-.8v-3c0-.4.3-.8.8-.8s.8.3.8.8v3c0,.4-.3.7-.8.7h0ZM76.4,242.7c-.4,0-.7-.3-.8-.8v-3c0-.4.3-.8.8-.8s.8.3.8.8v3c0,.4-.3.7-.8.7h0ZM76.4,234.8c-.4,0-.8-.3-.8-.8v-3c0-.4.3-.8.8-.8s.8.3.8.8h0v3c0,.4-.3.7-.7.7,0,0,0,0,0,0h0ZM76.4,226.9c-.4,0-.7-.3-.8-.8v-3c0-.4.3-.8.8-.8s.8.3.8.8v3c0,.4-.3.7-.8.7h0Z"/>
      <path id="el4jz60bahszk" class="st13" d="M127.7,263.4c-.2,0-.3,0-.5-.1-.3-.2-.5-.5-.5-.9v-9.3c0-.6.4-1,1-1s1,.4,1,1v7.6l14.7-8.5v-8.7c0-.6.4-1,1-1s1,.4,1,1v9.3c0,.4-.2.7-.5.9l-16.7,9.6c-.2,0-.3.1-.5.1Z"/>
      <path id="elgqful3l8d9w" class="st13" d="M130.8,245.9c-.1,0-.2,0-.4,0-.5-.2-.8-.8-.6-1.3,0,0,0,0,0,0l5-13c.1-.3.5-.6.8-.6.4,0,.7.1.9.4l5,7.2c.3.5.2,1.1-.2,1.4-.5.3-1.1.2-1.4-.2l-4-5.6-4.3,11.2c-.1.4-.5.6-.9.7Z"/>
      <path id="elrahnnfns2e" class="st13" d="M135.8,252.5c-.6,0-1-.4-1-1v-18.1c0-.6.4-1,1-1s1,.4,1,1v18.1c0,.6-.4,1-1,1h0Z"/>
      <path id="el68me9855usm" class="st13" d="M114.1,297l43.9-25.4c1.3-.8,2.4-.1,2.4,1.4v12.4c0,1.7-1,3.2-2.4,4.1l-43.9,25.3c-1.3.8-2.3.1-2.3-1.4v-12.4c0-1.6,1-3.1,2.3-4Z"/>
      <path id="elx5olufns8p" class="st15" d="M121.2,298.6c0-.1,0-.2,0-.3,0,0,0-.2.2-.2l.7-.4c0,0,.1,0,.2,0,0,0,0,.2,0,.2v3.8c0,.5,0,.9.2,1.3.2.3.4.3.8,0,.4-.2.6-.6.8-1,.2-.5.3-1.1.3-1.6v-3.8c0-.1,0-.2,0-.3,0,0,.1-.2.2-.2l.7-.4c0,0,.1,0,.2,0,0,0,0,.2,0,.2v7c0,.1,0,.2,0,.3,0,0-.1.2-.2.2l-.7.4c0,0-.1,0-.2,0,0,0,0-.2,0-.2v-.4c-.2.3-.3.7-.6,1-.2.3-.5.6-.8.7-.3.2-.6.3-1,.3-.3,0-.5-.2-.6-.4-.2-.3-.3-.6-.3-.9,0-.4,0-.9,0-1.3v-4Z"/>
      <path id="elilackhv94y" class="st15" d="M130,301.1c-.2.1-.4.2-.6.2-.1,0-.3,0-.4,0-.1,0-.2,0-.3-.1,0,0-.1-.1-.2-.2v3.2c0,.1,0,.2,0,.3,0,0-.1.2-.2.2l-.7.4c0,0-.1,0-.2,0,0,0,0-.2,0-.2v-9.9c0-.1,0-.2,0-.3,0,0,.1-.2.2-.2l.7-.4c0,0,.1,0,.2,0,0,0,0,.2,0,.2v.3c0-.1.1-.3.2-.4,0-.2.2-.3.3-.5.1-.2.3-.3.4-.5.2-.2.3-.3.6-.4.3-.2.6-.3.9-.2.3,0,.5.2.7.4.2.3.4.6.4.9.1.4.2.8.2,1.2v1c0,.5,0,1-.2,1.4-.1.5-.3.9-.4,1.4-.2.4-.4.8-.7,1.2-.2.3-.5.6-.9.8ZM130.9,297c0-.3,0-.6,0-.8,0-.6-.2-1-.4-1.2-.2-.2-.6-.2-.8,0-.3.2-.6.5-.8.9-.2.5-.4,1-.4,1.5,0,.2,0,.4,0,.6,0,.2,0,.4,0,.6,0,.4.1.7.4,1,.2.2.6.2.8,0,.4-.2.6-.5.8-.9.2-.5.4-1,.4-1.5h0Z"/>
      <path id="elcvkqgo7d2e" class="st15" d="M134.6,297.9c0,.1,0,.2,0,.3,0,0-.1.2-.2.2l-.7.4h-.2c0,0,0-.2,0-.2v-9.9c0-.1,0-.2,0-.3,0,0,.1-.2.2-.2l.7-.4c0,0,.1,0,.2,0,0,0,0,.2,0,.2v9.9Z"/>
      <path id="elq2803u6iuc" class="st15" d="M138.2,288.3c.3-.2.6-.3,1-.3.3,0,.5,0,.8.3.2.2.4.5.5.8.1.4.2.8.2,1.2,0,.1,0,.2,0,.3v1.2c0,.5,0,1-.2,1.4-.1.5-.3.9-.5,1.3-.2.4-.5.8-.8,1.1-.3.3-.6.6-1,.8-.3.2-.6.3-1,.3-.3,0-.5,0-.8-.3-.2-.2-.4-.5-.5-.8-.1-.4-.2-.8-.2-1.2,0-.1,0-.2,0-.3v-1.2c0-.5,0-1,.2-1.4.1-.5.3-.9.5-1.4.2-.4.5-.8.8-1.1.3-.3.6-.6,1-.8ZM139.3,291c0-.2,0-.5-.1-.7,0-.1-.2-.3-.3-.3-.1,0-.2,0-.4,0-.1,0-.3,0-.4.2-.1,0-.3.2-.4.3-.1.1-.3.3-.4.5-.1.2-.2.4-.3.6,0,.3-.1.6-.1.9,0,.1,0,.2,0,.3v.8c0,0,0,.2,0,.3,0,.2,0,.5.1.7,0,.1.2.3.3.3.1,0,.3,0,.4,0,.1,0,.3,0,.4-.2.1,0,.3-.2.4-.3.1-.1.3-.3.4-.5.1-.2.2-.4.3-.6,0-.3.1-.6.1-.9,0,0,0-.2,0-.3v-.8c0,0,0-.2,0-.3h0Z"/>
      <path id="elvos4pr5fu4" class="st15" d="M141.8,288.3c0-.3,0-.5.2-.8.1-.3.2-.6.4-.9.2-.3.4-.6.6-.9.3-.3.5-.5.9-.7.3-.2.6-.3.9-.3.2,0,.5,0,.7.2.2.2.4.4.4.7.1.4.2.8.1,1.3v4.4c0,.1,0,.2,0,.3,0,0-.1.2-.2.2l-.7.4h-.2c0,0,0-.2,0-.2v-.5c-.1.4-.3.8-.6,1.1-.3.4-.6.7-1,.9-.2.1-.5.2-.8.3-.2,0-.4,0-.6-.2-.2-.1-.3-.3-.4-.5,0-.3-.1-.6-.1-.9,0-.7.2-1.3.5-1.9.3-.6.8-1.1,1.3-1.5l1.6-1.3c0-.4,0-.6-.3-.7-.2,0-.5,0-.7.1-.1,0-.3.2-.4.3,0,.1-.2.3-.3.4,0,0-.1.2-.2.3,0,0,0,.1-.2.1l-.9.5h-.2s0-.1,0-.2ZM143.4,291.6c.2-.1.4-.3.6-.5.2-.2.3-.4.4-.6.1-.2.2-.5.3-.7,0-.2,0-.4,0-.7h0c0-.1-1.3,1-1.3,1-.2.2-.4.4-.6.6-.1.2-.2.4-.2.6,0,.2,0,.3.2.4.2,0,.4,0,.5-.2Z"/>
      <path id="elw7df1a94x" class="st15" d="M149.3,281.9c.2-.1.4-.2.6-.2.1,0,.3,0,.4,0,.1,0,.2,0,.3.1,0,0,.1.1.2.2v-3.2c0-.1,0-.2,0-.3,0,0,0-.2.2-.2l.8-.4c0,0,.1,0,.2,0,0,0,0,.2,0,.2v9.9c0,.1,0,.2,0,.3,0,0-.1.2-.2.2l-.8.4c0,0-.1,0-.2,0,0,0,0-.2,0-.2v-.4c0,.1-.1.3-.2.4,0,.2-.2.3-.3.5-.1.2-.3.3-.4.5-.2.2-.4.3-.6.4-.3.2-.6.3-.9.2-.3,0-.5-.2-.7-.4-.2-.3-.4-.6-.4-.9-.1-.4-.2-.8-.2-1.2v-1.1c0-.5,0-1,.2-1.4.1-.5.3-.9.4-1.4.2-.4.4-.8.7-1.2.2-.3.5-.6.9-.8ZM148.4,286c0,.3,0,.6,0,.8,0,.6.2,1,.4,1.2.2.2.6.2.8,0,.3-.2.6-.5.8-.9.2-.5.4-1,.4-1.5v-1.1c0-.4-.1-.7-.4-1-.2-.2-.6-.2-.8,0-.3.2-.6.5-.8.9-.2.5-.4,1-.4,1.6h0Z"/>
      <path id="elwbrbobzv8zs" class="st13" d="M204.5,174.3c0,0-.2,0-.2,0-.2,0-.3-.3-.2-.4v-30.6c0-.2,0-.3.2-.4l35.3-20.4c.2,0,.3,0,.5,0,.2,0,.3.3.2.4v30.6c0,.2,0,.3-.2.4l-35.3,20.4c0,0-.2,0-.2,0ZM205,143.5v29.4l34.3-19.8v-29.4l-34.3,19.8Z"/>
      <path id="el4lfd1x4fo6s" class="st13" d="M204.5,168.2c-.3,0-.5-.2-.5-.5,0,0,0-.2,0-.2l11.8-23.1c0-.1.2-.2.3-.2.1,0,.3,0,.4,0l12.8,8.2c.2.2.3.5.1.7-.1.2-.4.3-.7.1l-12.3-7.9-11.5,22.6c0,.2-.3.3-.5.3Z"/>
      <path id="elixgc1p8j1ft" class="st13" d="M225.2,150.8c0,0-.2,0-.3,0-.2-.2-.3-.5-.1-.7l6.2-9.5c.1-.2.4-.3.7-.2,0,0,0,0,0,0l8.4,5.2c.2.1.3.5.2.7-.1.2-.4.3-.7.2,0,0,0,0,0,0l-8-4.9-6,9.1c0,.1-.2.2-.3.2Z"/>
      <path id="elulmuzo9iwni" class="st13" d="M223.9,143.1c-.3,0-.6,0-.9-.2-.7-.5-1.1-1.2-1-2.1,0-1.9,1.1-3.7,2.8-4.8.8-.7,2.1-.6,2.8.2.4.5.5,1.1.4,1.6,0,1.9-1.1,3.7-2.8,4.8-.4.3-.9.4-1.4.4ZM226.2,136.6c-.3,0-.6.1-.9.3-1.3.9-2.2,2.3-2.3,3.9,0,.5.1.9.5,1.2.4.2.9,0,1.3-.2,1.3-.9,2.2-2.3,2.3-3.9,0-.5-.1-.9-.5-1.2-.1,0-.3-.1-.4-.1Z"/>
      <path id="el5iu8cdfv0ia" class="st18" d="M307,98.1l-1.3-1.2,1.4-3c.2-.3,0-.7-.2-.9-.3-.2-.7,0-.9.2,0,0,0,0,0,.1l-1.2,2.6-1-.9c-.3-.2-.7-.2-.9,0-.2.3-.2.7,0,.9l1.3,1.2-1.4,3c-.2.3,0,.7.3.9,0,0,0,0,0,0,0,0,.2,0,.3,0,.2,0,.5-.1.6-.4l1.2-2.6,1,.9c.1.1.3.2.5.2.2,0,.3,0,.5-.2.3-.2.3-.7,0-.9,0,0,0,0,0,0Z"/>
      <path id="elvczkwffaqdd" class="st1" d="M245.9,142.4c0,1.4,1.1,1.9,2.4,1.2l52.7-30.4c1.4-.8,2.2-2.3,2.4-3.9,0-1.4-1-1.9-2.4-1.2l-52.7,30.4c-1.4.9-2.2,2.3-2.4,3.9Z"/>
      <path id="eln4q7p00292" class="st13" d="M245.9,142.4c0,1.4,1.1,1.9,2.4,1.2l29.4-17c1.4-.8,2.2-2.3,2.4-3.9,0-1.4-1-1.9-2.4-1.2l-29.4,17c-1.4.9-2.2,2.3-2.4,3.9Z"/>
      <path id="elz15skrakwwo" class="st18" d="M246.6,125.9s0,0,.1,0c0,0,0,.1,0,.2v.8c0,0,0,.2,0,.2,0,0,0,.1-.1.2l-.6.3s0,0-.1,0c0,0,0,0,0,0,0,0,0-.1,0-.2v-.8c0,0,0-.2,0-.2,0,0,0-.1.1-.2l.6-.4ZM246.8,133.2c0,0,0,.2,0,.2,0,0,0,.1-.1.2l-.5.3s0,0-.1,0c0,0,0-.1,0-.2v-5.1c0,0,0-.2,0-.2,0,0,0-.1.1-.2l.5-.3s0,0,.1,0c0,0,0,.1,0,.2v5.1Z"/>
      <path id="elmt7j6mxb46k" class="st18" d="M248.7,127.3c.1-.3.2-.5.4-.7.1-.2.3-.3.5-.5.2-.2.5-.2.7-.2.2,0,.4.2.4.4,0-.2.1-.4.2-.5,0-.2.2-.3.3-.5,0-.1.2-.2.3-.4,0,0,.2-.2.3-.2.2-.1.4-.2.7-.2.2,0,.3.2.4.3.1.2.2.4.2.7,0,.3,0,.6,0,.9v2.9c0,0,0,.2,0,.2,0,0,0,.1-.1.2l-.5.3s0,0-.1,0c0,0,0-.1,0-.2v-2.9c0-.3,0-.6-.2-.9-.1-.1-.3-.1-.5,0-.2.1-.4.3-.5.6-.2.4-.2.7-.2,1.1v2.9c0,0,0,.2,0,.2,0,0,0,.1-.1.2l-.5.3s0,0-.1,0c0,0,0-.1,0-.2v-2.9c0-.3,0-.6-.2-.9-.1-.1-.3-.1-.5,0-.2.1-.4.3-.5.6-.2.4-.2.8-.2,1.1v2.9c0,0,0,.2,0,.2,0,0,0,.1-.1.2l-.5.3s0,0-.1,0c0,0,0-.1,0-.2v-5.1c0,0,0-.2,0-.2,0,0,0-.1.1-.2l.5-.3s0,0,.1,0c0,0,0,0,0,0,0,0,0,0,0,.2v.2Z"/>
      <path id="el9f6o7tao0g9" class="st18" d="M254.3,125c0-.2,0-.4.1-.6.2-.5.4-.9.8-1.3.2-.2.4-.4.6-.5.2-.1.4-.2.7-.2.2,0,.4,0,.5.1.2.1.3.3.3.5,0,.3.1.6.1.9v3.2c0,0,0,.2,0,.2,0,0,0,.1-.1.2l-.5.3s0,0-.1,0c0,0,0,0,0,0,0,0,0-.1,0-.2v-.4c-.1.3-.2.5-.4.8-.2.3-.4.5-.7.6-.2.1-.4.2-.6.2-.1,0-.3,0-.4-.1-.1-.1-.2-.2-.2-.4,0-.2,0-.4,0-.6,0-.5.1-1,.4-1.4.2-.4.5-.8.9-1.1l1.2-1c0-.3,0-.5-.2-.5-.2,0-.3,0-.5,0-.1,0-.2.1-.3.2,0,.1-.1.2-.2.3,0,0,0,.1-.1.2,0,0,0,0-.1,0l-.7.4s0,0-.1,0c0,0,0,0,0-.1ZM255.4,127.4c.2,0,.3-.2.4-.3.1-.1.2-.3.3-.5,0-.2.1-.3.2-.5,0-.2,0-.3,0-.5h0c0-.1-1,.7-1,.7-.2.1-.3.3-.4.5,0,.1-.1.3-.1.5,0,.1,0,.2.1.2.1,0,.3,0,.4-.1h0Z"/>
      <path id="eli17p908a6dp" class="st18" d="M259.9,127.1c.1,0,.2-.2.3-.2.1-.1.2-.2.3-.4,0-.2.2-.3.2-.5,0-.2,0-.4,0-.6v-.4c0,0,0,.2-.1.3,0,.1-.1.2-.2.3,0,.1-.2.2-.3.3-.1.1-.3.2-.4.3-.2.1-.4.2-.6.2-.2,0-.4-.1-.5-.3-.1-.2-.3-.4-.3-.6,0-.3-.1-.6-.1-.9v-.8c0-.3,0-.7.1-1,0-.3.2-.7.3-1,.1-.3.3-.6.5-.8.2-.2.4-.4.6-.6.1,0,.3-.1.4-.2,0,0,.2,0,.3,0,0,0,.2,0,.2,0h.1c0,.1,0-.1,0-.1,0,0,0-.2,0-.2,0,0,0-.1.1-.2l.5-.3s0,0,.1,0c0,0,0,.1,0,.2v5.1c0,.8-.1,1.6-.5,2.3-.3.6-.7,1.1-1.3,1.4-.2.1-.4.2-.7.2-.2,0-.4,0-.5,0-.2,0-.3-.2-.4-.4,0-.2-.1-.4-.1-.6,0,0,0-.2,0-.2,0,0,0-.1.1-.2l.5-.3s.1,0,.2,0c0,0,0,0,0,0h.1c0,.2.2.3.3.3.2,0,.3,0,.5-.2ZM259.1,123.3c0,.2,0,.4,0,.6,0,.4.1.7.3.8.2.1.4.1.6,0,.2-.2.4-.4.6-.7.2-.3.3-.7.3-1.1v-.8c0-.3,0-.5-.3-.7-.2-.1-.4-.1-.6,0-.3.2-.5.4-.6.7-.2.4-.3.8-.3,1.2h0Z"/>
      <path id="elc8d5lz6rod" class="st18" d="M262.5,121.7c0-.4,0-.8.1-1.2,0-.4.2-.8.4-1.1.1-.3.3-.6.5-.9.2-.3.4-.5.7-.6.2-.1.5-.2.7-.2.2,0,.4.1.5.3.2.2.3.4.4.7,0,.3.1.7.1,1v.5c0,0,0,.2,0,.2,0,0,0,.1-.1.2l-2.4,1.4c0,.1,0,.3,0,.4,0,0,.1.2.2.2,0,0,.2,0,.3,0,.1,0,.2,0,.3-.1.1,0,.3-.2.4-.3,0,0,.2-.2.2-.3,0,0,0-.1.1-.2,0,0,0,0,.1-.1l.6-.3s0,0,.1,0c0,0,0,0,0,0,0,0,0,.1,0,.2,0,.2,0,.3-.1.5,0,.2-.2.4-.3.6-.1.2-.3.5-.5.7-.2.2-.4.4-.7.6-.2.1-.5.2-.7.2-.2,0-.4-.1-.5-.3-.2-.2-.3-.5-.4-.7,0-.4-.1-.7-.1-1.1ZM264.2,119c-.1,0-.3.2-.4.3-.1.1-.2.2-.2.4,0,.1-.1.3-.2.4,0,.1,0,.3,0,.4l1.6-.9c0-.1,0-.2,0-.3,0,0,0-.2-.1-.2,0,0-.1-.1-.2-.1-.1,0-.3,0-.4,0h0Z"/>
      <path id="elan71nfrwqc" class="st18" d="M266.8,122.7s0,0-.1,0c0,0,0,0,0,0,0,0,0-.1,0-.2v-.7c0,0,0-.2,0-.2,0,0,0-.1.1-.2l4.1-2.4s0,0,.1,0c0,0,0,.1,0,.2v.7c0,0,0,.2,0,.2,0,0,0,.1-.1.2l-4.1,2.4Z"/>
      <path id="elhpzy23ancd" class="st18" d="M271.6,114c0,0,0-.1,0-.2,0,0,0-.2,0-.2l1.5-2.7v-.2c.2,0,.2,0,.2-.1l.5-.3s0,0,.1,0c0,0,0,0,0,0,0,0,0,.1,0,.2v7c0,0,0,.2,0,.2,0,0,0,.1-.1.2l-.6.3s0,0-.1,0c0,0,0-.1,0-.2v-5.4l-1,1.8c0,0,0,.1-.1.1,0,0,0,0-.1,0l-.4-.5Z"/>
      <path id="elo7unj2vt55n" class="st13" d="M204.5,216.5c0,0-.2,0-.2,0-.2,0-.3-.3-.3-.5v-30.6c0-.2,0-.3.2-.4l35.3-20.4c.2-.1.5,0,.7.2,0,0,0,.2,0,.2v30.6c0,.2,0,.3-.2.4l-35.3,20.4c0,0-.2,0-.2.1ZM205,185.7v29.4l34.3-19.8v-29.4l-34.3,19.8Z"/>
      <path id="elh93peyjjvb" class="st13" d="M204.5,210.4c0,0-.2,0-.2,0-.2-.1-.3-.4-.2-.7l11.8-23.1c.1-.3.4-.3.7-.2,0,0,0,0,0,0l12.8,8.2c.2.1.3.5.1.7-.1.2-.4.3-.7.2,0,0,0,0,0,0l-12.3-7.9-11.5,22.6c0,.2-.3.3-.5.3Z"/>
      <path id="elejyv1duskyv" class="st13" d="M225.2,193c0,0-.2,0-.3,0-.2-.2-.3-.5-.1-.7l6.2-9.5c.1-.2.5-.3.7-.1l8.4,5.2c.2.1.3.5.2.7s-.5.3-.7.2l-8-4.9-6,9.1c0,.1-.2.2-.3.2Z"/>
      <path id="elb5mjbz3lq96" class="st13" d="M223.9,185.3c-.3,0-.6,0-.9-.2-.7-.5-1.1-1.2-1-2.1,0-2,1.1-3.7,2.8-4.8.8-.7,2.1-.6,2.8.2.4.5.5,1.1.4,1.6,0,2-1.1,3.7-2.8,4.8-.4.3-.9.4-1.4.4ZM226.2,178.8c-.3,0-.6.1-.9.3-1.3.9-2.2,2.3-2.3,3.9-.1.6.2,1.1.7,1.3.4,0,.8,0,1-.3,1.3-.9,2.2-2.3,2.3-3.9,0-.5-.1-.9-.5-1.2-.1,0-.2,0-.4,0Z"/>
      <path id="ely2dt7ke7th" class="st18" d="M307,140.3l-1.3-1.2,1.4-3c.2-.3,0-.7-.2-.9-.3-.2-.7,0-.9.2,0,0,0,0,0,0l-1.2,2.6-1-.9c-.2-.3-.6-.3-.9,0-.3.2-.3.6,0,.9,0,0,0,0,0,0l1.3,1.2-1.4,3c-.2.3,0,.7.3.9,0,0,0,0,0,0,0,0,.2,0,.3,0,.2,0,.5-.1.6-.4l1.2-2.6,1,.9c.3.3.7.3.9,0,0,0,0,0,0,0,.3-.3.2-.7,0-.9,0,0,0,0,0,0Z"/>
      <path id="el8uztsaye0f" class="st1" d="M245.9,184.7c0,1.4,1.1,1.9,2.4,1.2l52.7-30.4c1.4-.8,2.2-2.3,2.4-3.9,0-1.4-1-1.9-2.4-1.2l-52.7,30.4c-1.4.9-2.2,2.3-2.4,3.9Z"/>
      <path id="el682t4847x4s" class="st13" d="M245.9,184.7c0,1.4,1.1,1.9,2.4,1.2l39.7-22.9c1.4-.9,2.2-2.3,2.4-3.9,0-1.4-1.1-2-2.4-1.2l-39.7,22.9c-1.4.9-2.2,2.3-2.4,3.9Z"/>
      <path id="elv79mo8r2vg" class="st18" d="M246.6,168.2s0,0,.1,0c0,0,0,0,0,0,0,0,0,.1,0,.2v.9c0,0,0,.2,0,.2,0,0,0,.1-.1.2l-.6.4s0,0-.1,0c0,0,0-.1,0-.2v-.9c0,0,0-.2,0-.2,0,0,0-.1.1-.2l.6-.4ZM246.8,175.5c0,0,0,.2,0,.2,0,0,0,.1-.1.2l-.5.3h-.1s0,0,0-.2v-5c0,0,0-.2,0-.2,0,0,0-.1.1-.2l.5-.3s0,0,.1,0c0,0,0,.1,0,.2v5Z"/>
      <path id="ele3ymticajfh" class="st18" d="M248.7,169.6c.1-.3.2-.5.4-.7.1-.2.3-.3.5-.5.2-.2.5-.2.7-.2.2,0,.4.2.4.4,0-.2.1-.4.2-.5,0-.2.2-.3.3-.5,0-.1.2-.2.3-.4,0,0,.2-.2.3-.2.2-.1.4-.2.7-.2.2,0,.3.2.4.3.1.2.2.4.2.7,0,.3,0,.6,0,.9v2.9c0,0,0,.2,0,.2,0,0,0,.1-.1.2l-.5.3s0,0-.1,0c0,0,0,0,0,0,0,0,0-.1,0-.2v-2.9c0-.3,0-.6-.2-.9-.1-.1-.3-.1-.5,0-.2.1-.4.3-.5.6-.2.3-.2.7-.2,1.1v2.9c0,0,0,.2,0,.2,0,0,0,.1-.1.2l-.5.3s0,0-.1,0c0,0,0,0,0,0,0,0,0-.1,0-.2v-2.9c0-.3,0-.6-.2-.9-.1-.1-.3-.1-.5,0-.2.1-.4.3-.5.6-.2.4-.2.7-.2,1.1v2.9c0,0,0,.2,0,.2,0,0,0,.1-.1.2l-.5.3s0,0-.1,0c0,0,0-.1,0-.2v-5.1c0,0,0-.2,0-.2,0,0,0-.1.1-.2l.5-.3s0,0,.1,0c0,0,0,.1,0,.2v.2Z"/>
      <path id="elk5qxhmc71cj" class="st18" d="M254.3,167.2c0-.2,0-.4.1-.6,0-.2.2-.4.3-.6.1-.2.3-.4.5-.6.2-.2.4-.4.6-.5.2-.1.4-.2.7-.2.2,0,.4,0,.5.1.2.1.3.3.3.5,0,.3.1.6.1.9v3.2c0,0,0,.2,0,.2,0,0,0,.1-.1.2l-.5.3s0,0-.1,0c0,0,0-.1,0-.2v-.4c-.1.3-.2.5-.4.8-.2.3-.4.5-.7.6-.2.1-.4.2-.6.2-.1,0-.3,0-.4-.1-.1-.1-.2-.2-.2-.4,0-.2-.1-.4,0-.7,0-.5.1-1,.4-1.4.2-.4.6-.8.9-1.1l1.2-1c0-.3,0-.5-.2-.5-.2,0-.3,0-.5,0-.1,0-.2.1-.3.2,0,0-.1.2-.2.3,0,0,0,.1-.1.2h-.1c0,.1-.7.5-.7.5,0,0,0,0-.1,0,0,0,0,0,0,0ZM255.4,169.6c.2,0,.3-.2.4-.4.1-.1.2-.3.3-.4,0-.2.1-.3.2-.5,0-.2,0-.3,0-.5h0c0-.1-1,.7-1,.7-.2.1-.3.3-.4.5,0,.1-.1.3-.1.5,0,.1,0,.2.1.2.1,0,.3,0,.4,0h0Z"/>
      <path id="elts5sga6jo6h" class="st18" d="M259.9,169.3c.1,0,.2-.2.3-.2.1-.1.2-.3.3-.4,0-.2.2-.3.2-.5,0-.2,0-.4,0-.6v-.4.3c-.2.1-.3.2-.4.3l-.3.3c-.1.1-.3.2-.4.3-.2.1-.4.2-.6.1-.2,0-.4-.1-.5-.3-.1-.2-.3-.4-.3-.6,0-.3-.1-.6-.1-.9v-.8c0-.3,0-.7.1-1,0-.3.2-.7.3-1,.1-.3.3-.6.5-.8.2-.2.4-.4.6-.6.1,0,.3-.1.4-.2,0,0,.2,0,.3,0,0,0,.2,0,.2,0h.1c0,.1,0-.1,0-.1,0,0,0-.2,0-.2,0,0,0-.1.2-.2l.5-.3s0,0,.1,0c0,0,0,0,0,0,0,0,0,.1,0,.2v5.1c0,.8-.1,1.6-.5,2.3-.3.6-.7,1.1-1.3,1.4-.2.1-.4.2-.7.2-.2,0-.4,0-.5,0-.2,0-.3-.2-.4-.3,0-.2-.1-.4-.1-.6,0,0,0-.2,0-.2,0,0,0-.1.1-.2l.5-.3c0,0,.1,0,.2,0h.1c0,.2.2.3.3.3.2,0,.3,0,.4-.2ZM259.1,165.6c0,.2,0,.4,0,.6,0,.3,0,.6.3.9.2.1.4.1.6,0,.2-.2.4-.4.6-.6.2-.3.3-.7.3-1.1v-.8c0-.3,0-.5-.3-.7-.2-.1-.4-.1-.6,0-.3.2-.5.4-.6.6-.2.4-.3.8-.3,1.2h0Z"/>
      <path id="elt0k1kmjwjid" class="st18" d="M262.5,163.9c0-.4,0-.8.1-1.2,0-.4.2-.8.4-1.1.1-.3.3-.7.5-.9.2-.3.4-.5.7-.6.2-.1.5-.2.7-.2.2,0,.4.1.5.3.2.2.3.4.4.7,0,.3.1.7.1,1v.5c0,0,0,.2,0,.2,0,0,0,.1-.1.2l-2.4,1.4c0,.1,0,.3,0,.4,0,0,.1.2.2.2,0,0,.2,0,.3,0,.1,0,.2,0,.3-.1.1,0,.3-.2.4-.3,0,0,.2-.2.2-.3,0,0,0-.1.1-.2,0,0,0,0,.1-.1l.6-.3s0,0,.1,0c0,0,0,.1,0,.2,0,.2,0,.3-.1.4,0,.2-.2.4-.3.6-.1.2-.3.5-.5.7-.2.2-.4.4-.7.6-.2.1-.5.2-.7.2-.2,0-.4-.1-.5-.3-.2-.2-.3-.5-.4-.7,0-.4-.1-.7-.1-1.1ZM264.2,161.3c-.1,0-.2.2-.4.3,0,.1-.2.2-.2.4,0,.1-.1.3-.2.4,0,.1,0,.3,0,.4l1.6-.9c0-.1,0-.2,0-.3,0,0,0-.2-.1-.2,0,0-.1-.1-.2-.1-.1,0-.3,0-.4.1h0Z"/>
      <path id="elqiv7vrf9u2p" class="st18" d="M266.8,164.9s0,0-.1,0c0,0,0,0,0,0,0,0,0-.1,0-.2v-.7c0,0,0-.2,0-.2,0,0,0-.1.1-.2l4.1-2.4s0,0,.1,0v.9c0,0,0,.2,0,.2,0,0,0,.1-.1.2l-4.1,2.4Z"/>
      <path id="elqbpc1k2gqx8" class="st18" d="M274,155.8c.1-.2.2-.4.3-.7,0-.2,0-.4,0-.5,0-.2,0-.5-.2-.6-.1-.1-.3-.1-.6,0-.2.1-.4.4-.6.6-.1.3-.2.6-.2.9,0,0,0,.2,0,.3,0,0,0,.1-.1.1l-.6.3s0,0-.1,0c0,0,0-.1,0-.2,0-.3,0-.7.2-1,0-.3.2-.7.4-1,.1-.3.3-.6.5-.8.2-.2.4-.4.7-.6.2-.2.5-.2.8-.2.2,0,.4.1.5.3.2.2.3.4.3.6,0,.3.1.5.1.8v.5c0,.2,0,.4-.1.6,0,.2-.1.4-.2.6-.1.3-.2.5-.4.8l-1.3,2.6,2-1.1h.1s0,.1,0,.2v.9c0,0,0,.2,0,.2,0,0,0,.1-.1.2l-3.3,1.9s0,0-.1,0c0,0,0,0,0-.2v-.7c0-.1,0-.2,0-.4,0,0,0-.2.1-.3l2-4.1Z"/>
      <path id="eljo5wnihsgz" class="st13" d="M204.5,259.9c0,0-.2,0-.2,0-.2,0-.3-.3-.2-.4v-30.6c0-.2,0-.3.2-.4l35.3-20.3c.2,0,.3,0,.5,0,.2,0,.3.3.2.4v30.6c0,.2,0,.3-.2.4l-35.3,20.4c0,0-.2,0-.2,0ZM205,229.1v29.4l34.3-19.8v-29.4l-34.3,19.8Z"/>
      <path id="elrxxylwli4go" class="st13" d="M204.5,253.8c-.3,0-.5-.2-.5-.5,0,0,0-.2,0-.2l11.8-23.1c.1-.2.4-.3.7-.2,0,0,0,0,0,0l12.8,8.2c.2.1.3.4.2.7-.1.2-.4.3-.7.2,0,0,0,0,0,0l-12.3-7.9-11.5,22.6c0,.2-.3.3-.5.3Z"/>
      <path id="el7hdr99t8moy" class="st13" d="M225.2,236.4c0,0-.2,0-.3,0-.2-.2-.3-.5-.1-.7l6.2-9.5c.1-.2.4-.3.7-.2l8.4,5.2c.2.1.3.5.2.7-.1.2-.4.3-.7.2,0,0,0,0,0,0l-8-4.9-6,9.1c0,.1-.2.2-.3.2Z"/>
      <path id="el544wq4w017y" class="st13" d="M223.9,228.7c-.3,0-.6,0-.9-.2-.7-.5-1.1-1.2-1-2.1,0-2,1.1-3.7,2.8-4.8.8-.7,2.1-.6,2.8.2.4.5.6,1.1.4,1.7,0,1.9-1.1,3.7-2.8,4.8-.4.3-.9.4-1.4.4ZM226.2,222.2c-.3,0-.6.1-.9.3-1.3.9-2.2,2.3-2.3,3.9,0,.5.1.9.5,1.2.4.2.9.1,1.3-.2,1.3-.9,2.2-2.3,2.3-3.9,0-.5-.1-.9-.5-1.2-.1,0-.3,0-.4,0h0Z"/>
      <path id="elfsybxj96j1u" class="st18" d="M307,183.7l-1.3-1.2,1.4-3c.2-.3,0-.7-.3-.9,0,0,0,0,0,0-.3-.2-.7,0-.8.3,0,0,0,0,0,0l-1.2,2.6-1-.9c-.3-.3-.7-.3-.9,0,0,0,0,0,0,0-.3.2-.3.7,0,.9,0,0,0,0,0,0l1.3,1.2-1.4,3c-.2.3,0,.7.3.9,0,0,0,0,0,0,0,0,.2,0,.3,0,.3,0,.5-.2.6-.4l1.2-2.6,1,.9c.3.3.7.3.9,0,0,0,0,0,0,0,.2-.3.2-.7,0-.9Z"/>
      <path id="elk2ch1mhg12m" class="st1" d="M245.9,228c0,1.4,1.1,1.9,2.4,1.2l52.7-30.4c1.4-.8,2.2-2.3,2.4-3.9,0-1.4-1-1.9-2.4-1.2l-52.7,30.4c-1.4.9-2.2,2.3-2.4,3.9Z"/>
      <path id="elvntgxhibbq" class="st13" d="M245.9,228c0,1.4,1.1,1.9,2.4,1.2l16.5-9.5c1.4-.8,2.2-2.3,2.4-3.9,0-1.4-1-1.9-2.4-1.2l-16.5,9.5c-1.4.9-2.2,2.3-2.4,3.9Z"/>
      <path id="el7b79lnzzvhj" class="st18" d="M246.6,211.5s0,0,.1,0c0,0,0,0,0,0,0,0,0,.1,0,.2v.9c0,0,0,.2,0,.2,0,0,0,.1-.1.2l-.6.4s0,0-.1,0c0,0,0,0,0,0,0,0,0-.1,0-.2v-.9c0,0,0-.2,0-.2,0,0,0-.1.1-.2l.6-.4ZM246.8,218.8c0,0,0,.2,0,.2,0,0,0,.1-.1.2l-.5.3s0,0-.1,0c0,0,0-.1,0-.2v-5.1c0,0,0-.2,0-.2,0,0,0-.1.1-.2l.5-.3s0,0,.1,0c0,0,0,.1,0,.2v5.1Z"/>
      <path id="elk6v0joxp8ho" class="st18" d="M248.7,212.9c.1-.3.2-.5.4-.7.1-.2.3-.3.5-.5.2-.2.5-.2.7-.2.2,0,.4.2.4.4,0-.2.1-.4.2-.5,0-.2.2-.3.3-.5,0-.1.2-.2.3-.4,0,0,.2-.2.3-.2.2-.1.4-.2.7-.2.2,0,.3.1.4.3.1.2.2.4.2.7,0,.3,0,.6,0,.9v2.9c0,0,0,.2,0,.2,0,0,0,.1-.1.2l-.5.3s0,0-.1,0c0,0,0,0,0,0,0,0,0-.1,0-.2v-2.9c0-.3,0-.6-.2-.9-.1-.1-.3-.1-.5,0-.2.1-.4.3-.5.6-.2.4-.2.7-.2,1.1v2.9c0,0,0,.2,0,.2,0,0,0,.1-.1.2l-.5.3s0,0-.1,0c0,0,0-.1,0-.2v-2.9c0-.3,0-.6-.2-.9-.1-.1-.3-.1-.5,0-.2.1-.4.3-.5.6-.2.4-.2.8-.2,1.1v2.9c0,0,0,.2,0,.2,0,0,0,.1-.1.2l-.5.3s0,0-.1,0c0,0,0-.1,0-.2v-5.1c0,0,0-.2,0-.2,0,0,0-.1.1-.2l.5-.3s0,0,.1,0c0,0,0,0,0,0,0,0,0,.1,0,.2v.2Z"/>
      <path id="elei2mwf5ysy" class="st18" d="M254.3,210.6c0-.2,0-.4.1-.6,0-.2.2-.4.3-.7.1-.2.3-.4.5-.6.2-.2.4-.4.6-.5.2-.1.4-.2.7-.2.2,0,.4,0,.5.1.2.1.3.3.3.5,0,.3.1.6.1.9v3.2c0,0,0,.2,0,.2,0,0,0,.1-.1.2l-.5.3s0,0-.1,0c0,0,0,0,0,0,0,0,0-.1,0-.2v-.4c-.1.3-.2.5-.4.8-.2.3-.4.5-.7.6-.2.1-.4.2-.6.2-.1,0-.3,0-.4-.1-.1-.1-.2-.2-.2-.4,0-.2,0-.4,0-.6,0-.5.1-1,.4-1.4.2-.4.5-.8.9-1.1l1.2-1c0-.3,0-.5-.2-.5-.2,0-.3,0-.5,0-.1,0-.2.1-.3.2,0,.1-.1.2-.2.3,0,0,0,.1-.1.2,0,0,0,0-.1.1l-.7.4s0,0-.1,0c0,0,0,0,0-.1ZM255.4,212.9c.2,0,.3-.2.4-.4.1-.1.2-.3.3-.5,0-.2.1-.3.2-.5,0-.2,0-.3,0-.5h0c0-.1-1,.7-1,.7-.2.1-.3.3-.4.5,0,.1-.1.3-.1.5,0,.1,0,.2.1.2.1,0,.3,0,.4,0h0Z"/>
      <path id="elx5yugjjkkmf" class="st18" d="M259.9,212.7c.1,0,.2-.2.3-.2.1-.1.2-.2.3-.4,0-.2.2-.3.2-.5,0-.2,0-.4,0-.6v-.4c0,0,0,.2-.1.3,0,.1-.1.2-.2.3,0,.1-.2.2-.3.3-.1.1-.3.2-.4.3-.2.1-.4.2-.6.2-.2,0-.4-.1-.5-.3-.2-.2-.3-.4-.3-.6,0-.3-.1-.6-.1-.9v-.8c0-.3,0-.7.1-1,0-.3.2-.7.3-1,.1-.3.3-.6.5-.9.2-.2.4-.4.6-.6.1,0,.3-.1.4-.2,0,0,.2,0,.3,0,0,0,.2,0,.2,0,0,0,.1,0,.1.1v-.2c0,0,0-.2,0-.2,0,0,0-.1.1-.2l.5-.3s0,0,.1,0c0,0,0,.1,0,.2v5.1c0,.8-.1,1.5-.5,2.2-.3.6-.7,1.1-1.3,1.4-.2.1-.4.2-.7.2-.2,0-.4,0-.5,0-.2,0-.3-.2-.4-.4,0-.2-.1-.4-.1-.6,0,0,0-.2,0-.2,0,0,0-.1.1-.2l.5-.3s.1,0,.2,0c0,0,0,0,0,0h.1c0,.2.2.3.3.3.2,0,.4,0,.5-.2ZM259.1,208.9c0,.2,0,.4,0,.6,0,.4.1.7.3.9.2.1.4.1.6,0,.2-.2.4-.4.6-.6.2-.3.3-.7.3-1.1v-.8c0-.3,0-.5-.3-.7-.2-.1-.4-.1-.6,0-.3.2-.5.4-.6.6-.2.4-.3.8-.3,1.2h0Z"/>
      <path id="elkvgbftz5nto" class="st18" d="M262.5,207.2c0-.4,0-.8.1-1.2,0-.4.2-.8.4-1.1.1-.3.3-.6.5-.9.2-.3.4-.5.7-.6.2-.1.5-.2.7-.2.2,0,.4.1.5.3.2.2.3.4.4.7,0,.3.1.7.1,1v.5c0,0,0,.2,0,.2,0,0,0,.1-.1.2l-2.4,1.4c0,.1,0,.3,0,.4,0,0,.1.2.2.2,0,0,.2,0,.3,0,.1,0,.2,0,.3-.1.1,0,.3-.2.4-.3,0,0,.2-.2.2-.3,0,0,0-.1.1-.2,0,0,0,0,.1-.1l.6-.3s0,0,.1,0c0,0,0,0,0,0,0,0,0,.1,0,.2,0,.2,0,.3-.1.5,0,.2-.2.4-.3.6-.1.2-.3.5-.5.7-.2.2-.4.4-.7.6-.2.1-.5.2-.7.2-.2,0-.4-.1-.5-.3-.2-.2-.3-.5-.4-.7,0-.4-.1-.7-.1-1.1ZM264.2,204.6c-.1,0-.3.2-.4.3-.1.1-.2.2-.2.4,0,.1-.1.3-.2.4,0,.1,0,.3,0,.4l1.6-.9c0-.1,0-.2,0-.3,0,0,0-.2-.1-.2,0,0-.1-.1-.2-.1-.1,0-.3,0-.4.1h0Z"/>
      <path id="elbe03js9xs8" class="st18" d="M266.8,208.2s0,0-.1,0c0,0,0,0,0,0,0,0,0-.1,0-.2v-.7c0,0,0-.2,0-.2,0,0,0-.1.1-.2l4.1-2.4s0,0,.1,0c0,0,0,.1,0,.2v.7c0,0,0,.2,0,.2,0,0,0,.1-.1.2l-4.1,2.4Z"/>
      <path id="el4fx3bv5paff" class="st18" d="M275.2,195.1h.1c0,0,0,.1,0,.2v.8c0,0,0,.2,0,.3,0,0,0,.2-.1.2l-1,2.3c.2,0,.4-.1.6,0,.2,0,.3,0,.4.2.1.1.2.3.3.5,0,.3.1.5.1.8,0,.4,0,.7-.1,1.1-.2.7-.5,1.3-1,1.8-.2.2-.5.4-.8.6-.3.2-.6.3-.9.3-.2,0-.4,0-.6-.1-.2,0-.3-.2-.4-.4,0-.2-.1-.4-.1-.6,0,0,0-.2,0-.2,0,0,0-.1.1-.2l.5-.3s0,0,.1,0c0,0,0,0,.1.1,0,0,0,.1.1.2,0,0,.1,0,.2.1,0,0,.2,0,.3,0,.2,0,.3-.1.4-.2.3-.2.5-.4.7-.7.2-.3.3-.6.3-.9,0-.3,0-.5-.3-.6-.2,0-.5,0-.7.2l-.6.3s0,0-.1,0c0,0,0,0,0,0,0,0,0-.1,0-.2v-.8c0,0,0-.2,0-.3,0,0,0-.2.1-.2l1-2.2-2,1.1s0,0-.1,0c0,0,0-.1,0-.2v-.8c0,0,0-.2,0-.2,0,0,0-.1.1-.2l3.1-1.8Z"/>
      <path id="eld9gsjfil4o7" class="st13" d="M204.5,302.1c0,0-.2,0-.2,0-.2,0-.2-.3-.2-.4v-30.6c0-.2,0-.3.2-.4l35.3-20.4c.2,0,.3,0,.5,0,.2,0,.3.3.2.4v30.6c0,.2,0,.3-.2.4l-35.3,20.4c0,0-.2,0-.2.1ZM205,271.3v29.4l34.3-19.8v-29.5l-34.3,19.8Z"/>
      <path id="elq0qquw5oiud" class="st13" d="M204.5,296c0,0-.2,0-.2,0-.2-.1-.3-.4-.2-.7l11.8-23.1c0-.1.2-.2.3-.3.1,0,.3,0,.4,0l12.8,8.2c.2.1.3.4.2.7-.1.2-.4.3-.7.2,0,0,0,0,0,0l-12.3-7.9-11.5,22.6c-.1.2-.3.3-.5.2Z"/>
      <path id="eldii5ucomg4" class="st13" d="M225.2,278.6c0,0-.2,0-.3,0-.2-.2-.3-.5-.1-.7l6.2-9.5c.1-.2.4-.3.7-.2h0s8.4,5.2,8.4,5.2c.2.1.3.4.2.7-.1.2-.5.3-.7.2l-8-4.9-6,9.1c0,.1-.2.2-.3.2Z"/>
      <path id="eltyjgxyg3rv" class="st13" d="M223.9,270.9c-.3,0-.6,0-.9-.2-.7-.4-1.1-1.2-1-2.1,0-1.9,1.1-3.7,2.8-4.8.8-.7,2.1-.6,2.8.2.4.5.5,1.1.4,1.6,0,1.9-1.1,3.7-2.8,4.8-.4.3-.9.4-1.4.4ZM226.2,264.4c-.3,0-.6.1-.9.3-1.3.9-2.2,2.3-2.3,3.9-.1.6.2,1.1.7,1.3.4,0,.8,0,1-.3,1.3-.9,2.2-2.3,2.3-3.9,0-.5-.1-.9-.5-1.2-.1,0-.3,0-.4,0Z"/>
      <path id="elfj9knzkg785" class="st18" d="M307,225.9l-1.3-1.2,1.4-3c.2-.3,0-.7-.3-.9,0,0,0,0,0,0-.3-.1-.7,0-.9.3l-1.2,2.6-1-.9c-.3-.2-.7-.2-.9,0-.3.3-.3.7,0,.9,0,0,0,0,0,0l1.3,1.2-1.4,3c-.2.3,0,.7.3.9,0,0,0,0,0,0,0,0,.2,0,.3,0,.2,0,.5-.1.6-.4l1.2-2.6,1,.9c.3.3.7.3.9,0,0,0,0,0,0,0,.3-.3.3-.7,0-.9,0,0,0,0,0,0Z"/>
      <path id="elfmeeubuq7eq" class="st1" d="M245.9,270.3c0,1.4,1.1,1.9,2.4,1.2l52.7-30.4c1.4-.8,2.2-2.3,2.4-3.9,0-1.4-1-1.9-2.4-1.2l-52.7,30.4c-1.4.9-2.2,2.3-2.4,3.9Z"/>
      <path id="elqpo4g4e79kh" class="st13" d="M245.9,270.3c0,1.4,1.1,1.9,2.4,1.2l45.9-26.5c1.4-.9,2.2-2.3,2.4-3.9,0-1.4-1.1-1.9-2.4-1.2l-45.9,26.5c-1.4.9-2.2,2.3-2.4,3.9Z"/>
      <path id="elxqq21kzs1m" class="st18" d="M246.6,253.8s0,0,.1,0c0,0,0,.1,0,.2v.9c0,0,0,.2,0,.2,0,0,0,.1-.1.2l-.6.4s0,0-.1,0c0,0,0-.1,0-.2v-.8c0,0,0-.2,0-.2,0,0,0-.1.1-.2l.6-.4ZM246.8,261.1c0,0,0,.2,0,.2,0,0,0,.1-.1.2l-.5.3h-.1s0,0,0-.2v-5.1c0,0,0-.2,0-.2,0,0,0-.1.1-.2l.5-.3s0,0,.1,0c0,0,0,.1,0,.2v5.1Z"/>
      <path id="elp2of1n7qjd" class="st18" d="M248.7,255.2c.1-.3.2-.5.4-.7.1-.2.3-.3.5-.5.2-.2.5-.2.7-.2.2,0,.4.2.4.4,0-.2.1-.4.2-.5,0-.2.2-.3.3-.5,0-.1.2-.2.3-.4,0,0,.2-.2.3-.2.2-.1.4-.2.7-.2.2,0,.3.2.4.3.1.2.2.4.2.7,0,.3,0,.6,0,.9v2.9c0,0,0,.2,0,.2,0,0,0,.1-.1.2l-.5.3s0,0-.1,0c0,0,0-.1,0-.2v-2.9c0-.3,0-.6-.2-.9-.1-.1-.3-.1-.5,0-.2.1-.4.3-.5.6-.2.3-.2.7-.2,1.1v2.9c0,0,0,.2,0,.2,0,0,0,.1-.1.2l-.5.3s0,0-.1,0c0,0,0,0,0,0,0,0,0-.1,0-.2v-2.9c0-.3,0-.6-.2-.9-.1-.1-.3-.1-.5,0-.2.1-.4.3-.5.6-.2.4-.2.8-.2,1.2v2.9c0,0,0,.2,0,.2,0,0,0,.1-.1.2l-.5.3s0,0-.1,0c0,0,0-.1,0-.2v-5.1c0,0,0-.2,0-.2,0,0,0-.1.1-.2l.5-.3s0,0,.1,0c0,0,0,.1,0,.2v.3Z"/>
      <path id="elaqphh4spya" class="st18" d="M254.3,252.8c0-.2,0-.4.1-.6,0-.2.2-.4.3-.6.1-.2.3-.4.5-.6.2-.2.4-.4.6-.5.2-.1.4-.2.7-.2.2,0,.4,0,.5.1.2.1.3.3.3.5,0,.3.1.6.1.9v3.2c0,0,0,.2,0,.2,0,0,0,.1-.1.2l-.5.3s0,0-.1,0c0,0,0-.1,0-.2v-.4c-.1.3-.2.5-.4.8-.2.3-.4.5-.7.6-.2.1-.4.2-.6.2-.1,0-.3,0-.4-.1-.1-.1-.2-.2-.2-.4,0-.2,0-.4,0-.6,0-.5.1-1,.4-1.4.2-.4.6-.8.9-1.1l1.2-1c0-.3,0-.5-.2-.5-.2,0-.3,0-.5,0-.1,0-.2.1-.3.2,0,0-.1.2-.2.3,0,0,0,.1-.1.2,0,0,0,0-.1.1l-.7.4s0,0-.1,0c0,0,0,0,0-.1ZM255.4,255.2c.2,0,.3-.2.4-.4.1-.1.2-.3.3-.5,0-.2.1-.3.2-.5,0-.2,0-.3,0-.5h0c0-.1-1,.7-1,.7-.2.1-.3.3-.4.5,0,.1-.1.3-.1.5,0,.1,0,.2.1.2.1,0,.3,0,.4,0h0Z"/>
      <path id="el8sv7bnj6gx9" class="st18" d="M259.9,254.9c.1,0,.2-.2.3-.2.1-.1.2-.3.3-.4,0-.2.2-.3.2-.5,0-.2,0-.4,0-.6v-.4c0,0,0,.2-.1.3,0,.1-.1.2-.2.3l-.3.3c-.1.1-.3.2-.4.3-.2.1-.4.2-.6.1-.2,0-.4-.1-.5-.3-.1-.2-.3-.4-.3-.6,0-.3-.1-.6-.1-.9v-.8c0-.3,0-.7.1-1,0-.3.2-.7.3-1,.1-.3.3-.6.5-.8.2-.2.4-.4.6-.6.1,0,.3-.1.4-.2,0,0,.2,0,.3,0,0,0,.2,0,.2,0h.1c0,.1,0-.1,0-.1,0,0,0-.2,0-.2,0,0,0-.1.1-.2l.5-.3s0,0,.1,0c0,0,0,0,0,0,0,0,0,.1,0,.2v5.1c0,.8-.1,1.6-.5,2.3-.3.6-.7,1.1-1.3,1.4-.2.1-.4.2-.7.2-.2,0-.4,0-.5,0-.1,0-.3-.2-.4-.4,0-.2-.1-.4-.1-.6,0,0,0-.2,0-.2,0,0,0-.1.1-.2l.5-.3c0,0,.1,0,.2,0h.1c0,.2.2.3.3.3.2,0,.4,0,.5-.2ZM259.1,251.2c0,.2,0,.4,0,.6,0,.3,0,.6.3.9.2.1.4.1.6,0,.2-.2.4-.4.6-.6.2-.3.3-.7.3-1.1v-.8c0-.3,0-.5-.3-.7-.2-.1-.4-.1-.6,0-.3.2-.5.4-.6.6-.2.4-.3.8-.3,1.2h0Z"/>
      <path id="elff0r445uqao" class="st18" d="M262.5,249.5c0-.4,0-.8.1-1.2,0-.4.2-.8.4-1.1.1-.3.3-.7.5-.9.2-.3.4-.5.7-.6.2-.1.5-.2.7-.2.2,0,.4.1.5.3.2.2.3.4.4.7,0,.3.1.7.1,1v.5c0,0,0,.2,0,.2,0,0,0,.1-.1.2l-2.4,1.4c0,.1,0,.3,0,.4,0,0,.1.2.2.2,0,0,.2,0,.3,0,.1,0,.2,0,.3-.1.1,0,.3-.2.4-.3,0,0,.2-.2.2-.3,0,0,0-.1.1-.2,0,0,0,0,.1-.1l.6-.3s0,0,.1,0c0,0,0,.1,0,.2,0,.2,0,.3-.1.4,0,.2-.2.4-.3.6-.1.2-.3.5-.5.7-.2.2-.4.4-.7.6-.2.1-.5.2-.7.2-.2,0-.4-.1-.5-.3-.2-.2-.3-.5-.4-.7,0-.4-.1-.7-.1-1.1ZM264.2,246.9c-.1,0-.2.2-.4.3,0,.1-.2.2-.2.4,0,.1-.1.3-.2.4,0,.1,0,.3,0,.4l1.6-.9c0-.1,0-.2,0-.3,0,0,0-.2-.1-.2,0,0-.1-.1-.2-.1-.1,0-.3,0-.4.1h0Z"/>
      <path id="elo2xclrpe6ta" class="st18" d="M266.8,250.5s0,0-.1,0c0,0,0,0,0,0,0,0,0-.1,0-.2v-.7c0,0,0-.2,0-.2,0,0,0-.1.1-.2l4.1-2.4s0,0,.1,0v.9c0,0,0,.2,0,.2,0,0,0,.1-.1.2l-4.1,2.4Z"/>
      <path id="el4a4z2sltqn" class="st18" d="M274.2,245.6s0,0-.1,0c0,0,0,0,0,0,0,0,0-.1,0-.2v-1.3l-2.2,1.3s0,0-.1,0c0,0,0-.1,0-.2v-.8c0,0,0-.2,0-.3,0-.1,0-.2.1-.3l2.2-5.4c0-.2.1-.3.3-.4l.5-.3s0,0,.1,0c0,0,0,.1,0,.2v4.4l.6-.4s0,0,.1,0c0,0,0,0,0,0,0,0,0,.1,0,.2v.8c0,0,0,.2,0,.2,0,0,0,.1-.1.2l-.6.4v1.3c0,0,0,.2,0,.2,0,0,0,.1-.1.2l-.5.3ZM274,242.7v-2.3l-1.2,3,1.2-.7Z"/>
    </g>
  </g>
  <g id="freepik--Plants--inject-61">
    <g id="freepik--plants--inject-61">
      <path id="elpocuk81gea" class="st0" d="M101.8,398.5l10.7-6.2s9.7-20.3,5.9-40.5c-4.2-22.1-13.6-27.3-19.8-24.8s-8.7,10.1-.2,25.5c7,12.5,7,29.2,3.4,45.9Z"/>
      <path id="el7gchz2epu8p" class="st12" d="M106.9,396.1c.2,0,.4-.1.5-.3,6.9-21.1,7.2-50.7-5.9-64.1-.2-.2-.5-.2-.7,0-.2.2-.2.4,0,.6,12.3,12.6,12.5,42,5.6,63.1,0,.3,0,.5.3.6,0,0,0,0,.2,0Z"/>
      <path id="eln74y6apn1js" class="st0" d="M82.6,409.6c-1.1.6-3.4-.8-4.3-1.3-1.5-1-2.7-2.4-3.5-4-.9-1.9-1.2-4-.9-6,.2-1.1.4-2.1.8-3.2.3-1,.6-2,.9-3.1.4-1,.5-2,.4-3.1-.3-2.1-2.1-3.6-3.8-4.8-1.9-1.4-3.8-3.3-3.8-5.8.1-2,.9-3.8,2.2-5.3,1.2-1.5,2.6-2.9,3.7-4.5.9-1.1,1.3-2.5,1.3-3.9-.1-.9-.4-1.7-.9-2.5-1-1.6-2-3.2-2.7-4.9-.6-1.8-.5-4,.9-5.2,1.2-.9,2.8-1.3,4.3-1.1,1.4.2,2.8.7,4,1.4,4,2.2,6.3,7,10.6,8.7,1.7.5,3.5.9,5.2,1.3,1.8.3,3.3,1.4,4.2,2.9,1.6,3.1-1.3,7-.2,10.3,1,2.9,3.8,4.1,5.4,6.7.7,1.2.9,2.5.8,3.8-.1,2.2-.7,4.4-1.6,6.5-1,2-2.2,4-3.6,5.9,0,0-19.3,11.1-19.4,11.2Z"/>
      <path id="elz3yyv46d9np" class="st12" d="M94.1,403.4c.2,0,.4-.2.4-.4,2.1-16.4-5.8-38.5-17.4-49.3-.2-.2-.4-.2-.6,0-.2.2-.2.4,0,.6,0,0,0,0,0,0,11.6,10.7,19.2,32.4,17.2,48.6,0,.2.1.4.4.5h0Z"/>
      <path id="el0aax4v64qp9" class="st12" d="M92.1,382.4c.1,0,.3,0,.3-.2.1-.2.1-.5,0-.6,0,0,0,0,0,0-6.4-4.8-16.3-4-16.7-4-.2,0-.4.2-.4.5,0,0,0,0,0,0,0,.2.2.4.5.4,0,0,0,0,0,0,0,0,9.9-.9,16.1,3.8,0,0,.2,0,.3,0Z"/>
      <path id="el286fe1qi2yw" class="st12" d="M91.1,378.4c.2,0,.4-.2.4-.4.3-4.7,2.5-9,6-12.1.2-.2.2-.5,0-.6-.1-.1-.3-.2-.5,0-3.8,3.2-6.1,7.8-6.3,12.8,0,.2.2.4.4.5h0Z"/>
    </g>
  </g>
  <g id="freepik--Character--inject-61">
    <g id="freepik--character--inject-61">
      <path id="elqgh87cdl8mr" class="st17" d="M360.7,174.6c-.3,5.2-1.4,27.3-1,29.5.6,3.9,12.5,21.4,12.5,21.4,0,0,.8,7-8.7,10.1-2.8-5-12.6-19.9-14.5-24.3-.9-2.5-1.1-5.2-.8-7.8.9-10.3,3.4-25.4,3.6-28.8h8.9Z"/>
      <path id="eli6xidcaka39" class="st13" d="M374.1,223.6c-.8-.8-4.3-3.4-5.5-5.1-4-5.6-6.4-10-6.4-10-4-.4-10.2,4.9-10.1,10.1,2.2,5.1,6.8,11.6,10.7,17.3l11.3-12.4Z"/>
      <polygon id="eltjqdobcmgv" class="st17" points="397.7 382.3 390.5 382.5 390.2 368.5 397.3 368.2 397.7 382.3"/>
      <path id="elxjv0r2giij" class="st10" d="M390.5,379v-1c-.7.3-2.6,5.7-4.8,9-1.7,2.5-6.6,5.5-7.3,7.8s4.4,3.6,6.5,3.1c2.4-.5,6.1-1.6,8.5-4.3,1.3-1.4,2-4.6,2.8-5.8s2.8-2.5,3.2-3.9c.1-1.3,0-2.5-.5-3.7-.4-1.2-.8-2.6-1.2-2.5v.8c-1,.8-2.2,1.3-3.5,1.3-1.1,0-3.6,0-3.6-.8Z"/>
      <polygon id="el41kw07s97dy" class="st17" points="375.7 370.1 368.6 370.5 367.9 355.8 375.4 355.3 375.7 370.1"/>
      <path id="eld5v701x4ay" class="st10" d="M368.5,367.9c-.8.3-1.4.9-1.9,1.6-1.4,1.6-3.1,2.9-5,3.9-3.6,1.9-7.3,3.5-11.1,4.9-1.5.5-2,2.7.5,4.4,2.8,1.9,6.1,1.6,10.5.5,2.4-.6,6.4-3.3,8.6-3.7,1.9-.4,5.7-.5,7.5-2.2.3-1.5.3-3.1,0-4.6-.5-2-1.2-5.1-1.8-5v.7c-.8,1.3-5.2,2-7.1,1.1v-1.5Z"/>
      <path id="elrjpg3wa7nuj" class="st0" d="M396.4,273.8c.2,6.8,1,53.7,1,53.7.2,2,2.2,5.4,2.5,12.4.5,10.2-2.1,34.4-2.1,34.4-2.5,1.3-5.4,1.4-7.9.4,0,0-4.8-34-6.4-44.1-1.4-9.3-1.7-8.6-4.2-32.4l-2.2,20.9c.9,3.7,1.3,7.5,1.2,11.3-.2,4.7-2.1,33.7-2.1,33.7-2.5,1.5-5.5,1.8-8.2.9,0,0-4.7-41.2-5-45.5-.2-4.9-1-47.6-1-47.6l34.4,1.8Z"/>
      <path id="elnyeqg5rlv" class="st9" d="M377.6,289.6s-3.3-.6-7.6-4.6c0,0,1.2,3.2,5.9,5.6l1.7,7.6-.4,18.5,2-18.5-1.6-8.7Z"/>
      <path id="elyyixjb6u53q" class="st14" d="M393.1,227.3c3.6,2.1,4.9,3.4,5.5,5,.6,1.4,1.2,1.5,1.2,4.2l-3.8,18,.4,19.3c-10.2,5.4-23.5,6.2-34.4-1.8,0,0-.9-32.1.4-37.8s4.5-10.8,9.8-12c1.9-.4,16.4,2.7,16.4,2.7,0,0,2.1.9,4.6,2.4Z"/>
      <circle id="el42c9dd3zh1p" class="st10" cx="375.9" cy="199.7" r="9.8"/>
      <path id="el5a2x75dwhr7" class="st10" d="M392.8,206.6s-1.6,7.4-2.2,8.7c-.4.8-1.1,1.3-2,1.6v-5.2c.1,0,4.2-5,4.2-5Z"/>
      <path id="el6bmtcsub0w7" class="st10" d="M390.8,196c1.1-.1,2.2.3,3,1.1,1.3,1.3.6,5.5-1,9.6l-3,.3,1-11Z"/>
      <path id="elxwubxms4coc" class="st17" d="M388.9,207c.6.4,1.5-.8,2.2-1.6s3.1-1.8,4.4.7-1.1,6-3,6.6c-3.3,1-3.8-1.1-3.8-1.1l-.2,13.2h0c-4.1,5.2-15.4,4.8-10.6-.6v-4.7c-1.4.1-2.7.1-4.1,0-2.4-.4-3.9-2.1-4.6-4.6-1-3.4-1.5-9.2-1-15.8.8-9,11.6-9.1,17.2-5.5s3.6,13.4,3.6,13.4Z"/>
      <path id="el2iclmk2cbm9" class="st10" d="M388.9,208c.3,0,1.4-1.9,2.2-2.6,1-.9-.3-9.4-.3-9.4.6-1.5.2-3.2-1-4.3-1.4-1.6-3-2.5-7-2.8-2.8,0-5.6.1-8.4.4-4,.3-5.5-.7-7.8-1.4s-2.5,5.6,2.5,8c0,0,1.5.9,5.3,1.4,3.5.3,7.1.2,10.6-.2,1.1-.1,1.4.9,2,3.9.5,2.6.9,7,1.9,7Z"/>
      <path id="elalo9u69mmsq" class="st10" d="M390.8,196.6l3.6-1.9c-.5-1-1.7-1.4-2.7-.9,0,0,0,0,0,0-1,.6-1.4,1.8-.9,2.8Z"/>
      <path id="elfxsn61crvb5" class="st11" d="M377.9,219.5s5.4-1.1,7.2-2.1c1.1-.6,2-1.5,2.6-2.6-.3,1.1-.8,2.1-1.5,3-1.4,1.8-8.4,3.1-8.4,3.1v-1.4Z"/>
      <path id="elmgf0eyf5o9p" class="st10" d="M378.1,205.6c0,.6.5,1.1,1.1,1,.6,0,1.1-.5,1-1.1,0-.6-.5-1-1.1-1-.6,0-1.1.5-1.1,1.1Z"/>
      <path id="elc5tsbu9y0a" class="st10" d="M379.3,201.6l2.3,1.3c.4-.7,0-1.5-.6-1.8h0c-.6-.3-1.4,0-1.7.6,0,0,0,0,0,0Z"/>
      <path id="elfdqnch27zoq" class="st11" d="M378.4,213.1l-2.5.9c.2.7.9,1.1,1.6.8,0,0,0,0,0,0,.7-.3,1-1,.8-1.7Z"/>
      <path id="elph105n93xc" class="st10" d="M368.9,202.5l2.1-1.6c-.4-.6-1.2-.7-1.8-.3,0,0,0,0,0,0-.6.5-.7,1.3-.3,1.9Z"/>
      <path id="elw20hwg7e3ua" class="st10" d="M369.5,205.3c0,.6.4,1.1,1,1.2.6,0,1.1-.4,1.2-1,0,0,0-.1,0-.2,0-.6-.5-1.1-1-1.1,0,0,0,0,0,0-.6,0-1.1.5-1.1,1.1Z"/>
      <polygon id="elmeai4xmss6q" class="st11" points="375 204.3 374.6 210.8 371.2 209.6 375 204.3"/>
      <path id="elqlkl278im2" class="st0" d="M352.6,68.6v74.6c0,.9.5,1.7,1.2,2.1l74.2,42.9c.7.4,1.2,0,1.2-.7v-3.9l-72.7-42v-72.2l-2.7-1.6c-.7-.4-1.3,0-1.3.7Z"/>
      <path id="elx6x4t65sx1b" class="st13" d="M374.4,100.3c0,0,.2-.1.2-.2h0l4.6-2.7h0c.7-.4,1.6-.2,2.1.5l16.4,40.4,10.9-7.2c0,0,.1-.1.2-.2h0l4.5-2.6h0c.7-.4,1.6-.2,2.1.5l15.9,32.2v21.3l-4.6,2.7-71.4-41.2c-.8-.5-1.3-1.3-1.3-2.3v-20.3l20.4-20.9Z"/>
      <g id="elwdvnqq2l4vi">
        <path class="st4" d="M374.4,100.3c0,0,.2-.1.2-.2h0l4.6-2.7h0c.7-.4,1.6-.2,2.1.5l16.4,40.4,10.9-7.2c0,0,.1-.1.2-.2h0l4.5-2.6h0c.7-.4,1.6-.2,2.1.5l15.9,32.2v21.3l-4.6,2.7-71.4-41.2c-.8-.5-1.3-1.3-1.3-2.3v-20.3l20.4-20.9Z"/>
      </g>
      <path id="elcafqzv38ri" class="st13" d="M426.9,184.9v-21.3l-15.9-32.2c-.5-.7-1.4-.9-2.2-.4,0,0-.1,0-.2.1l-15.2,10-16.7-40.6c-.5-.7-1.4-.9-2.2-.5,0,0-.2.1-.2.2l-20.2,20.9v20.2c0,.9.5,1.8,1.3,2.3l71.4,41.3Z"/>
      <g id="elsgzw5w3qs">
        <polygon class="st4" points="393.5 141.1 398.3 152.8 395.2 140 393.5 141.1"/>
      </g>
      <path id="elbts6c311rr" class="st18" d="M349.6,64.2v93.3c0,.9.5,1.7,1.2,2.1l79.5,45.9c0,0,.1,0,.2.1h0c.7.3,1.5.2,2.2-.1l2.2-1.2c.7-.5,1.2-1.3,1.2-2.1v-93.3c0-.4-.1-.8-.4-1.2-.2-.4-.5-.7-.9-.9l-79.5-45.9c-.8-.4-1.7-.4-2.5,0l-2.2,1.2c-.6.4-1,1.1-1.2,1.8v.2c0,0,0,.2,0,.2ZM352.6,68.6c0-.8.5-1.1,1.2-.7l74.2,42.9c.4.2.7.5.9.9.2.4.3.8.4,1.2v74.6c0,.8-.5,1.1-1.2.7l-74.2-42.9c-.7-.5-1.2-1.3-1.2-2.1v-74.6Z"/>
      <path id="els2yftb98ww" class="st0" d="M430.6,205.7c.7.3,1.5.2,2.2-.1l2.2-1.2c.7-.5,1.2-1.3,1.2-2.1v-93.3c0-.4-.1-.8-.4-1.2l-4.6,2.7c.2.4.3.8.4,1.2v93.3c0,.7-.4,1-.9.8Z"/>
      <path id="elt4y35bic0w" class="st0" d="M349.6,64.2v93.3c0,.9.5,1.7,1.2,2.1l79.5,45.9c0,0,.1,0,.2.1h0c.5.2,1-.2,1-.8v-93.3c0-.4-.1-.9-.4-1.2-.2-.4-.5-.7-.9-.9l-79.5-45.9c-.6-.3-1-.2-1.2.4v.2s0,.1,0,.2ZM352.6,68.6c0-.8.5-1.1,1.2-.7l74.2,42.9c.4.2.7.5.9.9.2.4.3.8.4,1.2v74.6c0,.8-.5,1.1-1.2.7l-74.2-42.9c-.7-.5-1.2-1.3-1.2-2.1v-74.6Z"/>
      <path id="eluyzayqsvuzg" class="st13" d="M400.2,111.6l-1.8-3,3.7-2.1h0c1.2-.5,2.5-.4,3.5.3,2.9,1.9,4.8,5.1,5,8.6.1,1.2-.4,2.5-1.4,3.2h0l-3.6,2.1-1.7-2.9c-1.9-1.6-3.2-3.8-3.7-6.2Z"/>
      <g id="el2xrpm29155s">
        <path class="st4" d="M400.2,111.6l-1.8-3,3.7-2.1h0c1.2-.5,2.5-.4,3.5.3,2.9,1.9,4.8,5.1,5,8.6.1,1.2-.4,2.5-1.4,3.2h0l-3.6,2.1-1.7-2.9c-1.9-1.6-3.2-3.8-3.7-6.2Z"/>
      </g>
      <path id="elop03ymc71s" class="st13" d="M402,108.9c-2.8-1.6-5-.3-5,2.9.2,3.5,2.1,6.7,5,8.6,2.8,1.6,5,.3,5-2.9-.2-3.5-2.1-6.7-5-8.6Z"/>
      <path id="el4qmebo5oze" class="st13" d="M410.1,228c1-.2,2.1,3.1,2.5,5.9s.9,7.1-.4,7.6-3.3-3.3-4-6.4-.4-7,1.9-7.2Z"/>
      <g id="elrlsib8az1kd">
        <path class="st2" d="M410.1,228c1-.2,2.1,3.1,2.5,5.9s.9,7.1-.4,7.6-3.3-3.3-4-6.4-.4-7,1.9-7.2Z"/>
      </g>
      <path id="el9aq1ltbv015" class="st17" d="M421.9,201h0c-.5-.2-1.5-1.2-2.1-5.1-.4-2.6-.6-3.7-1.8-4.1s-.8.9-1.1,3.9c-.3,2.9-1.1,6.8-.7,10,.2,3.8,0,7.6-.8,11.3-.6,4.2-2.4,10.5-2.4,10.5-1.3,1.4-18.8,4.6-18.8,4.6-3.6,6.7,1,13.7,1,13.7,11-3.2,15.3-4.9,20.9-6.7,4.1-1.4,5.2-2.1,5.9-4.9,1.5-6.7,2-16.9,2.5-21.9.4-3.5,4.3-4.7,5-6.7l-7.6-4.4Z"/>
      <path id="eln2t9ulky5yt" class="st13" d="M395.5,229.2c-1.5.5-2.6,1.6-3.1,3-.5,1.5-2.5,12.9,4.1,14.6.6,0,3.7-1.3,8-2.5,2.6-.7,5.2-1.7,7.7-2.7-2.6-.4-5-11.7-2.1-13.5l-14.6,1.2Z"/>
      <path id="elhx7tg9ys74s" class="st17" d="M365.5,168.4c-.9-.6,0-3.2.2-6.1.2-3.1.9-4.2-.4-4s-1.6,1.2-2.5,3.7c-.4,1.3-1,2.6-1.9,3.7l-5.4-3.2c-1.6,1.9-3.1,3-3.4,6.3-.5,5.7-.6,7.1-1.1,11.6s9.6-5,9.6-5c.4-3.6,4.6-4.8,5.3-6.7l-.5-.3h0Z"/>
    </g>
  </g>
</svg>