<?xml version="1.0" encoding="UTF-8"?>
<svg id="freepik_stories-image-upload" data-name="freepik stories-image-upload" xmlns="http://www.w3.org/2000/svg" viewBox="0 0 437.18 448.46">
  <defs>
    <style>
      .cls-1 {
        fill: #036;
      }

      .cls-2 {
        fill: #e0e0e0;
      }

      .cls-3 {
        opacity: .3;
      }

      .cls-3, .cls-4, .cls-5, .cls-6, .cls-7 {
        isolation: isolate;
      }

      .cls-4 {
        opacity: .1;
      }

      .cls-5, .cls-6 {
        opacity: .15;
      }

      .cls-8 {
        fill: #e6e6e6;
      }

      .cls-9 {
        fill: #ebebeb;
      }

      .cls-10 {
        fill: #37474f;
      }

      .cls-11 {
        fill: #263238;
      }

      .cls-12 {
        fill: #f28f8f;
      }

      .cls-13, .cls-7 {
        fill: #fff;
      }

      .cls-14, .cls-6 {
        fill: #f60;
      }

      .cls-15 {
        fill: #f0f0f0;
      }

      .cls-16 {
        fill: #fafafa;
      }

      .cls-17 {
        fill: #f5f5f5;
      }

      .cls-18 {
        fill: #ffa8a7;
      }

      .cls-19 {
        fill: #455a64;
      }

      .cls-7 {
        opacity: .4;
      }
    </style>
  </defs>
  <g id="freepik--Floor--inject-61">
    <ellipse id="freepik--floor--inject-61" class="cls-17" cx="218.59" cy="328.3" rx="218.59" ry="120.16"/>
  </g>
  <g id="freepik--Shadows--inject-61">
    <ellipse id="freepik--Shadow--inject-61" class="cls-2" cx="347.41" cy="351.62" rx="38.17" ry="22.04"/>
    <path id="freepik--shadow--inject-61" class="cls-2" d="M30.48,369.8l-8.25-4.77c-2.6-1.5-2.6-3.93,0-5.43l246.76-142.47c2.96-1.5,6.46-1.5,9.42,0l8.24,4.76c2.6,1.51,2.6,3.94,0,5.44L39.89,369.8c-2.96,1.5-6.45,1.5-9.41,0Z"/>
  </g>
  <g id="freepik--Clouds--inject-61">
    <g id="freepik--clouds--inject-61">
      <path id="el5mdrm54zm1f" class="cls-9" d="M69.17,34.23l-7.11,4.13c.04-.36.06-.72.06-1.08v-2.4c0-4.23-2.57-6.18-5.75-4.35-1.4.88-2.57,2.08-3.42,3.5-.52-5.37-4.14-7.67-8.53-5.14-4.75,2.74-8.6,10.1-8.6,16.43v3.56c-.03,1.43.22,2.85.72,4.18l-5.9,3.41c-1.97,1.41-3.15,3.67-3.19,6.09,0,2.35,1.43,3.43,3.19,2.41l38.53-22.24c1.97-1.41,3.15-3.67,3.19-6.09,0-2.35-1.43-3.42-3.19-2.41Z"/>
      <path id="el99x5he1u24v" class="cls-9" d="M114.84,46.65l-5.36,3.1c.01-.27.01-.55,0-.82v-1.79c0-3.2-1.94-4.67-4.33-3.28-1.06.66-1.95,1.57-2.59,2.64-.39-4-3.12-5.79-6.43-3.88-3.59,2.07-6.49,7.62-6.49,12.4v2.68c-.02,1.08.17,2.15.55,3.16l-4.46,2.57c-1.48,1.07-2.37,2.77-2.4,4.6,0,1.77,1.07,2.59,2.4,1.82l29.11-16.79c1.49-1.06,2.38-2.76,2.41-4.59,0-1.77-1.08-2.59-2.41-1.82Z"/>
    </g>
  </g>
  <g id="freepik--Window--inject-61">
    <g id="freepik--window--inject-61">
      <path id="elb2kc84bwwf9" class="cls-14" d="M32.71,171.36L288.89,23.43v-15h0c0-.32-.03-.63-.09-.94,0-.04,0-.08,0-.12-.05-.25-.12-.49-.22-.72l-.06-.15c-.09-.19-.21-.37-.34-.54l-.12-.13c-.12-.14-.27-.27-.43-.37-.1-.07-.21-.13-.32-.18.05.02.09.04.13.06-.55-.34-2.15-1.26-3.83-2.23l-4.82-2.75-.12-.07-.33-.16c-1.02-.29-2.12-.11-3,.49L48.25,131.76l-19.71,11.36c-.33.19-.64.42-.94.66-2.23,1.87-3.6,4.58-3.76,7.49v15l8.83,5.1h.04Z"/>
      <path id="elq9gqcrhz3t" class="cls-17" d="M287.84,5.66l-.16-.11.16.11Z"/>
      <path id="elsa2zt4jfygc" class="cls-17" d="M287.68,5.55c-.07-.06-.14-.11-.22-.15l.09.05.13.1Z"/>
      <path id="elmwd0k0kkjus" class="cls-17" d="M288.11,5.93c-.08-.1-.17-.19-.27-.27.1.08.19.17.27.27Z"/>
      <path id="el1txogkd2b2i" class="cls-15" d="M37.42,148.22L284.18,5.75c2.6-1.5,4.71-.28,4.71,2.72v208.42c-.18,3.31-1.93,6.34-4.71,8.15L37.42,367.51c-2.6,1.5-4.71.28-4.71-2.72v-208.43c.18-3.31,1.93-6.33,4.71-8.14Z"/>
      <path id="el5dmnjhcweqy" class="cls-14" d="M284.18,5.75L37.42,148.22c-2.78,1.81-4.53,4.83-4.71,8.14v15L288.89,23.43v-15c0-2.96-2.11-4.18-4.71-2.68Z"/>
      <g id="el30fiy1q778q">
        <path class="cls-4" d="M25.25,146.64c-.85,1.4-1.32,3-1.38,4.64v15l8.84,5.1v-15.02c.06-1.64.53-3.24,1.38-4.64l-8.84-5.08Z"/>
      </g>
      <g id="elrtv8ng43myc">
        <path class="cls-7" d="M278.67.36c-1.09-.5-2.36-.37-3.33.33L28.54,143.12c-1.39.87-2.54,2.08-3.33,3.52l8.84,5.1c.79-1.44,1.94-2.65,3.33-3.52L284.18,5.75c.94-.68,2.17-.82,3.24-.37-1.27-.76-7.88-4.59-8.75-5.02Z"/>
      </g>
      <path id="elyncd3vn8gfo" class="cls-8" d="M34,367.78c-1.21-.68-8-4.56-8.81-5.09-.93-.7-1.43-1.84-1.31-3v-193.45l8.84,5.1v193.45c-.12,1.15.37,2.28,1.28,2.99Z"/>
      <path id="el0h88mea0zvls" class="cls-1" d="M258.54,26.43c-1.54.89-2.78,3.52-2.78,5.88s1.24,3.56,2.78,2.68,2.78-3.52,2.78-5.89-1.23-3.55-2.78-2.67Z"/>
      <path id="el3oopc65j0kg" class="cls-1" d="M268.54,20.65c-1.53.88-2.78,3.52-2.78,5.88s1.25,3.56,2.78,2.67,2.78-3.52,2.78-5.88-1.22-3.56-2.78-2.67Z"/>
      <path id="elnja4n68vzb" class="cls-1" d="M278.54,14.86c-1.53.89-2.77,3.52-2.77,5.88s1.24,3.56,2.77,2.68,2.78-3.52,2.78-5.89-1.22-3.56-2.78-2.67Z"/>
      <g id="el0erjj5njjn9m">
        <polygon class="cls-6" points="45.96 184.09 165.22 115.24 165.22 273.34 45.96 342.19 45.96 184.09"/>
      </g>
      <path id="eldm8t5puiswr" class="cls-14" d="M45.96,186.36c-.41,0-.74-.34-.75-.75v-1.5c0-.27.14-.52.38-.65l1.3-.75c.35-.2.8-.08,1,.27.19.35.07.79-.27,1l-.93.53v1.07c.02.41-.31.76-.72.78,0,0,0,0-.01,0Z"/>
      <path id="elprvzhk37jqp" class="cls-14" d="M51.65,181.55c-.27,0-.51-.14-.65-.37-.2-.35-.08-.8.27-1l2.63-1.52c.35-.19.79-.07,1,.27.18.36.06.79-.28,1l-2.63,1.51c-.1.06-.22.1-.34.11ZM58.65,177.5c-.27,0-.51-.14-.65-.37-.18-.36-.06-.79.28-1l2.63-1.51c.38-.17.82,0,.99.37.15.32.05.71-.24.92l-2.62,1.45c-.11.08-.24.13-.38.14h-.01ZM65.65,173.5c-.27,0-.51-.14-.65-.37-.19-.35-.07-.79.27-1l2.64-1.52c.35-.19.8-.07,1,.28.19.35.07.79-.27,1l-2.59,1.47c-.11.06-.24.1-.37.09l-.03.05ZM72.65,169.45c-.41,0-.75-.33-.76-.74,0-.27.14-.52.38-.66l2.63-1.52c.36-.18.79-.06,1,.28.19.35.07.8-.28,1l-2.63,1.52c-.09.03-.19.04-.29.03l-.05.09ZM79.65,165.45c-.41,0-.75-.34-.75-.75,0-.27.14-.51.38-.65l2.63-1.52c.36-.21.82-.08,1.03.27.21.36.08.82-.28,1.03l-2.63,1.52c-.1.03-.21.03-.32,0l-.06.09ZM86.65,161.4c-.27,0-.52-.15-.65-.38-.19-.35-.07-.8.28-1l2.63-1.52c.36-.21.82-.08,1.03.27.21.36.08.82-.28,1.03l-2.63,1.52c-.1.01-.2,0-.3-.02l-.08.1ZM93.65,157.35c-.27,0-.52-.15-.65-.38-.2-.35-.08-.8.27-1l2.63-1.52c.36-.21.82-.08,1.03.27.21.36.08.82-.28,1.03l-2.63,1.52c-.09.01-.18,0-.27-.02l-.1.1ZM100.65,153.35c-.41,0-.75-.33-.76-.74,0-.27.14-.52.38-.66l2.63-1.52c.35-.19.79-.07,1,.27.18.36.06.79-.28,1l-2.63,1.52c-.07,0-.15,0-.22-.02l-.12.15ZM107.65,149.3c-.41,0-.75-.34-.75-.75,0-.27.14-.51.38-.65l2.63-1.52c.35-.2.8-.08,1,.27.19.35.07.79-.27,1l-2.63,1.52c-.08,0-.15,0-.23-.02l-.13.15ZM114.65,145.24c-.41,0-.75-.33-.76-.74,0-.27.14-.52.38-.66l2.63-1.51c.35-.19.79-.07,1,.27.2.35.07.8-.28,1l-2.63,1.52c-.06,0-.13-.01-.19-.03l-.15.15ZM121.65,141.24c-.27,0-.52-.14-.65-.37-.19-.35-.07-.79.27-1l2.63-1.52c.36-.18.79-.06,1,.28.19.35.07.8-.28,1l-2.63,1.52c-.06-.03-.12-.07-.17-.11l-.17.2ZM128.65,137.19c-.27,0-.51-.14-.65-.37-.18-.36-.06-.79.28-1l2.63-1.52c.35-.19.8-.07,1,.28.2.35.08.8-.27,1l-2.63,1.52c-.06-.03-.13-.07-.18-.11l-.18.2ZM135.65,133.19c-.27,0-.51-.14-.65-.37-.19-.35-.07-.79.27-1l2.64-1.52c.36-.21.82-.08,1.03.27.21.36.08.82-.28,1.03l-2.64,1.52c-.07-.05-.12-.11-.17-.18l-.2.25ZM142.65,129.14c-.41,0-.75-.33-.76-.74,0-.27.14-.52.38-.66l2.63-1.52c.36-.21.82-.08,1.03.27.21.36.08.82-.28,1.03l-2.63,1.52c-.06-.04-.11-.09-.15-.15l-.22.25ZM149.65,125.09c-.41,0-.75-.34-.75-.75,0-.27.14-.51.38-.65l2.63-1.52c.35-.2.8-.08,1,.27.19.35.07.79-.27,1l-2.63,1.52s-.09-.08-.13-.12l-.23.25ZM156.65,121.09c-.27,0-.52-.15-.65-.38-.19-.35-.07-.79.27-1l2.64-1.52c.35-.2.8-.08,1,.27.19.35.07.79-.27,1l-2.64,1.52c-.04-.06-.08-.12-.1-.19l-.25.3Z"/>
      <path id="el27oifv4jvr2i" class="cls-14" d="M165.22,117.49c-.41,0-.75-.34-.75-.75v-.21l-.18.11c-.35.19-.8.07-1-.28-.2-.35-.08-.8.27-1l1.3-.75c.23-.14.52-.14.75,0,.23.13.38.38.38.65v1.5c-.02.41-.36.74-.77.73Z"/>
      <path id="elam27nru0yhe" class="cls-14" d="M165.22,267.65c-.41,0-.74-.32-.75-.73,0,0,0-.01,0-.02v-3c0-.41.34-.75.75-.75s.75.34.75.75v3c0,.41-.34.75-.75.75ZM165.22,259.75c-.41,0-.75-.34-.75-.75v-3c0-.41.34-.75.75-.75s.75.34.75.75v3c0,.41-.34.74-.75.75ZM165.22,251.84c-.41,0-.74-.32-.75-.73,0,0,0-.01,0-.02v-3c0-.41.34-.75.75-.75s.75.34.75.75v3c0,.41-.34.75-.75.75ZM165.22,243.94c-.41,0-.74-.32-.75-.73,0,0,0-.01,0-.02v-3c0-.41.34-.75.75-.75s.75.34.75.75v3c0,.41-.34.75-.75.75h0ZM165.22,236.04c-.41,0-.75-.34-.75-.75v-3c0-.41.34-.75.75-.75s.75.34.75.75v3c0,.41-.34.74-.75.75h0ZM165.22,228.13c-.41,0-.74-.32-.75-.73,0,0,0-.01,0-.02v-3c0-.41.34-.75.75-.75s.75.34.75.75v3c0,.41-.34.75-.75.75h0ZM165.22,220.23c-.41,0-.75-.34-.75-.75v-3c0-.41.34-.75.75-.75s.75.34.75.75v3c0,.41-.34.74-.75.75h0ZM165.22,212.33c-.41,0-.75-.34-.75-.75h0v-3c0-.41.34-.75.75-.75s.75.34.75.75h0v3c.01.42-.32.77-.74.78,0,0,0,0-.01,0v-.03ZM165.22,204.42c-.41,0-.74-.32-.75-.73,0,0,0-.01,0-.02v-3c0-.41.34-.75.75-.75s.75.34.75.75v3c0,.41-.34.75-.75.75h0ZM165.22,196.52c-.41,0-.75-.34-.75-.75v-3c0-.41.34-.75.75-.75s.75.34.75.75v3c0,.41-.34.74-.75.75h0ZM165.22,188.62c-.41,0-.75-.34-.75-.75h0v-3c0-.41.34-.75.75-.75s.75.34.75.75h0v3c0,.41-.34.74-.75.75h0ZM165.22,180.71c-.41,0-.74-.32-.75-.73,0,0,0-.01,0-.02v-3c0-.41.34-.75.75-.75s.75.34.75.75v3c0,.41-.34.75-.75.75h0ZM165.22,172.81c-.41,0-.75-.34-.75-.75v-3c0-.41.34-.75.75-.75s.75.34.75.75v3c0,.41-.34.74-.75.75h0ZM165.22,164.91c-.41,0-.75-.34-.75-.75v-3c0-.41.34-.75.75-.75s.75.34.75.75v3c0,.41-.34.74-.75.75h0ZM165.22,157c-.41,0-.74-.32-.75-.73,0,0,0-.01,0-.02v-3c0-.41.34-.75.75-.75s.75.34.75.75v3c0,.41-.34.75-.75.75h0ZM165.22,149.1c-.41,0-.75-.34-.75-.75v-3c0-.41.34-.75.75-.75s.75.34.75.75v3c0,.41-.34.74-.75.75h0ZM165.22,141.2c-.41,0-.75-.34-.75-.75v-3c0-.41.34-.75.75-.75s.75.34.75.75v3c0,.41-.34.74-.75.75h0ZM165.22,133.29c-.41,0-.74-.32-.75-.73,0,0,0-.01,0-.02v-3c0-.41.34-.75.75-.75s.75.34.75.75v3c0,.41-.34.75-.75.75h0ZM165.22,125.39c-.41,0-.75-.34-.75-.75v-3c0-.41.34-.75.75-.75s.75.34.75.75v3c-.02.4-.35.72-.75.72v.03Z"/>
      <path id="elyde7h0wii0i" class="cls-14" d="M163.92,274.84c-.41,0-.75-.33-.76-.74,0-.27.14-.52.38-.66l.93-.53v-1.07c0-.41.34-.75.75-.75s.75.34.75.75v1.52c0,.27-.15.52-.38.65l-1.3.75c-.11.06-.24.09-.37.08Z"/>
      <path id="elci4x5pungvb" class="cls-14" d="M51.64,339.66c-.26,0-.51-.14-.64-.37-.19-.35-.07-.79.27-1l2.63-1.52c.36-.18.79-.06,1,.28.19.35.07.8-.28,1l-2.63,1.52c-.11.06-.23.09-.35.09ZM58.64,335.61c-.27,0-.52-.14-.65-.38-.19-.35-.07-.8.28-1l2.63-1.52c.36-.21.82-.08,1.02.27s.08.82-.27,1.02l-2.63,1.52c-.11.06-.24.08-.36.08h-.02ZM65.64,331.56c-.27,0-.52-.15-.65-.38-.2-.35-.08-.8.27-1l2.64-1.52c.35-.2.8-.08,1,.27.19.35.07.79-.27,1l-2.64,1.52c-.09.06-.2.1-.31.11h-.04ZM72.64,327.51c-.41,0-.75-.33-.76-.74,0-.27.14-.52.38-.66l2.63-1.52c.35-.19.79-.07,1,.27.18.36.06.79-.28,1l-2.63,1.52c-.08.06-.18.1-.28.13h-.06ZM79.64,323.51c-.41,0-.75-.34-.75-.75,0-.27.14-.51.38-.65l2.63-1.52c.35-.2.8-.08,1,.27.19.35.07.79-.27,1l-2.54,1.5c-.12.06-.25.1-.38.1l-.07.05ZM86.64,319.45c-.41,0-.75-.35-.74-.76,0-.26.14-.5.36-.63l2.64-1.52c.38-.17.82,0,.99.37.15.32.05.71-.24.92l-2.64,1.52c-.09.02-.19.03-.28,0l-.09.09ZM93.64,315.4c-.41,0-.75-.33-.76-.74,0-.27.14-.52.38-.66l2.63-1.52c.36-.18.79-.06,1,.28.19.35.07.8-.28,1l-2.63,1.52c-.07.04-.15.07-.23.08l-.11.04ZM100.64,311.35c-.41,0-.75-.34-.75-.75,0-.27.14-.51.38-.65l2.63-1.52c.35-.19.8-.07,1,.28.2.35.08.8-.27,1l-2.63,1.52c-.08.04-.16.06-.24.07l-.12.05ZM107.64,307.3c-.27,0-.51-.14-.65-.37-.19-.35-.07-.8.28-1l2.77-1.57c.36-.21.82-.08,1.02.27s.08.82-.27,1.02h0l-2.63,1.52c-.12.06-.25.08-.38.07l-.14.05ZM114.64,303.25c-.41,0-.75-.33-.76-.74,0-.27.14-.52.38-.66l2.63-1.52c.35-.19.8-.07,1,.28.19.35.07.8-.28,1l-2.63,1.52c-.06.03-.12.05-.18.07l-.16.05ZM121.64,299.25c-.41,0-.75-.33-.76-.74,0-.27.14-.52.38-.66l2.63-1.52c.36-.21.82-.08,1.02.27s.08.82-.27,1.02h0l-2.63,1.52c-.06,0-.13,0-.19,0l-.18.1ZM128.64,295.2c-.41,0-.75-.34-.75-.75,0-.27.14-.51.38-.65l2.63-1.52c.35-.2.8-.08,1,.27.19.35.07.79-.27,1l-2.63,1.52c-.06.02-.11.03-.17.03l-.19.1ZM135.64,291.15c-.27,0-.52-.15-.65-.38-.2-.35-.08-.8.27-1l2.63-1.52c.36-.21.82-.08,1.02.27s.08.82-.27,1.02l-2.63,1.51c-.05,0-.11,0-.16-.01l-.21.1ZM142.64,287.09c-.27,0-.52-.14-.65-.37-.19-.35-.07-.79.27-1l2.63-1.51c.34-.24.8-.17,1.05.17.24.33.17.8-.17,1.05-.04.03-.09.06-.13.08l-2.63,1.52s-.09-.02-.14-.03l-.23.1ZM149.64,283.04c-.27,0-.51-.14-.65-.37-.18-.36-.06-.79.28-1l2.63-1.52c.35-.19.8-.07,1,.28.2.35.08.8-.27,1l-2.63,1.52s-.08,0-.12-.01l-.24.1ZM156.64,278.99c-.27,0-.51-.14-.65-.37-.19-.35-.07-.79.27-1l2.64-1.52c.35-.19.8-.07,1,.28.2.35.08.8-.27,1l-2.64,1.52s-.06,0-.09-.01l-.26.1Z"/>
      <path id="el0wcsfeuaj2ki" class="cls-14" d="M45.96,342.94c-.41,0-.74-.32-.75-.73,0,0,0-.01,0-.02v-1.5c0-.41.34-.75.75-.75s.75.34.75.75v.2l.17-.1c.36-.18.79-.06,1,.28.2.35.07.8-.28,1l-1.3.75c-.1.07-.22.11-.34.12Z"/>
      <path id="elqrzyvp9plc" class="cls-14" d="M45.96,336.5c-.41,0-.75-.34-.75-.75v-3c0-.41.34-.75.75-.75s.75.34.75.75v3c0,.41-.34.75-.75.75ZM45.96,328.6c-.41,0-.74-.34-.75-.75v-3c0-.41.34-.75.75-.75s.75.34.75.75v3c0,.41-.34.74-.75.75h0ZM45.96,320.7c-.41,0-.74-.34-.75-.75v-3c0-.41.34-.75.75-.75s.75.34.75.75v3c0,.41-.34.74-.75.75h0ZM45.96,312.79h0c-.41,0-.75-.34-.75-.75v-3c0-.41.34-.75.75-.75h0c.41,0,.75.34.75.75v3c0,.41-.34.75-.75.75h0ZM45.96,304.89c-.41,0-.74-.34-.75-.75v-3c0-.41.34-.75.75-.75s.75.34.75.75v3c0,.41-.34.74-.75.75h0ZM45.96,296.99c-.41,0-.74-.34-.75-.75v-3c0-.41.34-.75.75-.75s.75.34.75.75v3c0,.41-.34.74-.75.75h0ZM45.96,289.08c-.41,0-.75-.34-.75-.75v-3c0-.41.34-.75.75-.75s.75.34.75.75v3c0,.41-.34.75-.75.75h0ZM45.96,281.18c-.41,0-.74-.34-.75-.75v-3c0-.41.34-.75.75-.75s.75.34.75.75v3c0,.41-.34.74-.75.75h0ZM45.96,273.28c-.41,0-.74-.34-.75-.75v-3c0-.41.34-.75.75-.75s.75.34.75.75v3c0,.41-.34.74-.75.75h0ZM45.96,265.37h0c-.41,0-.75-.34-.75-.75v-3c0-.41.34-.75.75-.75h0c.41,0,.74.32.75.73,0,0,0,.01,0,.02v3c0,.41-.34.74-.75.74h0ZM45.96,257.47c-.41,0-.74-.34-.75-.75v-3c0-.41.34-.75.75-.75s.75.34.75.75v3c0,.41-.34.74-.75.75h0ZM45.96,249.56c-.41,0-.75-.34-.75-.75v-3c0-.41.34-.75.75-.75s.75.34.75.75v3c0,.41-.34.75-.75.75h0ZM45.96,241.66c-.41,0-.75-.34-.75-.75v-3c0-.41.34-.75.75-.75s.75.34.75.75v3c0,.41-.34.75-.75.75h0ZM45.96,233.76c-.41,0-.74-.34-.75-.75v-3c0-.41.34-.75.75-.75s.75.34.75.75v3c0,.41-.34.74-.75.75h0ZM45.96,225.85c-.41,0-.75-.34-.75-.75v-3c0-.41.34-.75.75-.75s.75.34.75.75v3c0,.41-.34.75-.75.75h0ZM45.96,217.95c-.41,0-.74-.34-.75-.75v-3c0-.41.34-.75.75-.75s.75.34.75.75v3c0,.41-.34.74-.75.75h0ZM45.96,210.05c-.41,0-.74-.34-.75-.75v-3c0-.41.34-.75.75-.75s.75.34.75.75v3c0,.41-.34.75-.75.75h0ZM45.96,202.14c-.41,0-.75-.34-.75-.75v-3c0-.41.34-.75.75-.75s.75.34.75.75h0v3c0,.41-.32.74-.73.75,0,0-.01,0-.02,0h0ZM45.96,194.24c-.41,0-.74-.34-.75-.75v-3c0-.41.34-.75.75-.75s.75.34.75.75v3c0,.41-.34.75-.75.75h0Z"/>
      <path id="el4jz60bahszk" class="cls-14" d="M97.26,230.75c-.18,0-.35-.04-.5-.13-.31-.18-.5-.51-.5-.87v-9.32c0-.55.45-1,1-1s1,.45,1,1v7.59l14.66-8.47v-8.74c0-.55.45-1,1-1s1,.45,1,1v9.32c0,.36-.19.69-.5.87l-16.66,9.62c-.15.09-.32.13-.5.13Z"/>
      <path id="elgqful3l8d9w" class="cls-14" d="M100.33,213.21c-.12,0-.24-.02-.36-.06-.52-.2-.77-.78-.57-1.29,0,0,0,0,0,0l5-13c.14-.35.45-.59.82-.63.37-.04.73.12.94.42l5,7.19c.31.45.2,1.07-.25,1.39-.45.31-1.07.2-1.39-.25l-3.98-5.61-4.31,11.19c-.14.38-.49.64-.9.66Z"/>
      <path id="elrahnnfns2e" class="cls-14" d="M105.33,219.82c-.55,0-1-.45-1-1v-18.06c0-.55.45-1,1-1s1,.45,1,1v18.06c0,.55-.45,1-1,1h0Z"/>
      <path id="el68me9855usm" class="cls-14" d="M83.65,264.36l43.89-25.36c1.3-.75,2.35-.14,2.35,1.36v12.39c-.09,1.66-.96,3.17-2.35,4.08l-43.89,25.33c-1.3.75-2.35.14-2.35-1.36v-12.39c.1-1.65.97-3.15,2.35-4.05Z"/>
      <path id="elx5olufns8p" class="cls-16" d="M90.76,265.98c0-.12.03-.23.08-.33.04-.09.1-.17.18-.23l.74-.43c.06-.05.13-.05.19,0,.06.07.09.15.08.24v3.82c-.03.45.05.9.25,1.31.17.26.44.28.82.07.37-.23.65-.59.79-1,.19-.52.28-1.06.27-1.61v-3.83c0-.11.03-.23.08-.33.04-.09.11-.17.19-.22l.74-.43c.05-.05.14-.05.19,0,.06.07.09.15.08.24v7c0,.11-.03.23-.08.33-.04.09-.11.17-.19.23l-.74.43c-.06.05-.13.05-.19,0-.06-.07-.09-.15-.08-.24v-.35c-.16.33-.34.65-.56.95-.21.3-.48.56-.8.74-.29.2-.64.3-1,.28-.25-.04-.48-.18-.62-.4-.18-.28-.29-.6-.34-.93-.06-.43-.09-.86-.09-1.3v-4.01Z"/>
      <path id="elilackhv94y" class="cls-16" d="M99.54,268.49c-.17.1-.36.18-.55.22-.14.03-.28.03-.42,0-.11-.02-.21-.06-.31-.11-.07-.05-.14-.11-.2-.18v3.21c0,.11-.03.23-.08.33-.04.09-.1.17-.19.23l-.74.43c-.06.05-.13.05-.19,0-.05-.07-.08-.16-.07-.25v-9.88c0-.11.02-.23.07-.33.04-.09.11-.17.19-.23l.74-.43c.06-.05.13-.05.19,0,.06.07.08.16.08.25v.34c0-.12.12-.26.2-.41.1-.16.2-.32.31-.47.13-.17.27-.33.42-.47.16-.16.35-.29.55-.4.26-.18.57-.26.88-.22.27.04.51.18.68.39.2.26.35.56.44.88.11.4.17.81.18,1.23v1.05c-.02.48-.08.97-.18,1.44-.11.47-.25.93-.44,1.38-.18.42-.4.82-.68,1.18-.24.33-.54.61-.88.82ZM100.45,264.32c.02-.28.02-.56,0-.84,0-.63-.17-1-.4-1.19-.24-.17-.57-.17-.81,0-.35.22-.63.54-.81.91-.22.46-.35.95-.37,1.46-.01.2-.01.39,0,.59-.01.19-.01.37,0,.56-.01.37.12.73.37,1,.24.18.57.18.81,0,.35-.21.63-.53.81-.9.24-.48.38-1.01.4-1.55v-.04Z"/>
      <path id="elcvkqgo7d2e" class="cls-16" d="M104.12,265.29c0,.11-.03.23-.08.33-.04.09-.11.17-.19.23l-.74.43h-.19c-.06-.07-.08-.16-.08-.25v-9.88c0-.11.03-.23.08-.33.04-.1.1-.18.19-.23l.74-.43c.06-.05.13-.05.19,0,.06.07.09.15.08.24v9.89Z"/>
      <path id="elq2803u6iuc" class="cls-16" d="M107.71,255.64c.3-.19.65-.3,1-.31.27,0,.54.09.75.27.23.2.41.47.51.76.14.38.21.77.22,1.17,0,.11,0,.23,0,.34v1.19c-.02.48-.1.96-.22,1.42-.12.46-.29.91-.51,1.34-.2.41-.45.79-.75,1.14-.28.33-.62.6-1,.81-.3.19-.65.3-1,.31-.27,0-.54-.09-.75-.27-.23-.2-.4-.46-.5-.75-.14-.38-.21-.77-.23-1.17,0-.11,0-.22,0-.33v-1.19c.02-.48.09-.96.22-1.42.12-.47.3-.92.51-1.35.2-.41.45-.79.75-1.14.28-.33.62-.61,1-.82ZM108.89,258.34c0-.24-.06-.47-.14-.69-.06-.14-.16-.25-.28-.33-.12-.04-.24-.04-.36,0-.14.04-.28.09-.4.17-.15.08-.28.18-.4.3-.15.13-.27.28-.37.45-.11.21-.21.42-.28.65-.08.28-.12.57-.14.86,0,.1,0,.21,0,.31v.76c0,.1,0,.19,0,.29,0,.24.06.47.14.69.06.14.16.25.28.33.12.05.25.05.37,0,.14-.04.27-.09.4-.16.14-.09.28-.19.4-.3.14-.14.26-.29.36-.46.12-.21.21-.42.28-.65.08-.28.12-.57.14-.86,0-.1,0-.2,0-.3v-.76c0-.09,0-.19,0-.28v-.02Z"/>
      <path id="elvos4pr5fu4" class="cls-16" d="M111.29,255.65c.03-.27.09-.53.18-.78.1-.32.24-.62.4-.91.18-.32.39-.62.64-.89.25-.28.54-.52.87-.71.27-.17.58-.28.9-.32.25-.02.49.05.69.2.22.2.37.45.45.73.11.41.16.84.15,1.27v4.43c0,.11-.02.23-.07.33-.04.09-.11.17-.19.23l-.74.43h-.19c-.06-.07-.09-.15-.08-.24v-.5c-.15.39-.35.75-.59,1.09-.27.36-.61.66-1,.88-.23.14-.49.23-.76.26-.2.01-.39-.05-.55-.17-.17-.14-.29-.34-.35-.55-.09-.28-.13-.57-.13-.87,0-.66.16-1.32.48-1.9.33-.59.77-1.11,1.29-1.54l1.59-1.34c0-.41-.09-.65-.26-.72-.23-.06-.47-.02-.66.12-.15.08-.28.19-.38.32-.1.14-.19.29-.26.44-.05.09-.1.18-.17.26-.04.06-.1.11-.16.14l-.91.53h-.16s-.05-.11-.03-.22ZM112.92,258.95c.22-.13.42-.29.59-.48.18-.19.32-.41.44-.64.11-.22.2-.45.26-.69.06-.22.09-.44.09-.67v-.11l-1.33,1.13c-.23.18-.42.4-.58.64-.11.2-.17.42-.17.65,0,.21.07.33.21.35.18,0,.35-.07.49-.18Z"/>
      <path id="elw7df1a94x" class="cls-16" d="M118.83,249.21c.17-.1.36-.17.55-.22.14-.02.28-.02.42,0,.11.02.22.06.31.12.08.05.14.11.2.18v-3.23c0-.12.03-.23.08-.34.04-.09.1-.17.18-.22l.75-.43c.06-.05.13-.05.19,0,.05.07.08.15.07.24v9.89c0,.11-.02.23-.07.33-.04.09-.11.17-.19.22l-.75.43c-.05.05-.13.05-.18,0-.06-.07-.09-.15-.08-.24v-.35c-.05.12-.12.26-.2.41-.09.17-.2.33-.31.48-.13.17-.27.32-.42.47-.17.15-.35.29-.55.4-.26.17-.57.25-.88.22-.27-.05-.51-.19-.68-.4-.2-.26-.35-.55-.44-.87-.11-.4-.18-.81-.18-1.23v-1.06c.01-.48.07-.96.18-1.43.11-.47.25-.94.44-1.39.18-.42.41-.81.68-1.17.24-.33.54-.6.88-.81ZM117.92,253.39c-.02.28-.02.56,0,.84,0,.63.17,1,.39,1.18.25.17.57.17.82,0,.35-.22.63-.53.8-.9.23-.46.36-.96.38-1.47v-1.14c.02-.37-.12-.73-.38-1-.24-.18-.56-.18-.8,0-.35.22-.63.53-.82.9-.23.49-.37,1.02-.39,1.56v.03Z"/>
      <path id="elwbrbobzv8zs" class="cls-14" d="M174.05,141.64c-.09,0-.17-.02-.25-.06-.16-.09-.25-.26-.25-.44v-30.59c0-.18.1-.34.25-.43l35.33-20.4c.15-.09.35-.09.5,0,.16.09.25.25.25.43v30.59c0,.18-.09.35-.25.44l-35.33,20.4c-.08.04-.16.06-.25.06ZM174.55,110.84v29.44l34.33-19.82v-29.44l-34.33,19.82Z"/>
      <path id="el4lfd1x4fo6s" class="cls-14" d="M174.05,135.53c-.28,0-.5-.23-.5-.5,0-.08.02-.16.06-.23l11.77-23.12c.07-.12.18-.22.32-.25.14-.04.28-.02.4.06l12.75,8.16c.22.16.27.47.11.7-.15.21-.43.27-.65.14l-12.29-7.86-11.48,22.63c-.09.18-.29.29-.49.27Z"/>
      <path id="elixgc1p8j1ft" class="cls-14" d="M194.77,118.13c-.1,0-.2-.03-.28-.08-.23-.15-.29-.46-.14-.69l6.23-9.54c.14-.23.45-.3.68-.15,0,0,0,0,0,0l8.39,5.17c.23.15.3.45.16.69-.14.23-.44.31-.67.17,0,0-.01,0-.02-.01l-8-4.92-6,9.13c-.08.13-.2.21-.35.23Z"/>
      <path id="elulmuzo9iwni" class="cls-14" d="M193.47,110.44c-.32,0-.63-.08-.9-.24-.69-.45-1.07-1.24-1-2.06.09-1.95,1.12-3.73,2.77-4.78.84-.71,2.11-.61,2.82.24.38.45.55,1.06.44,1.64-.1,1.95-1.12,3.73-2.76,4.79-.41.25-.89.39-1.37.41ZM195.72,103.95c-.31.01-.61.11-.87.27-1.33.88-2.17,2.33-2.27,3.92-.05.46.13.91.49,1.2.43.16.91.09,1.28-.18,1.32-.88,2.16-2.33,2.26-3.92.06-.46-.13-.91-.49-1.19-.12-.07-.26-.11-.4-.1Z"/>
      <path id="el5iu8cdfv0ia" class="cls-19" d="M276.54,65.45l-1.27-1.23,1.41-3c.19-.31.09-.71-.22-.89-.31-.19-.71-.09-.89.22-.02.04-.04.08-.06.12l-1.23,2.6-1-.93c-.26-.25-.67-.24-.92.02-.25.26-.24.67.02.92l1.27,1.23-1.41,3c-.16.32-.02.71.3.87,0,0,0,0,0,0,.09.04.18.06.28.06.25,0,.47-.15.58-.37l1.23-2.6,1,.92c.12.11.28.18.45.18.17,0,.34-.08.45-.21.25-.25.25-.65,0-.91,0,0,0,0,0,0Z"/>
      <path id="elvczkwffaqdd" class="cls-2" d="M215.41,109.8c0,1.41,1.06,1.94,2.36,1.19l52.71-30.43c1.37-.85,2.24-2.3,2.35-3.91,0-1.41-1.05-1.94-2.35-1.19l-52.71,30.43c-1.36.85-2.24,2.31-2.36,3.91Z"/>
      <path id="eln4q7p00292" class="cls-14" d="M215.41,109.8c0,1.41,1.06,1.94,2.36,1.19l29.43-17c1.37-.85,2.24-2.3,2.35-3.91,0-1.41-1.05-1.94-2.35-1.19l-29.43,17c-1.36.85-2.24,2.31-2.36,3.91Z"/>
      <path id="elz15skrakwwo" class="cls-19" d="M216.18,93.27s.09-.03.13,0c.04.05.07.11.06.18v.85c0,.08-.02.17-.06.24-.03.06-.07.12-.13.16l-.61.35s-.09.04-.13,0c0,0,0,0,0,0-.04-.04-.07-.11-.06-.17v-.85c0-.08.02-.17.06-.24.02-.07.07-.12.13-.16l.61-.36ZM216.33,100.6c.01.08.01.16,0,.24-.03.07-.08.13-.14.17l-.53.31s-.1.03-.14,0c-.04-.05-.06-.12-.05-.18v-5.08c0-.08.02-.16.05-.23.03-.07.08-.13.14-.17l.53-.31s.1-.03.14,0c.02.06.02.12,0,.18v5.07Z"/>
      <path id="elmt7j6mxb46k" class="cls-19" d="M218.22,94.69c.11-.25.25-.49.41-.72.14-.18.31-.34.51-.46.21-.15.47-.21.72-.16.2.07.36.22.45.41.06-.18.14-.35.23-.52.08-.16.17-.32.28-.46.09-.13.2-.25.31-.36.1-.09.21-.17.32-.24.19-.14.43-.21.67-.19.18.04.34.15.44.31.12.2.2.43.23.67.05.31.07.63.07.94v2.92c0,.08-.02.17-.06.24-.02.07-.07.13-.13.17l-.54.31s-.09.03-.13,0c-.04-.05-.07-.11-.06-.18v-2.87c.04-.32-.02-.64-.18-.92-.13-.13-.3-.13-.52,0-.21.14-.38.33-.48.56-.16.35-.23.73-.22,1.12v2.92c0,.08-.02.16-.05.24-.03.07-.08.13-.14.17l-.54.31s-.09.03-.13,0c-.04-.05-.07-.11-.06-.18v-2.87c.04-.32-.02-.65-.18-.93-.12-.12-.29-.12-.51,0-.22.14-.4.34-.5.58-.16.36-.23.76-.21,1.15v2.87c0,.08-.01.17-.05.24-.03.06-.07.12-.13.16l-.54.31s-.1.03-.14,0c-.02-.05-.02-.12,0-.17v-5.07c-.01-.08-.01-.16,0-.24.03-.07.08-.12.14-.16l.54-.31s.09-.04.13,0c0,0,0,0,0,0,0,0,.05.09.05.17v.24Z"/>
      <path id="el9f6o7tao0g9" class="cls-19" d="M223.8,92.36c.02-.19.07-.38.13-.56.16-.48.41-.92.75-1.3.18-.2.39-.37.63-.51.2-.12.42-.2.65-.23.18-.01.35.04.5.14.15.14.26.33.32.53.08.3.12.61.11.92v3.2c0,.08-.02.17-.06.24-.02.07-.07.12-.13.16l-.54.31s-.09.04-.13,0c0,0,0,0,0,0-.04-.05-.07-.11-.06-.17v-.36c-.11.28-.25.54-.42.78-.19.26-.43.47-.71.63-.17.1-.35.17-.55.19-.14.01-.29-.03-.4-.12-.12-.1-.2-.24-.25-.39-.07-.2-.1-.42-.09-.63,0-.48.12-.95.35-1.37.24-.42.55-.8.92-1.11l1.15-1c0-.3-.06-.47-.19-.52-.16-.04-.34-.01-.47.09-.11.05-.21.13-.28.23-.07.1-.14.21-.19.32-.03.06-.07.12-.11.18-.03.04-.07.08-.12.1l-.66.38s-.08.02-.12,0c-.03-.04-.04-.08-.03-.13ZM224.98,94.75c.16-.09.3-.21.42-.35.12-.14.23-.29.32-.46.08-.16.14-.33.19-.5.04-.16.06-.32.06-.48v-.11l-1,.81c-.16.13-.3.29-.41.47-.09.14-.13.3-.13.47,0,.15.05.23.15.24.15.01.29-.03.4-.13v.04Z"/>
      <path id="eli17p908a6dp" class="cls-19" d="M229.43,94.42c.11-.07.22-.15.31-.25.11-.12.2-.24.28-.38.09-.16.16-.33.21-.51.05-.2.08-.4.08-.6v-.4c-.04.09-.09.19-.15.3-.06.12-.14.23-.22.34-.09.12-.19.23-.3.34-.12.11-.26.21-.4.29-.19.12-.41.18-.64.16-.19-.03-.36-.14-.48-.29-.15-.19-.26-.4-.32-.63-.08-.29-.13-.59-.13-.89v-.76c.01-.34.05-.67.13-1,.07-.34.18-.68.32-1,.12-.3.28-.59.48-.85.17-.23.39-.43.64-.58.12-.08.26-.13.4-.16.1-.02.2-.02.3,0,.08,0,.15.04.22.08l.15.12v-.24c0-.08.02-.17.06-.24.02-.07.07-.13.13-.17l.54-.31s.09-.03.13,0c.04.05.07.11.06.18v5.09c.02.78-.14,1.56-.48,2.26-.29.6-.75,1.09-1.32,1.43-.2.13-.43.21-.66.24-.18.03-.37,0-.54-.08-.15-.08-.28-.2-.36-.35-.09-.17-.15-.36-.15-.55,0-.08.02-.17.06-.24.03-.07.08-.12.14-.16l.48-.28s.12-.05.17,0c0,0,0,0,0,0l.11.12c.06.09.16.14.26.16.18-.01.35-.08.49-.19ZM228.59,90.69c-.02.2-.02.41,0,.61,0,.45.12.74.28.85.18.13.41.13.59,0,.25-.16.45-.38.58-.65.16-.33.26-.69.27-1.06v-.83c.01-.27-.09-.53-.27-.73-.17-.13-.41-.13-.58,0-.25.16-.46.38-.59.65-.18.36-.27.76-.28,1.16h0Z"/>
      <path id="elc8d5lz6rod" class="cls-19" d="M232.02,89.01c0-.41.04-.81.12-1.21.07-.39.19-.78.35-1.14.14-.33.32-.65.54-.94.2-.26.44-.47.72-.64.21-.14.46-.21.71-.19.21.02.41.12.55.28.17.2.29.43.35.68.09.33.13.66.13,1v.51c0,.08-.02.16-.06.23-.03.07-.07.13-.13.17l-2.36,1.36c0,.14.02.27.06.4.04.09.1.17.18.22.09.03.18.03.27,0,.11-.02.21-.05.3-.11.14-.07.26-.17.37-.28.09-.1.16-.2.23-.31.04-.07.08-.14.13-.2.04-.04.08-.08.13-.11l.57-.32s.09-.04.13,0c0,0,0,0,0,0,.04.04.07.11.06.17-.02.16-.06.31-.11.46-.08.22-.18.44-.31.64-.14.24-.32.47-.51.68-.2.23-.43.42-.69.57-.21.14-.47.21-.72.2-.21-.02-.41-.12-.54-.29-.18-.21-.3-.46-.35-.73-.08-.36-.13-.73-.12-1.1ZM233.75,86.38c-.13.08-.25.18-.35.3-.1.11-.18.24-.24.38-.07.13-.12.27-.16.41-.03.13-.05.25-.06.38l1.59-.92c0-.1-.02-.21-.05-.31-.02-.09-.07-.18-.13-.25-.06-.07-.14-.11-.23-.11-.13,0-.26.03-.37.1v.02Z"/>
      <path id="elan71nfrwqc" class="cls-19" d="M236.31,90.01s-.09.04-.13,0c0,0,0,0,0,0-.04-.04-.07-.11-.06-.17v-.72c0-.08.02-.17.06-.24.02-.07.07-.12.13-.16l4.13-2.36s.1-.03.14,0c.02.06.02.12,0,.18v.71c.02.08.02.16,0,.24-.03.07-.08.13-.14.17l-4.13,2.35Z"/>
      <path id="elhpzy23ancd" class="cls-19" d="M241.17,81.36c-.03-.06-.03-.13,0-.19,0-.08.03-.17.07-.24l1.53-2.74.12-.2c.03-.05.08-.1.13-.13l.55-.32s.09-.04.13,0c0,0,0,0,0,0,.04.05.07.11.06.17v7c0,.08-.02.17-.06.24-.02.07-.07.12-.13.16l-.57.33s-.1.03-.14,0c-.02-.05-.02-.12,0-.17v-5.37l-1,1.78c0,.08-.08.13-.13.14-.04.03-.09.03-.13,0l-.43-.46Z"/>
      <path id="elo7unj2vt55n" class="cls-14" d="M174.05,183.9c-.09,0-.18-.02-.25-.07-.17-.09-.28-.27-.26-.47v-30.6c0-.18.1-.34.25-.43l35.33-20.4c.24-.14.54-.06.68.18.04.08.07.16.07.25v30.6c0,.18-.09.34-.25.43l-35.33,20.4c-.07.06-.15.1-.24.11ZM174.55,153.09v29.44l34.33-19.82v-29.44l-34.33,19.82Z"/>
      <path id="elh93peyjjvb" class="cls-14" d="M174.05,177.78c-.08.02-.15.02-.23,0-.24-.13-.33-.43-.21-.67l11.77-23.12c.13-.25.44-.35.69-.22.01,0,.02.01.03.02l12.75,8.16c.23.15.3.46.15.69-.14.23-.44.3-.67.16,0,0-.01,0-.02-.01l-12.29-7.86-11.48,22.58c-.09.18-.29.29-.49.27Z"/>
      <path id="elejyv1duskyv" class="cls-14" d="M194.77,160.36c-.1,0-.2-.02-.28-.08-.23-.15-.29-.46-.14-.69l6.23-9.54c.15-.23.45-.29.68-.15l8.39,5.18c.23.15.31.46.16.69s-.46.31-.69.16l-8-4.92-6,9.13c-.08.12-.21.2-.35.22Z"/>
      <path id="elb5mjbz3lq96" class="cls-14" d="M193.47,152.69c-.31,0-.62-.08-.9-.23-.69-.45-1.07-1.24-1-2.06.09-1.95,1.12-3.74,2.77-4.79.84-.71,2.11-.61,2.82.24.38.45.55,1.06.44,1.64-.09,1.95-1.12,3.74-2.76,4.79-.41.25-.89.39-1.37.41ZM195.72,146.2c-.31.02-.61.11-.87.28-1.33.86-2.19,2.3-2.31,3.88-.15.56.18,1.14.74,1.29.37.1.76-.01,1.03-.29,1.33-.88,2.16-2.33,2.26-3.92.05-.45-.13-.91-.49-1.19-.11-.05-.24-.06-.36-.05Z"/>
      <path id="ely2dt7ke7th" class="cls-19" d="M276.54,107.7l-1.27-1.23,1.41-3c.18-.31.07-.71-.25-.89-.31-.18-.71-.07-.89.25-.01.03-.03.05-.04.08l-1.23,2.6-1-.92c-.23-.27-.64-.31-.92-.07-.27.23-.31.64-.07.92.03.03.06.06.09.09l1.27,1.23-1.41,3c-.15.32-.02.7.3.85,0,0,0,0,.01,0,.09.04.18.06.28.06.25,0,.48-.14.58-.37l1.23-2.6,1,.93c.25.25.67.25.92,0,0,0,0,0,0,0,.25-.26.25-.67,0-.92,0,0,0,0-.01-.01Z"/>
      <path id="el8uztsaye0f" class="cls-2" d="M215.41,152.06c0,1.4,1.06,1.94,2.36,1.19l52.71-30.44c1.37-.85,2.24-2.3,2.35-3.91,0-1.4-1.05-1.94-2.35-1.19l-52.71,30.44c-1.36.85-2.24,2.31-2.36,3.91Z"/>
      <path id="el682t4847x4s" class="cls-14" d="M215.41,152.06c0,1.4,1.06,1.94,2.36,1.19l39.66-22.89c1.36-.86,2.24-2.31,2.36-3.91,0-1.41-1.06-2-2.36-1.19l-39.66,22.9c-1.36.85-2.24,2.3-2.36,3.9Z"/>
      <path id="elv79mo8r2vg" class="cls-19" d="M216.18,135.52s.09-.04.13,0c0,0,0,0,0,0,.04.05.07.11.06.17v.85c0,.08-.02.17-.06.24-.03.07-.07.13-.13.17l-.64.41s-.09.03-.13,0c-.04-.05-.07-.11-.06-.18v-.85c0-.08.02-.16.06-.23.02-.07.07-.13.13-.17l.64-.41ZM216.33,142.86c.01.08.01.16,0,.24-.03.07-.08.12-.14.16l-.53.31h-.14s-.05-.09-.05-.17v-5.04c0-.08.01-.17.05-.24.03-.07.08-.12.14-.16l.53-.31s.1-.03.14,0c.02.05.02.12,0,.17v5.04Z"/>
      <path id="ele3ymticajfh" class="cls-19" d="M218.22,136.95c.11-.26.25-.5.41-.72.14-.18.31-.34.51-.46.21-.15.47-.22.72-.17.2.07.36.23.45.42.06-.18.14-.35.23-.52.08-.16.17-.32.28-.46.09-.13.2-.25.31-.36.1-.1.2-.18.32-.25.2-.13.43-.19.67-.18.18.04.34.15.44.31.13.2.2.43.23.67.05.31.07.63.07.94v2.92c0,.08-.02.17-.06.24-.02.07-.07.12-.13.16l-.54.31s-.09.04-.13,0c0,0,0,0,0,0-.04-.04-.07-.11-.06-.17v-2.87c.04-.32-.02-.65-.18-.93-.13-.12-.3-.12-.52,0-.21.13-.38.33-.48.56-.16.35-.23.73-.22,1.11v2.93c0,.08-.02.16-.05.24-.03.07-.08.12-.14.16l-.54.31s-.09.04-.13,0c0,0,0,0,0,0-.04-.04-.07-.11-.06-.17v-2.87c.04-.32-.02-.65-.18-.93-.12-.12-.29-.12-.51,0-.22.14-.39.35-.5.59-.16.36-.23.75-.21,1.14v2.88c0,.08-.01.16-.05.23-.03.07-.07.13-.13.17l-.54.31s-.1.03-.14,0c-.02-.06-.02-.11,0-.17v-5.07c-.01-.08-.01-.16,0-.24.03-.07.08-.13.14-.17l.54-.31s.09-.03.13,0c.04.05.06.12.05.18v.24Z"/>
      <path id="elk5qxhmc71cj" class="cls-19" d="M223.8,134.58c.03-.19.07-.38.13-.57.07-.23.17-.44.29-.65.13-.23.28-.45.46-.64.18-.2.39-.38.63-.51.2-.13.42-.2.65-.23.18-.02.36.03.5.14.15.14.27.33.32.53.08.3.12.6.11.91v3.2c0,.08-.02.17-.06.24-.02.07-.07.13-.13.17l-.54.31s-.09.03-.13,0c-.04-.05-.07-.11-.06-.18v-.36c-.11.28-.25.55-.42.79-.19.25-.44.47-.71.63-.17.1-.35.17-.55.19-.14.01-.29-.03-.4-.12-.12-.1-.2-.24-.25-.39-.07-.22-.11-.45-.1-.68,0-.48.12-.96.35-1.38.24-.42.55-.8.92-1.11l1.15-1c0-.29-.06-.47-.19-.52-.16-.04-.34-.01-.47.09-.11.06-.2.14-.28.24-.07.1-.14.2-.19.31-.03.07-.07.13-.11.19l-.12.1-.66.38s-.09.03-.12,0c0,0-.03,0-.02-.08ZM224.98,136.97c.16-.09.3-.22.42-.36.12-.14.23-.29.32-.45.08-.16.14-.33.19-.51.04-.16.06-.32.06-.48v-.11l-1,.82c-.16.13-.3.28-.41.46-.09.14-.13.3-.13.47,0,.15,0,.24.15.25.14.02.28-.01.4-.09h0Z"/>
      <path id="elts5sga6jo6h" class="cls-19" d="M229.43,136.68c.11-.07.22-.15.31-.25.11-.12.2-.25.28-.39.08-.16.15-.33.21-.5.05-.2.08-.4.08-.6v-.4l-.15.3c-.06.12-.14.23-.22.34l-.3.34c-.12.11-.26.21-.4.29-.19.13-.42.18-.64.15-.19-.03-.36-.13-.48-.28-.15-.19-.26-.4-.32-.63-.08-.29-.13-.59-.13-.89v-.76c.01-.34.06-.67.13-1,.07-.34.18-.68.32-1,.12-.3.29-.58.48-.84.17-.24.39-.44.64-.59.13-.07.26-.12.4-.16.1-.02.2-.02.3,0,.08.01.16.04.22.09l.15.12v-.25c0-.08.02-.17.06-.24.03-.08.09-.14.17-.17l.54-.31s.09-.04.13,0c0,0,0,0,0,0,.04.04.07.11.06.17v5.1c.02.78-.14,1.56-.48,2.26-.29.6-.75,1.09-1.32,1.43-.2.13-.43.21-.66.24-.18.02-.37,0-.54-.09-.15-.07-.28-.19-.36-.34-.09-.17-.14-.36-.15-.55,0-.08.02-.17.06-.24.03-.07.08-.13.14-.17l.48-.27c.05-.04.12-.04.17,0l.11.12c.06.09.16.14.26.16.17-.02.32-.08.45-.19ZM228.59,132.95c-.02.2-.02.4,0,.6-.03.31.07.62.28.86.18.12.41.12.59,0,.25-.16.45-.38.58-.65.16-.33.25-.69.27-1.06v-.83c.01-.27-.09-.53-.27-.73-.17-.13-.41-.13-.58,0-.26.15-.46.38-.59.65-.18.36-.27.76-.28,1.16h0Z"/>
      <path id="elt0k1kmjwjid" class="cls-19" d="M232.02,131.27c0-.41.04-.82.12-1.22.07-.39.19-.77.35-1.13.14-.33.32-.65.54-.94.2-.26.44-.48.72-.65.21-.14.46-.2.71-.19.21.02.41.12.55.28.17.2.29.43.35.68.09.33.13.66.13,1v.49c0,.08-.02.17-.06.24-.02.07-.07.12-.13.16l-2.36,1.37c0,.14.02.27.06.4.04.09.1.16.18.22.09.03.18.03.27,0,.11-.02.21-.05.3-.11.13-.08.26-.17.37-.28.09-.1.17-.2.23-.32.04-.07.08-.13.13-.19.03-.05.08-.08.13-.11l.57-.33s.09-.03.13,0c.04.05.07.11.06.18-.02.15-.06.3-.11.45-.08.23-.18.44-.31.65-.14.24-.32.47-.51.68-.2.22-.43.41-.69.56-.21.14-.46.22-.72.21-.21-.02-.4-.13-.54-.29-.18-.21-.3-.46-.35-.73-.08-.35-.12-.72-.12-1.08ZM233.75,128.64c-.13.08-.25.18-.35.29-.1.12-.18.24-.24.38-.07.13-.12.28-.16.42-.03.13-.05.25-.06.38l1.59-.92c0-.11-.02-.22-.05-.32-.02-.09-.07-.18-.13-.25-.06-.06-.14-.1-.23-.1-.13,0-.26.04-.37.12h0Z"/>
      <path id="elqiv7vrf9u2p" class="cls-19" d="M236.31,132.27s-.09.04-.13,0c0,0,0,0,0,0-.04-.05-.06-.11-.06-.17v-.74c0-.08.02-.17.06-.24.02-.07.07-.13.13-.17l4.13-2.38s.1-.03.14,0v.89c.02.08.02.16,0,.24-.03.07-.08.12-.14.16l-4.13,2.41Z"/>
      <path id="elqbpc1k2gqx8" class="cls-19" d="M243.59,123.15c.13-.22.22-.45.28-.69.04-.18.06-.36.06-.54.02-.23-.05-.46-.18-.65-.12-.14-.31-.13-.59,0-.25.14-.45.36-.57.62-.12.29-.2.59-.25.9-.01.09-.04.18-.09.26-.03.06-.07.11-.12.15l-.56.32s-.1.03-.14,0c-.05-.05-.06-.12-.05-.19.02-.34.07-.67.16-1,.09-.35.22-.68.38-1,.15-.3.33-.58.55-.84.19-.23.43-.43.69-.58.23-.16.5-.24.77-.23.2.03.39.12.53.27.15.17.26.38.32.6.07.26.1.52.1.79v.53c-.02.19-.05.37-.1.55-.06.22-.14.43-.23.64-.11.27-.24.54-.39.8l-1.31,2.59,2-1.13h.14s.07.11.06.17v.87c0,.08-.02.16-.06.23-.03.07-.08.13-.14.17l-3.29,1.9s-.1.03-.14,0c0,0-.05-.09-.05-.17v-.66c0-.12.02-.25.07-.36.03-.09.07-.18.12-.26l2.03-4.06Z"/>
      <path id="eljo5wnihsgz" class="cls-14" d="M174.05,227.24c-.09,0-.18-.02-.25-.07-.16-.09-.25-.25-.25-.43v-30.59c0-.18.1-.35.25-.44l35.33-20.35c.16-.08.34-.08.5,0,.16.09.25.26.25.44v30.56c0,.18-.09.35-.25.44l-35.33,20.39c-.08.04-.16.06-.25.05ZM174.55,196.44v29.43l34.33-19.82v-29.44l-34.33,19.83Z"/>
      <path id="elrxxylwli4go" class="cls-14" d="M174.05,221.13c-.28,0-.5-.23-.5-.5,0-.08.02-.16.06-.23l11.77-23.12c.13-.25.44-.34.69-.21,0,0,.02.01.03.02l12.75,8.16c.24.14.32.44.19.68-.14.24-.44.32-.68.19-.02,0-.03-.02-.04-.03l-12.29-7.86-11.48,22.62c-.09.19-.28.3-.49.28Z"/>
      <path id="el7hdr99t8moy" class="cls-14" d="M194.77,203.73c-.1,0-.2-.03-.28-.08-.23-.16-.29-.47-.14-.7l6.23-9.53c.15-.23.45-.3.68-.16l8.39,5.18c.23.15.3.45.16.69-.14.23-.44.31-.67.17,0,0-.01,0-.02-.01l-8-4.92-6,9.13c-.08.13-.2.21-.35.23Z"/>
      <path id="el544wq4w017y" class="cls-14" d="M193.47,196.04c-.32,0-.63-.08-.9-.24-.69-.45-1.07-1.24-1-2.06.09-1.95,1.12-3.74,2.77-4.79.84-.71,2.1-.61,2.82.23.39.46.55,1.07.44,1.66-.09,1.95-1.12,3.73-2.76,4.78-.41.26-.88.4-1.37.42ZM195.72,189.55c-.31.01-.61.11-.87.27-1.33.88-2.17,2.33-2.27,3.92-.06.46.13.91.49,1.19.43.17.91.11,1.28-.17,1.32-.88,2.16-2.33,2.26-3.92.05-.46-.13-.91-.49-1.2-.12-.06-.26-.09-.4-.09h0Z"/>
      <path id="elfsybxj96j1u" class="cls-19" d="M276.54,151.04l-1.27-1.23,1.41-3c.15-.32.02-.7-.3-.85,0,0,0,0-.01,0-.31-.16-.69-.03-.85.28,0,0,0,.02-.01.03l-1.23,2.6-1-.93c-.25-.25-.67-.25-.92,0,0,0,0,0,0,0-.25.25-.25.65,0,.91,0,0,0,0,0,0l1.27,1.23-1.41,3c-.15.32-.02.7.3.85,0,0,0,0,.01,0,.09.05.18.07.28.07.25,0,.48-.15.58-.38l1.23-2.6,1,.93c.25.25.67.25.92,0,0,0,0,0,0,0,.25-.25.25-.66,0-.91Z"/>
      <path id="elk2ch1mhg12m" class="cls-2" d="M215.41,195.36c0,1.41,1.06,1.94,2.36,1.19l52.71-30.43c1.37-.85,2.24-2.3,2.35-3.91,0-1.41-1.05-1.94-2.35-1.19l-52.71,30.43c-1.36.85-2.24,2.31-2.36,3.91Z"/>
      <path id="elvntgxhibbq" class="cls-14" d="M215.41,195.36c0,1.41,1.06,1.94,2.36,1.19l16.48-9.51c1.37-.85,2.24-2.3,2.35-3.91,0-1.41-1.05-1.94-2.35-1.19l-16.48,9.51c-1.36.85-2.24,2.31-2.36,3.91Z"/>
      <path id="el7b79lnzzvhj" class="cls-19" d="M216.18,178.87s.09-.04.13,0c0,0,0,0,0,0,.04.04.07.11.06.17v.85c0,.08-.02.17-.06.24-.03.06-.07.12-.13.16l-.61.35s-.09.04-.13,0c0,0,0,0,0,0-.04-.04-.07-.11-.06-.17v-.85c0-.08.02-.17.06-.24.02-.07.07-.12.13-.16l.61-.35ZM216.33,186.2c.01.08.01.16,0,.24-.03.07-.08.13-.14.17l-.53.31s-.1.03-.14,0c-.04-.05-.06-.12-.05-.18v-5.06c0-.08.01-.17.05-.24.03-.07.08-.13.14-.17l.53-.31s.1-.03.14,0c.02.06.02.12,0,.18v5.06Z"/>
      <path id="elk6v0joxp8ho" class="cls-19" d="M218.22,180.29c.11-.25.25-.49.41-.72.14-.18.31-.34.51-.46.21-.15.47-.21.72-.16.2.07.36.22.45.41.06-.18.14-.35.23-.52.08-.16.17-.32.28-.46.09-.13.2-.25.31-.36.1-.09.21-.17.32-.24.19-.14.43-.2.67-.18.18.03.34.14.44.3.13.21.2.44.23.68.05.31.07.62.07.93v2.93c0,.08-.02.16-.06.23-.02.07-.07.13-.13.17l-.54.31s-.09.04-.13,0c0,0,0,0,0,0-.04-.05-.07-.11-.06-.17v-2.88c.04-.32-.02-.64-.18-.92-.13-.13-.3-.13-.52,0-.21.14-.38.33-.48.56-.16.35-.23.73-.22,1.12v2.92c0,.08-.02.16-.05.24-.03.07-.08.13-.14.17l-.54.31s-.09.03-.13,0c-.04-.05-.07-.11-.06-.18v-2.87c.04-.32-.02-.65-.18-.93-.12-.12-.29-.12-.51,0-.22.14-.39.34-.5.58-.16.36-.23.76-.21,1.15v2.87c0,.08-.01.17-.05.24-.03.06-.07.12-.13.16l-.54.31s-.1.03-.14,0c-.02-.05-.02-.12,0-.17v-5.07c-.01-.08-.01-.16,0-.24.03-.07.08-.12.14-.16l.54-.31s.09-.04.13,0c0,0,0,0,0,0,.04.05.06.11.05.17v.24Z"/>
      <path id="elei2mwf5ysy" class="cls-19" d="M223.8,177.92c.02-.19.07-.38.13-.56.07-.23.17-.45.29-.66.13-.23.28-.44.46-.64.18-.2.39-.37.63-.51.2-.12.42-.2.65-.23.18-.01.35.04.5.14.15.14.26.33.32.53.08.3.12.61.11.92v3.2c0,.08-.02.17-.06.24-.02.07-.07.12-.13.16l-.54.31s-.09.04-.13,0c0,0,0,0,0,0-.04-.05-.07-.11-.06-.17v-.36c-.1.28-.25.54-.42.78-.19.26-.43.47-.71.63-.17.1-.35.17-.55.19-.14.01-.29-.03-.4-.12-.12-.1-.2-.24-.25-.39-.07-.2-.1-.42-.09-.63,0-.48.12-.95.35-1.37.24-.42.55-.8.92-1.11l1.15-1c0-.3-.06-.47-.19-.52-.16-.04-.34-.01-.47.09-.11.05-.21.13-.28.23-.07.1-.13.21-.19.32-.03.06-.07.12-.11.18-.03.04-.07.08-.12.1l-.66.38s-.08.02-.12,0c-.03-.04-.04-.08-.03-.13ZM224.98,180.31c.16-.09.3-.21.42-.35.12-.14.23-.29.32-.46.08-.16.15-.33.19-.5.04-.16.06-.32.06-.48v-.11l-1,.81c-.16.13-.3.29-.41.47-.09.14-.13.3-.13.47,0,.15,0,.23.15.25.14.03.28.01.4-.05v-.05Z"/>
      <path id="elx5yugjjkkmf" class="cls-19" d="M229.43,180.02c.11-.07.22-.15.31-.25.11-.12.2-.24.28-.38.09-.16.16-.33.21-.51.05-.19.08-.39.08-.59v-.41c-.04.09-.09.19-.15.3-.06.12-.14.23-.22.34-.09.12-.19.23-.3.34-.12.11-.26.21-.4.29-.19.12-.41.18-.64.16-.19-.03-.36-.14-.48-.29-.15-.18-.26-.4-.32-.63-.08-.29-.13-.58-.13-.88v-.77c.01-.34.06-.67.13-1,.07-.34.18-.68.32-1,.12-.3.28-.59.48-.85.17-.23.39-.43.64-.58.12-.07.26-.13.4-.16.1-.02.2-.02.3,0,.08,0,.15.04.22.08.06.04.11.08.15.13v-.25c0-.08.02-.17.06-.24.02-.07.07-.13.13-.17l.54-.31s.09-.03.13,0c.04.05.07.11.06.18v5.1c.02.78-.14,1.55-.48,2.25-.29.6-.75,1.09-1.32,1.43-.2.13-.43.21-.66.24-.18.03-.37,0-.54-.08-.15-.08-.28-.2-.36-.35-.09-.17-.15-.36-.15-.55,0-.08.02-.16.06-.23.02-.07.07-.13.14-.17l.48-.28s.12-.05.17,0c0,0,0,0,0,0l.11.12c.06.09.16.14.26.16.18,0,.35-.08.49-.19ZM228.59,176.29c-.02.2-.02.41,0,.61,0,.45.12.74.28.85.18.13.41.13.59,0,.25-.16.45-.38.58-.65.16-.33.26-.69.27-1.06v-.82c.02-.27-.08-.54-.27-.74-.17-.13-.41-.13-.58,0-.25.16-.46.38-.59.65-.18.36-.27.76-.28,1.16h0Z"/>
      <path id="elkvgbftz5nto" class="cls-19" d="M232.02,174.61c0-.41.04-.81.12-1.21.07-.39.19-.78.35-1.14.14-.33.32-.65.54-.94.2-.26.44-.47.72-.64.21-.14.46-.21.71-.19.21.02.41.12.55.28.17.2.29.43.35.68.09.33.13.66.13,1v.49c0,.08-.02.16-.06.23-.02.07-.07.13-.13.17l-2.36,1.36c0,.14.02.27.06.4.04.09.1.17.18.22.09.03.18.03.27,0,.11-.01.21-.05.3-.1.13-.08.26-.18.37-.29.09-.09.17-.2.23-.31.04-.07.08-.14.13-.2.03-.04.08-.08.13-.1l.57-.33s.09-.04.13,0c0,0,0,0,0,0,.04.04.07.11.06.17-.02.16-.06.31-.11.46-.08.22-.18.44-.31.64-.15.25-.32.48-.51.69-.2.22-.43.41-.69.56-.21.14-.47.21-.72.2-.21-.02-.41-.12-.54-.29-.18-.21-.3-.46-.35-.73-.08-.35-.12-.72-.12-1.08ZM233.75,171.98c-.13.08-.25.18-.35.3-.1.11-.18.24-.24.38-.07.13-.12.27-.16.41-.03.13-.05.25-.06.38l1.59-.92c0-.1-.02-.21-.05-.31-.02-.09-.07-.18-.13-.25-.06-.07-.14-.11-.23-.11-.13.01-.26.05-.37.12h0Z"/>
      <path id="elbe03js9xs8" class="cls-19" d="M236.31,175.61s-.09.04-.13,0c0,0,0,0,0,0-.04-.04-.07-.11-.06-.17v-.72c0-.08.02-.17.06-.24.02-.07.07-.12.13-.16l4.13-2.39s.1-.03.14,0c.02.06.02.12,0,.18v.71c.02.08.02.16,0,.24-.03.07-.08.13-.14.17l-4.13,2.38Z"/>
      <path id="el4fx3bv5paff" class="cls-19" d="M244.75,162.48h.14c.02.05.02.12,0,.17v.77c.02.09.02.17,0,.26,0,.08-.07.16-.1.23l-1,2.27c.18-.07.38-.1.57-.09.17.01.32.08.44.2.14.13.24.3.29.49.07.26.1.52.1.79,0,.37-.05.74-.15,1.09-.18.67-.52,1.29-1,1.8-.23.23-.48.44-.76.6-.26.17-.55.27-.86.31-.21.03-.42,0-.61-.11-.16-.09-.29-.24-.36-.42-.09-.2-.14-.41-.15-.63-.02-.08-.02-.16,0-.24.03-.07.08-.12.14-.16l.55-.32s.09,0,.12,0c.04.05.07.1.1.15.02.07.06.13.11.18.05.05.12.09.19.1.1.02.19.02.29,0,.15-.04.3-.11.43-.19.28-.16.53-.39.7-.67.17-.27.26-.59.26-.91,0-.32-.09-.51-.26-.55-.25-.01-.49.05-.7.19l-.59.34s-.09.04-.13,0c0,0,0,0,0,0-.04-.04-.07-.11-.06-.17v-.77c0-.09.02-.18.06-.26,0-.09.07-.16.1-.23l1-2.17-1.95,1.12s-.1.03-.14,0c-.04-.05-.05-.11-.05-.17v-.77c0-.08.02-.16.05-.24.03-.07.08-.13.14-.17l3.09-1.82Z"/>
      <path id="eld9gsjfil4o7" class="cls-14" d="M174.05,269.5c-.09,0-.17-.03-.25-.07-.15-.09-.25-.25-.25-.43v-30.64c0-.18.1-.34.25-.43l35.33-20.4c.15-.09.35-.09.5,0,.16.09.25.25.25.43v30.6c0,.18-.09.34-.25.43l-35.33,20.4c-.07.06-.16.09-.25.11ZM174.55,238.69v29.44l34.33-19.77v-29.49l-34.33,19.82Z"/>
      <path id="elq0qquw5oiud" class="cls-14" d="M174.05,263.36c-.08.01-.15.01-.23,0-.24-.13-.34-.43-.21-.68l11.77-23.11c.07-.13.18-.22.32-.26.14-.04.28-.02.4.06l12.75,8.16c.24.14.32.44.19.68-.14.24-.44.32-.68.19-.02,0-.03-.02-.04-.03l-12.29-7.86-11.48,22.6c-.1.17-.29.27-.49.25Z"/>
      <path id="eldii5ucomg4" class="cls-14" d="M194.77,245.98c-.1,0-.2-.02-.28-.08-.23-.15-.29-.46-.14-.69l6.23-9.54c.14-.23.45-.3.68-.15h0s8.39,5.18,8.39,5.18c.23.15.3.45.16.68-.15.23-.45.31-.69.17l-8-4.92-6,9.13c-.08.12-.21.2-.35.22Z"/>
      <path id="eltyjgxyg3rv" class="cls-14" d="M193.47,238.29c-.32,0-.63-.08-.9-.24-.69-.45-1.08-1.24-1-2.06.09-1.95,1.12-3.73,2.77-4.78.84-.71,2.11-.61,2.82.24.38.45.55,1.06.44,1.64-.1,1.95-1.12,3.73-2.76,4.79-.41.25-.89.39-1.37.41ZM195.72,231.8c-.31.01-.61.11-.87.28-1.33.87-2.17,2.32-2.27,3.91-.15.56.18,1.14.74,1.29.37.1.76-.01,1.03-.29,1.32-.88,2.16-2.33,2.26-3.92.05-.45-.13-.91-.49-1.19-.12-.06-.26-.09-.4-.08Z"/>
      <path id="elfj9knzkg785" class="cls-19" d="M276.54,193.3l-1.27-1.23,1.41-3c.15-.32.02-.7-.3-.85,0,0,0,0-.01,0-.32-.15-.71-.01-.86.31l-1.23,2.6-1-.93c-.26-.25-.66-.25-.92,0-.25.25-.25.67,0,.92,0,0,0,0,0,0l1.27,1.23-1.41,3c-.16.32-.02.71.3.87,0,0,0,0,0,0,.09.04.18.06.28.06.25,0,.47-.15.58-.37l1.23-2.6,1,.93c.25.25.67.25.92,0,0,0,0,0,0,0,.26-.25.26-.66.01-.92,0,0,0,0-.01-.01Z"/>
      <path id="elfmeeubuq7eq" class="cls-2" d="M215.41,237.65c0,1.41,1.06,1.94,2.36,1.19l52.71-30.43c1.37-.85,2.24-2.3,2.35-3.91,0-1.41-1.05-1.94-2.35-1.19l-52.71,30.43c-1.36.86-2.24,2.31-2.36,3.91Z"/>
      <path id="elqpo4g4e79kh" class="cls-14" d="M215.41,237.65c0,1.41,1.06,1.94,2.36,1.19l45.88-26.48c1.36-.85,2.24-2.31,2.36-3.91,0-1.4-1.06-1.94-2.36-1.19l-45.88,26.49c-1.36.85-2.24,2.3-2.36,3.9Z"/>
      <path id="elxqq21kzs1m" class="cls-19" d="M216.18,221.12s.09-.03.13,0c.04.05.06.11.06.17v.85c0,.08-.02.17-.06.24-.03.07-.07.13-.13.17l-.61.35s-.09.03-.13,0c-.04-.05-.07-.11-.06-.18v-.84c0-.08.02-.17.06-.24.02-.07.07-.13.13-.17l.61-.35ZM216.33,228.46c.01.08.01.16,0,.24-.03.07-.08.12-.14.16l-.53.31h-.14s-.05-.09-.05-.17v-5.07c0-.08.01-.17.05-.24.03-.07.08-.12.14-.16l.53-.31s.1-.03.14,0c.02.05.02.12,0,.17v5.07Z"/>
      <path id="elp2of1n7qjd" class="cls-19" d="M218.22,222.55c.11-.26.25-.5.41-.72.14-.18.31-.34.51-.46.21-.15.47-.21.72-.16.2.07.36.22.45.41.06-.18.14-.35.23-.52.08-.16.17-.32.28-.46.09-.13.2-.25.31-.36.1-.1.2-.18.32-.25.2-.13.43-.19.67-.18.18.04.34.15.44.31.13.2.2.43.23.67.05.31.07.63.07.94v2.92c0,.08-.02.17-.06.24-.02.07-.07.13-.13.17l-.54.31s-.09.03-.13,0c-.04-.04-.07-.11-.06-.17v-2.88c.04-.32-.02-.65-.18-.93-.13-.12-.3-.12-.52,0-.21.13-.38.33-.48.56-.16.35-.23.73-.22,1.11v2.93c0,.08-.02.16-.05.24-.03.07-.08.12-.14.16l-.54.31s-.09.04-.13,0c0,0,0,0,0,0-.04-.04-.07-.11-.06-.17v-2.87c.04-.32-.02-.65-.18-.93-.12-.12-.29-.12-.51,0-.22.14-.4.34-.5.58-.16.36-.23.76-.21,1.15v2.86c0,.08-.01.17-.05.24-.03.06-.07.12-.13.16l-.54.31s-.1.03-.14,0c-.02-.06-.02-.11,0-.17v-5.07c-.01-.08-.01-.16,0-.24.03-.07.08-.12.14-.16l.54-.31s.09-.03.13,0c.04.05.06.12.05.18v.25Z"/>
      <path id="elaqphh4spya" class="cls-19" d="M223.8,220.18c.03-.19.07-.38.13-.57.07-.23.17-.44.29-.65.13-.23.28-.45.46-.64.18-.2.39-.37.63-.51.2-.13.42-.2.65-.23.18-.02.36.03.5.14.15.14.27.33.32.53.08.3.12.61.11.92v3.19c0,.08-.02.17-.06.24-.02.07-.07.13-.13.17l-.54.31s-.09.03-.13,0c-.04-.05-.07-.11-.06-.18v-.36c-.11.28-.25.55-.42.79-.19.25-.44.47-.71.63-.17.1-.35.17-.55.19-.14.01-.29-.03-.4-.12-.12-.1-.2-.24-.25-.39-.06-.2-.09-.42-.09-.63,0-.48.12-.96.35-1.38.24-.42.55-.8.92-1.11l1.15-1c0-.29-.06-.47-.19-.52-.16-.04-.34-.01-.47.09-.11.06-.2.14-.28.24-.07.1-.13.2-.19.31-.03.07-.07.13-.11.19-.03.04-.08.07-.12.1l-.66.38s-.09.03-.12,0c0,0-.04-.05-.03-.13ZM224.98,222.57c.16-.09.3-.21.42-.35.12-.14.23-.29.32-.46.08-.16.14-.33.19-.5.04-.16.06-.32.06-.49v-.11l-1,.82c-.16.13-.3.28-.41.46-.09.14-.13.3-.13.47,0,.15,0,.24.15.25.14.02.28-.01.4-.09h0Z"/>
      <path id="el8sv7bnj6gx9" class="cls-19" d="M229.43,222.28c.11-.07.22-.15.31-.25.11-.12.2-.25.28-.39.09-.16.16-.33.21-.5.05-.2.08-.4.08-.6v-.4c-.04.09-.09.19-.15.3-.06.12-.14.23-.22.34l-.3.34c-.12.11-.26.21-.4.29-.19.13-.42.18-.64.15-.19-.03-.36-.13-.48-.28-.15-.19-.26-.4-.32-.63-.08-.29-.13-.59-.13-.89v-.76c.01-.34.06-.67.13-1,.07-.34.18-.68.32-1,.12-.3.29-.58.48-.84.17-.23.39-.43.64-.58.12-.08.26-.13.4-.17.1-.02.2-.02.3,0,.08.01.16.04.22.09l.15.12v-.26c0-.08.02-.17.06-.24.02-.07.07-.12.13-.16l.54-.31s.09-.04.13,0c0,0,0,0,0,0,.04.05.07.11.06.17v5.1c.02.78-.14,1.56-.48,2.26-.29.6-.75,1.09-1.32,1.43-.2.13-.43.21-.66.24-.18.02-.37,0-.54-.08-.15-.08-.27-.2-.36-.35-.09-.17-.14-.36-.15-.55,0-.08.02-.17.06-.24.03-.07.08-.13.14-.17l.48-.27c.05-.04.12-.04.17,0l.11.12c.06.09.16.14.26.16.18,0,.35-.07.49-.19ZM228.59,218.55c-.02.2-.02.41,0,.61-.03.31.07.62.28.85.18.12.41.12.59,0,.25-.16.45-.38.58-.65.16-.33.25-.69.27-1.06v-.83c.01-.27-.09-.53-.27-.73-.17-.13-.41-.13-.58,0-.26.15-.46.38-.59.65-.18.36-.27.76-.28,1.16h0Z"/>
      <path id="elff0r445uqao" class="cls-19" d="M232.02,216.87c0-.41.04-.82.12-1.22.07-.39.19-.77.35-1.13.14-.33.32-.65.54-.94.2-.26.44-.48.72-.65.21-.14.46-.2.71-.19.21.02.41.12.55.28.17.2.29.43.35.68.09.33.13.66.13,1v.49c0,.08-.02.17-.06.24-.03.07-.07.13-.13.17l-2.36,1.36c0,.14.02.27.06.4.04.09.1.16.18.22.09.03.18.03.27,0,.11-.02.21-.05.3-.11.13-.08.26-.17.37-.28.09-.1.17-.2.23-.32.04-.07.08-.13.13-.19.03-.05.08-.08.13-.11l.57-.32s.09-.03.13,0c.04.05.07.11.06.18-.02.15-.06.3-.11.45-.08.23-.18.44-.31.65-.14.24-.32.47-.51.68-.2.22-.43.41-.69.56-.21.15-.46.22-.72.21-.21-.02-.4-.13-.54-.29-.18-.21-.3-.46-.35-.73-.08-.36-.12-.72-.12-1.09ZM233.75,214.24c-.13.08-.25.18-.35.29-.1.12-.18.24-.24.38-.07.13-.12.28-.16.42-.03.13-.05.25-.06.38l1.59-.92c0-.11-.02-.22-.05-.32-.02-.09-.07-.18-.13-.25-.06-.06-.14-.1-.23-.1-.13,0-.26.04-.37.12h0Z"/>
      <path id="elo2xclrpe6ta" class="cls-19" d="M236.31,217.87s-.09.04-.13,0c0,0,0,0,0,0-.04-.05-.07-.11-.06-.17v-.72c0-.08.02-.17.06-.24.02-.07.07-.13.13-.16l4.13-2.39s.1-.03.14,0v.89c.02.08.02.16,0,.24-.03.07-.08.12-.14.16l-4.13,2.39Z"/>
      <path id="el4a4z2sltqn" class="cls-19" d="M243.77,212.91s-.09.04-.13,0c0,0,0,0,0,0-.04-.04-.07-.11-.06-.17v-1.32l-2.19,1.27s-.09.03-.13,0c-.04-.05-.07-.11-.06-.18v-.77c-.02-.1-.02-.19,0-.29,0-.1.06-.2.1-.31l2.17-5.4c.05-.17.15-.32.28-.44l.54-.31s.1-.03.14,0c.04.05.05.11.05.17v4.35l.61-.35s.09-.04.13,0c0,0,0,0,0,0,.04.05.07.11.06.18v.77c0,.08-.02.17-.06.24-.02.07-.07.12-.13.16l-.61.35v1.32c0,.08-.02.16-.05.24-.03.07-.08.12-.14.16l-.52.33ZM243.58,210.05v-2.32l-1.21,3,1.21-.68Z"/>
    </g>
  </g>
  <g id="freepik--Plants--inject-61">
    <g id="freepik--plants--inject-61">
      <path id="elpocuk81gea" class="cls-1" d="M71.33,365.87l10.7-6.16s9.73-20.32,5.92-40.48c-4.17-22.08-13.61-27.29-19.82-24.8s-8.7,10.11-.15,25.51c6.95,12.51,7.03,29.16,3.35,45.93Z"/>
      <path id="el7gchz2epu8p" class="cls-13" d="M76.47,363.42c.21,0,.4-.14.47-.34,6.89-21.09,7.17-50.72-5.86-64.08-.21-.18-.51-.15-.69.05-.15.18-.16.44,0,.63,12.31,12.61,12.53,42,5.63,63.1-.08.25.06.52.31.61.05.02.1.03.15.03Z"/>
      <path id="eln74y6apn1js" class="cls-1" d="M52.11,376.97c-1.11.63-3.39-.76-4.27-1.34-1.49-1.01-2.7-2.39-3.51-4-.92-1.86-1.23-3.96-.88-6,.18-1.07.43-2.13.75-3.17.29-1,.59-2,.88-3.07.36-.99.52-2.05.45-3.1-.27-2.1-2.13-3.57-3.83-4.84-1.87-1.4-3.82-3.26-3.81-5.78.14-1.96.92-3.83,2.23-5.3,1.2-1.53,2.64-2.88,3.73-4.5.86-1.13,1.31-2.51,1.28-3.93-.12-.87-.41-1.71-.86-2.46-1.04-1.56-1.95-3.2-2.73-4.91-.61-1.77-.53-4,.86-5.24,1.25-.93,2.81-1.32,4.35-1.08,1.42.18,2.78.67,4,1.43,4,2.23,6.31,7,10.57,8.7,1.71.53,3.46.95,5.22,1.26,1.76.33,3.3,1.39,4.25,2.91,1.57,3.13-1.34,7-.24,10.29,1,2.94,3.83,4.06,5.43,6.71.65,1.17.92,2.51.75,3.84-.14,2.24-.69,4.44-1.62,6.49-1.04,2.03-2.23,3.99-3.56,5.85-.01.06-19.27,11.14-19.44,11.24Z"/>
      <path id="elz3yyv46d9np" class="cls-13" d="M63.59,370.77c.22,0,.4-.16.43-.38,2.06-16.39-5.76-38.5-17.44-49.29-.17-.17-.45-.17-.62,0-.17.17-.17.44,0,.61,0,0,0,0,0,0,11.58,10.65,19.23,32.42,17.2,48.57-.03.23.14.45.37.48h.06Z"/>
      <path id="el0aax4v64qp9" class="cls-13" d="M61.59,349.79c.13,0,.26-.06.34-.17.15-.19.11-.46-.07-.6,0,0,0,0,0,0-6.45-4.83-16.3-4-16.72-3.95-.24.02-.41.23-.39.47,0,0,0,0,0,0,.02.24.23.41.47.39,0,0,0,0,0,0,.1,0,9.94-.85,16.12,3.79.08.05.17.08.26.08Z"/>
      <path id="el286fe1qi2yw" class="cls-13" d="M60.62,345.77c.23,0,.42-.18.43-.41.3-4.67,2.46-9.03,6-12.09.17-.18.16-.45-.01-.62-.14-.13-.35-.16-.52-.07-3.78,3.21-6.07,7.83-6.34,12.78,0,.24.18.44.42.45l.02-.04Z"/>
    </g>
  </g>
  <g id="freepik--Character--inject-61">
    <g id="freepik--character--inject-61">
      <path id="elqgh87cdl8mr" class="cls-18" d="M330.24,141.93c-.3,5.22-1.41,27.33-1,29.54.65,3.91,12.5,21.44,12.5,21.44,0,0,.75,7-8.73,10.08-2.81-5-12.56-19.95-14.55-24.34-.87-2.52-1.15-5.2-.8-7.84.92-10.34,3.37-25.45,3.64-28.78l8.94-.1Z"/>
      <path id="eli6xidcaka39" class="cls-14" d="M343.69,190.96c-.83-.76-4.33-3.35-5.54-5.06-4-5.62-6.39-10-6.39-10-4-.35-10.23,4.91-10.07,10.15,2.21,5.09,6.82,11.58,10.69,17.32l11.31-12.41Z"/>
      <polygon id="eltjqdobcmgv" class="cls-18" points="367.21 349.66 360.09 349.86 359.74 335.81 366.86 335.61 367.21 349.66"/>
      <path id="elxjv0r2giij" class="cls-11" d="M359.99,346.36v-1c-.67.32-2.56,5.71-4.83,9-1.7,2.52-6.63,5.51-7.34,7.82s4.37,3.56,6.45,3.13c2.42-.5,6.15-1.63,8.54-4.31,1.27-1.43,2-4.58,2.8-5.77s2.77-2.55,3.2-3.91c.1-1.26-.08-2.53-.52-3.72-.36-1.25-.76-2.62-1.18-2.49v.77c-.99.83-2.23,1.29-3.52,1.31-1.05.09-3.58-.05-3.6-.83Z"/>
      <polygon id="el41kw07s97dy" class="cls-18" points="345.27 337.45 338.17 337.89 337.45 323.14 344.91 322.68 345.27 337.45"/>
      <path id="eld5v701x4ay" class="cls-11" d="M338.04,335.28c-.78.33-1.45.88-1.93,1.57-1.41,1.59-3.09,2.92-4.95,3.94-3.57,1.9-7.27,3.52-11.09,4.85-1.51.55-2,2.7.46,4.4,2.8,1.9,6.13,1.64,10.49.53,2.38-.6,6.43-3.31,8.6-3.74,1.94-.39,5.7-.55,7.48-2.22.31-1.53.28-3.1-.08-4.62-.5-2-1.16-5.11-1.82-5v.7c-.81,1.32-5.21,2-7.12,1.07l-.04-1.48Z"/>
      <path id="elrjpg3wa7nuj" class="cls-1" d="M365.9,241.12c.19,6.79,1,53.72,1,53.72.22,1.95,2.2,5.37,2.55,12.41.5,10.2-2.09,34.43-2.09,34.43-2.45,1.3-5.35,1.44-7.92.39,0,0-4.84-34-6.41-44.07-1.44-9.31-1.68-8.63-4.24-32.38l-2.25,20.93c.93,3.68,1.34,7.48,1.21,11.28-.2,4.68-2.14,33.74-2.14,33.74-2.47,1.49-5.47,1.8-8.2.86,0,0-4.74-41.19-4.95-45.48-.23-4.88-1-47.62-1-47.62l34.44,1.79Z"/>
      <path id="elnyeqg5rlv" class="cls-10" d="M347.17,256.95s-3.3-.59-7.63-4.59c0,0,1.21,3.19,5.94,5.61l1.69,7.65-.42,18.49,2-18.5-1.58-8.66Z"/>
      <path id="elyyixjb6u53q" class="cls-15" d="M362.67,194.62c3.65,2.09,4.85,3.38,5.48,5,.56,1.42,1.19,1.48,1.19,4.19l-3.8,18.04.38,19.27c-10.22,5.38-23.52,6.17-34.41-1.79,0,0-.93-32.11.4-37.83s4.53-10.8,9.81-12c1.93-.43,16.35,2.72,16.35,2.72,0,0,2.06.94,4.6,2.4Z"/>
      <circle id="el42c9dd3zh1p" class="cls-11" cx="345.44" cy="167.05" r="9.78"/>
      <path id="el5a2x75dwhr7" class="cls-11" d="M362.35,174s-1.59,7.44-2.22,8.67c-.43.75-1.12,1.31-1.95,1.57l.11-5.24,4.06-5Z"/>
      <path id="el6bmtcsub0w7" class="cls-11" d="M360.36,163.36c1.11-.12,2.21.28,3,1.07,1.3,1.34.57,5.51-1.05,9.6l-3,.34,1.05-11.01Z"/>
      <path id="elxwubxms4coc" class="cls-18" d="M358.47,174.36c.6.36,1.45-.79,2.19-1.56s3.15-1.83,4.35.7-1.06,6-3,6.59c-3.27,1-3.76-1.07-3.76-1.07l-.24,13.22h0c-4.06,5.22-15.35,4.82-10.65-.62v-4.71c-1.36.12-2.72.12-4.08,0-2.41-.37-3.85-2.05-4.63-4.64-1-3.36-1.53-9.22-1-15.78.78-9,11.57-9.1,17.23-5.54s3.59,13.41,3.59,13.41Z"/>
      <path id="el2iclmk2cbm9" class="cls-11" d="M358.47,175.36c.3,0,1.44-1.89,2.19-2.57,1-.94-.3-9.45-.3-9.45.56-1.5.17-3.2-1-4.3-1.41-1.56-2.95-2.54-7-2.76-2.79,0-5.58.13-8.35.4-4,.27-5.51-.72-7.83-1.37s-2.5,5.64,2.5,8c0,0,1.46.94,5.29,1.4,3.54.27,7.09.2,10.61-.2,1.11-.15,1.35.93,1.95,3.87.49,2.58.93,6.98,1.94,6.98Z"/>
      <path id="elalo9u69mmsq" class="cls-11" d="M360.35,163.99l3.62-1.94c-.48-1-1.67-1.41-2.67-.94-.02.01-.05.02-.07.04-1.01.56-1.39,1.81-.88,2.84Z"/>
      <path id="elfxsn61crvb5" class="cls-12" d="M347.41,186.89s5.37-1.08,7.25-2.08c1.1-.57,2.01-1.46,2.59-2.56-.28,1.09-.78,2.11-1.47,3-1.37,1.76-8.37,3.05-8.37,3.05v-1.41Z"/>
      <path id="elmgf0eyf5o9p" class="cls-11" d="M347.68,173c.02.6.52,1.06,1.12,1.04.6-.02,1.06-.52,1.04-1.12-.02-.58-.5-1.04-1.09-1.04-.6.02-1.08.52-1.07,1.12Z"/>
      <path id="elc5tsbu9y0a" class="cls-11" d="M348.82,168.94l2.3,1.27c.35-.67.09-1.5-.58-1.85h0c-.63-.32-1.4-.06-1.72.57,0,0,0,0,0,0Z"/>
      <path id="elfdqnch27zoq" class="cls-12" d="M347.9,180.43l-2.46.92c.22.68.94,1.05,1.62.84.02,0,.03-.01.05-.02.69-.27,1.04-1.04.79-1.74Z"/>
      <path id="elph105n93xc" class="cls-11" d="M338.4,169.84l2.1-1.62c-.41-.58-1.2-.72-1.78-.31-.02.01-.03.02-.05.03-.58.46-.7,1.3-.27,1.9Z"/>
      <path id="elw20hwg7e3ua" class="cls-11" d="M339.04,172.7c-.06.59.38,1.12.97,1.18.59.06,1.12-.38,1.18-.97,0-.07,0-.14,0-.21.02-.6-.45-1.09-1.05-1.11,0,0-.01,0-.02,0-.6.01-1.09.51-1.08,1.11Z"/>
      <polygon id="elmeai4xmss6q" class="cls-12" points="344.52 171.68 344.17 178.14 340.79 176.99 344.52 171.68"/>
      <path id="elqlkl278im2" class="cls-1" d="M322.1,35.93v74.62c.04.87.5,1.66,1.23,2.14l74.21,42.86c.68.39,1.23.07,1.23-.72v-3.9l-72.7-42V36.78l-2.71-1.56c-.71-.4-1.26-.08-1.26.71Z"/>
      <path id="elx6x4t65sx1b" class="cls-14" d="M343.98,67.63c.08-.07.16-.13.24-.19h0l4.61-2.67h0c.72-.4,1.63-.18,2.08.51l16.37,40.38,10.88-7.16c.07-.06.15-.11.23-.16h.05l4.55-2.63h0c.71-.44,1.64-.23,2.11.46l15.86,32.16v21.34l-4.63,2.67-71.38-41.23c-.82-.47-1.32-1.35-1.32-2.29v-20.32l20.35-20.87Z"/>
      <g id="elwdvnqq2l4vi">
        <path class="cls-5" d="M343.98,67.63c.08-.07.16-.13.24-.19h0l4.61-2.67h0c.72-.4,1.63-.18,2.08.51l16.37,40.38,10.88-7.16c.07-.06.15-.11.23-.16h.05l4.55-2.63h0c.71-.44,1.64-.23,2.11.46l15.86,32.16v21.34l-4.63,2.67-71.38-41.23c-.82-.47-1.32-1.35-1.32-2.29v-20.32l20.35-20.87Z"/>
      </g>
      <path id="elcafqzv38ri" class="cls-14" d="M396.43,152.27v-21.34l-15.89-32.15c-.48-.72-1.44-.92-2.16-.44-.06.04-.11.08-.16.12l-15.22,10-16.66-40.57c-.47-.72-1.43-.93-2.16-.46-.08.05-.16.12-.23.18l-20.25,20.87v20.25c0,.94.5,1.82,1.32,2.29l71.41,41.25Z"/>
      <g id="elsgzw5w3qs">
        <polygon class="cls-5" points="363.03 108.48 367.83 120.15 364.78 107.32 363.03 108.48"/>
      </g>
      <path id="elbts6c311rr" class="cls-19" d="M319.1,31.54v93.34c.04.87.5,1.66,1.23,2.14l79.5,45.91c.06.04.13.07.2.1h.08c.71.26,1.5.21,2.18-.13l2.16-1.24c.73-.48,1.19-1.27,1.24-2.14v-93.32c-.02-.43-.14-.84-.36-1.21-.21-.37-.51-.69-.88-.92l-79.49-45.92c-.77-.39-1.69-.39-2.46,0l-2.17,1.21c-.62.41-1.05,1.06-1.19,1.79v.15c0,.05-.04.17-.04.24ZM322.1,35.93c0-.79.55-1.11,1.23-.71l74.21,42.86c.37.22.67.54.87.92.22.36.35.78.36,1.21v74.62c0,.79-.55,1.11-1.23.72l-74.18-42.86c-.73-.48-1.19-1.27-1.23-2.14l-.03-74.62Z"/>
      <path id="els2yftb98ww" class="cls-1" d="M400.11,173.06c.71.26,1.5.21,2.18-.13l2.16-1.24c.73-.47,1.19-1.27,1.24-2.14v-93.35c-.02-.43-.14-.84-.36-1.21l-4.63,2.67c.23.37.35.79.36,1.22v93.34c0,.67-.41,1-.95.84Z"/>
      <path id="elt4y35bic0w" class="cls-1" d="M319.1,31.54v93.34c.04.87.5,1.66,1.23,2.14l79.5,45.91c.06.04.13.07.2.1h.08c.54.16.95-.17.95-.84v-93.31c-.01-.43-.14-.85-.36-1.22-.21-.37-.51-.69-.87-.92l-79.5-45.91c-.56-.33-1-.16-1.19.36v.15s-.04.13-.04.2ZM322.1,35.93c0-.79.55-1.11,1.23-.71l74.21,42.86c.37.22.67.54.87.92.22.36.35.78.36,1.21v74.62c0,.79-.55,1.11-1.23.72l-74.18-42.86c-.73-.48-1.19-1.27-1.23-2.14l-.03-74.62Z"/>
      <path id="eluyzayqsvuzg" class="cls-14" d="M369.71,78.97l-1.79-3,3.68-2.14h0c1.15-.53,2.5-.39,3.52.35,2.95,1.91,4.81,5.12,5,8.63.13,1.24-.42,2.46-1.43,3.19h0l-3.57,2.07-1.71-2.91c-1.86-1.62-3.16-3.79-3.7-6.19Z"/>
      <g id="el2xrpm29155s">
        <path class="cls-5" d="M369.71,78.97l-1.79-3,3.68-2.14h0c1.15-.53,2.5-.39,3.52.35,2.95,1.91,4.81,5.12,5,8.63.13,1.24-.42,2.46-1.43,3.19h0l-3.57,2.07-1.71-2.91c-1.86-1.62-3.16-3.79-3.7-6.19Z"/>
      </g>
      <path id="elop03ymc71s" class="cls-14" d="M371.54,76.23c-2.75-1.58-5-.3-5,2.88.19,3.51,2.05,6.71,5,8.62,2.75,1.59,5,.3,5-2.87-.19-3.51-2.05-6.72-5-8.63Z"/>
      <path id="el4qmebo5oze" class="cls-14" d="M379.61,195.36c1-.17,2.13,3.1,2.49,5.88s.92,7.15-.41,7.65-3.33-3.3-4-6.35-.38-7.03,1.92-7.18Z"/>
      <g id="elrlsib8az1kd">
        <path class="cls-3" d="M379.61,195.36c1-.17,2.13,3.1,2.49,5.88s.92,7.15-.41,7.65-3.33-3.3-4-6.35-.38-7.03,1.92-7.18Z"/>
      </g>
      <path id="el9aq1ltbv015" class="cls-18" d="M391.45,168.36h0c-.47-.22-1.48-1.25-2.12-5.11-.44-2.6-.65-3.72-1.79-4.1s-.77.85-1.1,3.89c-.32,2.85-1.11,6.83-.72,10,.18,3.79-.08,7.59-.78,11.32-.64,4.23-2.38,10.46-2.38,10.46-1.34,1.43-18.78,4.59-18.78,4.59-3.64,6.72,1,13.67,1,13.67,11.05-3.18,15.29-4.9,20.85-6.74,4.08-1.35,5.25-2.07,5.86-4.9,1.45-6.68,2-16.89,2.53-21.93.41-3.54,4.33-4.73,5-6.71l-7.57-4.44Z"/>
      <path id="eln2t9ulky5yt" class="cls-14" d="M365.05,196.56c-1.45.46-2.61,1.57-3.14,3-.53,1.46-2.51,12.89,4.13,14.56.62-.08,3.69-1.3,7.95-2.51,2.62-.75,5.19-1.65,7.7-2.72-2.57-.37-4.95-11.72-2.08-13.53l-14.56,1.2Z"/>
      <path id="elhx7tg9ys74s" class="cls-18" d="M335,135.81c-.92-.57,0-3.23.2-6.09.21-3.05.85-4.21-.4-4s-1.59,1.24-2.48,3.72c-.42,1.33-1.05,2.59-1.86,3.73l-5.4-3.17c-1.63,1.88-3.12,3-3.39,6.27-.49,5.73-.56,7.13-1.12,11.64s9.64-5,9.64-5c.41-3.55,4.63-4.76,5.33-6.73l-.52-.31v-.06Z"/>
    </g>
  </g>
</svg>