<?xml version="1.0" encoding="UTF-8"?>
<svg id="freepik_stories-memory-storage" data-name="freepik stories-memory-storage" xmlns="http://www.w3.org/2000/svg" xmlns:xlink="http://www.w3.org/1999/xlink" viewBox="0 0 429.4 443.07">
  <defs>
    <style>
      .cls-1, .cls-2, .cls-3, .cls-4, .cls-5, .cls-6, .cls-7 {
        fill: none;
      }

      .cls-8 {
        fill: #036;
      }

      .cls-9 {
        stroke-miterlimit: 10;
      }

      .cls-9, .cls-10, .cls-11, .cls-3, .cls-12, .cls-13, .cls-14, .cls-15 {
        stroke: #263238;
      }

      .cls-9, .cls-11, .cls-16, .cls-17 {
        fill: #fff;
      }

      .cls-18 {
        opacity: .3;
      }

      .cls-18, .cls-16, .cls-17 {
        isolation: isolate;
      }

      .cls-10 {
        fill: #757575;
      }

      .cls-10, .cls-2, .cls-11, .cls-3, .cls-4, .cls-12, .cls-5, .cls-6, .cls-13, .cls-14, .cls-15, .cls-7 {
        stroke-linejoin: round;
      }

      .cls-10, .cls-11, .cls-3, .cls-12, .cls-5, .cls-13, .cls-14, .cls-15 {
        stroke-linecap: round;
      }

      .cls-19, .cls-14 {
        fill: #263238;
      }

      .cls-2 {
        stroke-dasharray: 7.1 7.1;
      }

      .cls-2, .cls-4, .cls-6, .cls-7 {
        stroke: #f60;
        stroke-width: 3px;
      }

      .cls-20 {
        clip-path: url(#clippath-1);
      }

      .cls-21 {
        clip-path: url(#clippath-3);
      }

      .cls-22 {
        clip-path: url(#clippath-4);
      }

      .cls-23 {
        clip-path: url(#clippath-2);
      }

      .cls-24 {
        clip-path: url(#clippath-5);
      }

      .cls-25, .cls-12 {
        fill: #f60;
      }

      .cls-4 {
        stroke-dasharray: 7.7 7.7;
      }

      .cls-26 {
        opacity: .2;
      }

      .cls-5 {
        stroke: #fff;
      }

      .cls-6 {
        stroke-dasharray: 5.7 5.7;
      }

      .cls-13 {
        fill: #bfbfbf;
      }

      .cls-15 {
        fill: #999;
      }

      .cls-27 {
        clip-path: url(#clippath);
      }

      .cls-16 {
        opacity: .7;
      }

      .cls-17 {
        opacity: .4;
      }
    </style>
    <clipPath id="clippath">
      <path class="cls-1" d="M354.6,413.18c-2.5,0-4.5-2-4.5-4.4v-27.4c0-2.3,1.8-4.3,4.1-4.4l1.1-2.8c.2-.5.7-.9,1.3-.9h11.4c.6,0,1.1.3,1.3.9l1.1,2.8h19c1.9,0,3.6,1.2,4.2,3l-38.9,33.2h-.1Z"/>
    </clipPath>
    <clipPath id="clippath-1">
      <path class="cls-1" d="M152.2,413.18c-2.5,0-4.4-2-4.4-4.5v-27.3c0-2.3,1.8-4.3,4.1-4.4l1.1-2.8c.2-.5.7-.9,1.3-.9h11.4c.6,0,1.1.3,1.3.9l1.1,2.8h19c1.9,0,3.6,1.2,4.2,3l-38.9,33.2h-.2Z"/>
    </clipPath>
    <clipPath id="clippath-2">
      <path class="cls-1" d="M290.4,167.98s-9.4,3.3-15.7,8.7c-6.3,5.4-16.3,13.6-16.3,13.6,0,0,5.7,13.6,12.2,19.1l14-5.6,5.8-35.8Z"/>
    </clipPath>
    <clipPath id="clippath-3">
      <path class="cls-1" d="M284.6,203.78c5.5,13.3,14,30,14,30l3.8,18.6s14.2,10.8,30.4,6.3c19-5.3,22.1-17.3,22.1-17.3l-7.2-14.6c-2.5-14-5.7-47-16.9-54.6-11.2-7.6-30.3-8.2-38-5.1-6.9,2.7-10.7,4.8-12.5,7.3l4.4,29.5-.1-.1Z"/>
    </clipPath>
    <clipPath id="clippath-4">
      <path class="cls-1" d="M325.5,180.18c-1.9,6.6-2.7,13.6.5,19.1,1.6,4.7,10.7,9.2,13.8,13.1,9.8-2.4,14-14.9,14-14.9,0,0-5.6-8.1-11.4-16.6s-17.1-11.6-17.1-11.6l.2,10.9Z"/>
    </clipPath>
    <clipPath id="clippath-5">
      <path class="cls-1" d="M333,268.68c-2.4.2-4.6-1.6-4.8-4.1l-2.2-27.3c-.2-2.3,1.5-4.4,3.8-4.7l.9-2.8c.1-.5.6-.9,1.2-1l11.3-.9c.6,0,1.1.3,1.3.8l1.3,2.6,19-1.5c1.9-.2,3.7.9,4.5,2.7l-36.2,36.3-.1-.1Z"/>
    </clipPath>
  </defs>
  <g id="freepik--background-simple--inject-1">
    <g id="el83994wbpn3s">
      <path class="cls-16" d="M32,137.98s-27.9,72,11.3,144.5,119.9,110.8,184.5,143.6,131.7,16.8,163.5-36.8-11.8-91.9-11.9-168.4,11.5-96.7-30-161.4S206.4-19.52,129.5,28.38C52.6,76.28,32,137.98,32,137.98Z"/>
    </g>
    <path id="el73kavyeto9a" class="cls-25" d="M30.6,66.08c3.4-4,7-7.8,11-11.2,28.5-24.7,69.2-29.4,104.3-18.3s65.3,36.2,89.6,65.4c11.1,13.4,21.7,28.1,36.6,36.2,19.2,10.5,41.5,8.3,62.2,11.4,75.5,11.3,100.1,117.2,48.5,172.3-20.3,21.7-48.7,34-75.6,43.2-37.3,12.7-76.3,21.1-115.4,19.5s-78.5-13.5-110-38.3C40.5,313.78,15.7,261.58,5.4,207.98.2,180.88-1.7,152.58,3.5,125.48c4.2-21.8,13.2-42.9,27-59.5l.1.1Z"/>
    <g id="eli17rhi34et9">
      <path class="cls-16" d="M334.4,149.68c-20.8-3.1-43-.9-62.2-11.4-14.9-8.2-25.5-22.9-36.6-36.2-24.4-29.2-54.5-54.3-89.6-65.4s-75.8-6.4-104.3,18.3c-4,3.4-7.6,7.2-11,11.2-13.8,16.5-22.8,37.6-27,59.4-5.2,27.1-3.3,55.4,1.9,82.5,10.3,53.7,35.1,105.8,76.4,138.3,31.5,24.8,70.9,36.8,110,38.3s78.1-6.8,115.4-19.5c26.9-9.2,55.3-21.5,75.6-43.2,51.6-55.1,27-161-48.5-172.3h-.1Z"/>
    </g>
  </g>
  <g id="freepik--Floor--inject-1">
    <line id="el5rxzh8v9vjh" class="cls-3" x1=".5" y1="413.18" x2="428.9" y2="413.18"/>
  </g>
  <g id="freepik--Line--inject-1">
    <line id="eltc0ji2xtpqn" class="cls-7" x1="215.7" y1="90.68" x2="215.7" y2="94.18"/>
    <line id="elolqedbdebfo" class="cls-4" x1="215.7" y1="101.88" x2="215.7" y2="113.38"/>
    <polyline id="elwbt0w1nbwxo" class="cls-7" points="215.7 117.28 215.7 120.78 212.2 120.78"/>
    <line id="el0he2oe08rl0p" class="cls-2" x1="205.1" y1="120.78" x2="95.5" y2="120.78"/>
    <polyline id="el47tp4fr4ms3" class="cls-7" points="92 120.78 88.5 120.78 88.5 124.28"/>
    <line id="elgtpnpuuckni" class="cls-6" x1="88.5" y1="129.98" x2="88.5" y2="138.58"/>
    <line id="el254fzatkbn7i" class="cls-7" x1="88.5" y1="141.48" x2="88.5" y2="144.98"/>
  </g>
  <g id="freepik--Clouds--inject-1">
    <line id="el9063w4bhmxj" class="cls-3" x1="106.3" y1="107.28" x2="120.5" y2="107.28"/>
    <path id="eldddo9bw92pt" class="cls-3" d="M109.4,73.18c-5.9,2.8-8.7,9.6-6.6,15.7h-.7c-5.1-.2-9.4,3.8-9.5,8.9s3.8,9.4,8.9,9.5h.6"/>
    <path id="elgcbjukcveha" class="cls-3" d="M137.4,62.38c-8.7-2.7-18.2,1.3-22.2,9.5h-.3"/>
    <path id="elr1vgitvnzbq" class="cls-3" d="M152.4,77.38c-.8,0-1.5,0-2.3.2-.6-4.7-3-9-6.7-12"/>
    <path id="elflfjfj0yi6" class="cls-3" d="M129.4,107.28h23c8.3,0,15-6.6,15-14.9h0"/>
    <line id="el1u9zlvdooep" class="cls-3" x1="285.5" y1="108.08" x2="295.1" y2="108.08"/>
    <path id="elj1sh7vkoxze" class="cls-3" d="M287.6,84.98c-3,1.4-5,4.5-5,7.9,0,1,.2,1.9.5,2.8h-.5c-3.5,0-6.3,2.8-6.3,6.3s2.8,6.3,6.3,6.3"/>
    <path id="eltzlzklds8ht" class="cls-3" d="M306.6,77.68c-1.2-.4-2.5-.6-3.8-.6-4.8,0-9.2,2.7-11.3,7.1h-.2"/>
    <path id="elt3v57sv75fp" class="cls-3" d="M316.8,87.88c-.5,0-1,0-1.6.1-.4-3.2-2-6.1-4.6-8.1"/>
    <path id="el6mcefp36cf" class="cls-3" d="M301.1,108.08h15.6c5.6,0,10.1-4.5,10.1-10.1h0"/>
    <path id="el5xe8vw1wxsw" class="cls-9" d="M249.2,41.78c-1.2,0-2.4,0-3.6.3-2-15.9-16.6-27.1-32.5-25.1-9.7,1.2-18.2,7.3-22.4,16.2h-.5c-11.1,0-20.1,9-20.1,20.1,0,2.2.4,4.4,1.1,6.5h-1.1c-8,0-14.5,6.5-14.5,14.5s6.5,14.5,14.5,14.5h79.1c13,0,23.5-10.5,23.5-23.5s-10.5-23.5-23.5-23.5h0Z"/>
    <line id="elll0di0di26" class="cls-3" x1="215.8" y1="65.58" x2="215.8" y2="48.78"/>
    <polyline id="elh0mw2cnr6ww" class="cls-3" points="225.1 54.48 215.8 45.18 206.5 54.48"/>
    <line id="el91m4a9bf49" class="cls-3" x1="215.8" y1="69.38" x2="215.8" y2="73.18"/>
    <line id="el8ac6aiuhguq" class="cls-3" x1="215.8" y1="77.58" x2="215.8" y2="80.48"/>
  </g>
  <g id="freepik--Folders--inject-1">
    <path id="el1uihpv08vuj" class="cls-3" d="M185.8,413.18h-19.8c-4,.1-7.4-3-7.6-7.1,0-.6,0-1.2.1-1.7l7.7-48.1c.9-5,5.2-8.6,10.2-8.8h60.8"/>
    <path id="el0ngh4n2iua9" class="cls-3" d="M174.7,334.18h17.8c1.1,0,2.1.7,2.5,1.7l2.1,5.5h37.7c3.8,0,7.1,2.4,8.4,6l2.1.2c4-.1,7.4,3,7.6,7.1,0,.6,0,1.2-.1,1.7l-7.6,48.1c-.9,5-5.2,8.6-10.2,8.8h-37.6"/>
    <path id="elonud46syvkr" class="cls-3" d="M157.2,371.18v-21c0-4.6,3.6-8.4,8.2-8.8l2.1-5.5c.4-1,1.4-1.7,2.5-1.7"/>
    <path id="elr06hjpq2bl" class="cls-3" d="M166,413.18c-4.9,0-8.8-3.9-8.8-8.8v-19.5"/>
    <path id="elx1df8sua8ro" class="cls-25" d="M354.6,413.18c-2.5,0-4.5-2-4.5-4.4h0v-27.4c0-2.3,1.8-4.3,4.1-4.4l1.1-2.8c.2-.5.7-.9,1.3-.9h11.4c.6,0,1.1.3,1.3.9l1.1,2.8h19c1.9,0,3.6,1.2,4.2,3"/>
    <g class="cls-27">
      <g id="eltu8889dhgt">
        <g id="el1jzgodfmu8q">
          <path class="cls-18" d="M354.6,413.18c-2.5,0-4.5-2-4.5-4.4h0v-27.4c0-2.3,1.8-4.3,4.1-4.4l1.1-2.8c.2-.5.7-.9,1.3-.9h11.4c.6,0,1.1.3,1.3.9l1.1,2.8h19c1.9,0,3.6,1.2,4.2,3"/>
        </g>
      </g>
    </g>
    <path id="el7al2evmr5ur" class="cls-3" d="M354.6,413.18c-2.5,0-4.5-2-4.5-4.4h0v-27.4c0-2.3,1.8-4.3,4.1-4.4l1.1-2.8c.2-.5.7-.9,1.3-.9h11.4c.6,0,1.1.3,1.3.9l1.1,2.8h19c1.9,0,3.6,1.2,4.2,3"/>
    <path id="el079b96x1yscw" class="cls-12" d="M354.6,413.18h34.7c2.6,0,4.7-1.9,5.2-4.4l3.9-24.3c.4-2-.9-3.9-2.9-4.4h-35.6c-2.6,0-4.7,1.9-5.2,4.4l-3.9,24.3c-.4,2,.9,3.9,2.9,4.4h.9Z"/>
    <path id="elv0g4j2kspbi" class="cls-25" d="M152.2,413.18c-2.5,0-4.4-2-4.4-4.5h0v-27.3c0-2.3,1.8-4.3,4.1-4.4l1.1-2.8c.2-.5.7-.9,1.3-.9h11.4c.6,0,1.1.3,1.3.9l1.1,2.8h19c1.9,0,3.6,1.2,4.2,3"/>
    <g class="cls-20">
      <g id="elipteemt4px">
        <g id="eli28c8d2azf">
          <path class="cls-18" d="M152.2,413.18c-2.5,0-4.4-2-4.4-4.5h0v-27.3c0-2.3,1.8-4.3,4.1-4.4l1.1-2.8c.2-.5.7-.9,1.3-.9h11.4c.6,0,1.1.3,1.3.9l1.1,2.8h19c1.9,0,3.6,1.2,4.2,3"/>
        </g>
      </g>
    </g>
    <path id="elhpos0rmen6u" class="cls-3" d="M152.2,413.18c-2.5,0-4.4-2-4.4-4.5h0v-27.3c0-2.3,1.8-4.3,4.1-4.4l1.1-2.8c.2-.5.7-.9,1.3-.9h11.4c.6,0,1.1.3,1.3.9l1.1,2.8h19c1.9,0,3.6,1.2,4.2,3"/>
    <path id="elnjl80ln0hq" class="cls-12" d="M152.2,413.18h34.7c2.6,0,4.7-1.9,5.2-4.4l3.9-24.3c.4-2-.9-3.9-2.9-4.4h-35.7c-2.5,0-4.7,1.9-5.2,4.4l-3.9,24.3c-.4,2,.9,4,2.9,4.4h1Z"/>
  </g>
  <g id="freepik--Character--inject-1">
    <path id="el9d2d0m899b" class="cls-12" d="M274.5,399.08s1.6,9.6,0,14.1h-31.9s-1.4-3.4,0-5.5,11.5-3.4,14.6-6.2c2.4-2.4,4.6-5,6.5-7.8l10.8,5.4Z"/>
    <polygon id="eltqnhn8wjycc" class="cls-11" points="242 411.48 274.9 411.48 275.1 413.18 242 413.18 242 411.48"/>
    <path id="el25nr8p9gaws" class="cls-3" d="M266.8,397.88s-3,.7-3.3.8-3.2,4.6-6.2,5.4-5.8.6-5.4,2.1"/>
    <line id="elyv8fugjc9yq" class="cls-3" x1="260.1" y1="397.88" x2="263.6" y2="400.48"/>
    <line id="el8uma37lri1o" class="cls-3" x1="258.6" y1="400.08" x2="261.9" y2="402.58"/>
    <line id="eltlenr9m1sq" class="cls-3" x1="256.5" y1="402.08" x2="259.3" y2="404.78"/>
    <line id="eleniidwf4wrk" class="cls-3" x1="253.6" y1="403.48" x2="254.8" y2="406.18"/>
    <path id="elasfhz0vbnl6" class="cls-19" d="M275,403.48c-3.7-.3-7.4.2-10.9,1.4-5.7,2-7.7,3.8-7.6,4.3s.8,2.1.8,2.1h2.9s-1-1.8-.8-2.1,10-4.1,15.6-3.4v-2.3Z"/>
    <path id="elccmhlzfezh" class="cls-12" d="M328.5,413.18s1.2-4.7-.2-6.4c-2.6-3.1.3-5.7-2.3-6.8l-1.1,1.3c-.2-1.3.4-5.2-4.4-5.7-5.8-.6-5.9,3.6-6.2,5v-1.9c-2.4,0-1.1,2.5-4.9,6.5-2,2.2-3,5.1-2.7,8.1h21.8v-.1Z"/>
    <path id="el2mhab8bmp0s" class="cls-8" d="M349.5,234.78c2.7,1.6,9.6,16.3,5.6,45.5s-16.1,86.3-18.1,95.1-9.1,29.8-9.1,29.8c0,0-2.7-9.1-15.7-4.3-.3.1-.7,0-.9-.4v-.4l2.9-14.9s.2-10.9,1.1-13.6c3.5-10.3,5.3-50,6.5-55.5s-1.1-21.5-1.1-21.5c0,0-16.3,39-16.8,42.9s-10.5,19.8-10.5,19.8l-1.8,14.7s-13.2,22.7-15.6,29.5l-15.8-3.5.4-11.2,4.2-1.5,7.4-25.5c2.4-8.8,5.2-17.5,8.6-26,3.5-8.9,13.5-43.2,13.5-43.2,3.1-3.4,6-21.9,6-21.9l4.8-23.4,44.4-10.4v-.1Z"/>
    <path id="el552ee69gywa" class="cls-11" d="M283.3,172.88l-32.4,24.4-20.8-32.9-7.8,1s15.5,42.4,24.1,46.7,41-19.2,41-19.2"/>
    <path id="elftxvyd85zp9" class="cls-25" d="M290.4,167.98s-9.4,3.3-15.7,8.7-16.3,13.6-16.3,13.6c0,0,5.7,13.6,12.2,19.1l14-5.6,5.8-35.8Z"/>
    <g class="cls-23">
      <g id="eloey9s83c0bj">
        <g id="eldgap7o5ewfq">
          <path class="cls-17" d="M270.6,209.38l5.1-4.6c-3.5-1.2-4-8.4-2-6.3,1.5,1.4,3.3,2.3,5.3,2.8-1.6-4.5-2.1-9.2-1.5-13.9,1.1,3.1,2,6.3,2.7,9.6.6,3.2,3,5.4,4,6.5l6.2-35.4s-9.4,3.3-15.7,8.7-16.3,13.6-16.3,13.6c0,0,5.7,13.4,12.2,19h0Z"/>
        </g>
      </g>
    </g>
    <path id="elmw46aowelj" class="cls-3" d="M290.4,167.98s-9.4,3.3-15.7,8.7-16.3,13.6-16.3,13.6c0,0,5.7,13.6,12.2,19.1l14-5.6,5.8-35.8Z"/>
    <path id="el64kpdzzmb2v" class="cls-25" d="M284.6,203.78c5.5,13.3,14,30,14,30l3.8,18.6s14.2,10.8,30.4,6.3c19-5.3,22.1-17.3,22.1-17.3l-7.2-14.6c-2.5-14-5.7-47-16.9-54.6s-30.3-8.2-38-5.1c-6.9,2.7-10.7,4.8-12.5,7.3"/>
    <g class="cls-21">
      <g id="elit06eo08c5j">
        <g id="eluiwozxythmc">
          <path class="cls-17" d="M344,245.88c-17.2,5.5-15.3,1.6-11.3-5.3,3.5-6.3,1-13.6,1.1-15.5-.8,1.5-3.7,6-7.3,7.7-4.7,2.2-3,3,1.1-4.8,2.6-5.2,4.3-10.8,5.1-16.6-4.6-4.6-8.2-15.6-8.2-15.6l15-9.2c-2.2-6.4-5-11.7-8.7-14.2-11.2-7.6-30.3-8.2-38-5.1-6.9,2.7-10.7,4.8-12.5,7.3l4.4,29.4c5.5,13.3,14,30,14,30l3.8,18.6s14.2,10.8,30.4,6.3c19-5.3,22.1-17.3,22.1-17.3l-.3-.6c-3.3,2.1-6.9,3.8-10.7,5.1v-.2Z"/>
        </g>
      </g>
    </g>
    <path id="elu8dvmr6zump" class="cls-3" d="M284.6,203.78c5.5,13.3,14,30,14,30l3.8,18.6s14.2,10.8,30.4,6.3c19-5.3,22.1-17.3,22.1-17.3l-7.2-14.6c-2.5-14-5.7-47-16.9-54.6s-30.3-8.2-38-5.1c-6.9,2.7-10.7,4.8-12.5,7.3"/>
    <path id="el8ff6czakn3l" class="cls-11" d="M310.8,169.68s-4.2,7.8-11.6,7c-6.2-.6-6-5.6-6-5.6.9-.7,1.5-1.7,1.9-2.8.2-.6.2-1.2.2-1.8-.1-1.5-.9-3.4-3-5.6h-.1c-.4-.5-.8-1-1.1-1.5-3.4-6,8.5-12.8,17.5-7.8,0,0-7,5.4,2.3,18.1h-.1Z"/>
    <path id="elt9kl30a771f" class="cls-19" d="M297.7,159.08s-.2,4.7-2.4,7.3c-.1-1.5-.9-3.4-3-5.6,1.4-1.5,3.4-2.2,5.4-1.8v.1Z"/>
    <path id="elpt9iejqvbpp" class="cls-11" d="M309.9,145.78c3.4-14.4-3.6-20.7-8.2-22.6-7.3-3-16.8,1.7-19,9.8s-.2,9.9-.3,13.1c0,2.3-1.5,3.4,0,9.2,1,3.8,2.7,9.9,9.3,8.8,2-.4,3.9-1,5.8-1.9"/>
    <path id="elazkgugvrzxe" class="cls-3" d="M290.9,141.08s2.7-1,4.1,2.2"/>
    <path id="el3jn2jv1ymou" class="cls-3" d="M281.7,139.38s2.8-.6,4,1.4"/>
    <path id="elp0wp9hsxft8" class="cls-3" d="M286.5,144.98s-2.8,4.8-2.7,5.5c.1,2.1,2.8,1.1,2.8,1.1"/>
    <path id="el0uxsyliwbyrh" class="cls-14" d="M291.5,145.58c0,.7.3,1.2.7,1.2s.7-.6.7-1.2-.3-1.2-.7-1.2-.7.5-.7,1.2Z"/>
    <path id="elkyvv2bah10r" class="cls-14" d="M283.7,144.98c0,.7.3,1.2.7,1.2s.7-.5.7-1.2-.3-1.2-.7-1.2-.7.5-.7,1.2Z"/>
    <path id="el7mj47vok4eb" class="cls-3" d="M291.5,153.58c-1.7.9-3.8,1.3-5.7.9"/>
    <path id="elzfpa76tyaig" class="cls-3" d="M290.9,154.08c-.2,1.2-1.1,2.2-2.3,2.3-1,.1-1.9-.6-2.1-1.6v-.2"/>
    <path id="el07pm8cgqygcq" class="cls-19" d="M309.9,127.38s-.4-7.7-14.8-7.5-18.6,11.4-11.3,14.5,11.8,1.7,11.8,1.7c-2-.7-3.7-1.9-5.1-3.5,2.9,1.7,6.1,3,9.3,3.8,0,0-1.6,2.1,0,5.8s.8,5.1.8,5.1c0,0,6.6,1.9,5.5,9,0,0,6.1-.1,8.5-14.1s-4.8-14.7-4.8-14.7l.1-.1Z"/>
    <path id="elawhy2ioeqgi" class="cls-11" d="M301.7,148.28s2.6-4.9,5.4-3.7.8,7.1-1.6,9-3.9,0-3.9,0"/>
    <path id="elaawar6jxhv8" class="cls-3" d="M277.5,187.28c1.6,6.5,2.5,11.6,7.1,16.5"/>
    <path id="el1jw0pgy73ud" class="cls-3" d="M276.5,182.18c.1,1,.3,2,.5,3"/>
    <path id="elzwh9qooclo" class="cls-11" d="M332.6,199.78s19.3,20.9,24,20.1,7.2-8.5,6.2-10.6-18.4-22.3-18.4-22.3l-11.8,12.9v-.1Z"/>
    <path id="elw4uuigz3rvc" class="cls-25" d="M325.5,180.18c-1.9,6.6-2.7,13.6.5,19.1,1.6,4.7,10.7,9.2,13.8,13.1,9.8-2.4,14-14.9,14-14.9,0,0-5.6-8.1-11.4-16.6s-17.1-11.6-17.1-11.6"/>
    <g class="cls-22">
      <g id="el7tsty8jrbg">
        <g id="el121zsjh8t3gf">
          <path class="cls-17" d="M325.5,180.18c-1.9,6.6-2.7,13.6.5,19.1,1.6,4.7,10.7,9.2,13.8,13.1,9.8-2.4,14-14.9,14-14.9,0,0-5.6-8.1-11.4-16.6s-17.1-11.6-17.1-11.6"/>
        </g>
      </g>
    </g>
    <path id="elnwfamlg5t1l" class="cls-3" d="M325.5,180.18c-1.9,6.6-2.7,13.6.5,19.1,1.6,4.7,10.7,9.2,13.8,13.1,9.8-2.4,14-14.9,14-14.9,0,0-5.6-8.1-11.4-16.6s-17.1-11.6-17.1-11.6"/>
    <path id="elo3h10i3f0fk" class="cls-11" d="M230.3,164.78s-3.2-7.5-5.2-9.9-4-4-4.6-4.1c-1.4-.2-5.9,2.4-5.9,2.4,0,0,0,1.4,2.4,1.2,0,0-3.5,2.2-3.7,3.9s2,4.2,2.5,5.1c.1.4.6.7,1,.6,0,0,.2,0,.3-.1,0,0,3.8,5.2,7.5,5.6"/>
    <path id="elpsgn3ns8qqp" class="cls-3" d="M217.1,163.88c.3-.4.5-.9.5-1.4,0,0,1.5,0,1.6-1.3,0,0,2.2.1,1.3-2.7"/>
    <path id="elkyb6wk7lvdi" class="cls-3" d="M219.2,161.08s-2.6-2.7-2.7-3.8"/>
    <path id="elkiooaopup9o" class="cls-3" d="M217.6,162.48s-2.8-2.5-2.6-3.6"/>
    <path id="el59sk1ur8qdr" class="cls-3" d="M220.1,152.68c-.7.8-1.7,1.4-2.8,1.5"/>
    <path id="elylhu87rp7zq" class="cls-3" d="M219.5,153.28c.5.4.9.8,1.3,1.2"/>
    <path id="elzer1664tm5r" class="cls-3" d="M326.4,178.08c.6-1,1.4-1.9,2.4-2.6"/>
    <polygon id="el7gdkqlhteje" class="cls-11" points="306.7 411.48 329 411.48 328.5 413.18 306.7 413.18 306.7 411.48"/>
    <path id="elsmavtqweuz8" class="cls-3" d="M313.8,404.98s7.3-2.4,10.8.6"/>
    <path id="el19b70w8x5au" class="cls-3" d="M313.8,403.38s6.4-2,10.8.7"/>
    <path id="elpzjlt46hkm" class="cls-3" d="M314.2,401.78s6-2.3,10.5.8"/>
    <path id="el4p0zsaoss7c" class="cls-19" d="M309.4,405.18l.7.7c.2.2.2.5,0,.8-1,1.5-1.5,3.2-1.5,4.9h-1.1c.2-1.7.8-3.4,1.5-4.9l-.5-.5.8-.9.1-.1Z"/>
    <path id="elyggbovgmhrg" class="cls-3" d="M334.9,223.08c-1.3,1.8-18.4,22.4-26.4,21.3"/>
    <path id="elcol0wvb5zfi" class="cls-3" d="M290.4,205.38s9.6,14.7,24.7,14.4"/>
    <g id="elz1n2udjrf1s">
      <g class="cls-26">
        <path id="elqznsxdv4fe" class="cls-5" d="M315.2,278.28c.9.2,17.7,6.3,21,12.5"/>
        <path id="elw4i90xw4no" class="cls-5" d="M319.3,287.18c-.8,1.2-8,23.5-11,29.7s-13.3,33.6-15.7,35.2c0,0-3.2,16-5.1,18.6s-12.2,23.1-12.2,23.1"/>
        <line id="el5kbrbiscir" class="cls-5" x1="263.7" y1="393.68" x2="276.1" y2="396.38"/>
        <path id="elk0aabmc1le" class="cls-5" d="M314.2,394.98s9.9-.9,13.3,2.9"/>
        <path id="elji8ib161ny" class="cls-5" d="M325.7,289.78c.8,4.8,13.3,31.1,16.3,28.1"/>
        <path id="el9ekgqzvejz8" class="cls-5" d="M320.9,292.08s-1.5-6.5,0-9.5c.5-1.1-10.7,2.8-14.4,1.9"/>
        <path id="elrnl1hfle0ui" class="cls-5" d="M319.3,259.78s2,5.6,2.4,7.4-3.6,8.7-2.4,10.1"/>
        <path id="elt0i0mrj128" class="cls-5" d="M346.5,254.48s2.8,4.2,2.8,7.4,3.8,4.5,3.8,4.5"/>
        <path id="elv4xnvcw30vm" class="cls-5" d="M352.4,249.88c2.1,9.3,2.3,19,.6,28.4-2.8,15.6-7.3,47.5-9.1,55.6s-5.9,26.3-5.9,28.9-4.2,17.2-4.2,17.2"/>
        <path id="el4klsncx3hrv" class="cls-5" d="M334.8,357.78c-.6,0-11.7,10.7-14.4,10.9"/>
        <path id="elo7srli92zb" class="cls-5" d="M286.4,351.28c-.6.2-9.9,4.8-10.3,3.4"/>
      </g>
    </g>
    <path id="el8pyxa14ogl9" class="cls-25" d="M333,268.68c-2.4.2-4.6-1.6-4.8-4.1l-2.2-27.3c-.2-2.3,1.5-4.4,3.8-4.7l.9-2.9c.1-.5.6-.9,1.2-1l11.3-.9c.6,0,1.1.3,1.3.8l1.3,2.6,19-1.5c1.9-.2,3.7.9,4.5,2.7"/>
    <g class="cls-24">
      <g id="el429optjpniw">
        <g id="el07fop32n5k68">
          <path class="cls-18" d="M333,268.68c-2.4.2-4.6-1.6-4.8-4.1l-2.2-27.3c-.2-2.3,1.5-4.4,3.8-4.7l.9-2.9c.1-.5.6-.9,1.2-1l11.3-.9c.6,0,1.1.3,1.3.8l1.3,2.6,19-1.5c1.9-.2,3.7.9,4.5,2.7"/>
        </g>
      </g>
    </g>
    <path id="el4r5f80u5yex" class="cls-3" d="M333,268.68c-2.4.2-4.6-1.6-4.8-4.1l-2.2-27.3c-.2-2.3,1.5-4.4,3.8-4.7l.9-2.9c.1-.5.6-.9,1.2-1l11.3-.9c.6,0,1.1.3,1.3.8l1.3,2.6,19-1.5c1.9-.2,3.7.9,4.5,2.7"/>
    <path id="elgiftkqpaum" class="cls-12" d="M333,268.68l34.6-2.8c2.5-.3,4.5-2.3,4.8-4.8l1.9-24.5c.2-2-1.2-3.9-3.2-4.1h-.9l-34.6,2.8c-2.5.3-4.5,2.3-4.8,4.8l-1.9,24.5c-.3,2,1.1,3.9,3.2,4.2h.9v-.1Z"/>
    <path id="elziuuo8822nj" class="cls-11" d="M359.7,205.28c3.6,3.4,5.4,6.1,5.2,17.3s-2.3,27.3-3.6,38.3l-9.5,1.5s1.5-17.2,0-28.5c-1.6-12.4-.3-19.3,1.1-20.2"/>
    <path id="elpmiipr5wrk" class="cls-11" d="M352.3,252.78c-.2,3.2-6,4.2-6.5,6.2-.1.7-2.2,5.1-2.2,5.1,0,1.3,0,2.5.3,3.8.5,1.7,2,.7,2,.7l.5,1.2c.8,2,2.3.1,4.8,1.4s3.7-.4,4.7,0,4.1-.6,4.7-1.8-.4-6.5.5-8.5.9-6.3.9-8.1"/>
    <path id="elrrhlak3b2gm" class="cls-11" d="M346,268.58s0-3.2,2.1-4.5"/>
    <rect id="elwrc1dz2xgyo" class="cls-15" x="127.4" y="152.28" width="88.9" height="18.4"/>
    <rect id="eljlnbzvb2nj" class="cls-15" x="127.4" y="176.18" width="88.9" height="18.4"/>
    <rect id="elo0w2lc9pwab" class="cls-15" x="127.4" y="200.08" width="88.9" height="18.4"/>
    <rect id="elglxja5h0vxq" class="cls-15" x="127.4" y="223.98" width="88.9" height="18.4"/>
    <rect id="elr56ledznzc" class="cls-15" x="127.4" y="247.88" width="88.9" height="18.4"/>
    <rect id="ela5qz84eibq" class="cls-13" x="143.9" y="150.28" width="75.2" height="22.5" rx="2" ry="2"/>
    <rect id="elalr9kscjesa" class="cls-13" x="143.9" y="174.18" width="75.2" height="22.5" rx="2" ry="2"/>
    <rect id="el5qzx7ikmv13" class="cls-13" x="143.9" y="198.08" width="75.2" height="22.5" rx="2" ry="2"/>
    <rect id="ele9vqrdbieq" class="cls-13" x="143.9" y="221.98" width="75.2" height="22.5" rx="2" ry="2"/>
    <rect id="eldaawri8y5h" class="cls-13" x="143.9" y="245.88" width="75.2" height="22.5" rx="2" ry="2"/>
    <path id="el8zn3vo4eygt" class="cls-11" d="M226.2,165.08s-5.2-2.3-5-6c0-.9-.3-1.9-.7-2.7,0,0-5-1.2-4.3-3.2l6.9.7c2.3,1.4,4,3.5,5,6"/>
    <rect id="ellbeoxn1de8n" class="cls-10" x="32.6" y="149.78" width="104.9" height="263.4"/>
    <rect id="elt2ld45whm4" class="cls-15" x="28" y="150.28" width="75.2" height="22.5" rx="2" ry="2"/>
    <rect id="elwqxpmgefg6n" class="cls-13" x="66.9" y="150.28" width="75.2" height="22.5" rx="2" ry="2"/>
    <path id="elnipxz5jniw" class="cls-8" d="M68.8,169.38v-15.8c0-.8.6-1.4,1.4-1.4h68.5c.8,0,1.4.6,1.4,1.3h0v15.8c0,.8-.6,1.4-1.4,1.4h-68.5c-.7,0-1.3-.6-1.4-1.3Z"/>
    <rect id="el3uilxux1rnh" class="cls-12" x="73.3" y="163.48" width="40.2" height="6.5" rx="1.3" ry="1.3"/>
    <rect id="eldw7o5e2ad8" class="cls-12" x="81.2" y="156.38" width="40.2" height="6.5" rx="1.3" ry="1.3"/>
    <rect id="el5zuikq1t6ym" class="cls-15" x="28" y="269.78" width="75.2" height="22.5" rx="2" ry="2"/>
    <rect id="elw2jcr6lvoh" class="cls-13" x="66.9" y="269.78" width="75.2" height="22.5" rx="2" ry="2"/>
    <rect id="elj7r3t59yrnl" class="cls-10" x="76.7" y="279.18" width="44.7" height="3.6"/>
    <path id="el38qcbrds07f" class="cls-12" d="M129.2,280.98c0,1-.8,1.8-1.8,1.8s-1.8-.8-1.8-1.8.8-1.8,1.8-1.8h0c1,0,1.8.8,1.8,1.8Z"/>
    <path id="elmhlumiww6fq" class="cls-10" d="M135.7,280.98c0,1-.8,1.8-1.8,1.8s-1.8-.8-1.8-1.8.8-1.8,1.8-1.8h0c1,0,1.8.8,1.8,1.8Z"/>
    <rect id="elj53p2xxh8i" class="cls-25" x="78.3" y="280.38" width="26.1" height="1.2"/>
    <rect id="elkuu8mkk0m" class="cls-15" x="28" y="293.58" width="75.2" height="22.5" rx="2" ry="2"/>
    <rect id="el9nj8o4ww7lh" class="cls-13" x="66.9" y="293.58" width="75.2" height="22.5" rx="2" ry="2"/>
    <rect id="elpwpu5cdqplb" class="cls-10" x="76.7" y="303.08" width="44.7" height="3.6"/>
    <circle id="elgcnzd75h3f9" class="cls-12" cx="127.4" cy="304.88" r="1.8"/>
    <path id="el55rtqby94zs" class="cls-10" d="M135.7,304.88c0,1-.8,1.8-1.8,1.8s-1.8-.8-1.8-1.8.8-1.8,1.8-1.8h0c1,0,1.8.8,1.8,1.8h0Z"/>
    <rect id="elrmb6bsyty4f" class="cls-25" x="78.3" y="304.28" width="26.1" height="1.2"/>
    <rect id="elcr1expnee0t" class="cls-15" x="28" y="317.48" width="75.2" height="22.5" rx="2" ry="2"/>
    <rect id="eljaa5o535buh" class="cls-13" x="66.9" y="317.48" width="75.2" height="22.5" rx="2" ry="2"/>
    <rect id="el0ddriw3y1vyc" class="cls-10" x="76.7" y="326.98" width="44.7" height="3.6"/>
    <circle id="elgeontjbgp46" class="cls-12" cx="127.4" cy="328.78" r="1.8"/>
    <path id="el1nkwsey7jfw" class="cls-10" d="M135.7,328.78c0,1-.8,1.8-1.8,1.8s-1.8-.8-1.8-1.8.8-1.8,1.8-1.8h0c1,0,1.8.8,1.8,1.8Z"/>
    <rect id="eldecehcf20l" class="cls-25" x="78.3" y="328.18" width="26.1" height="1.2"/>
    <rect id="eld0wh7paatkm" class="cls-15" x="28" y="341.38" width="75.2" height="22.5" rx="2" ry="2"/>
    <rect id="eluywuh2c7phe" class="cls-13" x="66.9" y="341.38" width="75.2" height="22.5" rx="2" ry="2"/>
    <rect id="el602e5vpwh6b" class="cls-10" x="76.7" y="350.88" width="44.7" height="3.6"/>
    <path id="elgt7jybfj25u" class="cls-12" d="M129.2,352.68c0,1-.8,1.8-1.8,1.8s-1.8-.8-1.8-1.8.8-1.8,1.8-1.8h0c1,0,1.8.8,1.8,1.8Z"/>
    <path id="eldwajqq7xpk" class="cls-10" d="M135.7,352.68c0,1-.8,1.8-1.8,1.8s-1.8-.8-1.8-1.8.8-1.8,1.8-1.8h0c1,0,1.8.8,1.8,1.8Z"/>
    <rect id="ely569we9q4vs" class="cls-25" x="78.3" y="352.08" width="26.1" height="1.2"/>
    <rect id="elcaiqstxmmke" class="cls-15" x="28" y="365.28" width="75.2" height="22.5" rx="2" ry="2"/>
    <rect id="el9kqwwj8f29p" class="cls-13" x="66.9" y="365.28" width="75.2" height="22.5" rx="2" ry="2"/>
    <rect id="elaq2llutdmq5" class="cls-10" x="76.7" y="374.78" width="44.7" height="3.6"/>
    <circle id="el2qjgnshp4l2" class="cls-12" cx="127.4" cy="376.58" r="1.8"/>
    <path id="elzgblypqzx2" class="cls-10" d="M135.7,376.58c0,1-.8,1.8-1.8,1.8s-1.8-.8-1.8-1.8.8-1.8,1.8-1.8h0c1,0,1.8.8,1.8,1.8Z"/>
    <rect id="elg4ko5xwl2vd" class="cls-25" x="78.3" y="375.98" width="26.1" height="1.2"/>
    <rect id="elexrkuh2n366" class="cls-15" x="28" y="389.18" width="75.2" height="22.5" rx="2" ry="2"/>
    <rect id="elko2t5c0cnjf" class="cls-13" x="66.9" y="389.18" width="75.2" height="22.5" rx="2" ry="2"/>
    <rect id="elg6x6drifzl" class="cls-10" x="76.7" y="398.68" width="44.7" height="3.6"/>
    <circle id="elhtxmnob9cni" class="cls-12" cx="127.4" cy="400.48" r="1.8"/>
    <path id="el6xderfw310g" class="cls-10" d="M135.7,400.48c0,1-.8,1.8-1.8,1.8s-1.8-.8-1.8-1.8.8-1.8,1.8-1.8h0c1,0,1.8.8,1.8,1.8Z"/>
    <rect id="elrqkzrkgv3wr" class="cls-25" x="78.3" y="399.88" width="26.1" height="1.2"/>
    <rect id="ela9poyvfrcdw" class="cls-15" x="28" y="245.88" width="75.2" height="22.5" rx="2" ry="2"/>
    <rect id="elx4lx5g91tnb" class="cls-13" x="66.9" y="245.88" width="75.2" height="22.5" rx="2" ry="2"/>
    <path id="ellujzdi1k4k" class="cls-8" d="M68.8,264.98v-15.8c0-.8.6-1.4,1.4-1.4h68.5c.8,0,1.4.6,1.4,1.4v15.8c0,.8-.6,1.4-1.4,1.4h-68.5c-.8,0-1.4-.6-1.4-1.4Z"/>
    <rect id="elldlb46m0zb" class="cls-12" x="73.3" y="259.08" width="40.2" height="6.5" rx="1.3" ry="1.3"/>
    <rect id="elo1f8jo05u0g" class="cls-12" x="115.5" y="259.08" width="20.2" height="6.5" rx="1.3" ry="1.3"/>
    <rect id="elo4birn8u27" class="cls-12" x="77.6" y="252.48" width="20.2" height="6.5" rx="1.3" ry="1.3"/>
    <rect id="elc85u9krn98r" class="cls-15" x="28" y="221.98" width="75.2" height="22.5" rx="2" ry="2"/>
    <rect id="el1p35ok6uc0v" class="cls-13" x="66.9" y="221.98" width="75.2" height="22.5" rx="2" ry="2"/>
    <path id="elu83ht83vh8" class="cls-8" d="M68.8,241.08v-15.8c0-.8.6-1.4,1.4-1.4h68.5c.8,0,1.4.6,1.4,1.4v15.8c0,.8-.6,1.4-1.3,1.4h-68.5c-.8,0-1.4-.6-1.4-1.4h-.1Z"/>
    <rect id="elhuvgfnrxq5w" class="cls-12" x="93.9" y="235.18" width="20.2" height="6.5" rx="1.3" ry="1.3"/>
    <rect id="elr94deyw6p4" class="cls-12" x="115.5" y="235.18" width="20.2" height="6.5" rx="1.3" ry="1.3"/>
    <rect id="elz3xc66m6u8j" class="cls-12" x="72.7" y="235.18" width="20.2" height="6.5" rx="1.3" ry="1.3"/>
    <rect id="el0lnki0crgubn" class="cls-12" x="88.5" y="228.28" width="20.2" height="6.5" rx="1.3" ry="1.3"/>
    <rect id="elf3b5w0vvm5c" class="cls-15" x="28" y="198.08" width="75.2" height="22.5" rx="2" ry="2"/>
    <rect id="ely800klhwhc" class="cls-13" x="66.9" y="198.08" width="75.2" height="22.5" rx="2" ry="2"/>
    <path id="eljpf470o90f" class="cls-8" d="M68.8,217.18v-15.8c0-.8.6-1.4,1.3-1.4h68.5c.8,0,1.4.6,1.4,1.4v15.8c0,.8-.6,1.4-1.3,1.4h-68.5c-.7,0-1.4-.6-1.4-1.4Z"/>
    <rect id="el3jrhu3852rf" class="cls-12" x="86.3" y="211.28" width="40.2" height="6.5" rx="1.3" ry="1.3"/>
    <path id="elxn4ctppq3w" class="cls-12" d="M120.1,210.58h-37.6c-.7,0-1.3-.6-1.3-1.3h0v.2c0-.7.6-1.3,1.3-1.3h37.6c.7,0,1.3.6,1.3,1.3v-.2c0,.7-.6,1.3-1.3,1.3Z"/>
    <rect id="elikvcsops8zm" class="cls-15" x="28" y="174.18" width="75.2" height="22.5" rx="2" ry="2"/>
    <rect id="el1vu0u1tq11l" class="cls-13" x="66.9" y="174.18" width="75.2" height="22.5" rx="2" ry="2"/>
    <path id="elwkvrbl1vb0r" class="cls-8" d="M68.8,193.28v-15.8c0-.8.6-1.4,1.3-1.4h68.5c.8,0,1.4.6,1.4,1.3h0v15.8c0,.8-.6,1.4-1.4,1.4h-68.5c-.7,0-1.3-.6-1.4-1.3h.1Z"/>
    <rect id="elap5dii7ltac" class="cls-12" x="93.3" y="187.38" width="40.2" height="6.5" rx="1.3" ry="1.3"/>
    <rect id="elg3qkl7u046m" class="cls-12" x="101.2" y="180.28" width="20.2" height="6.5" rx="1.3" ry="1.3"/>
    <line id="elajf7i4jhjwu" class="cls-3" x1="32.3" y1="164.48" x2="32.3" y2="169.98"/>
    <line id="el73k3d4cajht" class="cls-3" x1="34" y1="164.48" x2="34" y2="169.98"/>
    <line id="el0feu0w1yp3h" class="cls-3" x1="35.7" y1="164.48" x2="35.7" y2="169.98"/>
    <line id="eldaxskd7co6v" class="cls-3" x1="37.4" y1="164.48" x2="37.4" y2="169.98"/>
    <line id="elhvm8tkx4yih" class="cls-3" x1="39.1" y1="164.48" x2="39.1" y2="169.98"/>
    <line id="elpbiiawqhe5" class="cls-3" x1="32.3" y1="403.48" x2="32.3" y2="408.98"/>
    <line id="elehg9csdb5v" class="cls-3" x1="34" y1="403.48" x2="34" y2="408.98"/>
    <line id="elnrybv7qvq99" class="cls-3" x1="35.7" y1="403.48" x2="35.7" y2="408.98"/>
    <line id="elckgq3juiwb9" class="cls-3" x1="37.4" y1="403.48" x2="37.4" y2="408.98"/>
    <line id="el1y32ue2c4yq" class="cls-3" x1="39.1" y1="403.48" x2="39.1" y2="408.98"/>
    <line id="elmje1tnfkvhq" class="cls-3" x1="32.3" y1="379.68" x2="32.3" y2="385.08"/>
    <line id="el173jiz6svq1" class="cls-3" x1="34" y1="379.68" x2="34" y2="385.08"/>
    <line id="ellg8b120hu5b" class="cls-3" x1="35.7" y1="379.68" x2="35.7" y2="385.08"/>
    <line id="elaaphj5k3m6n" class="cls-3" x1="37.4" y1="379.68" x2="37.4" y2="385.08"/>
    <line id="elbefucluyyti" class="cls-3" x1="39.1" y1="379.68" x2="39.1" y2="385.08"/>
    <line id="elo28iqqlu8g" class="cls-3" x1="32.3" y1="355.78" x2="32.3" y2="361.18"/>
    <line id="elgcsccwc1zf" class="cls-3" x1="34" y1="355.78" x2="34" y2="361.18"/>
    <line id="el5g0gigcccxg" class="cls-3" x1="35.7" y1="355.78" x2="35.7" y2="361.18"/>
    <line id="elkmsepf6mwg" class="cls-3" x1="37.4" y1="355.78" x2="37.4" y2="361.18"/>
    <line id="el0pgtyqlsa5lf" class="cls-3" x1="39.1" y1="355.78" x2="39.1" y2="361.18"/>
    <line id="elhjp0clop1p6" class="cls-3" x1="32.3" y1="331.88" x2="32.3" y2="337.28"/>
    <line id="eld8zigetqqtf" class="cls-3" x1="34" y1="331.88" x2="34" y2="337.28"/>
    <line id="elaxwqobhdefg" class="cls-3" x1="35.7" y1="331.88" x2="35.7" y2="337.28"/>
    <line id="elcpq4q80ukme" class="cls-3" x1="37.4" y1="331.88" x2="37.4" y2="337.28"/>
    <line id="elte7id9x8kn" class="cls-3" x1="39.1" y1="331.88" x2="39.1" y2="337.28"/>
    <line id="elm0hyu4wbkj" class="cls-3" x1="32.3" y1="307.88" x2="32.3" y2="313.38"/>
    <line id="elim2dt8zznu" class="cls-3" x1="34" y1="307.88" x2="34" y2="313.38"/>
    <line id="el1c9trx3aixy" class="cls-3" x1="35.7" y1="307.88" x2="35.7" y2="313.38"/>
    <line id="elwh1gi4idk" class="cls-3" x1="37.4" y1="307.88" x2="37.4" y2="313.38"/>
    <line id="el7m60bs7vs1x" class="cls-3" x1="39.1" y1="307.88" x2="39.1" y2="313.38"/>
    <line id="elcvdb120n8xf" class="cls-3" x1="32.3" y1="283.98" x2="32.3" y2="289.48"/>
    <line id="eli1grq85nxy" class="cls-3" x1="34" y1="283.98" x2="34" y2="289.48"/>
    <line id="el0oa1v3k580x" class="cls-3" x1="35.7" y1="283.98" x2="35.7" y2="289.48"/>
    <line id="elensyahnmxvt" class="cls-3" x1="37.4" y1="283.98" x2="37.4" y2="289.48"/>
    <line id="elzmwidb9y13c" class="cls-3" x1="39.1" y1="283.98" x2="39.1" y2="289.48"/>
    <line id="elmgkipuk88jj" class="cls-3" x1="32.3" y1="260.08" x2="32.3" y2="265.58"/>
    <line id="el75tpbzh80p8" class="cls-3" x1="34" y1="260.08" x2="34" y2="265.58"/>
    <line id="elpzuvsbq17ue" class="cls-3" x1="35.7" y1="260.08" x2="35.7" y2="265.58"/>
    <line id="elgngouls0tcv" class="cls-3" x1="37.4" y1="260.08" x2="37.4" y2="265.58"/>
    <line id="elyyzic6hcfno" class="cls-3" x1="39.1" y1="260.08" x2="39.1" y2="265.58"/>
    <line id="elqrez396vklr" class="cls-3" x1="32.3" y1="236.28" x2="32.3" y2="241.68"/>
    <line id="elk4t8mwlyy" class="cls-3" x1="34" y1="236.28" x2="34" y2="241.68"/>
    <line id="el7woxy8fychw" class="cls-3" x1="35.7" y1="236.28" x2="35.7" y2="241.68"/>
    <line id="elnwy5an26c5" class="cls-3" x1="37.4" y1="236.28" x2="37.4" y2="241.68"/>
    <line id="elzv0xtby6s2o" class="cls-3" x1="39.1" y1="236.28" x2="39.1" y2="241.68"/>
    <line id="elljdzkevewaf" class="cls-3" x1="32.3" y1="212.28" x2="32.3" y2="217.78"/>
    <line id="elbskp1zoj64f" class="cls-3" x1="34" y1="212.28" x2="34" y2="217.78"/>
    <line id="el0f0ux0i9easg" class="cls-3" x1="35.7" y1="212.28" x2="35.7" y2="217.78"/>
    <line id="el88jaqm6vx74" class="cls-3" x1="37.4" y1="212.28" x2="37.4" y2="217.78"/>
    <line id="elvr8vopbwo9" class="cls-3" x1="39.1" y1="212.28" x2="39.1" y2="217.78"/>
    <line id="els0qq4niy6h" class="cls-3" x1="32.3" y1="188.48" x2="32.3" y2="193.88"/>
    <line id="elwz7fxlgno7g" class="cls-3" x1="34" y1="188.48" x2="34" y2="193.88"/>
    <line id="elyw2yf1p0idl" class="cls-3" x1="35.7" y1="188.48" x2="35.7" y2="193.88"/>
    <line id="elukk9olxfbz" class="cls-3" x1="37.4" y1="188.48" x2="37.4" y2="193.88"/>
    <line id="el5gtwx3gfa8k" class="cls-3" x1="39.1" y1="188.48" x2="39.1" y2="193.88"/>
  </g>
</svg>