<?xml version="1.0" encoding="UTF-8"?>
<svg id="freepik_stories-memory-storage" xmlns="http://www.w3.org/2000/svg" xmlns:xlink="http://www.w3.org/1999/xlink" xmlns:svgjs="http://svgjs.com/svgjs" version="1.1" viewBox="0 0 500 500">
  <!-- Generator: Adobe Illustrator 29.1.0, SVG Export Plug-In . SVG Version: 2.1.0 Build 142)  -->
  <defs>
    <style>
      .st0, .st1, .st2, .st3, .st4, .st5, .st6 {
        fill: none;
      }

      .st7 {
        fill: #036;
      }

      .st8 {
        stroke-miterlimit: 10;
      }

      .st8, .st9, .st10, .st3, .st11, .st12, .st13, .st14 {
        stroke: #263238;
      }

      .st8, .st10, .st15, .st16 {
        fill: #fff;
      }

      .st1 {
        stroke-dasharray: 5.7 5.7;
      }

      .st1, .st9, .st2, .st10, .st3, .st11, .st4, .st12, .st13, .st14, .st5, .st6 {
        stroke-linejoin: round;
      }

      .st1, .st2, .st5, .st6 {
        stroke: #f60;
        stroke-width: 3px;
      }

      .st9 {
        fill: #757575;
      }

      .st9, .st10, .st3, .st11, .st4, .st12, .st13, .st14 {
        stroke-linecap: round;
      }

      .st2 {
        stroke-dasharray: 7.1 7.1;
      }

      .st17, .st13 {
        fill: #263238;
      }

      .st18 {
        clip-path: url(#clippath-1);
      }

      .st19 {
        clip-path: url(#clippath-3);
      }

      .st20 {
        clip-path: url(#clippath-4);
      }

      .st21 {
        clip-path: url(#clippath-2);
      }

      .st22 {
        clip-path: url(#clippath-5);
      }

      .st23, .st11 {
        fill: #f60;
      }

      .st24 {
        opacity: .2;
      }

      .st4 {
        stroke: #fff;
      }

      .st12 {
        fill: #bfbfbf;
      }

      .st14 {
        fill: #999;
      }

      .st25 {
        fill-opacity: .7;
        opacity: .3;
      }

      .st25, .st15, .st16 {
        isolation: isolate;
      }

      .st26 {
        clip-path: url(#clippath);
      }

      .st6 {
        stroke-dasharray: 7.7 7.7;
      }

      .st15 {
        opacity: .7;
      }

      .st16 {
        opacity: .4;
      }
    </style>
    <clipPath id="clippath">
      <path class="st0" d="M390.5,442.3c-2.5,0-4.5-2-4.5-4.4h0v-27.4c0-2.3,1.8-4.3,4.1-4.4l1.1-2.8c.2-.5.7-.9,1.3-.9h11.4c.6,0,1.1.3,1.3.9l1.1,2.8h19c1.9,0,3.6,1.2,4.2,3l-38.9,33.2Z"/>
    </clipPath>
    <clipPath id="clippath-1">
      <path class="st0" d="M188.1,442.3c-2.5,0-4.4-2-4.4-4.5v-27.3c0-2.3,1.8-4.3,4.1-4.4l1.1-2.8c.2-.5.7-.9,1.3-.9h11.4c.6,0,1.1.3,1.3.9l1.1,2.8h19c1.9,0,3.6,1.2,4.2,3l-38.9,33.2Z"/>
    </clipPath>
    <clipPath id="clippath-2">
      <path class="st0" d="M326.3,197.1s-9.4,3.3-15.7,8.7c-6.3,5.4-16.3,13.6-16.3,13.6,0,0,5.7,13.6,12.2,19.1l14-5.6,5.8-35.8Z"/>
    </clipPath>
    <clipPath id="clippath-3">
      <path class="st0" d="M320.5,232.9c5.5,13.3,14,30,14,30l3.8,18.6s14.2,10.8,30.4,6.3c19-5.3,22.1-17.3,22.1-17.3l-7.2-14.6c-2.5-14-5.7-47-16.9-54.6s-30.3-8.2-38-5.1c-6.9,2.7-10.7,4.8-12.5,7.3l4.4,29.5Z"/>
    </clipPath>
    <clipPath id="clippath-4">
      <path class="st0" d="M361.4,209.3c-1.9,6.6-2.7,13.6.5,19.1,1.6,4.7,10.7,9.2,13.8,13.1,9.8-2.4,14-14.9,14-14.9,0,0-5.6-8.1-11.4-16.6s-17.1-11.6-17.1-11.6l.2,10.9Z"/>
    </clipPath>
    <clipPath id="clippath-5">
      <path class="st0" d="M368.9,297.8c-2.4.2-4.6-1.6-4.8-4.1l-2.2-27.3c-.2-2.3,1.5-4.4,3.8-4.7l.9-2.8c.1-.5.6-.9,1.2-1l11.3-.9c.6,0,1.1.3,1.3.8l1.3,2.6,19-1.5c1.9-.2,3.7.9,4.5,2.7l-36.2,36.3Z"/>
    </clipPath>
  </defs>
  <g id="freepik--background-simple--inject-1">
    <g id="el83994wbpn3s">
      <path class="st15" d="M67.9,167.1s-27.9,72,11.3,144.5,119.9,110.8,184.5,143.6c64.6,32.8,131.7,16.8,163.5-36.8s-11.8-91.9-11.9-168.4,11.5-96.7-30-161.4S242.3,9.6,165.4,57.5s-97.5,109.6-97.5,109.6Z"/>
    </g>
    <path id="el73kavyeto9a" class="st23" d="M66.5,95.2c3.4-4,7-7.8,11-11.2,28.5-24.7,69.2-29.4,104.3-18.3s65.3,36.2,89.6,65.4c11.1,13.4,21.7,28.1,36.6,36.2,19.2,10.5,41.5,8.3,62.2,11.4,75.5,11.3,100.1,117.2,48.5,172.3-20.3,21.7-48.7,34-75.6,43.2-37.3,12.7-76.3,21.1-115.4,19.5s-78.5-13.5-110-38.3c-41.3-32.5-66.1-84.7-76.4-138.3-5.2-27.1-7.1-55.4-1.9-82.5,4.2-21.8,13.2-42.9,27-59.5Z"/>
    <g id="eli17rhi34et9">
      <path class="st15" d="M370.3,178.8c-20.8-3.1-43-.9-62.2-11.4-14.9-8.2-25.5-22.9-36.6-36.2-24.4-29.2-54.5-54.3-89.6-65.4s-75.8-6.4-104.3,18.3c-4,3.4-7.6,7.2-11,11.2-13.8,16.5-22.8,37.6-27,59.4-5.2,27.1-3.3,55.4,1.9,82.5,10.3,53.7,35.1,105.8,76.4,138.3,31.5,24.8,70.9,36.8,110,38.3s78.1-6.8,115.4-19.5c26.9-9.2,55.3-21.5,75.6-43.2,51.6-55.1,27-161-48.5-172.3Z"/>
    </g>
  </g>
  <g id="freepik--Floor--inject-1">
    <line id="el5rxzh8v9vjh" class="st3" x1="36.4" y1="442.3" x2="464.8" y2="442.3"/>
  </g>
  <g id="freepik--Line--inject-1">
    <line id="eltc0ji2xtpqn" class="st5" x1="251.6" y1="119.8" x2="251.6" y2="123.3"/>
    <line id="elolqedbdebfo" class="st6" x1="251.6" y1="131" x2="251.6" y2="142.5"/>
    <polyline id="elwbt0w1nbwxo" class="st5" points="251.6 146.4 251.6 149.9 248.1 149.9"/>
    <line id="el0he2oe08rl0p" class="st2" x1="241" y1="149.9" x2="131.4" y2="149.9"/>
    <polyline id="el47tp4fr4ms3" class="st5" points="127.9 149.9 124.4 149.9 124.4 153.4"/>
    <line id="elgtpnpuuckni" class="st1" x1="124.4" y1="159.1" x2="124.4" y2="167.7"/>
    <line id="el254fzatkbn7i" class="st5" x1="124.4" y1="170.6" x2="124.4" y2="174.1"/>
  </g>
  <g id="freepik--Clouds--inject-1">
    <line id="el9063w4bhmxj" class="st3" x1="142.2" y1="136.4" x2="156.4" y2="136.4"/>
    <path id="eldddo9bw92pt" class="st3" d="M145.3,102.3c-5.9,2.8-8.7,9.6-6.6,15.7h-.7c-5.1-.2-9.4,3.8-9.5,8.9s3.8,9.4,8.9,9.5c.2,0,.4,0,.6,0"/>
    <path id="elgcbjukcveha" class="st3" d="M173.3,91.5c-8.7-2.7-18.2,1.3-22.2,9.5h-.3"/>
    <path id="elr1vgitvnzbq" class="st3" d="M188.3,106.5c-.8,0-1.5,0-2.3.2-.6-4.7-3-9-6.7-12"/>
    <path id="elflfjfj0yi6" class="st3" d="M165.3,136.4h23c8.3,0,15-6.6,15-14.9,0,0,0,0,0,0"/>
    <line id="el1u9zlvdooep" class="st3" x1="321.4" y1="137.2" x2="331" y2="137.2"/>
    <path id="elj1sh7vkoxze" class="st3" d="M323.5,114.1c-3,1.4-5,4.5-5,7.9,0,1,.2,1.9.5,2.8-.2,0-.3,0-.5,0-3.5,0-6.3,2.8-6.3,6.3s2.8,6.3,6.3,6.3"/>
    <path id="eltzlzklds8ht" class="st3" d="M342.5,106.8c-1.2-.4-2.5-.6-3.8-.6-4.8,0-9.2,2.7-11.3,7.1h-.2"/>
    <path id="elt3v57sv75fp" class="st3" d="M352.7,117c-.5,0-1,0-1.6.1-.4-3.2-2-6.1-4.6-8.1"/>
    <path id="el6mcefp36cf" class="st3" d="M337,137.2h15.6c5.6,0,10.1-4.5,10.1-10.1h0"/>
    <path id="el5xe8vw1wxsw" class="st8" d="M285.1,70.9c-1.2,0-2.4,0-3.6.3-2-15.9-16.6-27.1-32.5-25.1-9.7,1.2-18.2,7.3-22.4,16.2h-.5c-11.1,0-20.1,9-20.1,20.1,0,2.2.4,4.4,1.1,6.5-.4,0-.7,0-1.1,0-8,0-14.5,6.5-14.5,14.5s6.5,14.5,14.5,14.5h79.1c13,0,23.5-10.5,23.5-23.5s-10.5-23.5-23.5-23.5h0Z"/>
    <line id="elll0di0di26" class="st3" x1="251.7" y1="94.7" x2="251.7" y2="77.9"/>
    <polyline id="elh0mw2cnr6ww" class="st3" points="261 83.6 251.7 74.3 242.4 83.6"/>
    <line id="el91m4a9bf49" class="st3" x1="251.7" y1="98.5" x2="251.7" y2="102.3"/>
    <line id="el8ac6aiuhguq" class="st3" x1="251.7" y1="106.7" x2="251.7" y2="109.6"/>
  </g>
  <g id="freepik--Folders--inject-1">
    <path id="el1uihpv08vuj" class="st3" d="M221.7,442.3h-19.8c-4,.1-7.4-3-7.6-7.1,0-.6,0-1.2.1-1.7l7.7-48.1c.9-5,5.2-8.6,10.2-8.8h60.8"/>
    <path id="el0ngh4n2iua9" class="st3" d="M210.6,363.3h17.8c1.1,0,2.1.7,2.5,1.7l2.1,5.5h37.7c3.8,0,7.1,2.4,8.4,6l2.1.2c4-.1,7.4,3,7.6,7.1,0,.6,0,1.2-.1,1.7l-7.6,48.1c-.9,5-5.2,8.6-10.2,8.8h-37.6"/>
    <path id="elonud46syvkr" class="st3" d="M193.1,400.3v-21c0-4.6,3.6-8.4,8.2-8.8l2.1-5.5c.4-1,1.4-1.7,2.5-1.7"/>
    <path id="elr06hjpq2bl" class="st3" d="M201.9,442.3c-4.9,0-8.8-3.9-8.8-8.8v-19.5"/>
    <path id="elx1df8sua8ro" class="st23" d="M390.5,442.3c-2.5,0-4.5-2-4.5-4.4h0v-27.4c0-2.3,1.8-4.3,4.1-4.4l1.1-2.8c.2-.5.7-.9,1.3-.9h11.4c.6,0,1.1.3,1.3.9l1.1,2.8h19c1.9,0,3.6,1.2,4.2,3"/>
    <g class="st26">
      <g id="eltu8889dhgt">
        <g id="el1jzgodfmu8q">
          <path class="st25" d="M390.5,442.3c-2.5,0-4.5-2-4.5-4.4h0v-27.4c0-2.3,1.8-4.3,4.1-4.4l1.1-2.8c.2-.5.7-.9,1.3-.9h11.4c.6,0,1.1.3,1.3.9l1.1,2.8h19c1.9,0,3.6,1.2,4.2,3"/>
        </g>
      </g>
    </g>
    <path id="el7al2evmr5ur" class="st3" d="M390.5,442.3c-2.5,0-4.5-2-4.5-4.4h0v-27.4c0-2.3,1.8-4.3,4.1-4.4l1.1-2.8c.2-.5.7-.9,1.3-.9h11.4c.6,0,1.1.3,1.3.9l1.1,2.8h19c1.9,0,3.6,1.2,4.2,3"/>
    <path id="el079b96x1yscw" class="st11" d="M390.5,442.3h34.7c2.6,0,4.7-1.9,5.2-4.4l3.9-24.3c.4-2-.9-3.9-2.9-4.4-.3,0-.6,0-.9,0h-34.7c-2.6,0-4.7,1.9-5.2,4.4l-3.9,24.3c-.4,2,.9,3.9,2.9,4.4.3,0,.6,0,.9,0Z"/>
    <path id="elv0g4j2kspbi" class="st23" d="M188.1,442.3c-2.5,0-4.4-2-4.4-4.5h0v-27.3c0-2.3,1.8-4.3,4.1-4.4l1.1-2.8c.2-.5.7-.9,1.3-.9h11.4c.6,0,1.1.3,1.3.9l1.1,2.8h19c1.9,0,3.6,1.2,4.2,3"/>
    <g class="st18">
      <g id="elipteemt4px">
        <g id="eli28c8d2azf">
          <path class="st25" d="M188.1,442.3c-2.5,0-4.4-2-4.4-4.5h0v-27.3c0-2.3,1.8-4.3,4.1-4.4l1.1-2.8c.2-.5.7-.9,1.3-.9h11.4c.6,0,1.1.3,1.3.9l1.1,2.8h19c1.9,0,3.6,1.2,4.2,3"/>
        </g>
      </g>
    </g>
    <path id="elhpos0rmen6u" class="st3" d="M188.1,442.3c-2.5,0-4.4-2-4.4-4.5h0v-27.3c0-2.3,1.8-4.3,4.1-4.4l1.1-2.8c.2-.5.7-.9,1.3-.9h11.4c.6,0,1.1.3,1.3.9l1.1,2.8h19c1.9,0,3.6,1.2,4.2,3"/>
    <path id="elnjl80ln0hq" class="st11" d="M188.1,442.3h34.7c2.6,0,4.7-1.9,5.2-4.4l3.9-24.3c.4-2-.9-3.9-2.9-4.4-.3,0-.6,0-.9,0h-34.8c-2.5,0-4.7,1.9-5.2,4.4l-3.9,24.3c-.4,2,.9,4,2.9,4.4.3,0,.6,0,.9,0Z"/>
  </g>
  <g id="freepik--Character--inject-1">
    <path id="el9d2d0m899b" class="st11" d="M310.4,428.2s1.6,9.6,0,14.1h-31.9s-1.4-3.4,0-5.5,11.5-3.4,14.6-6.2c2.4-2.4,4.6-5,6.5-7.8l10.8,5.4Z"/>
    <polygon id="eltqnhn8wjycc" class="st10" points="277.9 440.6 310.8 440.6 311 442.3 277.9 442.3 277.9 440.6"/>
    <path id="el25nr8p9gaws" class="st3" d="M302.7,427s-3,.7-3.3.8-3.2,4.6-6.2,5.4-5.8.6-5.4,2.1"/>
    <line id="elyv8fugjc9yq" class="st3" x1="296" y1="427" x2="299.5" y2="429.6"/>
    <line id="el8uma37lri1o" class="st3" x1="294.5" y1="429.2" x2="297.8" y2="431.7"/>
    <line id="eltlenr9m1sq" class="st3" x1="292.4" y1="431.2" x2="295.2" y2="433.9"/>
    <line id="eleniidwf4wrk" class="st3" x1="289.5" y1="432.6" x2="290.7" y2="435.3"/>
    <path id="elasfhz0vbnl6" class="st17" d="M310.9,432.6c-3.7-.3-7.4.2-10.9,1.4-5.7,2-7.7,3.8-7.6,4.3s.8,2.1.8,2.1h2.9s-1-1.8-.8-2.1,10-4.1,15.6-3.4v-2.3Z"/>
    <path id="elccmhlzfezh" class="st11" d="M364.4,442.3s1.2-4.7-.2-6.4c-2.6-3.1.3-5.7-2.3-6.8l-1.1,1.3c-.2-1.3.4-5.2-4.4-5.7-5.8-.6-5.9,3.6-6.2,5v-1.9c-2.4,0-1.1,2.5-4.9,6.5-2,2.2-3,5.1-2.7,8.1h21.8Z"/>
    <path id="el2mhab8bmp0s" class="st7" d="M385.4,263.9c2.7,1.6,9.6,16.3,5.6,45.5s-16.1,86.3-18.1,95.1-9.1,29.8-9.1,29.8c0,0-2.7-9.1-15.7-4.3-.3.1-.7,0-.9-.4,0-.1,0-.2,0-.4l2.9-14.9s.2-10.9,1.1-13.6c3.5-10.3,5.3-50,6.5-55.5s-1.1-21.5-1.1-21.5c0,0-16.3,39-16.8,42.9s-10.5,19.8-10.5,19.8l-1.8,14.7s-13.2,22.7-15.6,29.5l-15.8-3.5.4-11.2,4.2-1.5,7.4-25.5c2.4-8.8,5.2-17.5,8.6-26,3.5-8.9,13.5-43.2,13.5-43.2,3.1-3.4,6-21.9,6-21.9l4.8-23.4,44.4-10.4Z"/>
    <path id="el552ee69gywa" class="st10" d="M319.2,202l-32.4,24.4-20.8-32.9-7.8,1s15.5,42.4,24.1,46.7,41-19.2,41-19.2"/>
    <path id="elftxvyd85zp9" class="st23" d="M326.3,197.1s-9.4,3.3-15.7,8.7-16.3,13.6-16.3,13.6c0,0,5.7,13.6,12.2,19.1l14-5.6,5.8-35.8Z"/>
    <g class="st21">
      <g id="eloey9s83c0bj">
        <g id="eldgap7o5ewfq">
          <path class="st16" d="M306.5,238.5l5.1-4.6c-3.5-1.2-4-8.4-2-6.3,1.5,1.4,3.3,2.3,5.3,2.8-1.6-4.5-2.1-9.2-1.5-13.9,1.1,3.1,2,6.3,2.7,9.6.6,3.2,3,5.4,4,6.5l6.2-35.4s-9.4,3.3-15.7,8.7-16.3,13.6-16.3,13.6c0,0,5.7,13.4,12.2,19Z"/>
        </g>
      </g>
    </g>
    <path id="elmw46aowelj" class="st3" d="M326.3,197.1s-9.4,3.3-15.7,8.7-16.3,13.6-16.3,13.6c0,0,5.7,13.6,12.2,19.1l14-5.6,5.8-35.8Z"/>
    <path id="el64kpdzzmb2v" class="st23" d="M320.5,232.9c5.5,13.3,14,30,14,30l3.8,18.6s14.2,10.8,30.4,6.3c19-5.3,22.1-17.3,22.1-17.3l-7.2-14.6c-2.5-14-5.7-47-16.9-54.6s-30.3-8.2-38-5.1c-6.9,2.7-10.7,4.8-12.5,7.3"/>
    <g class="st19">
      <g id="elit06eo08c5j">
        <g id="eluiwozxythmc">
          <path class="st16" d="M379.9,275c-17.2,5.5-15.3,1.6-11.3-5.3,3.5-6.3,1-13.6,1.1-15.5-.8,1.5-3.7,6-7.3,7.7-4.7,2.2-3,3,1.1-4.8,2.6-5.2,4.3-10.8,5.1-16.6-4.6-4.6-8.2-15.6-8.2-15.6l15-9.2c-2.2-6.4-5-11.7-8.7-14.2-11.2-7.6-30.3-8.2-38-5.1-6.9,2.7-10.7,4.8-12.5,7.3l4.4,29.4c5.5,13.3,14,30,14,30l3.8,18.6s14.2,10.8,30.4,6.3c19-5.3,22.1-17.3,22.1-17.3l-.3-.6c-3.3,2.1-6.9,3.8-10.7,5.1Z"/>
        </g>
      </g>
    </g>
    <path id="elu8dvmr6zump" class="st3" d="M320.5,232.9c5.5,13.3,14,30,14,30l3.8,18.6s14.2,10.8,30.4,6.3c19-5.3,22.1-17.3,22.1-17.3l-7.2-14.6c-2.5-14-5.7-47-16.9-54.6s-30.3-8.2-38-5.1c-6.9,2.7-10.7,4.8-12.5,7.3"/>
    <path id="el8ff6czakn3l" class="st10" d="M346.7,198.8s-4.2,7.8-11.6,7c-6.2-.6-6-5.6-6-5.6.9-.7,1.5-1.7,1.9-2.8.2-.6.2-1.2.2-1.8-.1-1.5-.9-3.4-3-5.6h-.1c-.4-.5-.8-1-1.1-1.5-3.4-6,8.5-12.8,17.5-7.8,0,0-7,5.4,2.3,18.1Z"/>
    <path id="elt9kl30a771f" class="st17" d="M333.6,188.2s-.2,4.7-2.4,7.3c-.1-1.5-.9-3.4-3-5.6,1.4-1.5,3.4-2.2,5.4-1.8Z"/>
    <path id="elpt9iejqvbpp" class="st10" d="M345.8,174.9c3.4-14.4-3.6-20.7-8.2-22.6-7.3-3-16.8,1.7-19,9.8s-.2,9.9-.3,13.1c0,2.3-1.5,3.4,0,9.2,1,3.8,2.7,9.9,9.3,8.8,2-.4,3.9-1,5.8-1.9"/>
    <path id="elazkgugvrzxe" class="st3" d="M326.8,170.2s2.7-1,4.1,2.2"/>
    <path id="el3jn2jv1ymou" class="st3" d="M317.6,168.5s2.8-.6,4,1.4"/>
    <path id="elp0wp9hsxft8" class="st3" d="M322.4,174.1s-2.8,4.8-2.7,5.5c.1,2.1,2.8,1.1,2.8,1.1"/>
    <path id="el0uxsyliwbyrh" class="st13" d="M327.4,174.7c0,.7.3,1.2.7,1.2s.7-.6.7-1.2-.3-1.2-.7-1.2-.7.5-.7,1.2Z"/>
    <path id="elkyvv2bah10r" class="st13" d="M319.6,174.1c0,.7.3,1.2.7,1.2s.7-.5.7-1.2-.3-1.2-.7-1.2-.7.5-.7,1.2Z"/>
    <path id="el7mj47vok4eb" class="st3" d="M327.4,182.7c-1.7.9-3.8,1.3-5.7.9"/>
    <path id="elzfpa76tyaig" class="st3" d="M326.8,183.2c-.2,1.2-1.1,2.2-2.3,2.3-1,.1-1.9-.6-2.1-1.6,0,0,0-.1,0-.2"/>
    <path id="el07pm8cgqygcq" class="st17" d="M345.8,156.5s-.4-7.7-14.8-7.5-18.6,11.4-11.3,14.5,11.8,1.7,11.8,1.7c-2-.7-3.7-1.9-5.1-3.5,2.9,1.7,6.1,3,9.3,3.8,0,0-1.6,2.1,0,5.8s.8,5.1.8,5.1c0,0,6.6,1.9,5.5,9,0,0,6.1-.1,8.5-14.1s-4.8-14.7-4.8-14.7Z"/>
    <path id="elawhy2ioeqgi" class="st10" d="M337.6,177.4s2.6-4.9,5.4-3.7.8,7.1-1.6,9-3.9,0-3.9,0"/>
    <path id="elaawar6jxhv8" class="st3" d="M313.4,216.4c1.6,6.5,2.5,11.6,7.1,16.5"/>
    <path id="el1jw0pgy73ud" class="st3" d="M312.4,211.3c.1,1,.3,2,.5,3"/>
    <path id="elzwh9qooclo" class="st10" d="M368.5,228.9s19.3,20.9,24,20.1,7.2-8.5,6.2-10.6-18.4-22.3-18.4-22.3l-11.8,12.9Z"/>
    <path id="elw4uuigz3rvc" class="st23" d="M361.4,209.3c-1.9,6.6-2.7,13.6.5,19.1,1.6,4.7,10.7,9.2,13.8,13.1,9.8-2.4,14-14.9,14-14.9,0,0-5.6-8.1-11.4-16.6s-17.1-11.6-17.1-11.6"/>
    <g class="st20">
      <g id="el7tsty8jrbg">
        <g id="el121zsjh8t3gf">
          <path class="st16" d="M361.4,209.3c-1.9,6.6-2.7,13.6.5,19.1,1.6,4.7,10.7,9.2,13.8,13.1,9.8-2.4,14-14.9,14-14.9,0,0-5.6-8.1-11.4-16.6s-17.1-11.6-17.1-11.6"/>
        </g>
      </g>
    </g>
    <path id="elnwfamlg5t1l" class="st3" d="M361.4,209.3c-1.9,6.6-2.7,13.6.5,19.1,1.6,4.7,10.7,9.2,13.8,13.1,9.8-2.4,14-14.9,14-14.9,0,0-5.6-8.1-11.4-16.6s-17.1-11.6-17.1-11.6"/>
    <path id="elo3h10i3f0fk" class="st10" d="M266.2,193.9s-3.2-7.5-5.2-9.9-4-4-4.6-4.1c-1.4-.2-5.9,2.4-5.9,2.4,0,0,0,1.4,2.4,1.2,0,0-3.5,2.2-3.7,3.9s2,4.2,2.5,5.1c.1.4.6.7,1,.6,0,0,.2,0,.3-.1,0,0,3.8,5.2,7.5,5.6"/>
    <path id="elpsgn3ns8qqp" class="st3" d="M253,193c.3-.4.5-.9.5-1.4,0,0,1.5,0,1.6-1.3,0,0,2.2.1,1.3-2.7"/>
    <path id="elkyb6wk7lvdi" class="st3" d="M255.1,190.2s-2.6-2.7-2.7-3.8"/>
    <path id="elkiooaopup9o" class="st3" d="M253.5,191.6s-2.8-2.5-2.6-3.6"/>
    <path id="el59sk1ur8qdr" class="st3" d="M256,181.8c-.7.8-1.7,1.4-2.8,1.5"/>
    <path id="elylhu87rp7zq" class="st3" d="M255.4,182.4c.5.4.9.8,1.3,1.2"/>
    <path id="elzer1664tm5r" class="st3" d="M362.3,207.2c.6-1,1.4-1.9,2.4-2.6"/>
    <polygon id="el7gdkqlhteje" class="st10" points="342.6 440.6 364.9 440.6 364.4 442.3 342.6 442.3 342.6 440.6"/>
    <path id="elsmavtqweuz8" class="st3" d="M349.7,434.1s7.3-2.4,10.8.6"/>
    <path id="el19b70w8x5au" class="st3" d="M349.7,432.5s6.4-2,10.8.7"/>
    <path id="elpzjlt46hkm" class="st3" d="M350.1,430.9s6-2.3,10.5.8"/>
    <path id="el4p0zsaoss7c" class="st17" d="M345.3,434.3l.7.7c.2.2.2.5,0,.8-1,1.5-1.5,3.2-1.5,4.9h-1.1c.2-1.7.8-3.4,1.5-4.9l-.5-.5.8-.9Z"/>
    <path id="elyggbovgmhrg" class="st3" d="M370.8,252.2c-1.3,1.8-18.4,22.4-26.4,21.3"/>
    <path id="elcol0wvb5zfi" class="st3" d="M326.3,234.5s9.6,14.7,24.7,14.4"/>
    <g id="elz1n2udjrf1s">
      <g class="st24">
        <path id="elqznsxdv4fe" class="st4" d="M351.1,307.4c.9.2,17.7,6.3,21,12.5"/>
        <path id="elw4i90xw4no" class="st4" d="M355.2,316.3c-.8,1.2-8,23.5-11,29.7s-13.3,33.6-15.7,35.2c0,0-3.2,16-5.1,18.6s-12.2,23.1-12.2,23.1"/>
        <line id="el5kbrbiscir" class="st4" x1="299.6" y1="422.8" x2="312" y2="425.5"/>
        <path id="elk0aabmc1le" class="st4" d="M350.1,424.1s9.9-.9,13.3,2.9"/>
        <path id="elji8ib161ny" class="st4" d="M361.6,318.9c.8,4.8,13.3,31.1,16.3,28.1"/>
        <path id="el9ekgqzvejz8" class="st4" d="M356.8,321.2s-1.5-6.5,0-9.5c.5-1.1-10.7,2.8-14.4,1.9"/>
        <path id="elrnl1hfle0ui" class="st4" d="M355.2,288.9s2,5.6,2.4,7.4-3.6,8.7-2.4,10.1"/>
        <path id="elt0i0mrj128" class="st4" d="M382.4,283.6s2.8,4.2,2.8,7.4,3.8,4.5,3.8,4.5"/>
        <path id="elv4xnvcw30vm" class="st4" d="M388.3,279c2.1,9.3,2.3,19,.6,28.4-2.8,15.6-7.3,47.5-9.1,55.6s-5.9,26.3-5.9,28.9-4.2,17.2-4.2,17.2"/>
        <path id="el4klsncx3hrv" class="st4" d="M370.7,386.9c-.6,0-11.7,10.7-14.4,10.9"/>
        <path id="elo7srli92zb" class="st4" d="M322.3,380.4c-.6.2-9.9,4.8-10.3,3.4"/>
      </g>
    </g>
    <path id="el8pyxa14ogl9" class="st23" d="M368.9,297.8c-2.4.2-4.6-1.6-4.8-4.1l-2.2-27.3c-.2-2.3,1.5-4.4,3.8-4.7l.9-2.9c.1-.5.6-.9,1.2-1l11.3-.9c.6,0,1.1.3,1.3.8l1.3,2.6,19-1.5c1.9-.2,3.7.9,4.5,2.7"/>
    <g class="st22">
      <g id="el429optjpniw">
        <g id="el07fop32n5k68">
          <path class="st25" d="M368.9,297.8c-2.4.2-4.6-1.6-4.8-4.1l-2.2-27.3c-.2-2.3,1.5-4.4,3.8-4.7l.9-2.9c.1-.5.6-.9,1.2-1l11.3-.9c.6,0,1.1.3,1.3.8l1.3,2.6,19-1.5c1.9-.2,3.7.9,4.5,2.7"/>
        </g>
      </g>
    </g>
    <path id="el4r5f80u5yex" class="st3" d="M368.9,297.8c-2.4.2-4.6-1.6-4.8-4.1l-2.2-27.3c-.2-2.3,1.5-4.4,3.8-4.7l.9-2.9c.1-.5.6-.9,1.2-1l11.3-.9c.6,0,1.1.3,1.3.8l1.3,2.6,19-1.5c1.9-.2,3.7.9,4.5,2.7"/>
    <path id="elgiftkqpaum" class="st11" d="M368.9,297.8l34.6-2.8c2.5-.3,4.5-2.3,4.8-4.8l1.9-24.5c.2-2-1.2-3.9-3.2-4.1-.3,0-.6,0-.9,0l-34.6,2.8c-2.5.3-4.5,2.3-4.8,4.8l-1.9,24.5c-.3,2,1.1,3.9,3.2,4.2.3,0,.6,0,.9,0Z"/>
    <path id="elziuuo8822nj" class="st10" d="M395.6,234.4c3.6,3.4,5.4,6.1,5.2,17.3s-2.3,27.3-3.6,38.3l-9.5,1.5s1.5-17.2,0-28.5c-1.6-12.4-.3-19.3,1.1-20.2"/>
    <path id="elpmiipr5wrk" class="st10" d="M388.2,281.9c-.2,3.2-6,4.2-6.5,6.2-.1.7-2.2,5.1-2.2,5.1,0,1.3,0,2.5.3,3.8.5,1.7,2,.7,2,.7l.5,1.2c.8,2,2.3.1,4.8,1.4s3.7-.4,4.7,0,4.1-.6,4.7-1.8-.4-6.5.5-8.5.9-6.3.9-8.1"/>
    <path id="elrrhlak3b2gm" class="st10" d="M381.9,297.7s0-3.2,2.1-4.5"/>
    <rect id="elwrc1dz2xgyo" class="st14" x="163.3" y="181.4" width="88.9" height="18.4"/>
    <rect id="eljlnbzvb2nj" class="st14" x="163.3" y="205.3" width="88.9" height="18.4"/>
    <rect id="elo0w2lc9pwab" class="st14" x="163.3" y="229.2" width="88.9" height="18.4"/>
    <rect id="elglxja5h0vxq" class="st14" x="163.3" y="253.1" width="88.9" height="18.4"/>
    <rect id="elr56ledznzc" class="st14" x="163.3" y="277" width="88.9" height="18.4"/>
    <rect id="ela5qz84eibq" class="st12" x="179.8" y="179.4" width="75.2" height="22.5" rx="2" ry="2"/>
    <rect id="elalr9kscjesa" class="st12" x="179.8" y="203.3" width="75.2" height="22.5" rx="2" ry="2"/>
    <rect id="el5qzx7ikmv13" class="st12" x="179.8" y="227.2" width="75.2" height="22.5" rx="2" ry="2"/>
    <rect id="ele9vqrdbieq" class="st12" x="179.8" y="251.1" width="75.2" height="22.5" rx="2" ry="2"/>
    <rect id="eldaawri8y5h" class="st12" x="179.8" y="275" width="75.2" height="22.5" rx="2" ry="2"/>
    <path id="el8zn3vo4eygt" class="st10" d="M262.1,194.2s-5.2-2.3-5-6c0-.9-.3-1.9-.7-2.7,0,0-5-1.2-4.3-3.2l6.9.7c2.3,1.4,4,3.5,5,6"/>
    <rect id="ellbeoxn1de8n" class="st9" x="68.5" y="178.9" width="104.9" height="263.4"/>
    <rect id="elt2ld45whm4" class="st14" x="63.9" y="179.4" width="75.2" height="22.5" rx="2" ry="2"/>
    <rect id="elwqxpmgefg6n" class="st12" x="102.8" y="179.4" width="75.2" height="22.5" rx="2" ry="2"/>
    <path id="elnipxz5jniw" class="st7" d="M104.7,198.5v-15.8c0-.8.6-1.4,1.4-1.4h68.5c.8,0,1.4.6,1.4,1.3,0,0,0,0,0,0v15.8c0,.8-.6,1.4-1.4,1.4h-68.5c-.7,0-1.3-.6-1.4-1.3Z"/>
    <rect id="el3uilxux1rnh" class="st11" x="109.2" y="192.6" width="40.2" height="6.5" rx="1.3" ry="1.3"/>
    <rect id="eldw7o5e2ad8" class="st11" x="117.1" y="185.5" width="40.2" height="6.5" rx="1.3" ry="1.3"/>
    <rect id="el5zuikq1t6ym" class="st14" x="63.9" y="298.9" width="75.2" height="22.5" rx="2" ry="2"/>
    <rect id="elw2jcr6lvoh" class="st12" x="102.8" y="298.9" width="75.2" height="22.5" rx="2" ry="2"/>
    <rect id="elj7r3t59yrnl" class="st9" x="112.6" y="308.3" width="44.7" height="3.6"/>
    <path id="el38qcbrds07f" class="st11" d="M165.1,310.1c0,1-.8,1.8-1.8,1.8s-1.8-.8-1.8-1.8.8-1.8,1.8-1.8h0c1,0,1.8.8,1.8,1.8Z"/>
    <path id="elmhlumiww6fq" class="st9" d="M171.6,310.1c0,1-.8,1.8-1.8,1.8s-1.8-.8-1.8-1.8.8-1.8,1.8-1.8h0c1,0,1.8.8,1.8,1.8Z"/>
    <rect id="elj53p2xxh8i" class="st23" x="114.2" y="309.5" width="26.1" height="1.2"/>
    <rect id="elkuu8mkk0m" class="st14" x="63.9" y="322.7" width="75.2" height="22.5" rx="2" ry="2"/>
    <rect id="el9nj8o4ww7lh" class="st12" x="102.8" y="322.7" width="75.2" height="22.5" rx="2" ry="2"/>
    <rect id="elpwpu5cdqplb" class="st9" x="112.6" y="332.2" width="44.7" height="3.6"/>
    <circle id="elgcnzd75h3f9" class="st11" cx="163.3" cy="334" r="1.8"/>
    <path id="el55rtqby94zs" class="st9" d="M171.6,334c0,1-.8,1.8-1.8,1.8s-1.8-.8-1.8-1.8.8-1.8,1.8-1.8h0c1,0,1.8.8,1.8,1.8,0,0,0,0,0,0Z"/>
    <rect id="elrmb6bsyty4f" class="st23" x="114.2" y="333.4" width="26.1" height="1.2"/>
    <rect id="elcr1expnee0t" class="st14" x="63.9" y="346.6" width="75.2" height="22.5" rx="2" ry="2"/>
    <rect id="eljaa5o535buh" class="st12" x="102.8" y="346.6" width="75.2" height="22.5" rx="2" ry="2"/>
    <rect id="el0ddriw3y1vyc" class="st9" x="112.6" y="356.1" width="44.7" height="3.6"/>
    <circle id="elgeontjbgp46" class="st11" cx="163.3" cy="357.9" r="1.8"/>
    <path id="el1nkwsey7jfw" class="st9" d="M171.6,357.9c0,1-.8,1.8-1.8,1.8s-1.8-.8-1.8-1.8c0-1,.8-1.8,1.8-1.8,0,0,0,0,0,0,1,0,1.8.8,1.8,1.8Z"/>
    <rect id="eldecehcf20l" class="st23" x="114.2" y="357.3" width="26.1" height="1.2"/>
    <rect id="eld0wh7paatkm" class="st14" x="63.9" y="370.5" width="75.2" height="22.5" rx="2" ry="2"/>
    <rect id="eluywuh2c7phe" class="st12" x="102.8" y="370.5" width="75.2" height="22.5" rx="2" ry="2"/>
    <rect id="el602e5vpwh6b" class="st9" x="112.6" y="380" width="44.7" height="3.6"/>
    <path id="elgt7jybfj25u" class="st11" d="M165.1,381.8c0,1-.8,1.8-1.8,1.8s-1.8-.8-1.8-1.8c0-1,.8-1.8,1.8-1.8,0,0,0,0,0,0,1,0,1.8.8,1.8,1.8Z"/>
    <path id="eldwajqq7xpk" class="st9" d="M171.6,381.8c0,1-.8,1.8-1.8,1.8s-1.8-.8-1.8-1.8c0-1,.8-1.8,1.8-1.8,0,0,0,0,0,0,1,0,1.8.8,1.8,1.8Z"/>
    <rect id="ely569we9q4vs" class="st23" x="114.2" y="381.2" width="26.1" height="1.2"/>
    <rect id="elcaiqstxmmke" class="st14" x="63.9" y="394.4" width="75.2" height="22.5" rx="2" ry="2"/>
    <rect id="el9kqwwj8f29p" class="st12" x="102.8" y="394.4" width="75.2" height="22.5" rx="2" ry="2"/>
    <rect id="elaq2llutdmq5" class="st9" x="112.6" y="403.9" width="44.7" height="3.6"/>
    <circle id="el2qjgnshp4l2" class="st11" cx="163.3" cy="405.7" r="1.8"/>
    <path id="elzgblypqzx2" class="st9" d="M171.6,405.7c0,1-.8,1.8-1.8,1.8s-1.8-.8-1.8-1.8c0-1,.8-1.8,1.8-1.8,0,0,0,0,0,0,1,0,1.8.8,1.8,1.8Z"/>
    <rect id="elg4ko5xwl2vd" class="st23" x="114.2" y="405.1" width="26.1" height="1.2"/>
    <rect id="elexrkuh2n366" class="st14" x="63.9" y="418.3" width="75.2" height="22.5" rx="2" ry="2"/>
    <rect id="elko2t5c0cnjf" class="st12" x="102.8" y="418.3" width="75.2" height="22.5" rx="2" ry="2"/>
    <rect id="elg6x6drifzl" class="st9" x="112.6" y="427.8" width="44.7" height="3.6"/>
    <circle id="elhtxmnob9cni" class="st11" cx="163.3" cy="429.6" r="1.8"/>
    <path id="el6xderfw310g" class="st9" d="M171.6,429.6c0,1-.8,1.8-1.8,1.8s-1.8-.8-1.8-1.8.8-1.8,1.8-1.8h0c1,0,1.8.8,1.8,1.8Z"/>
    <rect id="elrqkzrkgv3wr" class="st23" x="114.2" y="429" width="26.1" height="1.2"/>
    <rect id="ela9poyvfrcdw" class="st14" x="63.9" y="275" width="75.2" height="22.5" rx="2" ry="2"/>
    <rect id="elx4lx5g91tnb" class="st12" x="102.8" y="275" width="75.2" height="22.5" rx="2" ry="2"/>
    <path id="ellujzdi1k4k" class="st7" d="M104.7,294.1v-15.8c0-.8.6-1.4,1.4-1.4h68.5c.8,0,1.4.6,1.4,1.4v15.8c0,.8-.6,1.4-1.4,1.4h-68.5c-.8,0-1.4-.6-1.4-1.4Z"/>
    <rect id="elldlb46m0zb" class="st11" x="109.2" y="288.2" width="40.2" height="6.5" rx="1.3" ry="1.3"/>
    <rect id="elo1f8jo05u0g" class="st11" x="151.4" y="288.2" width="20.2" height="6.5" rx="1.3" ry="1.3"/>
    <rect id="elo4birn8u27" class="st11" x="113.5" y="281.6" width="20.2" height="6.5" rx="1.3" ry="1.3"/>
    <rect id="elc85u9krn98r" class="st14" x="63.9" y="251.1" width="75.2" height="22.5" rx="2" ry="2"/>
    <rect id="el1p35ok6uc0v" class="st12" x="102.8" y="251.1" width="75.2" height="22.5" rx="2" ry="2"/>
    <path id="elu83ht83vh8" class="st7" d="M104.7,270.2v-15.8c0-.8.6-1.4,1.4-1.4h68.5c.8,0,1.4.6,1.4,1.4v15.8c0,.8-.6,1.4-1.3,1.4,0,0,0,0,0,0h-68.5c-.8,0-1.4-.6-1.4-1.4Z"/>
    <rect id="elhuvgfnrxq5w" class="st11" x="129.8" y="264.3" width="20.2" height="6.5" rx="1.3" ry="1.3"/>
    <rect id="elr94deyw6p4" class="st11" x="151.4" y="264.3" width="20.2" height="6.5" rx="1.3" ry="1.3"/>
    <rect id="elz3xc66m6u8j" class="st11" x="108.6" y="264.3" width="20.2" height="6.5" rx="1.3" ry="1.3"/>
    <rect id="el0lnki0crgubn" class="st11" x="124.4" y="257.4" width="20.2" height="6.5" rx="1.3" ry="1.3"/>
    <rect id="elf3b5w0vvm5c" class="st14" x="63.9" y="227.2" width="75.2" height="22.5" rx="2" ry="2"/>
    <rect id="ely800klhwhc" class="st12" x="102.8" y="227.2" width="75.2" height="22.5" rx="2" ry="2"/>
    <path id="eljpf470o90f" class="st7" d="M104.7,246.3v-15.8c0-.8.6-1.4,1.3-1.4,0,0,0,0,0,0h68.5c.8,0,1.4.6,1.4,1.4v15.8c0,.8-.6,1.4-1.3,1.4,0,0,0,0,0,0h-68.5c-.7,0-1.4-.6-1.4-1.4Z"/>
    <rect id="el3jrhu3852rf" class="st11" x="122.2" y="240.4" width="40.2" height="6.5" rx="1.3" ry="1.3"/>
    <path id="elxn4ctppq3w" class="st11" d="M156,239.7h-37.6c-.7,0-1.3-.6-1.3-1.3h0v.2c0-.7.6-1.3,1.3-1.3h37.6c.7,0,1.3.6,1.3,1.3v-.2c0,.7-.6,1.3-1.3,1.3Z"/>
    <rect id="elikvcsops8zm" class="st14" x="63.9" y="203.3" width="75.2" height="22.5" rx="2" ry="2"/>
    <rect id="el1vu0u1tq11l" class="st12" x="102.8" y="203.3" width="75.2" height="22.5" rx="2" ry="2"/>
    <path id="elwkvrbl1vb0r" class="st7" d="M104.7,222.4v-15.8c0-.8.6-1.4,1.3-1.4,0,0,0,0,0,0h68.5c.8,0,1.4.6,1.4,1.3,0,0,0,0,0,0v15.8c0,.8-.6,1.4-1.4,1.4h-68.5c-.7,0-1.3-.6-1.4-1.3Z"/>
    <rect id="elap5dii7ltac" class="st11" x="129.2" y="216.5" width="40.2" height="6.5" rx="1.3" ry="1.3"/>
    <rect id="elg3qkl7u046m" class="st11" x="137.1" y="209.4" width="20.2" height="6.5" rx="1.3" ry="1.3"/>
    <line id="elajf7i4jhjwu" class="st3" x1="68.2" y1="193.6" x2="68.2" y2="199.1"/>
    <line id="el73k3d4cajht" class="st3" x1="69.9" y1="193.6" x2="69.9" y2="199.1"/>
    <line id="el0feu0w1yp3h" class="st3" x1="71.6" y1="193.6" x2="71.6" y2="199.1"/>
    <line id="eldaxskd7co6v" class="st3" x1="73.3" y1="193.6" x2="73.3" y2="199.1"/>
    <line id="elhvm8tkx4yih" class="st3" x1="75" y1="193.6" x2="75" y2="199.1"/>
    <line id="elpbiiawqhe5" class="st3" x1="68.2" y1="432.6" x2="68.2" y2="438.1"/>
    <line id="elehg9csdb5v" class="st3" x1="69.9" y1="432.6" x2="69.9" y2="438.1"/>
    <line id="elnrybv7qvq99" class="st3" x1="71.6" y1="432.6" x2="71.6" y2="438.1"/>
    <line id="elckgq3juiwb9" class="st3" x1="73.3" y1="432.6" x2="73.3" y2="438.1"/>
    <line id="el1y32ue2c4yq" class="st3" x1="75" y1="432.6" x2="75" y2="438.1"/>
    <line id="elmje1tnfkvhq" class="st3" x1="68.2" y1="408.8" x2="68.2" y2="414.2"/>
    <line id="el173jiz6svq1" class="st3" x1="69.9" y1="408.8" x2="69.9" y2="414.2"/>
    <line id="ellg8b120hu5b" class="st3" x1="71.6" y1="408.8" x2="71.6" y2="414.2"/>
    <line id="elaaphj5k3m6n" class="st3" x1="73.3" y1="408.8" x2="73.3" y2="414.2"/>
    <line id="elbefucluyyti" class="st3" x1="75" y1="408.8" x2="75" y2="414.2"/>
    <line id="elo28iqqlu8g" class="st3" x1="68.2" y1="384.9" x2="68.2" y2="390.3"/>
    <line id="elgcsccwc1zf" class="st3" x1="69.9" y1="384.9" x2="69.9" y2="390.3"/>
    <line id="el5g0gigcccxg" class="st3" x1="71.6" y1="384.9" x2="71.6" y2="390.3"/>
    <line id="elkmsepf6mwg" class="st3" x1="73.3" y1="384.9" x2="73.3" y2="390.3"/>
    <line id="el0pgtyqlsa5lf" class="st3" x1="75" y1="384.9" x2="75" y2="390.3"/>
    <line id="elhjp0clop1p6" class="st3" x1="68.2" y1="361" x2="68.2" y2="366.4"/>
    <line id="eld8zigetqqtf" class="st3" x1="69.9" y1="361" x2="69.9" y2="366.4"/>
    <line id="elaxwqobhdefg" class="st3" x1="71.6" y1="361" x2="71.6" y2="366.4"/>
    <line id="elcpq4q80ukme" class="st3" x1="73.3" y1="361" x2="73.3" y2="366.4"/>
    <line id="elte7id9x8kn" class="st3" x1="75" y1="361" x2="75" y2="366.4"/>
    <line id="elm0hyu4wbkj" class="st3" x1="68.2" y1="337" x2="68.2" y2="342.5"/>
    <line id="elim2dt8zznu" class="st3" x1="69.9" y1="337" x2="69.9" y2="342.5"/>
    <line id="el1c9trx3aixy" class="st3" x1="71.6" y1="337" x2="71.6" y2="342.5"/>
    <line id="elwh1gi4idk" class="st3" x1="73.3" y1="337" x2="73.3" y2="342.5"/>
    <line id="el7m60bs7vs1x" class="st3" x1="75" y1="337" x2="75" y2="342.5"/>
    <line id="elcvdb120n8xf" class="st3" x1="68.2" y1="313.1" x2="68.2" y2="318.6"/>
    <line id="eli1grq85nxy" class="st3" x1="69.9" y1="313.1" x2="69.9" y2="318.6"/>
    <line id="el0oa1v3k580x" class="st3" x1="71.6" y1="313.1" x2="71.6" y2="318.6"/>
    <line id="elensyahnmxvt" class="st3" x1="73.3" y1="313.1" x2="73.3" y2="318.6"/>
    <line id="elzmwidb9y13c" class="st3" x1="75" y1="313.1" x2="75" y2="318.6"/>
    <line id="elmgkipuk88jj" class="st3" x1="68.2" y1="289.2" x2="68.2" y2="294.7"/>
    <line id="el75tpbzh80p8" class="st3" x1="69.9" y1="289.2" x2="69.9" y2="294.7"/>
    <line id="elpzuvsbq17ue" class="st3" x1="71.6" y1="289.2" x2="71.6" y2="294.7"/>
    <line id="elgngouls0tcv" class="st3" x1="73.3" y1="289.2" x2="73.3" y2="294.7"/>
    <line id="elyyzic6hcfno" class="st3" x1="75" y1="289.2" x2="75" y2="294.7"/>
    <line id="elqrez396vklr" class="st3" x1="68.2" y1="265.4" x2="68.2" y2="270.8"/>
    <line id="elk4t8mwlyy" class="st3" x1="69.9" y1="265.4" x2="69.9" y2="270.8"/>
    <line id="el7woxy8fychw" class="st3" x1="71.6" y1="265.4" x2="71.6" y2="270.8"/>
    <line id="elnwy5an26c5" class="st3" x1="73.3" y1="265.4" x2="73.3" y2="270.8"/>
    <line id="elzv0xtby6s2o" class="st3" x1="75" y1="265.4" x2="75" y2="270.8"/>
    <line id="elljdzkevewaf" class="st3" x1="68.2" y1="241.4" x2="68.2" y2="246.9"/>
    <line id="elbskp1zoj64f" class="st3" x1="69.9" y1="241.4" x2="69.9" y2="246.9"/>
    <line id="el0f0ux0i9easg" class="st3" x1="71.6" y1="241.4" x2="71.6" y2="246.9"/>
    <line id="el88jaqm6vx74" class="st3" x1="73.3" y1="241.4" x2="73.3" y2="246.9"/>
    <line id="elvr8vopbwo9" class="st3" x1="75" y1="241.4" x2="75" y2="246.9"/>
    <line id="els0qq4niy6h" class="st3" x1="68.2" y1="217.6" x2="68.2" y2="223"/>
    <line id="elwz7fxlgno7g" class="st3" x1="69.9" y1="217.6" x2="69.9" y2="223"/>
    <line id="elyw2yf1p0idl" class="st3" x1="71.6" y1="217.6" x2="71.6" y2="223"/>
    <line id="elukk9olxfbz" class="st3" x1="73.3" y1="217.6" x2="73.3" y2="223"/>
    <line id="el5gtwx3gfa8k" class="st3" x1="75" y1="217.6" x2="75" y2="223"/>
  </g>
</svg>