<svg width="45" height="36" viewBox="0 0 45 36" fill="none" xmlns="http://www.w3.org/2000/svg">
<path d="M4.23347 31.5564C0.262996 27.5837 0.262996 21.1431 4.23347 17.1775L12.1289 9.21813C16.0382 5.30945 22.5351 5.30945 26.4445 9.21813C29.9601 12.7338 30.4804 18.3377 27.5906 22.3806L27.5132 22.4931C26.789 23.4986 25.3828 23.7377 24.3773 23.0134C23.3648 22.2892 23.1257 20.883 23.85 19.8775L23.9273 19.765C25.5375 17.508 25.2843 14.4212 23.3226 12.4595C21.1148 10.2517 17.5218 10.2517 15.307 12.4595L7.41793 20.3556C5.20238 22.5072 5.20238 26.1564 7.41793 28.3712C9.37261 30.333 12.4664 30.5861 14.7164 28.9759L14.8289 28.8353C15.8414 28.1744 17.2476 28.4064 17.9648 29.4189C18.689 30.4314 18.457 31.8377 17.4445 32.5619L17.332 32.6392C13.2257 35.5291 7.74839 35.065 4.23347 31.5564Z" fill="#003366"/>
<path opacity="0.4" d="M40.7671 4.44664C44.7398 8.41648 44.7398 14.8571 40.7671 18.8227L32.871 26.7188C28.8984 30.6915 22.4648 30.6915 18.4921 26.7188C14.9765 23.2032 14.5195 17.6626 17.4093 13.6196L17.4867 13.5071C18.1476 12.5016 19.5539 12.2626 20.6226 12.9868C21.6351 13.6477 21.8742 15.054 21.1499 16.1227L21.0726 16.2352C19.4624 18.429 19.7156 21.579 21.6773 23.5407C23.8851 25.7485 27.4781 25.7485 29.6929 23.5407L37.582 15.6446C39.7968 13.4298 39.7968 9.78055 37.582 7.62898C35.6273 5.66937 32.5335 5.41344 30.2835 7.0243L30.171 7.10164C29.1585 7.82586 27.7523 7.53055 27.0351 6.57992C26.3109 5.56883 26.5429 4.16328 27.5554 3.44117L27.6679 3.36242C31.7109 0.473351 37.2515 0.931718 40.7671 4.44664Z" fill="#003366"/>
</svg>
