<svg width="36" height="36" viewBox="0 0 36 36" fill="none" xmlns="http://www.w3.org/2000/svg">
<g clip-path="url(#clip0_317_5610)">
<path d="M7.41091 12.8391C6.53271 11.9609 6.53271 10.5363 7.41091 9.65742L16.4109 0.657422C16.8468 0.219727 17.4234 0 18 0C18.5765 0 19.1517 0.219727 19.5904 0.65918L28.5904 9.65918C29.4686 10.5374 29.4686 11.9619 28.5904 12.8408C27.7115 13.719 26.287 13.7197 25.4088 12.8409L20.25 7.68516V24.75C20.25 25.9924 19.2424 27 18 27C16.7576 27 15.75 25.9924 15.75 24.75V7.68516L10.589 12.8391C9.71013 13.718 8.28982 13.718 7.41091 12.8391Z" fill="#003366"/>
<path opacity="0.4" d="M33.75 24.75H22.5C22.5 27.2355 20.4855 29.25 18 29.25C15.5145 29.25 13.5 27.2355 13.5 24.75H2.25C1.00758 24.75 0 25.7576 0 27V33.75C0 34.9924 1.00758 36 2.25 36H33.75C34.9924 36 36 34.9924 36 33.75V27C36 25.7555 34.9945 24.75 33.75 24.75ZM30.375 32.0625C29.4469 32.0625 28.6875 31.3031 28.6875 30.375C28.6875 29.4469 29.4469 28.6875 30.375 28.6875C31.3031 28.6875 32.0625 29.4469 32.0625 30.375C32.0625 31.3031 31.3031 32.0625 30.375 32.0625Z" fill="#003366"/>
</g>
<defs>
<clipPath id="clip0_317_5610">
<rect width="36" height="36" fill="white"/>
</clipPath>
</defs>
</svg>
