<?xml version="1.0" encoding="UTF-8"?>
<svg id="Layer_1" xmlns="http://www.w3.org/2000/svg" version="1.1" viewBox="0 0 750 500">
  <!-- Generator: Adobe Illustrator 29.1.0, SVG Export Plug-In . SVG Version: 2.1.0 Build 142)  -->
  <defs>
    <style>
      .st0 {
        stroke: #000;
        stroke-miterlimit: 10;
      }

      .st0, .st1 {
        fill: #036;
      }

      .st2 {
        fill: #e0e0e0;
      }

      .st3 {
        fill: #aa6550;
      }

      .st4 {
        fill: #b78876;
      }

      .st5 {
        fill: #ebebeb;
      }

      .st6 {
        fill: #263238;
      }

      .st7 {
        fill: #fff;
      }

      .st8 {
        fill: #f60;
      }

      .st9 {
        fill: #fafafa;
      }

      .st10 {
        opacity: .4;
      }

      .st11 {
        opacity: .3;
      }

      .st12 {
        fill: #f5f5f5;
      }

      .st13 {
        fill: #455a64;
      }
    </style>
  </defs>
  <g id="freepik--background-complete--inject-74">
    <path class="st5" d="M655.6,245.4s-7.5-3.1-12.6,14.4c-5,17.5-6.3,27.3-6.3,27.3,0,0-1.5,3.8-4.2,2s-7.1-7.3-10.8-5.5-4.3,6.7-2.2,13.2,6,20.9,6.4,22.2,0,3.3-2.1,2.4-14.7-10.4-18.8-4.2,4.5,23.4,5.5,25.3.7,2.8-.2,3.5-4.8-2.9-8.5-5.5-8.4-4.9-10.5-1.1-.3,17.6,16.9,37.2l8.6,8.6,11.8-3c24.9-7.9,33.5-18.8,33.7-23.2s-5.1-4.8-9.6-4.5-9.7,1.4-10.1.3,0-1.9,1.7-3.1,18.1-11.4,17.7-18.9-16.1-5.8-18.3-6.1-1.5-2.2-.5-3.2,11.8-11.2,16.9-15.7,7.2-8.8,4.9-12.5-8.8-1-12-.9-2.6-3.9-2.6-3.9c0,0,4-9.1,8.7-26.7s-3.5-18.8-3.5-18.8"/>
    <path class="st2" d="M651.1,261.1s0,.1,0,.4-.2.6-.3,1.1c-.2,1-.6,2.4-1.1,4.2-.9,3.6-2.3,8.9-4.1,15.3-3.5,12.9-8.5,30.8-14.1,50.4s-10.7,37.5-14.3,50.4c-1.8,6.5-3.2,11.7-4.2,15.3-.5,1.8-.9,3.2-1.2,4.1-.1.5-.2.8-.3,1.1v.4c-.1,0-.1-.1,0-.4s.2-.6.3-1.1c.2-1,.6-2.4,1.1-4.2.9-3.6,2.3-8.9,4.1-15.3,3.5-12.9,8.5-30.8,14.1-50.4s10.7-37.5,14.3-50.4c1.8-6.5,3.2-11.7,4.2-15.3l1.2-4.1c.1-.5.2-.8.3-1.1v-.4Z"/>
    <path class="st2" d="M627.5,291.8c.2.2.3.5.5.7.3.5.7,1.2,1.1,2.1.9,1.8,2.1,4.3,3.4,7.1l3.2,7.2,1,2.2c.1.3.3.5.3.8-.2-.2-.3-.5-.5-.7-.3-.5-.7-1.2-1.1-2.1-.9-1.8-2-4.3-3.3-7.1l-3.2-7.2-1-2.2c-.1-.3-.2-.5-.3-.8Z"/>
    <path class="st2" d="M638,312c0-.1,5-2.8,11.3-6s11.5-5.7,11.5-5.6-5,2.8-11.3,6-11.5,5.7-11.5,5.6Z"/>
    <path class="st2" d="M628.1,341.8c.3-.1.6-.2.9-.2l2.4-.5c2-.4,4.8-.9,7.8-1.6s5.8-1.4,7.8-2l2.3-.6c.3,0,.6-.2.9-.2-.3.1-.5.3-.8.4-.5.2-1.3.5-2.3.8-2,.6-4.7,1.4-7.8,2.1s-5.9,1.2-7.9,1.5c-1,.1-1.8.3-2.4.3-.3,0-.6,0-.9,0Z"/>
    <path class="st2" d="M614.5,325.7c.2.2.4.4.6.6.4.4.9,1,1.5,1.6,1.3,1.4,3,3.4,4.9,5.6s3.6,4.2,4.8,5.6c.6.7,1.1,1.3,1.4,1.7s.5.7.5.7c-.2-.2-.4-.4-.6-.6-.4-.4-.9-1-1.5-1.7-1.3-1.4-3-3.4-4.9-5.6s-3.6-4.2-4.8-5.6c-.6-.7-1.1-1.3-1.4-1.8-.2-.2-.3-.4-.5-.7Z"/>
    <path class="st2" d="M602.4,350.9c.3.2.5.5.8.7l2,2.1c1.6,1.8,3.9,4.3,6.3,7.1s4.7,5.3,6.2,7.2l1.8,2.2c.2.3.5.5.6.9-.3-.2-.5-.5-.8-.7l-2-2.1c-1.6-1.8-3.9-4.3-6.3-7.1s-4.7-5.3-6.2-7.2l-1.8-2.2c-.2-.3-.5-.5-.7-.9Z"/>
    <path class="st2" d="M619.9,370.5c.4-.1.7-.2,1.1-.3l3-.7c2.5-.6,6-1.4,9.9-2.4s7.3-2,9.8-2.7l3-.9c.4-.1.7-.2,1.1-.3-.3.2-.7.3-1,.4-.7.2-1.7.6-2.9,1-2.5.8-5.9,1.9-9.8,2.9s-7.4,1.8-9.9,2.3c-1.3.2-2.3.5-3,.6-.4,0-.8.1-1.2.1Z"/>
    <path class="st2" d="M625.3,412.8c2.4-2.7,6-3.8,9.5-3.1,3.4.8,6.4,2.9,8.3,5.9.9,1.4,1.5,3,1,4.6-.6,1.4-1.9,2.4-3.4,2.6-1.5.2-3,0-4.4-.7-4.8-1.8-9.2-4.5-11-9.4"/>
    <path class="st2" d="M617.1,408.1c5.2-5.4,7.4-13,6-20.3-.4-1.8-1.3-3.9-3.1-4.3s-3.5,1.2-4.4,2.8c-4.1,6.9-3.7,15.5,1.1,22"/>
    <path class="st2" d="M656.5,383.1c.6,3.1,0,6.3-1.8,8.9-1.8,2.6-4.2,4.7-6.9,6.2-5.2,3.1-12.1,4-18.1,3.9.5-6.7,5.9-12.2,8.8-14.9,4.6-4.2,15.6-8.9,18-4.2"/>
    <path class="st9" d="M607.7,417.9c.8-.6,1.7-1.1,2.6-1.6,3.4-1.6,7.1-2.8,10.9-3.4,3.8-.6,7.7-.2,11.3,1.2,1.1.4,2.1,1,3,1.7.4.2.7.5.9.9-1.3-.8-2.7-1.5-4.1-2.1-3.5-1.2-7.3-1.6-11-1-3.7.7-7.3,1.7-10.8,3.2"/>
    <path class="st9" d="M607.6,418l4.6-3.3c3.9-2.8,9.2-6.7,15.1-11.1s11.1-8.4,14.9-11.4l4.5-3.5c.5-.5,1.1-.9,1.7-1.2-.5.5-1,1-1.5,1.4-1,.9-2.5,2.1-4.4,3.6-3.7,3-9,7.1-14.8,11.5s-11.3,8.2-15.3,10.9c-2,1.4-3.6,2.4-4.7,3.2"/>
    <path class="st9" d="M619,391.8c.2.4.3.8.3,1.2.1.5.2.9.2,1.4,0,.6.1,1.3.2,1.9,0,1.6,0,3.3-.3,4.9-.4,2-.9,3.9-1.7,5.8-.8,1.8-1.8,3.6-3,5.2-1,1.3-2.1,2.5-3.3,3.6-.5.4-.9.8-1.5,1.2-.4.3-.8.6-1.2.8-.7.4-1,.3-1,.3,1.1-.8,2.2-1.7,3.3-2.7,1.1-1.1,2.2-2.4,3.1-3.7,2.3-3.2,3.8-6.9,4.6-10.8.3-1.6.5-3.2.5-4.8,0-2.7-.3-4.4-.2-4.5Z"/>
    <path class="st5" d="M159.8,403.9c12.2-15.2,9.9-36.2,4-53.9-1-3-1.6-6.2-3.8-8.4s-6-3-8.3-1c-1.9,1.7-2.1,4.6-2.7,7.1-.8,3.3-2.6,6.4-5.1,8.8-1.6,1.5-3.8,2.8-6,2.4-3-.7-4.3-4.1-5.2-7.1-1.5-5.6-3.1-11.1-4.7-16.6-.7-3-1.9-5.9-3.5-8.6-1.8-2.5-4.6-4.6-7.6-4.5s-6.1,2.7-5.8,5.8c.2,1.3.6,2.5,1,3.7.3,1.3,0,2.8-1,3.5s-2.5.2-3.7-.4c-4-2.1-7.2-5.4-10.2-8.6s-6.1-6.7-9.9-9.1-8.3-3.9-12.7-2.9-8.1,5-8,9.5,3.8,8,7.5,10.7c5.4,3.9,11.4,6.9,17.7,9.1,1.2.3,2.2.9,3,1.8,1.2,1.8,0,4.3-1.8,5.5-2,1.4-4.5,1.9-6.7,2.8s-4.4,2.7-4.7,5.2c-.3,3.4,3.2,5.8,6.3,7.2,6.2,2.7,12.9,4.3,19.7,4.8,2.4.2,4.9.2,7.2,1.2s4.1,3.4,3.6,5.8-3,3.9-5.4,4.1-4.8-.4-7.2-.6c-4.5-.4-9.7,1.5-11.3,5.8-.9,2.9-.4,6.1,1.4,8.6,1.8,2.4,4.1,4.5,6.7,6,8.8,5.9,18.9,9.3,29.4,10,10.4.5,19.5-1.2,27.9-7.4"/>
    <path class="st2" d="M69.8,317.9l.4.2,1.1.5c1,.5,2.4,1.1,4.3,2.1,5.2,2.6,10.2,5.6,14.9,8.9,3,2.1,6.2,4.6,9.6,7.2s7,5.6,10.7,8.8c3.9,3.3,7.5,6.8,11,10.6,1.8,1.9,3.5,4,5.3,6.1l5.3,6.5c6.8,8.1,13.1,16.7,19,25.5,4.7,7.3,8.8,14.9,12.1,23,2.2,5.4,4,11,5.2,16.7.4,2,.7,3.6.9,4.7,0,.5.2.9.2,1.2,0,.1,0,.3,0,.4,0-.1,0-.3,0-.4,0-.3,0-.7-.1-1.2-.1-1.1-.4-2.7-.8-4.7-1.2-5.7-2.8-11.4-5-16.8-3.3-8.1-7.3-15.8-12-23.1-5.8-8.9-12.2-17.4-19-25.6l-5.4-6.5c-1.8-2.1-3.5-4.2-5.3-6.2-3.5-3.7-7.2-7.3-11.1-10.6-3.7-3.2-7.3-6.1-10.7-8.8s-6.7-5.1-9.7-7.2c-4.8-3.3-9.8-6.3-15.1-8.8-1.9-.9-3.3-1.5-4.3-2l-1.1-.5c-.1,0-.3,0-.4-.1Z"/>
    <path class="st2" d="M122.1,355.9c0-.5,0-.9,0-1.4,0-.9-.2-2.1-.5-3.7-.4-3.1-1.2-7.3-2.1-12s-1.6-8.9-2-12c-.2-1.5-.3-2.8-.4-3.6,0-.5,0-.9-.2-1.3,0,.4,0,.9,0,1.4,0,.9.1,2.1.3,3.7.3,3.1.9,7.4,1.8,12s1.6,8.8,2.2,12c.3,1.4.5,2.7.7,3.6,0,.5.2.9.3,1.3Z"/>
    <path class="st2" d="M81.8,359.9c.5,0,1.1-.1,1.6-.3,1-.2,2.5-.5,4.3-.8,3.6-.6,8.6-1.4,14.2-1.9s10.6-.8,14.3-.9c1.8,0,3.3,0,4.3,0,.5,0,1.1,0,1.6,0-.5,0-1.1-.1-1.6-.1-1,0-2.5-.1-4.4-.1-3.7,0-8.8.2-14.4.7-4.8.4-9.5,1.1-14.2,2.1-1.8.4-3.3.7-4.2,1-.5.1-1,.3-1.5.5Z"/>
    <path class="st2" d="M151.2,393.5c0-.2.1-.4.1-.5,0-.4.1-1,.2-1.6.2-1.4.5-3.4.7-5.8.6-4.9,1.1-11.7,1.7-19.3s1-14.4,1.5-19.3c.2-2.4.4-4.4.6-5.8v-1.6c.2-.2.2-.4.1-.6,0,.2-.1.4-.1.5,0,.4-.1.9-.2,1.6-.2,1.4-.5,3.4-.7,5.8-.6,4.9-1.1,11.7-1.6,19.3s-1,14.4-1.5,19.3l-.6,5.8c0,.6-.1,1.2-.1,1.6,0,.2,0,.4,0,.6Z"/>
    <path class="st2" d="M95.6,392c.2,0,.4,0,.6,0h1.6c0,0,6,.2,6,.2,5,.1,12,.4,19.6.8,7.6.3,14.6.5,19.7.6h7.6c.2,0,.4,0,.6,0-.2,0-.4,0-.6,0h-1.6c0,0-5.9-.2-5.9-.2-5-.1-12-.4-19.7-.8s-14.6-.5-19.7-.6h-7.6c-.2,0-.4,0-.6,0Z"/>
    <polygon class="st12" points="278.8 194.8 281.6 223.8 295.8 223.8 299.2 194.8 278.8 194.8"/>
    <path class="st2" d="M278.8,191c-.9,1.1-1.3,2.4-1.3,3.8h23c.2-1.4-.3-2.9-1.3-3.8h-20.3Z"/>
    <polygon class="st2" points="281.5 188.4 280.7 191.2 298 191.4 296.9 188.3 281.5 188.4"/>
    <path class="st5" d="M278.5,202.1c0,.3,1.7,14.6,1.7,14.6h17.3l1.6-14.6h-20.6Z"/>
  </g>
  <g id="freepik--Floor--inject-74">
    <path class="st6" d="M691.5,444.3c0,.1-141.7.3-316.5.3s-316.5-.1-316.5-.3,141.7-.3,316.5-.3,316.5.1,316.5.3Z"/>
  </g>
  <g id="freepik--Clock--inject-74">
    <circle class="st8" cx="582.5" cy="117" r="40.2" transform="translate(87.9 446.2) rotate(-45)"/>
    <path class="st9" d="M600.8,118.2c-.5,0-.9.1-1.4,0h-3.9c-3.3,0-8,.2-13.2.2h-.2v-2.9c0-5.8,0-11.1,0-14.9,0-1.8,0-3.4,0-4.5,0-.6,0-1.1,0-1.7,0,.5.1,1.1.1,1.7,0,1.2,0,2.7,0,4.5,0,3.8,0,9.1,0,14.9v2.6l-.3-.2c5.2,0,9.8,0,13.2,0h3.9c.5,0,.9.1,1.4.2Z"/>
    <path class="st9" d="M582.4,83.3c.3,1.1.3,2.2.3,3.4,0,1.1,0,2.3-.3,3.4-.3-1.1-.3-2.2-.3-3.4,0-1.1,0-2.3.3-3.4Z"/>
    <path class="st9" d="M600.8,88.8c-.6,1-1.3,1.8-2.2,2.5-.7.9-1.6,1.6-2.5,2.2.6-1,1.3-1.8,2.2-2.6.7-.8,1.6-1.6,2.5-2.2Z"/>
    <path class="st9" d="M611.5,100.5c-.9.7-1.8,1.3-2.8,1.8-.9.6-1.9,1.2-2.9,1.6,1.6-1.6,3.6-2.8,5.7-3.5Z"/>
    <path class="st9" d="M617.8,117.9c-3.1.3-6.2.3-9.2,0,3.1-.3,6.2-.3,9.2,0Z"/>
    <path class="st9" d="M553.8,117.2c-2.9.3-5.8.3-8.7,0,2.9-.3,5.8-.3,8.7,0Z"/>
    <path class="st9" d="M558.4,130.2c-1,1.1-2.1,2.1-3.3,3-1.1,1-2.3,1.9-3.6,2.6,1-1.1,2.1-2.1,3.3-3,1.1-1,2.3-1.9,3.6-2.6Z"/>
    <path class="st9" d="M569.5,140.2c-.6,1.3-1.4,2.6-2.2,3.9-.7,1.3-1.5,2.6-2.4,3.8,1-2.8,2.6-5.4,4.6-7.7h0Z"/>
    <path class="st9" d="M582.4,153.1c-.3-1.5-.3-3.1-.3-4.6,0-1.5,0-3.1.3-4.6.3,1.5.3,3.1.3,4.6,0,1.5,0,3.1-.3,4.6Z"/>
    <path class="st9" d="M602.3,147c-2.7-1.4-5.1-3.5-6.9-6,1.2.9,2.3,1.9,3.4,3,1.2.9,2.4,1.9,3.5,3Z"/>
    <path class="st9" d="M611.6,136.9c-1.1-.8-2.1-1.7-3-2.7-1-.9-1.9-1.9-2.7-3,1.1.8,2.1,1.7,3,2.7,1,.9,1.9,1.9,2.6,3Z"/>
    <path class="st9" d="M558,104.9c-1-.6-1.9-1.4-2.7-2.3-.9-.8-1.7-1.7-2.3-2.7,1,.6,1.9,1.4,2.7,2.3.9.8,1.7,1.7,2.3,2.7Z"/>
    <path class="st9" d="M569.5,92.7c-1-.6-1.9-1.4-2.6-2.3-.9-.8-1.7-1.6-2.3-2.6,1,.6,1.9,1.4,2.6,2.3.9.8,1.7,1.6,2.3,2.6Z"/>
  </g>
  <g id="freepik--Mobile--inject-74">
    <path class="st1" d="M598.4,444.3l-73.3-.3c-8.8,0-15.9-7.2-15.9-16,0,0,0,0,0,0l.8-183.1c0-8.8,7.2-15.9,16-15.8l73.3.3c8.8,0,15.9,7.2,15.9,16,0,0,0,0,0,0l-.8,183.1c0,8.8-7.2,15.8-16,15.8Z"/>
    <path class="st7" d="M599.2,235.7h-14.2c-1.9,0-3.5,1.6-3.5,3.5v2.6c0,1.9-1.5,3.5-3.5,3.6h-27.7c-1.9-.2-3.5-1.8-3.4-3.7v-2.6c0-1.9-1.5-3.6-3.4-3.6h-17.4c-6.2,0-11.2,4.9-11.2,11,0,0,0,0,0,0l-.8,178.8c0,6.2,5,11.2,11.1,11.2l73.1.3c6.2,0,11.2-4.9,11.2-11.1,0,0,0,0,0,0l.8-178.8c0-6.2-4.9-11.2-11.1-11.2h0Z"/>
    <path class="st8" d="M549,383.2l.7,13.3c0,.5.4.9.9.9l23.9.2c.5,0,.9-.4.9-.9,0,0,0,0,0,0v-10.3c0-.5-.3-.9-.8-.9h-14.7c-.2,0-.5-.1-.6-.3l-2.5-2.5c-.2-.2-.4-.3-.6-.3h-6.2c-.5,0-.9.4-.9.8,0,0,0,0,0,0Z"/>
    <rect class="st12" x="554.6" y="378.5" width="15.6" height="26.1" transform="translate(166.7 951.1) rotate(-89.6)"/>
    <path class="st8" d="M547.3,385l1.9,16.3c0,.3.3.5.6.5l25.5.2c.3,0,.5-.2.6-.5l1.4-16.3c0-.3-.2-.6-.5-.6,0,0,0,0,0,0l-28.7-.2c-.3,0-.6.3-.6.6,0,0,0,0,0,0Z"/>
    <path class="st8" d="M590.5,333.2c-.3-.9-.4-1.9-.5-2.8-.2-.9-.3-2-.7-3.2l-.6-2c-.2-.7-.5-1.4-.8-2.1-5.1-12.4-18.3-19.5-31.5-17-3.7.7-7.2,2.2-10.3,4.2-2.1,1.4-4.1,3.1-5.8,5-.6.7-1.1,1.2-1.4,1.6s-.5.5-.6.5,0-.3.3-.7c.3-.6.7-1.2,1.2-1.8,1.6-2.1,3.5-4,5.6-5.5,3.2-2.3,6.8-3.9,10.7-4.7,9.7-2,19.7,1,26.5,8.1,2.7,2.8,4.8,6.2,6.2,9.9.3.8.6,1.5.7,2.3s.3,1.4.5,2.1c.2,1.3.3,2.4.4,3.4,0,1,0,1.9-.2,2.9Z"/>
    <path class="st8" d="M577,323.1c.3-.3,6.5,3.9,13.8,9.5l.4.3-1.2.4c3-8.5,5.7-15.2,6.1-15.1s-1.7,7.1-4.6,15.6l-.3,1-.9-.6-.4-.3c-7.4-5.6-13.2-10.4-12.9-10.8Z"/>
    <path class="st8" d="M537,328.5c.2.9.2,1.8.1,2.8,0,.9.1,2,.2,3.2.2,1.4.5,2.8.8,4.1,1,3.5,2.6,6.8,4.7,9.8,2.6,3.6,6.1,6.5,10.1,8.4l.8.4.8.3,1.6.6c.5.2,1.1.3,1.6.5.5.2,1.1.3,1.6.4,5.7,1.2,11.6.7,17-1.6,2.3-1,4.4-2.2,6.4-3.7.7-.5,1.2-.9,1.6-1.2s.6-.4.6-.4-.1.2-.4.6c-.4.5-.9,1-1.5,1.5-1.9,1.7-4.1,3.1-6.4,4.2-3.4,1.6-7.2,2.5-11,2.7-2.3,0-4.5-.1-6.7-.6-.6-.1-1.2-.3-1.7-.4-.6-.2-1.2-.3-1.7-.5l-1.8-.6-.9-.3-.8-.4-1.7-.9c-.5-.3-1-.7-1.5-1-1-.7-2-1.4-2.9-2.1-.5-.4-.8-.8-1.3-1.2s-.8-.8-1.2-1.2l-1.1-1.3-.5-.6-.5-.7c-2.2-3.1-3.8-6.7-4.7-10.4-.3-1.4-.5-2.9-.6-4.3v-3.3c0-.9.3-1.9.6-2.8Z"/>
    <path class="st8" d="M549.2,340.2c-.3.3-5.9-4.7-12.6-11.2l-.4-.4,1.2-.2c-4,8.1-7.5,14.4-7.9,14.2s2.5-6.8,6.5-14.9l.5-1,.8.8.4.4c6.6,6.5,11.8,12,11.5,12.3Z"/>
  </g>
  <g id="freepik--Computer--inject-74">
    <path class="st1" d="M151.1,224.2h313.8c3.7,0,6.7,3,6.7,6.7v195.8c0,8-6.5,14.6-14.6,14.6H157.9c-8,0-14.6-6.5-14.6-14.6h0v-194.8c0-4.3,3.5-7.8,7.7-7.8h0Z"/>
    <path class="st1" d="M129.6,425.3h355.7v5.3c0,7.6-6.1,13.7-13.7,13.7H143.4c-7.6,0-13.7-6.1-13.7-13.7h0v-5.3h0Z"/>
    <rect class="st1" x="152.2" y="232.9" width="309.8" height="183.3"/>
    <polygon class="st13" points="275.1 425.3 279.6 432.3 341.7 432.3 345.8 425.3 275.1 425.3"/>
    <rect class="st7" x="162.5" y="245.1" width="285.2" height="171.1"/>
    <path class="st6" d="M174.7,253.5c0,1.3-1.1,2.4-2.4,2.4s-2.4-1.1-2.4-2.4,1.1-2.4,2.4-2.4c0,0,0,0,0,0,1.3,0,2.4,1.1,2.4,2.4Z"/>
    <path class="st6" d="M184.4,253.5c0,1.3-1.1,2.4-2.4,2.4s-2.4-1.1-2.4-2.4,1.1-2.4,2.4-2.4h0c1.3,0,2.4,1.1,2.4,2.4Z"/>
    <path class="st6" d="M194.2,253.5c0,1.3-1.1,2.4-2.4,2.4s-2.4-1.1-2.4-2.4,1.1-2.4,2.4-2.4c0,0,0,0,0,0,1.3,0,2.4,1.1,2.4,2.4Z"/>
    <path class="st6" d="M447.7,264c0,.1-63.9.3-142.6.3s-142.6-.1-142.6-.3,63.8-.3,142.6-.3,142.6,0,142.6.3Z"/>
    <rect class="st13" x="143.4" y="425.4" width="328.3" height="1"/>
    <path class="st8" d="M257.8,302.2l2.9,52.8c.1,1.9,1.6,3.4,3.5,3.4l95,.7c2,0,3.6-1.6,3.6-3.5l.3-41.1c0-2-1.6-3.6-3.5-3.6,0,0,0,0,0,0h-58.4c-.9,0-1.8-.4-2.5-1l-10.1-10.1c-.7-.6-1.6-1-2.5-1l-24.6-.2c-2,0-3.6,1.6-3.6,3.6,0,0,0,0,0,.1Z"/>
    <rect class="st12" x="280" y="283.3" width="62" height="103.8" transform="translate(-26.5 643.8) rotate(-89.6)"/>
    <path class="st8" d="M251.1,309.4l7.4,64.8c.1,1.1,1.1,2,2.3,2l101.2.7c1.2,0,2.2-.9,2.3-2.1l5.6-64.6c.1-1.3-.8-2.4-2.1-2.5,0,0-.1,0-.2,0l-114.2-.8c-1.3,0-2.3,1-2.3,2.3,0,.1,0,.2,0,.3Z"/>
    <path class="st2" d="M332.6,342.3c-.3,0-.1-2.8-1.9-6.9-1-2.3-2.4-4.4-4.2-6.2-2.2-2.2-4.9-3.8-7.8-4.7-3-.9-6.1-1-9.1-.5-2.5.5-4.9,1.4-7,2.8-3.6,2.4-5.1,4.8-5.4,4.6,0,0,.2-.7.9-1.7,1.1-1.5,2.4-2.8,3.8-3.8,2.2-1.6,4.7-2.7,7.3-3.3,6.7-1.4,13.6.7,18.3,5.6,1.9,2,3.3,4.3,4.2,6.8.6,1.7.9,3.5,1,5.3,0,1.3,0,2-.2,2Z"/>
    <path class="st2" d="M323.3,335.4c.3-.3,4.5,2.5,9.6,6.3l.3.2-1.2.4c2-5.8,4-10.4,4.4-10.2s-.9,4.9-2.9,10.7l-.4,1-.9-.6-.3-.2c-5-3.8-8.9-7.2-8.6-7.5Z"/>
    <path class="st2" d="M296.1,339c.3,0-.2,2.8,1,6.8.7,2.4,1.8,4.6,3.2,6.6,1.8,2.4,4.1,4.3,6.8,5.7.7.3,1.4.6,2.2.9.7.2,1.5.5,2.2.6,1.4.3,2.9.5,4.3.5,2.5,0,4.9-.5,7.2-1.5,1.6-.6,3-1.4,4.4-2.4,1-.7,1.5-1.1,1.6-1s-.3.6-1.2,1.5c-1.3,1.2-2.7,2.2-4.3,3-2.4,1.2-4.9,1.8-7.6,1.9-1.6,0-3.1,0-4.6-.4-.8-.1-1.6-.4-2.4-.6-.8-.3-1.6-.6-2.4-1-5.4-2.6-9.2-7.5-10.5-13.4-.2-1-.3-2-.4-3,0-.9,0-1.6,0-2.2.2-1.2.3-1.9.4-1.9Z"/>
    <path class="st2" d="M304.4,347c-.3.3-4.2-3-8.7-7.4l-.2-.2,1.2-.2c-2.7,5.5-5.2,9.8-5.6,9.6s1.5-4.8,4.2-10.3l.5-1,.8.8.3.2c4.5,4.4,7.9,8.3,7.6,8.6Z"/>
  </g>
  <g id="freepik--Character--inject-74">
    <path class="st4" d="M218.2,156.9l-4.8,15.1c-1.9,6.3-7.1,11-13.6,12.2l-32.4,6.1-8.8-.3,8.8-10.9,24.3-8.3c2.4-.5,4.3-2.3,4.9-4.7l9.7-21.1,12.3,7.5-.4,4.3Z"/>
    <path class="st13" d="M265.9,142c-.5,2.4-7.3,19.4-7.3,19.4,0,0-26.7-9-26.3-10.4.3-1.1,5.4-18.2,11.6-27.7,2.3-3.7,6.3-6.1,10.7-6.4,1.2,0,3.8,1.2,4.5,1.6,5.6,3.2,10.4,5.3,6.9,23.4Z"/>
    <path class="st8" d="M228.3,108.9c-12.1,1.3-14,9.5-19.6,17.6l-8.1,15,14.9,9.2-.5,23-7.1,22,56.2-5.3-5.2-18.8,7.5-29.6c.6-4,2.1-11.5,1.1-15.5-3.3-12.4-16.2-16-25-18.3-1.8-.5-10.6-.4-12.2,0"/>
    <path class="st6" d="M265.4,141.8c0,.1,0,.2-.1.3,0,.2-.2.6-.3.9l-1.2,3.6c-1,3.2-2.4,7.7-4.1,13.1h.2c0,0-25-9.3-25-9.3l-.6-.3v.2c1.6-5.6,3.6-11.1,5.9-16.4,1.9-4.4,4.4-8.5,7.4-12.1,1.2-1.4,2.6-2.5,4.2-3.4,1.2-.7,2.5-1.1,3.9-1.2.3,0,.5,0,.8,0h.7c.2,0,.4,0,.6.1h.5c0,.1.7.3.7.3h.2c0,0-.1,0-.2,0l-.6-.2h-.5c-.2-.2-.4-.2-.6-.2h-.7c-.3-.1-.5-.1-.8,0-1.4,0-2.8.4-4,1.1-1.6.9-3.1,2-4.3,3.4-3.1,3.6-5.7,7.7-7.6,12.1-2.4,5.3-4.4,10.8-5.9,16.5h0c0,.1.1.2.1.2l.6.3c9.4,3.5,18.1,6.6,25.1,9.2h.1c0,0,0,0,0,0l4-13.2c.5-1.6.8-2.8,1.1-3.6.1-.4.2-.7.3-1,0,0,0-.2.1-.3Z"/>
    <path class="st6" d="M235.3,147c0,0,5.8,2.1,12.9,4.5s13,4.2,13,4.1-5.8-2.1-12.9-4.5-13-4.2-13-4.1Z"/>
    <polygon class="st1" points="232.3 195 234.5 143 216.1 143 210.9 197.8 232.3 195"/>
    <g class="st11">
      <path d="M258.5,159.4c-1.1,4.9-2.5,9.7-4.2,14.4-1.1,3-2.6,5.8-4.5,8.3-2.9,3.3-6.7,5.6-10.9,6.6-4.2,1-8.6,1.2-12.9.6l21.4-12.1,5.7-19.8,5.4,1.8Z"/>
    </g>
    <path class="st4" d="M256.1,158.3l-5.3,17.3c-1.9,6.3-7.1,11.1-13.6,12.4l-32.4,6.1-8.8-.3,8.8-11,24.4-8.4c2.4-.5,4.3-2.4,4.9-4.7l4.5-17.4,17.5,6Z"/>
    <path class="st6" d="M215,173.1c.1-.5.2-1.1.2-1.6,0-1.1.1-2.6.2-4.5.2-3.8.4-9,.5-14.7s.3-11,.4-14.7v-4.5c0-.5,0-1.1,0-1.6,0,.5-.1,1.1-.1,1.6,0,1.1-.1,2.6-.2,4.5-.2,3.8-.4,9-.5,14.7s-.3,11-.4,14.7c0,1.8,0,3.3,0,4.5,0,.5,0,1.1,0,1.6Z"/>
    <path class="st6" d="M202.7,137.5c2,1.5,4.1,2.8,6.3,4,2.1,1.3,4.3,2.5,6.6,3.6-2-1.5-4.1-2.8-6.3-4-2.1-1.3-4.3-2.5-6.6-3.6Z"/>
    <path class="st8" d="M128.6,307.6l-.2-9.9,19-6.7.8,13.8-1.1.5c-4.8,2.2-24.4,11.1-28.1,11.5-4.1.4,9.5-9.1,9.5-9.1Z"/>
    <g class="st10">
      <path class="st7" d="M122.1,312.5s-4.6,3.7-3.6,4.3,21.2-7.6,29.8-12l-.2-.4-23.4,9.8s-1.4-2-2.5-1.6Z"/>
    </g>
    <path class="st6" d="M148.3,304.2l-.3.2-.9.4-3.1,1.5c-2.7,1.2-6.4,2.8-10.5,4.5s-7.9,3.1-10.7,4.1l-3.3,1.2-.9.3c-.1,0-.2,0-.3,0h.3c0-.1.9-.5.9-.5l3.2-1.2c2.7-1,6.5-2.5,10.6-4.2s7.9-3.3,10.6-4.4l3.2-1.4.9-.4c0,0,.2,0,.3-.1Z"/>
    <path class="st6" d="M124.7,314.4c-.4-.5-.8-.9-1.2-1.3-.5-.3-1-.6-1.6-.8.6,0,1.2.2,1.7.6.5.3.9.9,1.1,1.5Z"/>
    <path class="st6" d="M128.8,309.6s-.4-.1-.8-.5-.7-.6-.7-.6.4.1.8.5.7.6.7.6Z"/>
    <path class="st6" d="M129.9,308.3c0,0-.4,0-.8-.2s-.7-.3-.7-.4.4,0,.8.2.7.3.7.4Z"/>
    <path class="st6" d="M130.1,306.3c0,0-.4.3-.9.5-.3.2-.6.3-1,.3.3-.2.6-.4.9-.5.3-.2.6-.3,1-.3Z"/>
    <path class="st6" d="M130,305s-.3.4-.9.7c-.3.2-.7.3-1.1.3,0,0,.5-.2,1-.5.3-.2.7-.4,1-.5Z"/>
    <path class="st6" d="M127.6,308.4c-.4.2-.7.4-1.1.5-.4.1-.9.2-1.3.2-.3,0-.5,0-.8,0-.2,0-.3-.1-.4-.2-.1-.2-.1-.4,0-.5.7-.8,1.9-1,2.8-.4.3.2.5.4.7.6,0,0,.1.2.2.3-.3-.3-.6-.6-.9-.8-.4-.2-.8-.3-1.2-.2-.5,0-1,.3-1.3.6-.1.2,0,.4.3.4.2,0,.5,0,.8,0,.4,0,.9,0,1.3-.2.7-.1,1.2-.3,1.2-.3Z"/>
    <path class="st6" d="M127.3,308.5c-.2-.2-.4-.4-.5-.7,0-.3,0-.7,0-1,0-.4.3-.8.7-1,.3,0,.5.1.6.4,0,.2,0,.4,0,.6,0,.3-.1.6-.2.9,0,.3-.3.5-.5.7,0,0,.2-.3.3-.8,0-.3.2-.6.2-.9,0-.3,0-.8-.3-.7s-.5.5-.6.8c0,.3,0,.6,0,.9,0,.3.1.6.3.9Z"/>
    <path class="st6" d="M145.9,299.5s-.5.2-1.3.6c-1,.5-1.8,1.4-2.4,2.3-.5,1-.8,2.1-.8,3.2,0,.9.2,1.4.2,1.4s0-.1-.1-.4c0-.3-.2-.7-.2-1-.2-2.4,1.1-4.7,3.2-5.7.3-.2.7-.3,1-.4.1,0,.2,0,.4,0Z"/>
    <path class="st6" d="M141.1,293c1.1,2.3,2.1,4.8,3,7.2-.6-1.2-1.2-2.4-1.6-3.6-.5-1.2-1-2.4-1.4-3.6Z"/>
    <path class="st6" d="M138.8,306.4c-.8.5-1.6,1-2.5,1.3-.8.4-1.7.7-2.7.8,0,0,1.2-.5,2.6-1s2.5-1.2,2.6-1.1Z"/>
    <path class="st6" d="M142.2,305c0,0,0,.3,0,.6v.6s-.2-.2-.2-.6.1-.6.2-.6Z"/>
    <path class="st6" d="M142.9,302.8c0,0,0,.3,0,.5s-.2.5-.3.4,0-.2,0-.5.2-.5.3-.4Z"/>
    <path class="st6" d="M144.5,301.3c0,0-.2.2-.4.4s-.4.4-.4.4,0-.3.3-.6.6-.2.6-.2Z"/>
    <path class="st6" d="M145.6,300.4c0,0,0,.2-.1.3s-.3.2-.3.1,0-.2.1-.3.3-.2.3-.1Z"/>
    <path class="st1" d="M204.8,196.5l-55.7,1c-8.9.2-16.3,6.9-17.4,15.7l-11,89.8h30.3l9.2-77.6h43.9l.8-28.9Z"/>
    <path class="st13" d="M121,297.4c0,.1,6.6.3,14.8.4,8.2,0,14.7-.1,14.8-.2.9,0-6.6-.3-14.8-.4s-14.8,0-14.8.2Z"/>
    <path class="st1" d="M257.1,225.5c22.2-7.4,7-36.8,7-36.8l-97.2,9.1c-7.8,0-14.1,6.2-14.2,14,0,0,0,0,0,0h0c0,7.8,6.3,14.1,14,14.1,0,0,0,0,0,0l90.3-.5"/>
    <polygon class="st1" points="227.4 194.3 227.1 192.2 202.2 191.2 190 160.4 143.5 163.6 159.2 197.8 227.4 194.3"/>
    <path class="st7" d="M171.7,180.4c.7,1.1,2.2,1.5,3.4.8,1.1-.7,1.5-2.2.8-3.4-.7-1.1-2.2-1.5-3.4-.8,0,0,0,0,0,0-1.1.7-1.5,2.2-.8,3.4Z"/>
    <path class="st13" d="M235.4,193.7c0,0-.2,0-.3,0h-4c0,.1-11.5.7-11.5.7l-38,2c-1.9,0-3.7.2-5.5.3s-3.6.1-5.4.2-3.5.2-5.1.4c-1.7.1-3.3.5-4.9,1-1.5.5-2.9,1.4-4.1,2.5-1.1,1-1.9,2.3-2.5,3.8-.5,1.3-.8,2.7-1,4.1-.2,1.3-.3,2.6-.3,3.8,0,2.2.4,4.4,1.3,6.4.7,1.5,1.7,2.9,3,3.9.8.7,1.8,1.2,2.8,1.5.7.2.7.1,0-.1-1-.4-1.9-.9-2.7-1.5-1.3-1.1-2.3-2.4-2.9-3.9-.8-2-1.2-4.2-1.2-6.4,0-1.3.1-2.5.3-3.8.2-1.4.5-2.7,1-4,.5-1.4,1.3-2.6,2.4-3.6,1.1-1,2.5-1.8,3.9-2.4,1.5-.5,3.2-.8,4.8-.9,1.7-.2,3.4-.3,5.1-.4s3.5-.2,5.3-.2,3.6-.2,5.5-.3l38-2.1,11.5-.7,3.1-.2h.8c0,0,.3-.1.3-.1Z"/>
    <path class="st1" d="M231.7,143s2.5-24,23.9-30.2c1.6.6,3,1.5,4.3,2.7,0,0-20.2-.8-25.4,27.6h-2.8Z"/>
    <path class="st1" d="M216.3,144.2s-4.9-22.2,13-35.6c1.7,0,3.4.3,5,1,0,0-20.3,6.2-15.3,34.7h-2.7Z"/>
    <path class="st6" d="M253,65.6c1.4-3.9,5.7-5.9,9.5-4.5,1.5.5,2.8,1.6,3.7,2.9.9,1.5,1.5,3.2,2,4.9.5,1.7,1.6,3.2,3,4.1,1.8,1,4.2.6,5.8,1.9,1.8,1.4,1.9,4.4.3,6.1-1.7,1.6-4.2,2.1-6.3,1.2.5,1.3.8,2.8.9,4.2,0,1.5-.6,2.8-1.8,3.7-1.3.7-2.9.7-4.2,0-1.3-.8-2.3-1.8-3.1-3-.2,1-.6,2-1.1,2.9-.5.9-1.4,1.6-2.4,1.8-1.3.1-2.5-.5-3.2-1.6-.7-1.1-1.1-2.3-1.2-3.5-.4-3.1-.2-6.3.6-9.3.5-1.9,1.1-3.9.8-5.9s-2.3-3.8-4.2-3.2"/>
    <path class="st13" d="M278.1,79s-.1,0-.3.2c-.3.1-.7.2-1,.3-1.2.2-2.5.2-3.8,0-1.9-.3-3.6-1.2-5-2.6-.8-.8-1.5-1.7-2-2.7-.5-1.1-.9-2.2-1.1-3.4-.2-1.1-.5-2.3-.9-3.3-.4-1-1-1.8-1.9-2.4-1.5-1.1-3.3-1.4-5.1-1-1.2.3-2.3.9-3.2,1.7-.6.6-.9,1-1,1,0-.1.1-.2.2-.3.2-.3.4-.6.6-.8.9-.9,2-1.6,3.2-1.9,1.9-.5,3.9-.2,5.5.9.9.7,1.7,1.6,2.1,2.6.4,1.1.8,2.3,1,3.4.2,1.1.6,2.2,1.1,3.3.5,1,1.1,1.8,1.9,2.6,1.3,1.3,2.9,2.2,4.7,2.5,1.2.3,2.4.3,3.7.1.9,0,1.3-.2,1.3-.2Z"/>
    <path class="st13" d="M261.3,90.8s-.1,0-.2-.2c-.2-.2-.4-.4-.6-.6-.6-.9-1-1.9-1.1-3-.1-1.6,0-3.2.5-4.7.6-1.8,1.1-3.6,1.5-5.5.3-1.9,0-3.8-1-5.4-.8-1.3-2-2.4-3.4-3.1-.9-.5-2-.7-3-.8-.4,0-.8,0-1.1,0,.4-.1.8-.2,1.2-.1,1.1,0,2.1.3,3.1.7,1.5.7,2.7,1.8,3.6,3.1,1,1.7,1.4,3.7,1.1,5.7-.4,1.9-.9,3.8-1.6,5.6-.5,1.5-.7,3-.6,4.6,0,1,.4,2.1.9,2.9.4.6.7.9.7.9Z"/>
    <path class="st6" d="M218.8,78.7c-5-11.5,1.9-18.6,6.3-21.1,2.6-1.5,5.8-1.8,8.9-1.9,3-.1,6.1.1,9,.8,2.9.7,5.6,2.2,7.8,4.4,3.6,3.9,4.5,9.7,4.1,15-.4,6.3-2.2,12.5-5.3,18-.3.7-.9,1.3-1.6,1.8-.7.4-1.6.3-2.2-.4"/>
    <path class="st4" d="M245.7,65.2c1.7.2,2.9,1.6,2.9,3.3h0l-1.9,44c0,5.2-9.5,11.3-15.1,11.2h0c-5.6-.1-4.4-6.1-4-11,.2-3.8.2-7.5-.1-11.3,0,0-7.1-1.2-8.6-10.5-.7-4.6-.5-12.2-.1-18.3.3-5.4,5-9.5,10.4-9.1.1,0,.3,0,.4,0l16,1.7Z"/>
    <path class="st6" d="M221.3,78.6c0,.6.5,1.2,1.1,1.2.6,0,1.2-.4,1.2-1,0,0,0,0,0,0,0-.6-.5-1.2-1.1-1.2-.6,0-1.2.4-1.2,1.1,0,0,0,0,0,0Z"/>
    <path class="st6" d="M220.5,76.6c.1.2,1.1-.5,2.3-.5s2.2.6,2.4.5,0-.3-.5-.7c-.6-.4-1.2-.6-1.9-.6-.7,0-1.3.2-1.9.6-.4.3-.5.6-.4.7Z"/>
    <path class="st6" d="M233.8,78.6c0,.6.5,1.2,1.1,1.2.6,0,1.2-.4,1.2-1,0,0,0,0,0,0,0-.6-.5-1.2-1.1-1.2-.6,0-1.2.4-1.2,1.1,0,0,0,0,0,0Z"/>
    <path class="st6" d="M233.1,76.8c.1.2,1.1-.5,2.3-.5s2.2.6,2.4.5,0-.3-.5-.6c-.6-.4-1.2-.6-1.9-.6-.7,0-1.3.2-1.9.6-.4.3-.5.6-.4.7Z"/>
    <path class="st6" d="M228.4,86.3c-.7-.2-1.4-.3-2.1-.4-.3,0-.6,0-.7-.3,0-.3,0-.7.2-1,.3-.8.6-1.6,1-2.5.9-2.1,1.6-4.2,2.1-6.4-1.1,2-2,4.1-2.7,6.3-.3.9-.6,1.7-.9,2.5-.2.4-.3.8-.2,1.3,0,.2.3.4.5.5.2,0,.4,0,.6,0,.7,0,1.4,0,2.1,0Z"/>
    <path class="st3" d="M227.6,101.4c4.4,0,8.7-1.1,12.4-3.3,0,0-3,6.4-12.3,5.5l-.2-2.2Z"/>
    <path class="st3" d="M229,89.4c.5-.6,1.3-.9,2.1-.9.6,0,1.1.3,1.4.8.3.4.4,1,.1,1.5-.4.5-1.1.6-1.7.4-.6-.2-1.2-.6-1.6-1-.1,0-.3-.2-.4-.4-.1-.1-.1-.3,0-.5"/>
    <path class="st6" d="M232.2,87.2c-.2,0-.2,1.4-1.4,2.4s-2.7.8-2.7,1,.3.3.9.3c.8,0,1.6-.3,2.2-.8.6-.5,1-1.2,1.1-2,0-.5-.1-.9-.2-.9Z"/>
    <path class="st6" d="M232.5,74.6c.1.3,1.4.2,2.9.4s2.7.6,2.9.3c0-.2-.1-.5-.6-.8-.6-.4-1.4-.7-2.1-.8-.8,0-1.5,0-2.3.3-.6.2-.8.5-.8.7Z"/>
    <path class="st6" d="M221,72.9c.2.3,1.1,0,2.2,0s2,.2,2.2-.1,0-.4-.4-.7c-.5-.3-1.1-.5-1.8-.5-.6,0-1.2.2-1.7.6-.4.3-.5.6-.4.7Z"/>
    <path class="st6" d="M218.9,72.7c1.6-7.9,3.8-4.8,6.3-8.5,3.6,3.7,11.9,7.8,16.9,8.7.5,0,1,.2,1.5.5.7.7,1,1.7.8,2.7,0,2.7.1,5.5.7,8.2.6,2.7,2,5.2,4,7.1,3-6.4,3.4-13.9,2-20.9-.6-2.8-1.5-5.8-3.8-7.7-1.7-1.2-3.7-1.9-5.8-2.2-5.1-.9-10.4-1.2-15.2.7s-8.6,4-9.2,9.1"/>
    <path class="st13" d="M253.9,67.1c-.3.2-.6.4-1,.6-.4.2-.8.4-1.3.5l-.8.3-.9.2c-1.6.4-3.1.6-4.7.7-2,0-3.9,0-5.9-.4-1.9-.3-3.8-.8-5.6-1.5-.8-.3-1.6-.7-2.3-1.1l-1-.5-.9-.6c-.5-.3-1-.7-1.5-1.1l-.6-.5-.4-.5c-.3-.3-.6-.6-.8-.9,1.1.9,2.3,1.8,3.5,2.6l.9.5,1,.5c.7.4,1.5.7,2.3,1,1.8.7,3.7,1.2,5.6,1.5,1.9.3,3.8.4,5.7.4,1.6,0,3.1-.2,4.7-.5,2.6-.6,4.1-1.4,4.2-1.3Z"/>
    <path class="st13" d="M251.2,60.9c-.2.3-.5.5-.8.7-.3.2-.6.5-1,.6l-.7.4-.8.3c-2.9,1.1-6,1.7-9.1,1.6-3.1,0-6.2-.3-9.2-1-.9-.2-1.8-.4-2.7-.7-.3,0-.7-.2-1-.4,0,0,1.4.3,3.7.7,3,.6,6,.9,9.1.9,3.1,0,6.1-.4,9-1.5,1.2-.5,2.3-1.1,3.4-1.7Z"/>
    <path class="st13" d="M222.8,58.9c0,0,.3-.1.8,0,.6.2,1.2.6,1.6,1.1.4.5.7,1.2.8,1.8,0,.5,0,.8-.2.8-.2-.8-.5-1.6-1-2.3-.8-1.1-2.1-1.3-2.1-1.4Z"/>
    <path class="st6" d="M270.6,68.8c0-.1.2-.2.3-.3.3-.3.7-.5,1.1-.5.7,0,1.4,0,1.9.4.8.5,1.2,1.4,1.1,2.3-.1,1.1-.8,2.1-1.8,2.6-1.2.5-2.6.4-3.6-.4-.6-.4-1-.9-1.3-1.5-.3-.6-.5-1.3-.5-2,0-1.4,0-2.8-.1-4.2-.6-2.6-2.4-4.8-4.9-5.7-2.1-.7-4.4-.4-6.2.8-1.3.8-2.3,1.9-2.9,3.2-.5,1-.6,1.5-.6,1.5,0-.1,0-.3,0-.4,0-.4.2-.8.4-1.2,1.1-2.4,3.2-4.1,5.8-4.6,1.2-.2,2.5-.1,3.6.3,2.7,1,4.7,3.3,5.3,6.1.1,1.4.2,2.8.1,4.2,0,.6.2,1.3.4,1.8.3.5.7,1,1.2,1.3.9.7,2.1.8,3.1.4.9-.4,1.5-1.3,1.6-2.3.1-.8-.2-1.6-.9-2.1-.5-.4-1.1-.5-1.8-.5-.5,0-1.1.3-1.5.6Z"/>
    <path class="st6" d="M246.3,73c-.3,0-.7,0-1,0h-2.6c-2.9,0-5.8-.5-8.6-1.5-2.8-1-5.2-2.8-7-5.1-.5-.7-.9-1.5-1.2-2.3-.1-.3-.2-.6-.2-.9.5,1.1,1.1,2.1,1.8,3.1,1.8,2.2,4.2,3.9,6.9,4.8,2.7.9,5.5,1.4,8.4,1.6,1.2,0,2.4.1,3.6.3Z"/>
    <path class="st6" d="M259.4,95.6c0,.3-.2.6-.4.9-.6.7-1.5,1.1-2.4,1.2-1.4,0-2.7-.5-3.7-1.4-.6-.5-1-1.3-1.1-2.2,0-1,.4-1.9,1.2-2.3.9-.4,2,0,2.5.9.2.4.1.9-.1,1.3-.2.4-.5.7-.9.9-.7.3-1.5.3-2.2,0-.6-.2-1.1-.5-1.6-1-.6-.6-1.1-1.5-1.2-2.4,0-.3,0-.7,0-1,0,0,0,.3.1.9.2.8.6,1.6,1.2,2.2.4.4.9.7,1.5.9.6.2,1.3.2,1.9,0,.6-.3.9-1,.8-1.6-.3-.6-1.1-.9-1.8-.6-.6.4-1,1.1-.9,1.8,0,.7.4,1.4.9,1.8.9.9,2.1,1.4,3.4,1.4.8,0,1.7-.3,2.3-.9.4-.4.5-.7.5-.7Z"/>
    <path class="st13" d="M216.9,144c0,0,0,.2,0,.4s.2.4.5.3.2-.4,0-.5-.3-.2-.3-.3.2-.2.6,0c.2.1.3.3.4.6,0,.3-.2.6-.5.7-.3.1-.6,0-.9-.2-.2-.2-.2-.4-.2-.7.1-.4.4-.5.4-.4Z"/>
    <path class="st13" d="M232.9,143.7c0,0-.2.1-.3.4-.1.2,0,.5.2.7s.5,0,.7-.2c0-.1,0-.3,0-.4,0-.3-.3-.4-.2-.5s.4,0,.6.3c.1.3.1.6,0,.8-.2.3-.5.5-.9.5-.5,0-.8-.4-.8-.9,0-.2,0-.4.2-.5.3-.4.7-.3.7-.2Z"/>
    <path class="st0" d="M217.9,152.6v1.5c0,1.3.2,2.7.6,3.9.3.8.8,1.6,1.4,2.3.7.7,1.6,1.2,2.7,1.4,1.1.2,2.3,0,3.3-.4,1.1-.6,1.9-1.5,2.5-2.6,1-1.9,1.5-3.9,1.7-6l.2.3c-3.6,0-6.6,0-8.8-.1h-2.6c-.3,0-.7,0-1-.1.3,0,.6,0,.9,0h2.5c2.2-.1,5.3-.2,9-.2h.3v.3c-.1,2.2-.7,4.3-1.7,6.3-.6,1.2-1.5,2.1-2.7,2.8-1.1.6-2.4.7-3.6.5-1.1-.2-2.1-.7-2.9-1.6-.6-.7-1.1-1.6-1.4-2.5-.4-1.3-.5-2.6-.5-4,0-.5,0-1,.2-1.5Z"/>
    <path class="st13" d="M256.8,203c-.2.2-.5.3-.8.4-.7.3-1.5.4-2.3.5-5,.4-9.3-3.3-9.7-8.3,0-.5,0-1.1,0-1.6,0-.8.2-1.6.5-2.3.2-.5.4-.8.4-.8-.3,1-.5,2-.6,3.1-.3,4.9,3.4,9.1,8.3,9.5.3,0,.6,0,1,0,1,0,2.1-.2,3.1-.5Z"/>
    <path class="st13" d="M162.5,224.2c0-.1,21.7-.3,48.4-.3s48.4.1,48.4.3-21.7.3-48.4.3-48.4-.1-48.4-.3Z"/>
  </g>
  <g id="freepik--Cloud--inject-74">
    <path class="st8" d="M492,179.6h-14.4c0,0-40.1.2-40.1.2l-138.4.2h-.4v-.4c-5.4-18.2,5.1-37.3,23.3-42.6,3.4-1,7-1.5,10.5-1.4l-.5.7c-.9-3-1.2-6.1-1.1-9.3.4-10.7,6.5-21,15.9-25.8,9.2-4.8,20.2-4.8,29.3.2l-.7.3c5-12.1,15.5-20.9,26.9-25s24.1-3.6,34.1,1.6c9.5,5,16.9,13.1,21.1,23,3.8,8.7,4.7,18.4,2.5,27.7l-.4-.4c5.4-.6,10.9.2,16,2.3,4.5,1.8,8.6,4.6,11.9,8.1,1.5,1.6,2.8,3.4,3.8,5.4.9,1.8,1.5,3.7,2,5.7.8,3.4,1.3,6.9,1.4,10.4.2,4.8-.2,9.7-1.2,14.4-.3,1.2-.6,2.4-1,3.6-.3.8-.4,1.2-.4,1.2"/>
    <g class="st11">
      <path d="M492,179.6h-14.4c0,0-40.1.2-40.1.2l-138.4.2h-.4v-.4c-5.4-18.2,5.1-37.3,23.3-42.6,3.4-1,7-1.5,10.5-1.4l-.5.7c-.9-3-1.2-6.1-1.1-9.3.4-10.7,6.5-21,15.9-25.8,9.2-4.8,20.2-4.8,29.3.2l-.7.3c5-12.1,15.5-20.9,26.9-25s24.1-3.6,34.1,1.6c9.5,5,16.9,13.1,21.1,23,3.8,8.7,4.7,18.4,2.5,27.7l-.4-.4c5.4-.6,10.9.2,16,2.3,4.5,1.8,8.6,4.6,11.9,8.1,1.5,1.6,2.8,3.4,3.8,5.4.9,1.8,1.5,3.7,2,5.7.8,3.4,1.3,6.9,1.4,10.4.2,4.8-.2,9.7-1.2,14.4-.3,1.2-.6,2.4-1,3.6-.3.8-.4,1.2-.4,1.2"/>
    </g>
    <path class="st8" d="M476.7,179.6h-14.4c0,0-40.1.2-40.1.2l-138.4.2h-.4v-.4c-5.4-18.2,5-37.3,23.3-42.6,3.4-1,7-1.5,10.5-1.4l-.5.7c-.9-3-1.2-6.2-1.1-9.3.4-10.7,6.5-21,15.9-25.8,9.2-4.8,20.2-4.8,29.3.2l-.7.3c5-12.1,15.5-20.9,26.9-25s24.1-3.6,34,1.6c9.5,5,16.9,13.1,21.1,23,3.8,8.7,4.7,18.4,2.6,27.6l-.4-.4c5.4-.6,10.9.2,16,2.3,4.5,1.8,8.6,4.6,11.9,8.1,1.5,1.6,2.8,3.4,3.7,5.4.9,1.8,1.5,3.7,2,5.7.8,3.4,1.3,6.9,1.4,10.4.2,4.8-.2,9.7-1.2,14.4-.3,1.2-.6,2.4-1,3.6-.3.8-.4,1.2-.4,1.2"/>
    <path class="st9" d="M416.8,134.9c-.3-.9-.4-1.9-.5-2.8-.2-.9-.4-2-.7-3.3l-.6-2c-.2-.7-.5-1.4-.8-2.2-1.5-3.5-3.6-6.7-6.3-9.4-6.7-6.7-16.2-9.6-25.5-7.8-3.7.7-7.3,2.2-10.5,4.3-2.1,1.4-4.1,3.1-5.9,5-.6.7-1.1,1.2-1.4,1.6s-.5.5-.6.5,0-.3.3-.7c.3-.6.7-1.2,1.2-1.8,1.6-2.1,3.5-4,5.7-5.5,3.2-2.3,6.9-3.9,10.8-4.8,9.8-2.1,19.9,1,26.8,8.2,2.8,2.9,4.9,6.3,6.3,10,.3.8.6,1.6.8,2.3s.3,1.4.5,2.1c.2,1.3.3,2.5.4,3.4,0,1,0,2-.1,2.9Z"/>
    <path class="st9" d="M403.1,124.7c.3-.3,6.5,4,14,9.6l.4.3-1.2.4c3-8.6,5.8-15.4,6.2-15.3s-1.7,7.2-4.7,15.8l-.4,1-.9-.6-.4-.3c-7.5-5.6-13.3-10.6-13.1-10.9Z"/>
    <path class="st9" d="M362.7,130.1c.2.9.2,1.9.1,2.8,0,.9.1,2,.2,3.2.2,1.4.5,2.8.8,4.2,1,3.6,2.6,6.9,4.8,9.9,2.7,3.6,6.2,6.5,10.3,8.5l.8.4.8.3,1.6.6c.5.2,1.1.3,1.7.5.5.2,1.1.3,1.6.4,2.1.5,4.3.7,6.5.6,3.7,0,7.3-.8,10.7-2.3,2.3-1,4.5-2.2,6.5-3.7.7-.5,1.3-.9,1.6-1.2s.6-.4.6-.4-.1.2-.4.6c-.4.5-.9,1-1.5,1.5-1.9,1.7-4.1,3.2-6.4,4.2-3.5,1.7-7.3,2.6-11.1,2.7-2.3,0-4.6-.1-6.8-.6-.6-.1-1.2-.2-1.7-.4-.6-.2-1.2-.3-1.8-.5l-1.7-.7-.9-.3-.8-.4-1.7-.9c-.5-.3-1-.7-1.6-1-1-.7-2-1.4-2.9-2.2-.5-.4-.9-.8-1.3-1.2s-.9-.8-1.2-1.2l-1.1-1.3-.5-.6-.5-.7c-3.1-4.3-5-9.5-5.3-14.8v-3.3c0-.9.2-1.9.5-2.8Z"/>
    <path class="st9" d="M375,141.9c-.3.3-6-4.7-12.7-11.3l-.4-.4,1.2-.2c-4.1,8.2-7.6,14.6-8,14.4s2.5-6.9,6.6-15.1l.5-1,.8.8.4.4c6.8,6.6,12,12.1,11.6,12.4Z"/>
    <path class="st8" d="M562.3,230v-2c0-1.4,0-3.3,0-5.8,0-5.1,0-12.4,0-21.6l.2.2h-81.4c0,0-90.3,0-90.3,0h-.1c0-6.6,0-11.7,0-15.2v-5c0-.1,0-.2,0-.4v5.4c0,3.5,0,8.6,0,15.1h-.1c0-.1,90.3-.3,90.3-.3h81.4c0,0,.2,0,.2,0v.2c0,9.2,0,16.5,0,21.6,0,2.5,0,4.5,0,5.8v1.5c0,.2,0,.3,0,.5Z"/>
    <path class="st8" d="M310.5,224.2c-.1,0-.3-9.9-.3-22.2s.1-22.2.3-22.2.3,9.9.3,22.2-.1,22.2-.3,22.2Z"/>
  </g>
</svg>