<?xml version="1.0" encoding="UTF-8"?>
<svg id="Layer_1" xmlns="http://www.w3.org/2000/svg" version="1.1" viewBox="0 0 517 496">
  <!-- Generator: Adobe Illustrator 29.1.0, SVG Export Plug-In . SVG Version: 2.1.0 Build 142)  -->
  <defs>
    <style>
      .st0 {
        stroke-width: .8px;
      }

      .st0, .st1, .st2, .st3, .st4, .st5, .st6, .st7, .st8, .st9, .st10, .st11 {
        stroke: #263238;
      }

      .st0, .st1, .st12, .st4, .st5, .st7, .st9, .st10, .st11 {
        stroke-linecap: round;
        stroke-linejoin: round;
      }

      .st0, .st13, .st2, .st7, .st14 {
        fill: #fff;
      }

      .st15, .st5, .st8 {
        fill: #036;
      }

      .st16 {
        fill: #838696;
      }

      .st17 {
        fill: #ffe4e6;
      }

      .st18 {
        fill: #e2e4e9;
      }

      .st1 {
        fill: #b5b5b5;
      }

      .st13, .st2, .st3, .st6, .st8, .st19 {
        stroke-miterlimit: 10;
      }

      .st13, .st19 {
        stroke: #0b0d0e;
        stroke-width: 2px;
      }

      .st12 {
        stroke: #4c4c4c;
      }

      .st12, .st6, .st9, .st19 {
        fill: none;
      }

      .st20 {
        isolation: isolate;
        opacity: .4;
      }

      .st21 {
        fill: #0b0d0e;
      }

      .st22 {
        fill: #19a44b;
      }

      .st3, .st23, .st10 {
        fill: #263238;
      }

      .st4 {
        fill: gray;
      }

      .st24 {
        fill: #dcfce7;
      }

      .st25 {
        fill: #e43157;
      }

      .st26 {
        fill: #f60;
      }

      .st11 {
        fill: #4c4c4c;
      }

      .st27 {
        fill: #c4c7cf;
      }

      .st28 {
        fill: #5c5f6e;
      }
    </style>
  </defs>
  <path class="st6" d="M87.7,66.5v346.6"/>
  <path class="st6" d="M87.7,53.2v6.6"/>
  <path class="st6" d="M213.7,53.2v359.9"/>
  <path class="st6" d="M339.8,53.2v359.9"/>
  <path class="st6" d="M465.8,104.5v308.6"/>
  <path class="st6" d="M465.8,53.2v42.7"/>
  <path class="st23" d="M399.2,102.4H110.6v171.3h288.6V102.4Z"/>
  <path class="st7" d="M397.6,107.2H112.2v161.5h285.3V107.2Z"/>
  <path class="st23" d="M400.8,99.4H107.3v9.2h293.5v-9.2Z"/>
  <path class="st7" d="M258.1,99.3c4.6,0,8.3-3.7,8.3-8.3s-3.7-8.3-8.3-8.3-8.3,3.7-8.3,8.3,3.7,8.3,8.3,8.3Z"/>
  <path class="st8" d="M262.5,91.1c0,.9-.3,1.7-.7,2.4-.5.7-1.2,1.3-1.9,1.6-.8.3-1.7.4-2.5.3-.8-.2-1.6-.6-2.2-1.2-.6-.6-1-1.4-1.2-2.2-.2-.8,0-1.7.2-2.5.3-.8.9-1.5,1.6-2,.7-.5,1.6-.7,2.4-.7s2.3.5,3.1,1.3c.8.8,1.3,1.9,1.3,3.1h0Z"/>
  <path class="st6" d="M164,212.2h-35.3v-35.8h60v35.8h-18"/>
  <path class="st6" d="M224,229.3h-47.9v28.6h47.9v-28.6Z"/>
  <path class="st6" d="M276.8,176.3h6v35.8h-60v-35.8h48.2"/>
  <path class="st6" d="M227.8,124h70.4v35.8h-90.8v-35.8h13.7"/>
  <path class="st6" d="M376.4,176.3h-60v35.8h60v-35.8Z"/>
  <path class="st6" d="M202.5,141.6s-31.8,4.4-50.5,31.4"/>
  <path class="st6" d="M182.1,216l4.2,12.3"/>
  <path class="st6" d="M225.6,214.9l-3.9,11.6"/>
  <path class="st6" d="M181.7,224.3l4.6,4.1,1.2-5.5"/>
  <path class="st6" d="M219.9,222.8l1.7,4.6,4.9-2.9"/>
  <path class="st6" d="M152.8,167.6l-.9,5.5,6.1-3.8"/>
  <path class="st6" d="M284.6,193.3h30"/>
  <path class="st6" d="M308.3,189.5l6.7,3.8-6.1,3.8"/>
  <path class="st6" d="M189.7,193.3h30"/>
  <path class="st6" d="M213.4,189.5l6.6,3.8-6.1,3.8"/>
  <path class="st6" d="M252.6,162.7v9.2"/>
  <path class="st6" d="M256.4,165.5l-3.8,6.7-3.7-6.1"/>
  <path class="st6" d="M314.4,204.1h-28.9"/>
  <path class="st6" d="M291.6,200.4l-6.4,3.8,5.8,3.8"/>
  <path class="st6" d="M226.2,135.2h54.3"/>
  <path class="st6" d="M226.2,140.4h54.3"/>
  <path class="st6" d="M226.2,145.6h54.3"/>
  <path class="st6" d="M134.3,189.5h48.8"/>
  <path class="st6" d="M134.3,194.8h48.8"/>
  <path class="st6" d="M134.3,200h48.8"/>
  <path class="st6" d="M229.1,189.5h48.8"/>
  <path class="st6" d="M229.1,194.8h48.8"/>
  <path class="st6" d="M229.1,200h48.8"/>
  <path class="st6" d="M320.4,189.5h48.8"/>
  <path class="st6" d="M320.4,194.8h48.8"/>
  <path class="st6" d="M320.4,200h48.8"/>
  <path class="st6" d="M182.3,239h37.3"/>
  <path class="st6" d="M182.3,244.2h37.3"/>
  <path class="st6" d="M182.3,249.4h37.3"/>
  <path class="st15" d="M347.6,139.7c-.1,0-.2,0-.3-.1,0,0-.1-.2-.2-.3,0-.1,0-.2,0-.3,0,0,.1-.2.2-.2l.4-.2h-.1c-.1.1-.2.1-.3,0-.1,0-.2-.1-.3-.2,0-.1,0-.2,0-.3,0-.1,0-.2.2-.3l2-1.3-1.7,1c-.1,0-.2,0-.4,0-.1,0-.2-.1-.3-.2s0-.2,0-.4,0-.2.2-.3l3.5-2.3-3.4,2c-.1,0-.2,0-.4,0-.1,0-.2-.1-.3-.2,0-.1,0-.2,0-.4,0-.1.1-.2.2-.3l5.5-3.7-5.4,3.1c-.1,0-.2,0-.4,0-.1,0-.2-.1-.3-.2,0,0,0-.1,0-.2s0-.1,0-.2c0,0,0-.1,0-.2,0,0,0,0,.1-.1l8.3-5.9-8.3,4.8c-.1,0-.2,0-.4,0-.1,0-.2-.1-.3-.2,0-.1,0-.2,0-.4,0-.1,0-.2.2-.3l5.9-4.1-5.8,3.4c-.1,0-.2,0-.4,0-.1,0-.2,0-.3-.2,0-.1,0-.2,0-.4,0-.1,0-.2.2-.3l3.4-2.3-3.2,1.8c-.1,0-.2,0-.4,0-.1,0-.2-.1-.3-.2,0-.1,0-.2,0-.4,0-.1.1-.2.2-.3l2.2-1.5-2,1.1c-.1,0-.2,0-.3,0-.1,0-.2-.1-.3-.2,0,0,0-.2,0-.3,0-.1,0-.2.2-.3l5.8-4.3-5.7,3.3c-.1,0-.2,0-.4,0-.1,0-.2-.1-.3-.2,0-.1,0-.2,0-.3,0-.1,0-.2.2-.3l5.1-4-5.1,2.9c-.1,0-.2,0-.4,0-.1,0-.2-.1-.3-.2,0-.1,0-.2,0-.4,0-.1,0-.2.2-.3l2.5-1.8-2.3,1.3c-.1,0-.2,0-.4,0-.1,0-.2-.1-.3-.2,0-.1,0-.2,0-.4s0-.2.2-.3l2-1.6-1.8,1.1c-.1,0-.2,0-.4,0-.1,0-.2-.1-.3-.2,0-.1,0-.2,0-.4,0-.1,0-.2.2-.3l1-.8-.8.5c0,0-.2,0-.3,0-.1,0-.2,0-.3-.2,0,0-.1-.2-.1-.3s0-.2.1-.3l1.6-2-1.4.8c0,0-.2,0-.3,0s-.2,0-.3,0c0,0-.1-.1-.2-.2,0,0,0-.2,0-.3v-.6c0,0,0,0,0,0s-.1-.1-.2-.2c0-.1,0-.2,0-.4,0-.1.1-.2.2-.3l.7-.4c0,0,.2,0,.3,0,0,0,.2,0,.3,0,0,0,.1.1.2.2,0,0,0,.2,0,.3v.5c-.1,0,2.5-1.5,2.5-1.5,0,0,.2,0,.3,0,.1,0,.2,0,.3.2,0,0,.1.2.1.3,0,.1,0,.2,0,.3l-1.6,2,4.7-2.7c.1,0,.2,0,.4,0,.1,0,.2,0,.3.2,0,.1,0,.2,0,.4,0,.1,0,.2-.2.3l-1,.8,2.5-1.4c.1,0,.2,0,.4,0,.1,0,.2.1.3.2,0,.1,0,.2,0,.3,0,.1,0,.2-.2.3l-2,1.6,3.4-2c.1,0,.2,0,.4,0,.1,0,.2.1.3.2,0,.1,0,.2,0,.4s0,.2-.2.3l-2.5,1.9,3.8-2.2c0,0,.1,0,.2,0,0,0,.1,0,.2,0,0,0,.1,0,.2,0,0,0,0,0,.1.1,0,0,0,.1,0,.2,0,0,0,.1,0,.2,0,0,0,.1,0,.2,0,0,0,0-.1.1l-5.1,4,6.8-4c.1,0,.2,0,.4,0,.1,0,.2.1.3.2,0,.1,0,.2,0,.4s0,.2-.2.3l-5.8,4.3,7.1-4.1c.1,0,.2,0,.4,0,.1,0,.2.1.3.2,0,.1,0,.2,0,.4,0,.1,0,.2-.2.3l-2.2,1.5,2.8-1.6c.1,0,.2,0,.3,0,.1,0,.2.1.3.2,0,.1,0,.2,0,.3,0,.1,0,.2-.2.3l-3.4,2.3,4-2.3c.1,0,.2,0,.4,0,.1,0,.2.1.3.2,0,.1,0,.2,0,.3,0,.1,0,.2-.2.3l-5.9,4.1,6.7-3.9c.1,0,.2,0,.3,0,.1,0,.2.1.3.2,0,.1,0,.2,0,.3,0,.1,0,.2-.2.3l-8.3,5.9,9.2-5.3c.1,0,.2,0,.4,0,.1,0,.2.1.3.2,0,0,0,.1,0,.2,0,0,0,.1,0,.2,0,0,0,.1,0,.2,0,0,0,0-.1.1l-5.5,3.7,6-3.5c.1,0,.2,0,.4,0,.1,0,.2.1.3.2,0,.1,0,.2,0,.4,0,.1,0,.2-.2.3l-3.5,2.3,3.8-2.2c.1,0,.2,0,.4,0,.1,0,.2.1.3.2,0,0,0,.1,0,.2,0,0,0,.1,0,.2,0,0,0,.1,0,.2,0,0,0,0-.1.1l-2,1.3,2-1.2c.1,0,.2,0,.4,0,.1,0,.2.1.3.2,0,.1,0,.2,0,.4,0,.1-.1.2-.2.3l-.4.2.4-.2c.1,0,.2,0,.4,0,.1,0,.2.1.3.2,0,.1,0,.2,0,.3,0,.1,0,.2-.2.3l-5.7,4.1,5.9-3.4c.1,0,.2,0,.4,0,.1,0,.2.1.3.2s0,.2,0,.4c0,.1,0,.2-.2.3h-.1c.1,0,.2,0,.4,0,.1,0,.2.1.3.2,0,.1,0,.2,0,.4,0,.1,0,.2-.2.3l-1.1.8,1-.6c.1,0,.2,0,.3,0,.1,0,.2,0,.3.2,0,0,.1.2.1.3,0,.1,0,.2-.1.3l-1.9,2.2,1.8-1c0,0,.2,0,.3,0,.1,0,.2,0,.3.1,0,0,.1.2.2.3s0,.2,0,.3l-.2.5c0,0,.2,0,.3,0,0,0,.2.1.2.2,0,.1,0,.2,0,.4,0,.1-.1.2-.2.3l-1,.6c0,0-.2,0-.3,0-.1,0-.2,0-.3-.1,0,0-.1-.2-.2-.3,0-.1,0-.2,0-.3l.2-.4-3.1,1.8c-.1,0-.2,0-.3,0-.1,0-.2,0-.3-.2,0,0-.1-.2-.1-.3,0-.1,0-.2.1-.3l1.9-2.2-7.2,4.1c-.1,0-.2,0-.4,0-.1,0-.2-.1-.3-.2,0,0,0-.1,0-.2,0,0,0-.1,0-.2,0,0,0-.1,0-.2,0,0,0,0,.1-.1l1.1-.8-4.1,2.4c-.1,0-.2,0-.4,0-.1,0-.2-.1-.3-.2,0-.1,0-.2,0-.4,0-.1.1-.2.2-.3h.1c0,0-2.7,1.5-2.7,1.5-.1,0-.2,0-.4,0-.1,0-.2-.1-.3-.2,0,0,0-.1,0-.2,0,0,0-.1,0-.2,0,0,0-.1,0-.2,0,0,0,0,.1-.1l5.7-4-10.2,5.9c0,0-.2,0-.2,0Z"/>
  <path class="st6" d="M332.4,153.6c-2.2-1.9-4-4.3-5.3-6.9-1.2-2.7-1.9-5.6-1.9-8.5,0-11.7,10.1-21.1,22.6-21.1s22.6,9.5,22.6,21.1-10.1,21.1-22.6,21.1c-3.3,0-6.5-.7-9.5-2"/>
  <path class="st6" d="M305.3,133.6h14.3"/>
  <path class="st6" d="M305.3,138.5h14.3"/>
  <path class="st6" d="M305.3,143.4h14.3"/>
  <path class="st6" d="M132.9,217.6h25.1"/>
  <path class="st6" d="M132.9,222.5h25.1"/>
  <path class="st6" d="M127.7,153.5h25.1"/>
  <path class="st6" d="M132.9,227.4h25.1"/>
  <path class="st6" d="M132.9,237.7h25.1"/>
  <path class="st6" d="M132.9,242.7h25.1"/>
  <path class="st6" d="M132.9,247.6h25.1"/>
  <path class="st6" d="M341.7,117.5l6.1,22.1,22.3-5.1"/>
  <path class="st6" d="M127.9,123.2v24.6h39.5"/>
  <path class="st8" d="M140.2,126.5h-8.2v21.2h8.2v-21.2Z"/>
  <path class="st8" d="M161.1,131.4h-8.2v16.4h8.2v-16.4Z"/>
  <path class="st8" d="M150.6,119.8h-8.2v28h8.2v-28Z"/>
  <path class="st15" d="M80.4,281.8s0-4.1-5.8-9.9c-5.8-5.8-9.5-9.1-9.5-9.1,0,0-2.9,9.5,2.5,15.3,3.9,4.1,8.2,7.8,12.8,11.2v-7.5Z"/>
  <path class="st15" d="M72,307.6s0-4.1-5.8-9.9c-5.8-5.8-9.5-9.1-9.5-9.1,0,0-2.9,9.5,2.5,15.3,4,4.1,8.3,7.8,12.8,11.2v-7.5Z"/>
  <path class="st15" d="M80.1,288.8s.4-4.1,6.8-9.3c6.4-5.1,10.4-8,10.4-8,0,0,1.9,9.8-4.1,15-4.4,3.6-9,6.9-13.9,9.7l.8-7.4Z"/>
  <path class="st15" d="M69.9,319.3s.9-4,7.7-8.5c6.9-4.5,11.2-6.9,11.2-6.9,0,0,.8,9.9-5.6,14.4-4.7,3.2-9.7,5.9-14.8,8.2l1.5-7.3Z"/>
  <path class="st15" d="M71.8,352.6s0-4.1,5.8-9.9c5.8-5.8,9.5-9.1,9.5-9.1,0,0,2.9,9.5-2.5,15.3-4,4.1-8.3,7.8-12.8,11.2v-7.5Z"/>
  <path class="st15" d="M71.7,360.7s.6-4.1-4.3-10.6c-4.9-6.6-8.1-10.4-8.1-10.4,0,0-4.2,9,.3,15.5,3.3,4.6,7,8.9,11.1,12.9l1.1-7.4Z"/>
  <path class="st15" d="M66,384.8s0-4.1,5.8-9.9c5.8-5.8,9.5-9.1,9.5-9.1,0,0,2.9,9.5-2.5,15.3-4,4.1-8.3,7.8-12.8,11.2v-7.5Z"/>
  <path class="st15" d="M69.9,406.6s-1-4,3.1-11.1c4.1-7.1,6.9-11.2,6.9-11.2,0,0,5.2,8.5,1.5,15.4-2.8,4.9-6,9.6-9.6,14.1l-1.9-7.2Z"/>
  <path class="st9" d="M80.9,280.7c-.3,4.3-.8,8.6-1.6,12.9-2.3,11.9-8,19.5-10.3,30.1-2.3,10.7,4.3,24.4,2.5,38.2s-7.1,21.4-5.6,30.5c1.5,9.2,9.5,33.9,9.5,33.9"/>
  <path class="st9" d="M80,291.6l6.2-4.8"/>
  <path class="st9" d="M80.3,286l-2.6-4.6"/>
  <path class="st9" d="M69.4,323.2s5.2-4,10.6-7.8"/>
  <path class="st9" d="M72,315s-4.3-8.5-9.3-14.2"/>
  <path class="st9" d="M72,358.5c3-5.5,6.7-10.5,11.2-15"/>
  <path class="st9" d="M71,364.3c-1.6-3.7-3.5-7.3-5.7-10.7-3-4.5-3.5-5.1-3.5-5.1"/>
  <path class="st9" d="M66,392.4c1.3-3.3,2.9-6.5,4.7-9.5,1.8-2.8,3.8-5.5,6.1-8"/>
  <path class="st9" d="M71.8,413.8c-.3-3.1.2-6.3,1.6-9.2,2.2-4.2,4.6-9.7,5.7-11.9"/>
  <path class="st15" d="M42.6,337s-.5-2.6,2.6-6.8c3-4.3,4.9-6.7,4.9-6.7,0,0,2.8,5.7,0,9.9-2,3-4.3,5.8-6.8,8.4l-.8-4.7Z"/>
  <path class="st15" d="M50.6,352.3s-.5-2.6,2.6-6.9c3-4.3,4.9-6.7,4.9-6.7,0,0,2.8,5.7,0,9.9-2,3-4.3,5.8-6.8,8.4l-.8-4.7Z"/>
  <path class="st15" d="M43.6,341.4s-.7-2.5-5.3-5.1-7.4-4-7.4-4c0,0-.1,6.3,4.2,8.9,3.1,1.8,6.4,3.4,9.8,4.7l-1.3-4.6Z"/>
  <path class="st15" d="M53.2,359.4s-1-2.4-5.8-4.5c-4.8-2-7.8-3.1-7.8-3.1,0,0,.6,6.3,5.1,8.4,3.3,1.5,6.7,2.6,10.2,3.5l-1.8-4.4Z"/>
  <path class="st15" d="M55.6,380.5s-.4-2.6-4.7-5.6c-4.3-3-6.9-4.7-6.9-4.7,0,0-.8,6.3,3.2,9.3,2.9,2.1,6,4,9.2,5.6l-.8-4.7Z"/>
  <path class="st15" d="M56.6,385.6s-.8-2.5,1.6-7.1c2.4-4.6,4-7.4,4-7.4,0,0,3.6,5.2,1.5,9.7-1.6,3.2-3.4,6.3-5.6,9.3l-1.5-4.5Z"/>
  <path class="st15" d="M63.8,406.5s.3-2.6,4.4-5.9c4.1-3.2,6.7-5.1,6.7-5.1,0,0,1.1,6.2-2.7,9.5-2.8,2.3-5.8,4.3-8.9,6.1l.5-4.7Z"/>
  <path class="st15" d="M62.7,400s-.4-2.6-4.7-5.6c-4.3-3-6.9-4.7-6.9-4.7,0,0-.8,6.3,3.2,9.3,2.9,2.1,6,4,9.2,5.6l-.8-4.7Z"/>
  <path class="st15" d="M62.7,414.2s.2-2.6-3.1-6.6c-3.4-4-5.5-6.3-5.5-6.3,0,0-2.3,5.9.8,9.8,2.3,2.8,4.8,5.4,7.6,7.8l.3-4.7Z"/>
  <path class="st9" d="M42.1,336.4c.6,2.7,1.4,5.3,2.4,7.9,2.7,7.2,7.1,11.3,9.7,17.8,2.6,6.5,0,15.8,2.5,24.2,2.6,8.4,6.8,12.6,6.8,18.5,0,5.9-2.3,22.3-2.3,22.3"/>
  <path class="st9" d="M43.9,343.1l-4.4-2.3"/>
  <path class="st9" d="M43.1,339.7l1.1-3.2"/>
  <path class="st9" d="M53.9,361.8s-3.7-1.9-7.5-3.8"/>
  <path class="st9" d="M51.5,357c1.1-3.4,2.5-6.8,4.3-9.9"/>
  <path class="st9" d="M56.1,384.2c-2.5-3.1-5.4-5.9-8.6-8.2"/>
  <path class="st9" d="M57.4,387.7c.6-2.5,1.4-5,2.4-7.4,1.4-3.1,1.6-3.6,1.6-3.6"/>
  <path class="st9" d="M63.3,409.3c1.4-1.8,3-3.4,4.8-4.9,1.1-.8,2.2-1.7,3.1-2.7"/>
  <path class="st9" d="M63.6,404.8c-1.2-1.9-2.5-3.7-4-5.5-1.4-1.6-3-3-4.7-4.3"/>
  <path class="st9" d="M62.3,418.9c-.2-2-.8-3.9-2-5.6-1.8-2.4-4-5.6-4.8-6.9"/>
  <path class="st3" d="M488.5,162.1c4.5-19.3-7.5-38.6-26.8-43.1s-38.6,7.5-43,26.8c-4.5,19.3,7.5,38.6,26.8,43.1s38.6-7.5,43-26.8Z"/>
  <path class="st2" d="M465.4,182.1c15.5-6.6,22.7-24.5,16.2-40-6.6-15.5-24.4-22.8-39.9-16.2-15.5,6.6-22.7,24.5-16.2,40,6.6,15.5,24.4,22.8,39.9,16.2Z"/>
  <path class="st6" d="M462.9,134.4l-9.4,19.5h13.4"/>
  <path class="st8" d="M456.9,154c0,.7-.2,1.3-.6,1.9-.4.6-.9,1-1.5,1.3-.6.3-1.3.3-2,.2s-1.3-.5-1.8-.9c-.5-.5-.8-1.1-.9-1.8-.1-.7,0-1.4.2-2,.3-.6.7-1.2,1.3-1.5s1.2-.6,1.9-.6c.4,0,.9,0,1.3.3.4.2.8.4,1.1.7.3.3.6.7.7,1.1.2.4.3.9.3,1.3Z"/>
  <path class="st7" d="M259.7,246.7l-4.6-6.7s.9-10.8-.1-12.5c-1-1.7-17.7-3.6-18.7-2.4-1,1.2,2.5,2.4,2.5,2.4,0,0-2.4,1-2.1,2.2.4,1.8,3.4,2,3.4,2,0,0-2.4,1.6-2.1,2.7.2.8,2.6,1.5,2.6,1.5,0,0-2.4,1.1-.4,2.5,2,1.4,3.7,2.9,3.7,2.9,0,0-1.4,3,2.4,5.6,3.7,2.6,10.2,7.3,10.2,7.3l3.2-7.4Z"/>
  <path class="st10" d="M236.9,220.7l-3.7-.3v1.1l3,1.7c.2-.9.4-1.7.7-2.5h0Z"/>
  <path class="st7" d="M251.4,228.1c-.2,0-.3,0-.5,0l-14.6-4.6c-.2,0-.4-.1-.5-.3-.2-.1-.3-.3-.4-.4,0-.2-.2-.4-.2-.6,0-.2,0-.4,0-.6,0-.2.2-.4.3-.5.1-.2.3-.3.5-.4.2,0,.4-.1.6-.1.2,0,.4,0,.6,0l14.6,4.6c.3.1.6.3.8.6.2.3.3.6.2,1,0,.3-.2.7-.5.9-.3.2-.6.4-.9.4h0Z"/>
  <path class="st10" d="M259,231c-.2,0-.4,0-.7,0l-7.6-2.4c-.3,0-.6-.1-.8-.3-.2-.2-.4-.4-.6-.6-.2-.2-.3-.5-.3-.8,0-.3,0-.6,0-.9,0-.3.2-.5.4-.7.2-.2.4-.4.7-.5.3-.1.6-.2.8-.2.3,0,.6,0,.8.2l7.6,2.4c.5.2.9.5,1.1,1,.2.5.3,1,.1,1.5-.1.4-.4.7-.7,1s-.7.4-1.1.4Z"/>
  <path class="st14" d="M252.9,233.2c-.7-2-1.5-3.9-2.4-5.8-1-1.9-3-3.6-3.8-5.5-.8-1.9-2.9,1.1-2.1,2.5.8,1.4,2.6,3.6,2.6,4.6,0,1,.3,1.7-.8,4.9-1.1,3.2-1.7,6.9.8,9.5"/>
  <path class="st9" d="M252.9,233.2c-.7-2-1.5-3.9-2.4-5.8-1-1.9-3-3.6-3.8-5.5-.8-1.9-2.9,1.1-2.1,2.5.8,1.4,2.6,3.6,2.6,4.6,0,1,.3,1.7-.8,4.9-1.1,3.2-1.7,6.9.8,9.5"/>
  <path class="st9" d="M238.8,227.5l8.4,1.5"/>
  <path class="st9" d="M240.1,231.8c1-.3,6.2,2.1,6.2,2.1"/>
  <path class="st9" d="M240.7,235.9l4.3,1.5"/>
  <path class="st5" d="M318.2,233.8s-2.5-1.5-3.6,2.5c-1.1,3.9-4.3,10.9-5.7,12.4-1.4,1.5-15.4,15.4-15.4,15.4,0,0-6-4.7-7.4-3-.6.9-1.4,1.6-2.4,2l-24-18.9-8.9,13.5s32.6,29.9,35.3,30.8c2.7.9,4.7.6,5.6,0,1-.5,18.9-14,18.9-14,0,0,10.9-35.3,11.9-36.5.9-1.2-4.3-4.1-4.3-4.1Z"/>
  <path class="st15" d="M285.9,264.2s4.9,5.6,4.9,12.7l-4.9-12.7Z"/>
  <path class="st9" d="M285.9,264.2s4.9,5.6,4.9,12.7"/>
  <path class="st15" d="M293.8,266.4s1.5,3.8-.8,12l.8-12Z"/>
  <path class="st9" d="M293.8,266.4s1.5,3.8-.8,12"/>
  <path class="st10" d="M328.9,190.3s-10.6-6.9-9.3-13.5c1.3-6.6,25-11.9,38.7-7.4,13.7,4.4,16.4,24.9,14.6,37.5-1.8,12.6-2.9,41.5-2.9,41.5l-46.3,1.4s4.3-33.8,5.2-44.4c.9-10.7,0-15,0-15Z"/>
  <path class="st10" d="M305.1,376.1c1,10.1,2.9,54.5,4,61.1h48.2c0-7.6-.2-58.8.9-63,1.4-5.2,3.3-22.7,1.2-32.7-2.1-10-4.7-14.8-4.7-14.8h-50s.1,4.1.1,4.1c0,0-.9,31.1.4,45.4Z"/>
  <path class="st12" d="M315.8,345.9c2,1.4,4,2.3,4,4.3,1,17.6,4.9,67,6.3,84.8"/>
  <path class="st7" d="M330.2,233.2l24.5.9s-19.6,30.3-19.5,46.9c.2,16.6,3.5,51.1,3.5,51.1,0,0-10.8,8.5-21.9,6.9-1.2-.2-1.8-10.2-1.8-10.2,0,0-.7,9.7-1.5,9.5-6.2-1.1-8.6-7.6-8.6-7.6l1.3-33.3s0-21.8,2.4-28.1c2.4-6.3,18.9-34.1,18.9-34.1l2.9-2.1Z"/>
  <path class="st9" d="M329.2,252.4s-7.6,15.7-10.3,25c-2.8,9.2-4,51.4-4,51.4"/>
  <path class="st5" d="M351.7,233.8s-17.1,25.6-20.5,34.8c-3.3,9.2-5.5,44.5-5.1,59.5.4,15,5.2,31.5,5.2,31.5,13.9,2.2,28.1,1.2,41.6-2.9,0,0-6-26.6-8.9-35.3-1.8-5.7-3.2-11.6-4.1-17.5,0,0,19.7-62.9,19.7-63.8s-.4-2-2.4-2.5c-2-.6-25.6-3.8-25.6-3.8Z"/>
  <path class="st15" d="M336,331.8l25.5-2,.3,4.1-10.9,1.4"/>
  <path class="st9" d="M336,331.8l25.5-2,.3,4.1-10.9,1.4"/>
  <path class="st5" d="M330,236.4s-20.4,36.2-20.9,42.7c-.5,6.5-3.5,36.6-5.2,46.1-1.7,9.5-8.9,28-8.9,28,0,0-1.9-8.1-1.3-11.7.5-3.6,8.4-24.1,9.3-28.6.8-4.6,2-20.9,1.8-28.1-.2-7.2-.7-12.4.8-17.6,1.5-5.3,12.7-33.3,12.7-33.3l16.3-.8-4.5,3.4Z"/>
  <path class="st7" d="M325.5,233.4l-3.4,15.6,8.7-6.8-5.3-8.8Z"/>
  <path class="st7" d="M335.9,225.9l-10.4,7.6,3.9,10.3-.2,8.7,11.8-17.5-5.1-9Z"/>
  <path class="st7" d="M335.3,221.8s-2,14.6-2.6,18.5c-.6,3.9-3.5,12.2-3.5,12.2,0,0,18.6-18,19.5-19.4.9-1.5,4.1-15.8,4.1-15.8,0,0-11.9,4.5-17.5,4.6Z"/>
  <path class="st10" d="M334.8,225.9c2.5,1.6,4.5,1.6,7.4,1.1,2.9-.5,6.9-3.2,9.6-5.4.6-2.5,1-4.5,1-4.5,0,0-11.9,4.5-17.5,4.6,0,0-.2,1.7-.5,4.1Z"/>
  <path class="st7" d="M341.3,177.6l-13.7,10.8s-1.4,10.4-1.9,17.7c-.3,3,.2,6,1.3,8.8,1.1,2.8,2.9,5.3,5.2,7.2,4,3.5,6.1,3.7,10,3.1,3.8-.6,9.5-5.1,11.6-7.1,2.1-2,6-7.9,6-7.9,0,0,3.2.6,4.1-.8.5-.7.8-1.4,1.1-2.2,0,0-13-7.4-18.4-16.6-5.3-9.3-5.4-12.9-5.4-12.9Z"/>
  <path class="st9" d="M337,196.8c-.2,1.5-.6,3-1.3,4.4-.9,1.5-4.5,2.3-2.5,4,1.5,1,3.3,1.6,5.1,1.5"/>
  <path class="st9" d="M333.1,209.5s7.3,3.2,12-1.1"/>
  <path class="st9" d="M335.5,210.6s1.1,4.1,3.5,3.3c2.4-.8,4.5-4,4.5-4-2.6.4-5.3.6-7.9.7h0Z"/>
  <path class="st23" d="M346.3,198.7c0,1.1-.4,2-1,2s-1.1-.8-1.1-1.9c0-1.1.4-2,1-2s1.1.8,1.1,1.9Z"/>
  <path class="st23" d="M334.7,197.4c0,1.1-.4,2-1,2s-1.1-.8-1.1-1.9c0-1.1.4-2,1-2s1.1.8,1.1,1.9Z"/>
  <path class="st9" d="M330.9,192.9c.4-.4.8-.7,1.3-.9.5-.2,1-.3,1.5-.3.5,0,1,.1,1.5.3.5.2.9.5,1.3.9"/>
  <path class="st9" d="M342,193.6s5.5-2.1,7.8,2.7"/>
  <path class="st7" d="M339,237.6l-9.7,14.8,14.3-7.7-4.6-7.1Z"/>
  <path class="st7" d="M355.2,224.8l-16.3,12.8,4.7,13.4,15.6-18.1-4.1-8.1Z"/>
  <path class="st7" d="M335.4,300.8c-2.2-.6-4.3-1.5-6.2-2.8-3.6-2.2-7.5-1.4-10.8-1.3-3.3,0-5.5.8-5.2,2.1.4,1.3,3.6,1.2,4.6,1.2,1,0,2.6,1.6,2.6,1.6l-8.1,2s-2.6,1.7-.5,3.6c2,1.9,2.4,1.5,2.4,1.5,0,0,3.1,4.8,6.3,5,3.3.2,16.5-3.1,16.5-3.1l-1.6-9.7Z"/>
  <path class="st15" d="M358.5,263.4c.4,2,2.5,31.1,2.5,31.1l-26.8,6.3,1.4,15.3s48-5.7,48.9-8.6c.9-3-2.2-54.1-2-57,.3-2.9,4.2-12.9-7.5-12.9"/>
  <path class="st9" d="M358.5,263.4c.4,2,2.5,31.1,2.5,31.1l-26.8,6.3,1.4,15.3s48-5.7,48.9-8.6c.9-3-2.2-54.1-2-57,.3-2.9,4.2-12.9-7.5-12.9"/>
  <path class="st15" d="M363,258.6s7.8-10.1,16.5-9.7l-16.5,9.7Z"/>
  <path class="st9" d="M363,258.6s7.8-10.1,16.5-9.7"/>
  <path class="st15" d="M363,262.3s6.7-3.7,13.5-3.7l-13.5,3.7Z"/>
  <path class="st9" d="M363,262.3s6.7-3.7,13.5-3.7"/>
  <path class="st11" d="M63,437.2v-57.3c0-.5-.2-.9-.5-1.2-.3-.3-.8-.5-1.2-.5h-7c-.5,0-.9.2-1.2.5-.3.3-.5.8-.5,1.2v57.3h10.4Z"/>
  <path class="st10" d="M54.3,437.2v-57.3c0-.5-.2-.9-.5-1.2-.3-.3-.8-.5-1.2-.5h-7c-.5,0-.9.2-1.2.5-.3.3-.5.8-.5,1.2v57.3h10.4Z"/>
  <path class="st10" d="M58.2,437.2h125.1c-.9-2.2-2.4-4.1-4.3-5.5-5.7-3.6-59.7-12-59.7-12l-56.1-.9-2.7.9s-3,4.2-2.7,6.3c.1,1.1.2,6.2.4,11.2Z"/>
  <path class="st7" d="M109.2,311.2s-13.1,7.5-17.6,11.7c-4.5,4.2-11.9,17.9-12.5,26.3-.6,8.4-7.2,40.4-7.2,40.4,0,0-13.5,26.3-11.3,30.2,2.1,3.9,57.3,0,58.8,0s-1.5-16.4-1.5-16.4c0,0,20.9-32.3,21.7-41,.8-8.7-5.4-32.3-6.6-37.7s-21.1-14.6-23.8-13.5Z"/>
  <path class="st9" d="M98.9,356.9s10.4,9.9,14.8,13.2"/>
  <path class="st9" d="M94,364.6s19.2,6.6,24.2,7.2"/>
  <path class="st7" d="M150.1,277.7s1.5,11.1,1.2,14.4c-.3,3.3-3.3,14.6-4.2,17-.9,2.4-1.8,5.1-5.1,4.8-1.9-.1-3.8-.8-5.4-1.8l-3.3,11.1-22.7-13.2,3-5.9s-3.3-5.4-4.2-14.4c-.9-9,4.2-19.1,10.8-23,6.6-3.9,17.9-2.4,21.2.3,3.3,2.7,8.7,10.7,8.7,10.7Z"/>
  <path class="st7" d="M109.5,305.5c1.2.3,26.9,12,27.2,15,.3,3,1.5,12.3,1.5,12.3-5.3-4.5-11-8.5-17-12-4.8-2.5-9.4-5.4-13.7-8.7l2.1-6.6Z"/>
  <path class="st5" d="M132.2,253.2s7.8-3.3,14-1.8c6.3,1.5,8.7,8.7,8.7,14.6s-3.3,13.2-4.5,13.4-4.2-14-9.9-18.2c-3.2-2.3-6-5-8.3-8.1h0Z"/>
  <path class="st5" d="M122.6,255s12.2-6.6,23,2.7c10.7,9.3,7.2,18.5,4.8,21.8-2.4,3.3-2.4,9.6-4.2,10.8-1.8,1.2-2.1-4.8-4.2-5.9-2.1-1.2-1.8,3.3-4.2,9.2-2.4,5.9-13.1,14.6-18.8,14.1-5.6-.6-12.5-6.9-16.4-20-3.9-13.1-1.2-27.2,5.9-31.7,2.1-1.3,4.5-2.1,6.9-2.2,2.5-.2,4.9.3,7.1,1.3Z"/>
  <path class="st9" d="M146.4,260.6s2.4,6.9-3.7,14.5c-6.1,7.7-14.2,11.9-20.3,8.2-6.1-3.7-6.3-7.9-6.3-7.9"/>
  <path class="st9" d="M106.3,276.7s-1.3,20.6,11.1,22.8c12.4,2.1,19.2-10.9,19.2-10.9"/>
  <path class="st5" d="M110.2,277.1c6.8,0,12.4-5.6,12.4-12.6s-5.5-12.6-12.4-12.6-12.4,5.6-12.4,12.6,5.5,12.6,12.4,12.6Z"/>
  <path class="st9" d="M107.6,262.7s1.6-8.2,6.1-9.2"/>
  <path class="st9" d="M107.1,263.8s9-3.2,13.2.3"/>
  <path class="st9" d="M106.6,265.4s-4,2.6-2.6,8.7"/>
  <path class="st14" d="M143.8,291.2s-.9-9-3.6-8.7c-2.7.3-1.5,13.8,0,15.8.1.3.3.5.6.7.2.2.5.3.8.3.3,0,.6,0,.9-.1s.5-.3.7-.5"/>
  <path class="st9" d="M143.8,291.2s-.9-9-3.6-8.7c-2.7.3-1.5,13.8,0,15.8.1.3.3.5.6.7.2.2.5.3.8.3.3,0,.6,0,.9-.1s.5-.3.7-.5"/>
  <path class="st1" d="M396.1,425.1H118.9l9.3-23.6h205.5l62.4,23.6Z"/>
  <path class="st10" d="M392.3,429.8H122v7.4h270.4v-7.4Z"/>
  <path class="st11" d="M396.1,425.1H118.9v8.8h277.2v-8.8Z"/>
  <path class="st14" d="M223.4,404.5l8,12.7h-65.1l6.3-12.7h50.7Z"/>
  <path class="st14" d="M211.1,408.3l8,12.7h-65.1l6.3-12.7h50.7Z"/>
  <path class="st14" d="M131.9,338.4l12.5,58.3,48.7,6.9s14.6-5.9,15.8-5.9,3.3,3.6,4.2,4.8c.9,1.2,2.4,3,3,3.9.6.9.9,5.4,0,6.6-.9,1.2-2.7,4.5-4.5,4.2-1.8-.3,0-5.1,0-5.1,0,0-10.4,4.2-13.7,4.2s-9.9-3-9.9-3c0,0-55.4,6.2-58.7,5-1.4-.4-2.6-1.1-3.7-2-1.1-.9-2-2.1-2.6-3.3-1.2-2.4-20.3-66.4-20.3-66.4"/>
  <path class="st9" d="M131.9,338.4l12.5,58.3,48.7,6.9s14.6-5.9,15.8-5.9,3.3,3.6,4.2,4.8c.9,1.2,2.4,3,3,3.9.6.9.9,5.4,0,6.6-.9,1.2-2.7,4.5-4.5,4.2-1.8-.3,0-5.1,0-5.1,0,0-10.4,4.2-13.7,4.2s-9.9-3-9.9-3c0,0-55.4,6.2-58.7,5-1.4-.4-2.6-1.1-3.7-2-1.1-.9-2-2.1-2.6-3.3-1.2-2.4-20.3-66.4-20.3-66.4"/>
  <path class="st7" d="M213.1,402.4c-.9-1.2-3-4.8-4.2-4.8s-15.8,5.9-15.8,5.9l-27.7-4c1.8,5.1,2.3,10.5,1.3,15.8,11.6-1.2,21.3-2.3,21.3-2.3,0,0,6.6,3,9.9,3s13.7-4.1,13.7-4.1c0,0-1.8,4.8,0,5.1s3.6-3,4.5-4.2c.9-1.2.6-5.7,0-6.6-.6-.9-2.1-2.7-3-3.9Z"/>
  <path class="st9" d="M36.4,437.2h472.7"/>
  <path class="st7" d="M296.1,417.6h52.5v-1.7l-78.2-11.7,1.9,1.7,23.8,11.7Z"/>
  <path class="st7" d="M296.1,415.9h52.5l-27.8-11.4-48.6-.3,23.8,11.7Z"/>
  <path class="st0" d="M304.6,406.8h4.9l-2.5-1h-4.8s2.4,1,2.4,1Z"/>
  <path class="st0" d="M314.6,411l2.5,1.1h4.9l-2.5-1.1h-4.9Z"/>
  <path class="st0" d="M323.7,409.4h-5.4l1.4.6h5.5l-1.5-.6Z"/>
  <path class="st0" d="M312.3,410h4.9l-1.4-.6h-4.9l1.4.6Z"/>
  <path class="st0" d="M315.9,408.4h5.4l-1.5-.6h-5.4l1.5.6Z"/>
  <path class="st0" d="M297.1,406.8h4.9l-2.4-1h-4.8c0,0,2.3,1,2.3,1Z"/>
  <path class="st0" d="M307,407.8l1.5.6h4.9l-1.5-.6h-4.9Z"/>
  <path class="st0" d="M331.1,414.8h5.7l-4.2-1.7h-5.6l4.2,1.7Z"/>
  <path class="st0" d="M319.5,413l4.2,1.7h4.9l-4.2-1.7h-4.9Z"/>
  <path class="st0" d="M312,413l4.2,1.7h4.9l-4.2-1.7h-4.9Z"/>
  <path class="st0" d="M309.5,413h-9.6l3.4,1.7h10.3l-4.2-1.7Z"/>
  <path class="st0" d="M312.1,406.8h5.3l-2.7-1.1h-5.2c0,0,2.6,1.1,2.6,1.1Z"/>
  <path class="st0" d="M322.1,411l2.5,1.1h5.6l-2.6-1.1h-5.5Z"/>
  <path class="st0" d="M314.6,412.1l-2.5-1.1h-4.9l2.5,1.1h4.9Z"/>
  <path class="st0" d="M294.6,406.8l-2.2-.9h-6.6s1.7.9,1.7.9h7.1Z"/>
  <path class="st0" d="M308.3,409.4h-4.9l1.4.6h4.9l-1.4-.6Z"/>
  <path class="st0" d="M299.5,407.8l1.5.6h4.9l-1.5-.6h-4.9Z"/>
  <path class="st0" d="M302.2,410l-1.4-.6h-8.1l1.2.6h8.4Z"/>
  <path class="st0" d="M290.7,408.4h7.7l-1.5-.6h-7.5l1.2.6Z"/>
  <path class="st0" d="M304.6,411h-8.8l2.1,1.1h9.2l-2.5-1.1Z"/>
  <path class="st7" d="M296.1,415.9h-1.9l-36.3-52.5,1.8-.5h23.8l12.7,53Z"/>
  <path class="st7" d="M294.2,415.9l-23.8-11.7-12.7-41.3h23.8l12.7,53Z"/>
  <path class="st10" d="M502.1,437.2v-63.6c0-.5-.2-.9-.5-1.2-.3-.3-.8-.5-1.2-.5h-23.1c-.5,0-.9.2-1.2.5-.3.3-.5.8-.5,1.2v63.6h26.6Z"/>
  <path class="st11" d="M493.7,437.2v-63.6c0-.2,0-.4-.1-.7,0-.2-.2-.4-.4-.6s-.3-.3-.6-.4c-.2,0-.4-.1-.7-.1h-23.1c-.2,0-.4,0-.7.1-.2,0-.4.2-.6.4-.2.2-.3.3-.4.6,0,.2-.1.4-.1.7v63.6h26.6Z"/>
  <path class="st5" d="M401,335.8s-10.2,6.8-11.5,11c-1.3,4.2-8.9,28-9.7,29.9s-7.1,11.5-7.1,11.5l-33.5,1.6s-15.2-3.4-16.5-3.4-14.4,8.6-15.4,11c-1,2.4-3.4,5.8-2.4,6.5,1,.8,2.6-.5,2.6-.5,0,0,.5,3.7,7.1,2.4,6.5-1.3,13.1-6,13.1-6,0,0,8.1,4,11.2,3.1h.3c0,0,0,3.4,0,3.4,0,0,44.2,2.4,46,1.8,1.8-.5,11.5-12.3,11.5-12.3l11.2-60.8s-.5-5.8-7.1.8Z"/>
  <path class="st11" d="M340,390.6l-.6-.9h0s-15.2-3.4-16.5-3.4-14.4,8.6-15.4,11c-1,2.4-3.4,5.8-2.4,6.5s2.6-.5,2.6-.5c0,0,.5,3.7,7.1,2.4,6.5-1.3,13.1-6,13.1-6,0,0,8.1,4,11.2,3.1h.3c0,0,0,3.4,0,3.4l.7-15.6Z"/>
  <path class="st5" d="M402.2,437.2h1c-.8-1.9-1.5-3.6-1.8-4.6-.8-2.8-10.9-39.1-12-44.4-1.1-5.3-.6-12.9,2.2-23.5s9.3-28.9,9.3-28.9l-9.3,13s-7.8,30.2-7.8,34.1,3.9,23.8,7.8,33.5c2.3,5.7,7,14.4,10.5,20.8Z"/>
  <path class="st7" d="M405.2,328.4s-9.7,15.2-12.3,25.7c-2.6,10.5-4.7,19.6-4.7,29.1s10.5,36.1,12,39.5c1.6,3.4,18.6,4.4,23.8-11.8,5.2-16.2,7.6-63.1,4.4-73.8-3.1-10.7-16.7-15.7-23.3-8.6Z"/>
  <path class="st4" d="M402.4,326.2c-.6,1-9.3,5.8-9.3,5.8l-.3,9,2.6-4.8,4,12,4.3-22.3-1.3.3Z"/>
  <path class="st5" d="M403.4,437.2h71.2c-2.3-6.3-11.4-30.6-11.7-31.7-.3-1.3-7.7-58.6-15.4-69.3-7.7-10.6-25.7-14.5-29.6-12.2,0,0-12.8,26.1-17.7,38.3-4.9,12.2-8,36.4-8,39.9s6.8,25.7,6.8,25.7l4.5,9.2Z"/>
  <path class="st9" d="M454.7,418l-30.8,9.2,2,3.9,17-5.2"/>
  <path class="st7" d="M387.2,280.9s-2.5,7.6-2.5,9.2c0,1.2,0,2.3.1,3.5,0,.6-.1,1.2-.4,1.8-.5.8-6.3,6.4-5.6,7.5.7,1.1,4.7,5.6,4.7,5.6,0,0,2.8,13.4,6.5,14.9,3.7,1.5,9,.6,9,.6l1.9,5.2,23.4-7.7-.4-7.7s2.3-13.7-.3-23.5c-2.7-9.8-26.1-20.5-36.4-9.4Z"/>
  <path class="st23" d="M388,296.6c-.3,1.1-.9,2-1.3,1.9-.4-.1-.6-1.1-.3-2.3.3-1.1.9-2,1.3-1.9.4.1.6,1.1.3,2.3Z"/>
  <path class="st14" d="M386.3,291.4c.5-.1,1-.2,1.5-.1.5,0,1,.2,1.4.5.4.2.8.6,1.1,1,.3.4.5.8.6,1.3"/>
  <path class="st9" d="M386.3,291.4c.5-.1,1-.2,1.5-.1.5,0,1,.2,1.4.5.4.2.8.6,1.1,1,.3.4.5.8.6,1.3"/>
  <path class="st14" d="M384,310.4s2.6,2.6,7.2,1l-7.2-1Z"/>
  <path class="st9" d="M384,310.4s2.6,2.6,7.2,1"/>
  <path class="st10" d="M401.6,262.2c-.7-1.8-1.9-3.4-3.4-4.7-1.5-1.3-3.3-2.1-5.3-2.5-6.7-1.3-11.4,8-9.8,11.6,1.7,3.6,2.4,4.4-.8,4.6-3.2.2-9.3,8.5-4,13.6,5.4,5.1,11.9-2.2,12.2.4.3,2.6-.6,4.9,2.6,5.1,3.1.1,8.3-.2,7.5,1.8-.8,2-1,6.7,2,7.5,3,.7,4.8-3,6.9-2.4,2.1.5,4.9,7.2,3.1,10.9-1.9,3.7-3.1,3.7-3.3,4.6-.2.9,5.6,7,11.5,5.9,6-1.1,13.7-3,14.6-9.5.9-6.4-1-7.8,1.5-10.1,2.5-2.3,4.8-3,4.1-6.6-.7-3.6-3-4.8-2.2-7.8.7-3-2.2-16.7-15.1-22.6-12.8-5.9-22.2.3-22.2.3Z"/>
  <path class="st7" d="M426.8,314.3l-29.5,17.1,2.1,16.8,31.4-25-4.1-8.9Z"/>
  <path class="st7" d="M349.7,393.9s-5.9-2.2-9.7-3.3c-6.4-1.9-12.5-4.6-14.7-4-2.3.6-13.2,8.2-13.2,8.2,0,0-3.9,9.3-3.5,10.6.3,1.3,2.7-.8,2.7-.8,0,0-1.4,1.8-.1,3,1.3,1.3,2.6-1.3,2.6-1.3,0,0-.3,3.2,1.6,2.9.5,0,1-.2,1.4-.5.4-.3.6-.8.8-1.2,0,0,.1,1.8,1.7,1.8s5.2-6.8,5.2-6.8l6.1.3s4.8,2.6,7.7,2.9c2.9.3,6.4-1.6,6.4-1.6l3.9,1,3.2-9.3-1.9-1.9Z"/>
  <path class="st9" d="M311.2,404.7s3.3-7.9,3.8-8.4c.5-.5,7.1-4.2,7.1-4.2"/>
  <path class="st9" d="M313.6,406.5s4-8.1,4.4-8.5c.4-.4,5.4-2.9,5.4-2.9"/>
  <path class="st9" d="M317.3,407.6s3.8-7.4,4.5-7.8c.7-.4,2.4-1.3,2.4-1.3"/>
  <path class="st15" d="M435,335.6s-20.3,13.2-19.9,18.4c.3,5.2,1.9,5.2,1.9,5.2l-10.3,38.7s-3.2-2.6-3.5.7l-.3,3.2-53.7-9-5.5,13.5s22.2,8.7,37.6,14.2c15.4,5.5,31.5,11.6,33.1,8.7,1.6-2.9,33.4-50.6,35.4-54.1,2-3.5,2-10,2-10"/>
  <path class="st9" d="M435,335.6s-20.3,13.2-19.9,18.4c.3,5.2,1.9,5.2,1.9,5.2l-10.3,38.7s-3.2-2.6-3.5.7l-.3,3.2-53.7-9-5.5,13.5s22.2,8.7,37.6,14.2c15.4,5.5,31.5,11.6,33.1,8.7,1.6-2.9,33.4-50.6,35.4-54.1,2-3.5,2-10,2-10"/>
  <path class="st9" d="M416.9,359.1s6.1-12.6,20.9-13.5"/>
  <path class="st13" d="M310.1,476.9h-163c-4.1,0-7.4-3.3-7.4-7.4v-51.2c0-4.1,3.3-7.4,7.4-7.4h163c4.1,0,7.4,3.3,7.4,7.4v51.2c0,4.1-3.3,7.4-7.4,7.4Z"/>
  <path class="st18" d="M304.7,434.9h-125c-.7,0-1.2-.6-1.2-1.2s.6-1.2,1.2-1.2h125c.7,0,1.2.6,1.2,1.2s-.5,1.2-1.2,1.2Z"/>
  <path class="st18" d="M165.6,441.2h-12.3c-2,0-3.7-1.7-3.7-3.7v-12.3c0-2,1.7-3.7,3.7-3.7h12.3c2,0,3.7,1.7,3.7,3.7v12.3c0,2-1.7,3.7-3.7,3.7Z"/>
  <path class="st18" d="M165.6,466.9h-12.3c-2,0-3.7-1.7-3.7-3.7v-12.3c0-2,1.7-3.7,3.7-3.7h12.3c2,0,3.7,1.7,3.7,3.7v12.3c0,2-1.7,3.7-3.7,3.7Z"/>
  <path class="st16" d="M180,437.3l-1.1,2.1h-.3l1-1.8h-1v-.3h1.4Z"/>
  <path class="st16" d="M180.2,438.4c0-.2,0-.3,0-.4,0,0,0-.2.1-.3,0,0,.1-.2.2-.2.1,0,.2,0,.4,0s.3,0,.4,0c0,0,.2.1.2.2,0,.1,0,.2.1.3,0,.1,0,.2,0,.4s0,.3,0,.4c0,0,0,.2-.1.3,0,.1-.1.2-.2.2-.1,0-.2,0-.4,0s-.2,0-.3,0c0,0-.2,0-.2-.2,0,0,0-.2-.1-.2,0,0,0-.2,0-.3s0-.3,0-.4ZM180.5,438.4c0,.2,0,.4,0,.6,0,.1.2.2.4.2s.3,0,.4-.2c0-.1,0-.3,0-.6s0-.4,0-.6c0-.1-.2-.2-.4-.2s-.3,0-.4.2c0,.1,0,.3,0,.6Z"/>
  <path class="st16" d="M182.1,438c0,0-.1-.2-.1-.3s0-.2.1-.3c0,0,.2-.1.3-.1s.2,0,.3.1c0,0,.1.2.1.3s0,.2-.1.3c0,0-.2.1-.3.1s-.2,0-.3-.1ZM182.2,437.6s0,0,0,.2,0,0,0,.2c0,0,0,0,.2,0s0,0,.2,0c0,0,0,0,0-.2s0,0,0-.2c0,0,0,0-.2,0s-.1,0-.2,0ZM183.5,437.3l-1,2.1h-.2l1-2.1h.2ZM183.1,439.3c0,0-.1-.2-.1-.3s0-.2.1-.3c0,0,.2-.1.3-.1s.2,0,.3.1c0,0,.1.2.1.3s0,.2-.1.3c0,0-.2.1-.3.1s-.2,0-.3-.1ZM183.3,438.9s0,0,0,.2,0,0,0,.2c0,0,0,0,.2,0s0,0,.2,0c0,0,0,0,0-.2s0,0,0-.2c0,0,0,0-.2,0s-.1,0-.2,0Z"/>
  <path class="st16" d="M185.4,439c0,0,.2.2.3.2s.2,0,.3-.2c0,0,.2-.2.2-.4v-1.4h.3v1.4c0,.2,0,.4-.2.6-.2.1-.3.2-.6.2s-.4,0-.6-.2c-.2-.2-.2-.3-.2-.6v-1.4h.3v1.4c0,.2,0,.3.2.4Z"/>
  <path class="st16" d="M187.2,437.9v.2c0,0,.1-.2.2-.2,0,0,.2,0,.3,0,.2,0,.4,0,.5.2.2.2.2.3.2.6s0,.4-.2.6c-.2.2-.3.2-.5.2s-.2,0-.3,0c0,0-.2,0-.2-.2v.9h-.3v-2.2h.3ZM187.2,438.7c0,.2,0,.3.2.3,0,0,.2.1.3.1s.2,0,.3-.1c0,0,.1-.2.1-.3s0-.3-.1-.4c0,0-.2-.2-.3-.2s-.2,0-.3.1c0,.1-.2.2-.2.4Z"/>
  <path class="st16" d="M188.8,437.1h.3v2.3h-.3v-2.3Z"/>
  <path class="st16" d="M190.7,439.2c-.2.2-.3.2-.6.2s-.4,0-.6-.2c-.2-.2-.2-.3-.2-.6s0-.4.2-.6c.2-.2.3-.2.6-.2s.4,0,.6.2c.2.2.2.3.2.6s0,.4-.2.6ZM189.8,439c0,0,.2.1.3.1s.2,0,.3-.1c0,0,.2-.2.2-.4s0-.3-.2-.3c0,0-.2-.1-.3-.1s-.2,0-.3.1c0,0-.2.2-.2.3,0,.2,0,.3.2.4Z"/>
  <path class="st16" d="M192.4,439.4v-.2c0,0-.1.2-.2.2,0,0-.2,0-.3,0-.2,0-.4,0-.5-.2-.2-.2-.2-.3-.2-.6s0-.4.2-.6c.2-.2.3-.2.5-.2s.2,0,.3,0c0,0,.2,0,.2.2v-.2h.3v1.5h-.3ZM192.3,438.7c0-.2,0-.3-.2-.3,0,0-.2-.1-.3-.1s-.2,0-.3.1c0,0-.1.2-.1.3s0,.2.2.3c0,0,.2.2.3.2s.2,0,.3-.1c0,0,.1-.2.1-.4Z"/>
  <path class="st16" d="M194.2,439.4v-.2c0,0-.1.2-.2.2,0,0-.2,0-.3,0-.2,0-.4,0-.5-.2-.2-.2-.2-.3-.2-.6s0-.4.2-.6c.2-.2.3-.2.5-.2s.2,0,.3,0c0,0,.2,0,.2.2v-1h.3v2.3h-.3ZM194.1,439c0,0,.2-.2.2-.4s0-.3-.2-.3c0,0-.2-.1-.3-.1s-.2,0-.3.1c0,0-.1.2-.1.3s0,.2.1.3c0,0,.2.2.3.2s.2,0,.3-.1Z"/>
  <path class="st16" d="M194.9,437.5s0,0,0-.1c0,0,0,0,0-.1s0,0,.2,0,0,0,.2,0c0,0,0,0,0,.1,0,0,0,0,0,.1s0,0-.2,0c0,0-.1,0-.2,0ZM195.2,439.4v-1.5h-.3v1.5h.3Z"/>
  <path class="st16" d="M195.9,438.6v.8h-.3v-1.5h.3v.2c0,0,0-.2.2-.2,0,0,.2,0,.3,0,.2,0,.3,0,.4.2,0,.1.2.3.2.5v.9h-.3v-.8c0-.1,0-.2,0-.3,0,0-.1,0-.2,0s-.2,0-.3,0c0,0-.1.1-.1.3Z"/>
  <path class="st16" d="M197.5,439.6c0,0,0,.2.2.2,0,0,.2,0,.2,0,.3,0,.5-.2.5-.7h0s-.1,0-.2.1c0,0-.2,0-.3,0-.2,0-.4,0-.5-.2-.2-.2-.2-.3-.2-.6s0-.4.2-.6c.2-.2.3-.2.5-.2s.2,0,.3,0c0,0,.2.1.2.2v-.2h.3v1.3c0,.6-.3,1-.8,1s-.3,0-.4,0c-.1,0-.2-.2-.3-.3,0,0,0,0,.1,0h0ZM198.4,438.7c0-.2,0-.3-.2-.4,0,0-.2-.1-.3-.1s-.2,0-.3.2c0,0-.2.2-.2.3s0,.3.1.3c0,0,.2.1.3.1s.2,0,.3-.1c.1,0,.2-.2.2-.3Z"/>
  <path class="st16" d="M199.2,439.4s0,0,0-.2,0,0,0-.2c0,0,0,0,.2,0s0,0,.2,0c0,0,0,0,0,.2s0,0,0,.2c0,0,0,0-.2,0s0,0-.2,0Z"/>
  <path class="st16" d="M199.9,439.4s0,0,0-.2,0,0,0-.2c0,0,0,0,.2,0s0,0,.2,0c0,0,0,0,0,.2s0,0,0,.2c0,0,0,0-.2,0s-.1,0-.2,0Z"/>
  <path class="st16" d="M200.7,439.4s0,0,0-.2,0,0,0-.2c0,0,0,0,.2,0s0,0,.2,0c0,0,0,0,0,.2s0,0,0,.2c0,0,0,0-.2,0s-.1,0-.2,0Z"/>
  <path class="st26" d="M269.6,435h-90c-.7,0-1.2-.6-1.2-1.2s.6-1.2,1.2-1.2h90c.7,0,1.2.6,1.2,1.2s-.6,1.2-1.2,1.2Z"/>
  <path class="st21" d="M181.3,427.1l.6.4c-.2.2-.4.5-.7.6-.3.2-.6.2-.9.2-.6,0-1-.2-1.4-.6-.4-.4-.6-.9-.6-1.4s.2-1,.6-1.4c.4-.4.9-.6,1.4-.6s.6,0,.9.2c.3.2.5.3.7.6l-.6.4c-.3-.3-.6-.5-1-.5s-.6.1-.9.4c-.2.3-.4.6-.4,1s.1.7.4,1c.2.2.6.4.9.4s.4,0,.6-.2c.2-.1.3-.2.4-.4Z"/>
  <path class="st21" d="M184.5,428c-.3.3-.6.4-1,.4s-.7-.1-1-.4c-.3-.3-.4-.6-.4-1s.1-.7.4-1c.3-.2.6-.4,1-.4s.7.1,1,.4c.2.3.4.6.4,1s-.1.7-.4,1ZM183,427.5c.1.1.3.2.5.2s.4,0,.5-.2c.1-.1.2-.3.2-.5s0-.4-.2-.5c-.1-.1-.3-.2-.5-.2s-.4,0-.5.2c-.1.1-.2.3-.2.5,0,.2,0,.4.2.5Z"/>
  <path class="st21" d="M186.1,427.3v1h-.7v-2.7h.7v.6c0-.2.2-.4.3-.5.2-.1.3-.2.5-.2s.3,0,.4,0v.6c-.2,0-.4,0-.5,0-.5,0-.7.4-.7,1.1Z"/>
  <path class="st21" d="M188.3,425.6v.4c0-.1.2-.2.3-.3.2,0,.3-.1.5-.1.4,0,.7.1.9.4.2.3.4.6.4,1s-.1.8-.4,1c-.2.2-.6.4-.9.4s-.3,0-.5-.1c-.2,0-.3-.2-.3-.3v1.7h-.7v-4h.7ZM188.3,426.9c0,.2,0,.4.2.5.2.1.3.2.5.2s.4,0,.5-.2c.1-.1.2-.3.2-.5s0-.4-.2-.5c-.2-.2-.3-.2-.5-.2s-.4,0-.5.2c-.1.2-.2.3-.2.6Z"/>
  <path class="st21" d="M193.2,428c-.3.3-.6.4-1,.4s-.7-.1-1-.4c-.3-.3-.4-.6-.4-1s.1-.7.4-1c.3-.2.6-.4,1-.4s.7.1,1,.4c.2.3.4.6.4,1s-.1.7-.4,1ZM191.7,427.5c.1.1.3.2.5.2s.4,0,.5-.2c.1-.1.2-.3.2-.5s0-.4-.2-.5c-.1-.1-.3-.2-.5-.2s-.4,0-.5.2c-.1.1-.2.3-.2.5s0,.4.2.5Z"/>
  <path class="st21" d="M194.8,427.3v1h-.7v-2.7h.7v.6c0-.2.2-.4.3-.5.2-.1.3-.2.5-.2s.3,0,.4,0v.6c-.2,0-.4,0-.5,0-.4,0-.7.4-.7,1.1Z"/>
  <path class="st21" d="M198.4,428.3v-.3c0,.1-.2.2-.4.3-.2,0-.3,0-.5,0-.4,0-.7-.1-1-.4-.3-.2-.4-.6-.4-1s.1-.8.4-1c.3-.2.6-.4,1-.4s.3,0,.5,0c.2,0,.3.2.4.3v-.3h.7v2.7h-.7ZM197.1,426.4c-.2.1-.2.3-.2.5s0,.4.2.5c.2.1.3.2.5.2s.4,0,.5-.2c.2-.1.2-.3.2-.5s0-.4-.2-.5c-.2-.1-.3-.2-.5-.2-.2,0-.4,0-.5.2Z"/>
  <path class="st21" d="M200.6,424.6v1h.6v.6h-.6v2.1h-.7v-2.1h-.5v-.6h.5v-1h.7Z"/>
  <path class="st21" d="M201.6,424.8c0,0-.1-.2-.1-.3s0-.2.1-.3c0,0,.2-.1.3-.1s.2,0,.3.1c0,0,.1.2.1.3s0,.2-.1.3c0,0-.2.1-.3.1s-.2,0-.3-.1ZM202.3,425.6v2.7h-.7v-2.7h.7Z"/>
  <path class="st21" d="M205.2,428c-.3.3-.6.4-1,.4s-.7-.1-1-.4c-.3-.3-.4-.6-.4-1s.1-.7.4-1c.3-.2.6-.4,1-.4s.7.1,1,.4c.3.2.4.6.4,1s-.1.7-.4,1ZM203.7,427.5c.1.1.3.2.5.2s.4,0,.5-.2c.1-.1.2-.3.2-.5s0-.4-.2-.5c-.1-.1-.3-.2-.5-.2s-.4,0-.5.2c-.1.1-.2.3-.2.5s0,.4.2.5Z"/>
  <path class="st21" d="M206.8,426.8v1.4h-.7v-2.7h.7v.4c0-.2.2-.2.3-.3.2,0,.3-.1.5-.1.3,0,.6,0,.7.3.2.2.3.5.3.9v1.6h-.7v-1.5c0-.2,0-.3-.2-.4s-.2-.2-.4-.2-.3,0-.4.2c-.1,0-.2.2-.2.5Z"/>
  <path class="st21" d="M209.3,428.2c0,0-.1-.2-.1-.3s0-.2.1-.3c0,0,.2-.1.3-.1s.2,0,.3.1c0,0,.1.2.1.3s0,.2-.1.3c0,0-.2.1-.3.1s-.2,0-.3-.1Z"/>
  <path class="st21" d="M212.6,428.3v-.4c0,.1-.2.2-.3.3-.2,0-.3.1-.5.1-.4,0-.7-.1-.9-.4-.2-.2-.4-.6-.4-1s.1-.8.4-1c.2-.2.6-.4.9-.4s.4,0,.5.1c.2,0,.3.2.3.3v-1.8h.7v4.2h-.7ZM212.4,427.5c.2-.1.2-.3.2-.5s0-.4-.2-.5c-.2-.1-.3-.2-.5-.2s-.4,0-.5.2c-.1.1-.2.3-.2.5s0,.4.2.5c.1.1.3.2.5.2s.3-.1.5-.2Z"/>
  <path class="st21" d="M216.2,428c-.3.3-.6.4-1,.4s-.7-.1-1-.4c-.3-.3-.4-.6-.4-1s.1-.7.4-1c.3-.2.6-.4,1-.4s.7.1,1,.4c.2.3.4.6.4,1s-.1.7-.4,1ZM214.7,427.5c.1.1.3.2.5.2s.4,0,.5-.2c.1-.1.2-.3.2-.5s0-.4-.2-.5c-.1-.1-.3-.2-.5-.2s-.4,0-.5.2c-.1.1-.2.3-.2.5,0,.2,0,.4.2.5Z"/>
  <path class="st21" d="M217.4,428c-.3-.3-.4-.6-.4-1s.2-.7.4-1c.3-.2.6-.4,1-.4s.4,0,.6.2c.2,0,.4.2.5.4l-.6.4c-.1-.2-.3-.3-.6-.3s-.4,0-.5.2c-.2.1-.2.3-.2.5s0,.4.2.5c.2.2.3.2.5.2s.4,0,.6-.3l.6.4c-.1.2-.3.3-.5.4-.2,0-.4.2-.6.2-.4,0-.7-.2-1-.4Z"/>
  <path class="st21" d="M220.7,426.8l-.9-1.2h.8l.5.7.5-.7h.8l-.9,1.2,1,1.5h-.8l-.6-.9-.6.9h-.8l1.1-1.5Z"/>
  <path class="st18" d="M304.9,460.9h-125c-.7,0-1.2-.6-1.2-1.2s.6-1.2,1.2-1.2h125c.7,0,1.2.6,1.2,1.2s-.6,1.2-1.2,1.2Z"/>
  <path class="st16" d="M180,464.9v.4h-.3v-.4h-1.1l1.1-1.6h.2v1.4h.3v.3h-.3ZM179.2,464.6h.6v-.9l-.6.9Z"/>
  <path class="st16" d="M180.6,464.9h.2s0,0,.2.1c0,0,.2,0,.3,0s.3,0,.4-.1c0,0,.1-.2.1-.3s0-.2-.1-.3c0,0-.2,0-.3,0s-.2,0-.2,0c0,0-.2,0-.3.1l-.2-.2.2-1h1.1v.3h-.9v.6c0,0,0,0,0,0,0,0,.2,0,.2,0,.2,0,.4,0,.5.2.1.1.2.3.2.5s0,.4-.2.5c-.2.1-.3.2-.6.2s-.3,0-.4-.1c-.1,0-.2-.2-.3-.4Z"/>
  <path class="st16" d="M182.3,463.9c0,0-.1-.2-.1-.3s0-.2.1-.3c0,0,.2-.1.3-.1s.2,0,.3.1c0,0,.1.2.1.3s0,.2-.1.3c0,0-.2.1-.3.1s-.2,0-.3-.1ZM182.5,463.5s0,0,0,.2,0,0,0,.2c0,0,0,0,.2,0s0,0,.2,0c0,0,0,0,0-.2s0,0,0-.2c0,0,0,0-.2,0s-.1,0-.2,0ZM183.8,463.2l-1,2.1h-.2l1-2.1h.2ZM183.4,465.2c0,0-.1-.2-.1-.3s0-.2.1-.3c0,0,.2-.1.3-.1s.2,0,.3.1c0,0,.1.2.1.3s0,.2-.1.3c0,0-.2.1-.3.1s-.2,0-.3-.1ZM183.6,464.8s0,0,0,.2,0,0,0,.2c0,0,0,0,.2,0s0,0,.2,0c0,0,0,0,0-.2s0,0,0-.2c0,0,0,0-.2,0s-.1,0-.2,0Z"/>
  <path class="st16" d="M185.6,464.9c0,0,.2.2.3.2s.2,0,.3-.2c0,0,.2-.2.2-.4v-1.4h.3v1.4c0,.2,0,.4-.2.6-.2.1-.3.2-.6.2s-.4,0-.6-.2c-.2-.2-.2-.3-.2-.6v-1.4h.3v1.4c0,.2,0,.3.2.4Z"/>
  <path class="st16" d="M187.5,463.8v.2c0,0,.1-.2.2-.2,0,0,.2,0,.3,0,.2,0,.4,0,.5.2.2.2.2.3.2.6s0,.4-.2.6c-.2.2-.3.2-.5.2s-.2,0-.3,0c0,0-.2,0-.2-.2v.9h-.3v-2.2h.3ZM187.5,464.6c0,.2,0,.3.2.3,0,0,.2.1.3.1s.2,0,.3-.1c0,0,.1-.2.1-.3s0-.3-.1-.4c0,0-.2-.2-.3-.2s-.2,0-.3.1c-.1.1-.2.2-.2.4Z"/>
  <path class="st16" d="M189,463h.3v2.3h-.3v-2.3Z"/>
  <path class="st16" d="M190.9,465.1c-.2.2-.3.2-.6.2s-.4,0-.6-.2c-.2-.2-.2-.3-.2-.6s0-.4.2-.6c.2-.2.3-.2.6-.2s.4,0,.6.2c.2.2.2.3.2.6s0,.4-.2.6ZM190,464.9c0,0,.2.1.3.1s.2,0,.3-.1c0,0,.2-.2.2-.4s0-.3-.2-.3c0,0-.2-.1-.3-.1s-.2,0-.3.1c0,0-.2.2-.2.3,0,.2,0,.3.2.4Z"/>
  <path class="st16" d="M192.6,465.3v-.2c0,0-.1.2-.2.2,0,0-.2,0-.3,0-.2,0-.4,0-.5-.2-.2-.2-.2-.3-.2-.6s0-.4.2-.6c.2-.2.3-.2.5-.2s.2,0,.3,0c0,0,.2,0,.2.2v-.2h.3v1.5h-.3ZM192.6,464.6c0-.2,0-.3-.2-.3,0,0-.2-.1-.3-.1s-.2,0-.3.1c0,0-.1.2-.1.3s0,.2.2.3c0,0,.2.2.3.2s.2,0,.3-.1c0,0,.1-.2.1-.4Z"/>
  <path class="st16" d="M194.5,465.3v-.2c0,0-.1.2-.2.2,0,0-.2,0-.3,0-.2,0-.4,0-.5-.2-.2-.2-.2-.3-.2-.6s0-.4.2-.6c.2-.2.3-.2.5-.2s.2,0,.3,0c0,0,.2,0,.2.2v-1h.3v2.3h-.3ZM194.3,464.9c0,0,.2-.2.2-.4s0-.3-.2-.3c0,0-.2-.1-.3-.1s-.2,0-.3.1c0,0-.1.2-.1.3s0,.2.1.3c0,0,.2.2.3.2s.2,0,.3-.1Z"/>
  <path class="st16" d="M195.2,463.4s0,0,0-.1c0,0,0,0,0-.1,0,0,0,0,.2,0s0,0,.2,0c0,0,0,0,0,.1,0,0,0,0,0,.1,0,0,0,0-.2,0,0,0-.1,0-.2,0ZM195.5,465.3v-1.5h-.3v1.5h.3Z"/>
  <path class="st16" d="M196.1,464.5v.8h-.3v-1.5h.3v.2c0,0,0-.2.2-.2,0,0,.2,0,.3,0,.2,0,.3,0,.4.2,0,.1.2.3.2.5v.9h-.3v-.8c0-.1,0-.2,0-.3,0,0-.1,0-.2,0s-.2,0-.3,0c0,0-.1.2-.1.3Z"/>
  <path class="st16" d="M197.8,465.5c0,0,0,.2.2.2,0,0,.2,0,.2,0,.3,0,.5-.2.5-.7h0s-.1,0-.2.1c0,0-.2,0-.3,0-.2,0-.4,0-.5-.2-.2-.2-.2-.3-.2-.6s0-.4.2-.6c.2-.2.3-.2.5-.2s.2,0,.3,0c0,0,.2.1.2.2v-.2h.3v1.3c0,.6-.3,1-.8,1s-.3,0-.4,0c-.1,0-.2-.2-.3-.3,0,0,0,0,.1,0,0,0,0,0,0,0ZM198.7,464.6c0-.2,0-.3-.2-.4,0,0-.2-.1-.3-.1s-.2,0-.3.2c0,0-.2.2-.2.3s0,.3.1.3c0,0,.2.1.3.1s.2,0,.3-.1c.1,0,.2-.2.2-.3Z"/>
  <path class="st16" d="M199.4,465.3s0,0,0-.2,0,0,0-.2c0,0,0,0,.2,0s0,0,.2,0c0,0,0,0,0,.2s0,0,0,.2c0,0,0,0-.2,0s-.1,0-.2,0Z"/>
  <path class="st16" d="M200.2,465.3s0,0,0-.2,0,0,0-.2c0,0,0,0,.2,0s0,0,.2,0c0,0,0,0,0,.2s0,0,0,.2c0,0,0,0-.2,0s-.1,0-.2,0Z"/>
  <path class="st16" d="M201,465.3s0,0,0-.2,0,0,0-.2c0,0,0,0,.2,0s0,0,.2,0c0,0,0,0,0,.2s0,0,0,.2c0,0,0,0-.2,0,0,0-.1,0-.2,0Z"/>
  <path class="st26" d="M235.1,460.9h-55.2c-.7,0-1.2-.6-1.2-1.2s.6-1.2,1.2-1.2h55.2c.7,0,1.2.6,1.2,1.2s-.6,1.2-1.2,1.2Z"/>
  <path class="st21" d="M181.7,453l.9-2.8h.8l-1.4,4h-.6l-.6-2.2-.6,2.2h-.6l-1.4-4h.8l.9,2.8.6-2.2h.6l.6,2.2Z"/>
  <path class="st21" d="M184.3,452.8v1.4h-.7v-4.2h.7v1.9c0-.2.2-.3.3-.3.2,0,.3-.1.5-.1.3,0,.6.1.8.3.2.2.3.5.3.9v1.5h-.7v-1.5c0-.2,0-.3-.2-.4-.1-.1-.2-.2-.4-.2s-.3,0-.5.2c0,0-.2.2-.2.5Z"/>
  <path class="st21" d="M186.9,450.8c0,0-.1-.2-.1-.3s0-.2.1-.3c0,0,.2-.1.3-.1s.2,0,.3.1c0,0,.1.2.1.3s0,.2-.1.3c0,0-.2.1-.3.1s-.2,0-.3-.1ZM187.6,451.5v2.7h-.7v-2.7h.7Z"/>
  <path class="st21" d="M189.1,450.5v1h.6v.6h-.6v2.1h-.7v-2.1h-.5v-.6h.5v-1h.7Z"/>
  <path class="st21" d="M192.7,452.9v.2h-2.1c0,.2,0,.3.2.4.1,0,.3.2.5.2s.3,0,.4,0c.1,0,.2-.2.3-.2,0,0,.3.2.5.3-.1.2-.3.4-.5.5-.2.1-.5.2-.7.2-.4,0-.7-.1-1-.4s-.4-.6-.4-1,.1-.7.4-1c.3-.3.6-.4,1-.4s.7.1,1,.4c.3.3.4.6.4,1ZM190.6,452.6h1.4c0-.2,0-.3-.2-.4-.1-.1-.3-.2-.5-.2s-.3,0-.5.2c0,.1-.2.2-.2.4Z"/>
  <path class="st21" d="M193.8,451.5v.4c0-.1.2-.2.3-.3.2,0,.3-.1.5-.1.4,0,.7.1.9.4.2.3.4.6.4,1s-.1.8-.4,1c-.2.2-.6.4-.9.4s-.3,0-.5-.1c-.2,0-.3-.2-.3-.3v1.7h-.7v-4h.7ZM193.9,452.9c0,.2,0,.4.2.5.2.1.3.2.5.2s.4,0,.5-.2c.1-.1.2-.3.2-.5s0-.4-.2-.5c-.2-.2-.3-.2-.5-.2s-.4,0-.5.2c-.1.2-.2.3-.2.6Z"/>
  <path class="st21" d="M198.5,454.2v-.3c0,.1-.2.2-.4.3-.2,0-.3,0-.5,0-.4,0-.7-.1-1-.4-.3-.2-.4-.6-.4-1s.1-.8.4-1c.3-.2.6-.4,1-.4s.3,0,.5,0c.2,0,.3.2.4.3v-.3h.7v2.7h-.7ZM197.3,452.3c-.2.1-.2.3-.2.5s0,.4.2.5c.2.1.3.2.5.2s.4,0,.5-.2c.2-.1.2-.3.2-.5s0-.4-.2-.5c-.2-.1-.3-.2-.5-.2-.2,0-.4,0-.5.2Z"/>
  <path class="st21" d="M200.6,451.5v.4c0-.1.2-.2.3-.3.2,0,.3-.1.5-.1.4,0,.7.1.9.4.2.3.4.6.4,1s-.1.8-.4,1c-.2.2-.6.4-.9.4s-.3,0-.5-.1c-.2,0-.3-.2-.3-.3v1.7h-.7v-4h.7ZM200.6,452.9c0,.2,0,.4.2.5.2.1.3.2.5.2s.4,0,.5-.2c.1-.1.2-.3.2-.5s0-.4-.2-.5c-.2-.2-.3-.2-.5-.2s-.4,0-.5.2c-.1.2-.2.3-.2.6Z"/>
  <path class="st21" d="M205.9,452.9v.2h-2.1c0,.2,0,.3.2.4.1,0,.3.2.5.2s.3,0,.4,0c.1,0,.2-.2.3-.2,0,0,.3.2.5.3-.1.2-.3.4-.5.5-.2.1-.5.2-.7.2-.4,0-.7-.1-1-.4-.3-.3-.4-.6-.4-1s.1-.7.4-1c.3-.2.6-.4,1-.4s.7.1,1,.4c.3.3.4.6.4,1ZM203.8,452.6h1.4c0-.2,0-.3-.2-.4-.1,0-.3-.2-.5-.2s-.3,0-.5.2c0,.1-.2.2-.2.4Z"/>
  <path class="st21" d="M207,453.3v1h-.7v-2.7h.7v.6c0-.2.2-.4.3-.5.2-.1.3-.2.5-.2s.3,0,.4,0v.6c-.2,0-.4,0-.5,0-.4,0-.7.4-.7,1.1Z"/>
  <path class="st21" d="M208.3,454.1c0,0-.1-.2-.1-.3s0-.2.1-.3c0,0,.2-.1.3-.1s.2,0,.3.1c0,0,.1.2.1.3s0,.2-.1.3c0,0-.2.1-.3.1s-.2,0-.3-.1Z"/>
  <path class="st21" d="M210.4,451.5v.4c0-.1.2-.2.3-.3.2,0,.3-.1.5-.1.4,0,.7.1.9.4.2.3.4.6.4,1s-.1.8-.4,1c-.2.2-.6.4-.9.4s-.3,0-.5-.1c-.2,0-.3-.2-.3-.3v1.7h-.7v-4h.7ZM210.4,452.9c0,.2,0,.4.2.5.2.1.3.2.5.2s.4,0,.5-.2c.1-.1.2-.3.2-.5s0-.4-.2-.5c-.2-.1-.3-.2-.5-.2s-.4,0-.5.2c-.1.2-.2.3-.2.6Z"/>
  <path class="st21" d="M215,454.2v-.4c0,.1-.2.2-.3.3-.2,0-.3.1-.5.1-.4,0-.7-.1-.9-.4-.2-.2-.4-.6-.4-1s.1-.8.4-1c.2-.2.6-.4.9-.4s.4,0,.5.1c.2,0,.3.2.3.3v-1.8h.7v4.2h-.7ZM214.8,453.4c.2-.1.2-.3.2-.5s0-.4-.2-.5c-.2-.1-.3-.2-.5-.2s-.4,0-.5.2c-.1.1-.2.3-.2.5s0,.4.2.5c.1.1.3.2.5.2s.3,0,.5-.2Z"/>
  <path class="st21" d="M218,450v.7h-.3c-.3,0-.4.2-.4.6v.2h.6v.6h-.6v2.1h-.7v-2.1h-.5v-.6h.5v-.2c0-.4,0-.7.3-.9.2-.2.5-.3.9-.3h.3Z"/>
  <path class="st20" d="M155.6,457h-.3v-1.7h.3c.5,0,.8.4.8.8s-.4.8-.8.8ZM159.2,455.4h.3c.3,0,.6.2.6.6v2.2c0,.3-.2.6-.6.6h-.3v-3.3ZM154.7,454.3c-.3,0-.6.2-.6.6v4.4c0,.3.2.6.6.6s.6-.2.6-.6v-1.1h.3c1.1,0,1.9-.9,1.9-1.9s-.9-1.9-1.9-1.9h-.8ZM158.1,459.3c0,.3.2.6.6.6h.8c.9,0,1.7-.7,1.7-1.7v-2.2c0-.9-.7-1.7-1.7-1.7h-.8c-.3,0-.6.2-.6.6v4.4ZM162.5,454.3c-.3,0-.6.2-.6.6v4.4c0,.3.2.6.6.6s.6-.2.6-.6v-1.7h1.1c.3,0,.6-.2.6-.6s-.2-.6-.6-.6h-1.1v-1.1h1.1c.3,0,.6-.2.6-.6s-.2-.6-.6-.6h-1.7Z"/>
  <path class="st20" d="M161.8,434.4c0,.2-.2.3-.4.3h-1c-.2,0-.3-.1-.4-.3l-1-3.6-1,3.5c0,.2-.2.3-.4.3h-1c-.2,0-.3-.1-.4-.3l-1.4-6c0-.2.1-.5.4-.5h.8c.2,0,.3.1.4.3l.8,3.4.9-3.4c0-.2.2-.3.4-.3h1c.2,0,.3.1.4.3l.9,3.4.8-3.4c0-.2.2-.3.4-.3h.8c.2,0,.4.2.4.5l-1.4,6Z"/>
  <path class="st14" d="M181.5,126.3H9.2c-4.2,0-7.7-3.4-7.7-7.6V50.1c0-4.2,3.4-7.6,7.7-7.6h172.3c4.2,0,7.7,3.4,7.7,7.6v68.6c0,4.2-3.4,7.6-7.7,7.6Z"/>
  <path class="st19" d="M181.5,126.3H9.2c-4.2,0-7.7-3.4-7.7-7.6V50.1c0-4.2,3.4-7.6,7.7-7.6h172.3c4.2,0,7.7,3.4,7.7,7.6v68.6c0,4.2-3.4,7.6-7.7,7.6Z"/>
  <path class="st21" d="M39.7,57.1v6.6h-1.1l-2.6-4.3v4.3h-1.2v-6.6h1.1l2.5,4.3v-4.3h1.3Z"/>
  <path class="st21" d="M45,61.5v.4h-3.4c0,.3.2.5.4.7.2.2.5.2.9.2s.5,0,.7-.1c.2,0,.4-.2.5-.4.1,0,.4.2.9.5-.2.4-.5.6-.9.8-.4.2-.8.3-1.2.3-.7,0-1.2-.2-1.7-.7-.4-.4-.7-1-.7-1.7s.2-1.2.7-1.7c.4-.4,1-.7,1.7-.7s1.2.2,1.6.7c.4.4.6,1,.6,1.7ZM41.5,61.1h2.3c0-.3-.2-.5-.4-.7-.2-.1-.5-.2-.8-.2s-.6,0-.8.2c-.1.2-.3.4-.3.7Z"/>
  <path class="st21" d="M52.1,59.2l-1.6,4.5h-1l-1-3-1,3h-1l-1.7-4.5h1.2l.9,2.9.9-2.9h1.1l.9,2.9.9-2.9h1.3Z"/>
  <path class="st21" d="M53.4,58.2v-1.1h5v1.1h-1.9v5.5h-1.2v-5.5h-1.9Z"/>
  <path class="st21" d="M62.5,61.5v.4h-3.4c0,.3.2.5.4.7.2.2.5.2.9.2s.5,0,.7-.1c.2,0,.4-.2.5-.4.1,0,.4.2.9.5-.2.4-.5.6-.9.8-.4.2-.8.3-1.2.3-.7,0-1.2-.2-1.7-.7-.4-.4-.7-1-.7-1.7s.2-1.2.7-1.7c.4-.4,1-.7,1.7-.7s1.2.2,1.6.7c.4.4.6,1,.6,1.7ZM59,61.1h2.3c0-.3-.2-.5-.4-.7-.2-.1-.5-.2-.8-.2s-.6,0-.8.2c-.1.2-.3.4-.3.7Z"/>
  <path class="st21" d="M66.4,63.7v-.6c-.1.2-.3.4-.6.5-.3,0-.5.2-.8.2-.6,0-1.1-.2-1.6-.7-.5-.4-.7-1-.7-1.7s.2-1.2.7-1.7c.4-.4,1-.7,1.6-.7s.5,0,.8.1c.3,0,.5.3.6.5v-.6h1.2v4.5h-1.2ZM64.3,60.6c-.2.2-.4.5-.4.9s.1.6.4.9.5.3.9.3.6,0,.9-.3c.2-.2.4-.5.4-.9s-.1-.7-.4-.9c-.2-.2-.5-.3-.9-.3-.3,0-.6.1-.9.4Z"/>
  <path class="st21" d="M73.5,60.3c-.3,0-.5,0-.7.3s-.2.4-.2.8v2.4h-1.2v-2.5c0-.3,0-.5-.2-.7-.1-.2-.3-.2-.6-.2s-.5,0-.7.2c-.2.2-.3.4-.3.8v2.4h-1.2v-4.5h1.2v.7c0-.2.3-.4.5-.6.2-.1.5-.2.8-.2.7,0,1.2.3,1.4.9.3-.6.8-.9,1.4-.9s1,.2,1.3.5.4.9.4,1.5v2.6h-1.1v-2.4c0-.3,0-.6-.2-.7-.2-.2-.4-.3-.6-.3Z"/>
  <path class="st21" d="M78.3,63.7v-6.6h1.2v6.6h-1.2Z"/>
  <path class="st21" d="M81.7,61.3v2.4h-1.2v-4.5h1.2v.7c.1-.2.3-.4.6-.6.2-.1.5-.2.8-.2.5,0,1,.1,1.2.5.3.3.4.8.4,1.4v2.7h-1.2v-2.4c0-.3,0-.6-.2-.8-.1-.2-.4-.2-.6-.2s-.5,0-.7.2c-.1.2-.2.4-.2.8Z"/>
  <path class="st21" d="M86.8,63.7l-1.9-4.5h1.2l1.1,3,1.1-3h1.2l-1.9,4.5h-1Z"/>
  <path class="st21" d="M90.1,58c-.1-.1-.2-.3-.2-.5s0-.4.2-.5c.1-.1.3-.2.5-.2s.4,0,.5.2c.1.1.2.3.2.5s0,.4-.2.5c-.1.1-.3.2-.5.2s-.4,0-.5-.2ZM91.2,59.2v4.5h-1.1v-4.5h1.1Z"/>
  <path class="st21" d="M93.6,57.5v1.7h1v1h-1v3.5h-1.1v-3.5h-.8v-1h.8v-1.7h1.1Z"/>
  <path class="st21" d="M98.3,63.7v-.6c-.1.2-.3.4-.6.5-.3,0-.5.2-.8.2-.6,0-1.1-.2-1.6-.7-.5-.4-.7-1-.7-1.7s.2-1.2.7-1.7c.4-.4,1-.7,1.6-.7s.5,0,.8.1c.3,0,.5.3.6.5v-.6h1.2v4.5h-1.2ZM96.2,60.6c-.2.2-.4.5-.4.9s.1.6.4.9c.2.2.5.3.9.3s.6,0,.9-.3c.2-.2.4-.5.4-.9s-.1-.7-.4-.9c-.2-.2-.5-.3-.9-.3-.3,0-.6.1-.9.4Z"/>
  <path class="st21" d="M101.9,57.5v1.7h1v1h-1v3.5h-1.1v-3.5h-.8v-1h.8v-1.7h1.1Z"/>
  <path class="st21" d="M103.3,58c-.1-.1-.2-.3-.2-.5s0-.4.2-.5c.1-.1.3-.2.5-.2s.4,0,.5.2c.1.1.2.3.2.5s0,.4-.2.5c-.1.1-.3.2-.5.2s-.4,0-.5-.2ZM104.4,59.2v4.5h-1.1v-4.5h1.1Z"/>
  <path class="st21" d="M109,63.1c-.4.4-1,.7-1.7.7s-1.2-.2-1.7-.7c-.4-.4-.7-1-.7-1.7s.2-1.2.7-1.7c.4-.4,1-.7,1.7-.7s1.2.2,1.7.7c.5.4.7,1,.7,1.7s-.2,1.3-.7,1.7ZM106.5,62.3c.2.2.5.3.9.3s.6,0,.9-.3.3-.5.3-.9,0-.6-.3-.9c-.2-.2-.5-.3-.9-.3s-.6,0-.9.3c-.2.2-.3.5-.3.9s0,.7.3.9Z"/>
  <path class="st21" d="M111.4,61.3v2.4h-1.2v-4.5h1.2v.7c.1-.2.3-.4.6-.6.2-.1.5-.2.8-.2.5,0,1,.1,1.2.5.3.3.4.8.4,1.4v2.7h-1.2v-2.4c0-.3,0-.6-.2-.8-.1-.2-.4-.2-.6-.2s-.5,0-.7.2c-.1.2-.2.4-.2.8Z"/>
  <path class="st26" d="M18.6,60.8c1.5,0,2.7-1.2,2.7-2.7s-1.2-2.7-2.7-2.7-2.7,1.2-2.7,2.7,1.2,2.7,2.7,2.7ZM18.6,56.2c1,0,1.8.8,1.8,1.8s-.8,1.8-1.8,1.8-1.8-.8-1.8-1.8.8-1.8,1.8-1.8ZM20.3,61.1c-.5,0-.8.3-1.7.3s-1.1-.3-1.7-.3c-1.4,0-2.6,1.1-2.6,2.6v.5c0,.5.4.9.9.9h6.7c.5,0,.9-.4.9-.9v-.5c0-1.4-1.1-2.6-2.5-2.6ZM22,64.1h-6.7v-.5c0-.9.7-1.6,1.6-1.6s.7.3,1.7.3,1.4-.3,1.7-.3c.9,0,1.6.7,1.6,1.6v.5ZM26.2,59.4h-1.4v-1.4c0-.2-.1-.3-.3-.3h-.3c-.2,0-.3.1-.3.3v1.4h-1.4c-.2,0-.3.1-.3.3v.3c0,.2.1.3.3.3h1.4v1.4c0,.2.1.3.3.3h.3c.2,0,.3-.1.3-.3v-1.3h1.4c.2,0,.3-.1.3-.3v-.3c0-.2,0-.3-.3-.3Z"/>
  <path class="st28" d="M34.1,79.5v-.8c.2,0,.4,0,.6,0,.3,0,.5,0,.6-.2.1-.2.2-.4.2-.7v-5.3h.8v5.3c0,.5-.1.9-.4,1.2-.2.3-.7.5-1.2.5s-.4,0-.6,0Z"/>
  <path class="st28" d="M40,77.7v-.5c0,.2-.3.3-.5.4-.2,0-.4.1-.7.1-.5,0-.9-.2-1.2-.5-.3-.3-.5-.8-.5-1.3s.2-1,.5-1.3c.3-.3.8-.5,1.2-.5s.5,0,.7.1c.2,0,.4.2.5.4v-.5h.8v3.5h-.8ZM38.1,75.2c-.2.2-.3.5-.3.8s0,.6.3.8c.2.2.5.3.8.3s.6,0,.8-.3.3-.5.3-.8,0-.6-.3-.8c-.2-.2-.5-.3-.8-.3-.3,0-.6.1-.8.3Z"/>
  <path class="st28" d="M42.4,75.8v1.9h-.8v-3.5h.8v.5c0-.2.2-.3.4-.4.2,0,.4-.1.6-.1.4,0,.8.1,1,.4.2.3.3.7.3,1.1v2h-.7v-2c0-.3,0-.5-.2-.6-.1-.1-.3-.2-.5-.2s-.5,0-.6.2c-.2.1-.3.4-.3.7Z"/>
  <path class="st28" d="M49,76v.3h-2.8c0,.3.1.5.3.6.2.1.4.2.7.2s.4,0,.6-.1c.2,0,.3-.2.4-.4,0,0,.2,0,.3.1.1,0,.2,0,.3.1-.1.3-.4.5-.7.7s-.6.2-1,.2c-.5,0-1-.2-1.3-.5-.3-.3-.5-.8-.5-1.3s.2-1,.5-1.3c.3-.3.8-.5,1.3-.5s1,.1,1.2.5c.3.4.5.8.5,1.4ZM46.2,75.7h2.1c0-.3-.1-.5-.3-.6s-.4-.2-.7-.2-.5,0-.7.2c-.2.1-.3.4-.3.6Z"/>
  <path class="st28" d="M51.4,73.2c0,0-.1-.2-.1-.3s0-.2.1-.3c0,0,.2-.1.4-.1s.3,0,.4.1c0,0,.1.2.1.3s0,.2-.1.3c0,0-.2.1-.4.1s-.3,0-.4-.1ZM52.1,77.7v-3.5h-.8v3.5h.8Z"/>
  <path class="st28" d="M53.8,75.8v1.9h-.8v-3.5h.8v.5c0-.2.2-.3.4-.4.2,0,.4-.1.6-.1.4,0,.8.1,1,.4.2.3.3.7.3,1.1v2h-.8v-2c0-.3,0-.5-.2-.6-.1-.1-.3-.2-.5-.2s-.5,0-.6.2c-.2.1-.3.4-.3.7Z"/>
  <path class="st28" d="M58.1,77.7l-1.5-3.5h.8l1,2.5,1-2.5h.8l-1.5,3.5h-.7Z"/>
  <path class="st28" d="M60.7,73.2c0,0-.1-.2-.1-.3s0-.2.1-.3c0,0,.2-.1.4-.1s.3,0,.4.1c0,0,.1.2.1.3s0,.2-.1.3c0,0-.2.1-.4.1s-.3,0-.4-.1ZM61.5,77.7v-3.5h-.8v3.5h.8Z"/>
  <path class="st28" d="M63.4,72.9v1.3h.8v.6h-.8v2.9h-.8v-2.9h-.6v-.6h.6v-1.3h.8Z"/>
  <path class="st28" d="M68,76v.3h-2.8c0,.3.1.5.3.6.2.1.4.2.7.2s.4,0,.6-.1c.2,0,.3-.2.4-.4,0,0,.2,0,.3.1.1,0,.2,0,.3.1-.1.3-.4.5-.7.7-.3.1-.6.2-1,.2-.5,0-1-.2-1.3-.5-.3-.3-.5-.8-.5-1.3s.2-1,.5-1.3c.3-.3.8-.5,1.3-.5s1,.1,1.2.5c.3.4.5.8.5,1.4ZM65.1,75.7h2.1c0-.3-.1-.5-.3-.6-.2-.1-.4-.2-.7-.2s-.5,0-.7.2-.3.4-.3.6Z"/>
  <path class="st28" d="M73.3,74.2l-2.2,5.2h-.8l.8-1.9-1.4-3.3h.8l1,2.4,1-2.4h.8Z"/>
  <path class="st28" d="M76.6,77.3c-.4.3-.8.5-1.3.5s-1-.2-1.3-.5c-.3-.3-.5-.8-.5-1.3s.2-1,.5-1.3c.3-.3.8-.5,1.3-.5s1,.2,1.3.5c.3.3.5.8.5,1.3s-.1,1-.5,1.3ZM75.3,77.1c.3,0,.6,0,.8-.3s.3-.5.3-.8,0-.6-.3-.8-.5-.3-.8-.3-.5,0-.8.3-.3.4-.3.8,0,.6.3.8.5.3.8.3Z"/>
  <path class="st28" d="M80.2,76.1v-1.9h.8v3.5h-.8v-.5c0,.2-.2.3-.4.4-.2,0-.4.1-.6.1-.4,0-.8-.1-1-.4-.2-.3-.3-.7-.3-1.1v-2h.8v2c0,.3,0,.5.2.7.1.1.3.2.5.2s.5,0,.6-.2c.1-.1.3-.4.3-.7Z"/>
  <path class="st28" d="M84.5,72.9v1.3h.8v.6h-.8v2.9h-.8v-2.9h-.6v-.6h.6v-1.3h.8Z"/>
  <path class="st28" d="M88.7,77.3c-.4.3-.8.5-1.3.5s-1-.2-1.3-.5c-.3-.3-.5-.8-.5-1.3s.2-1,.5-1.3c.3-.3.8-.5,1.3-.5s1,.2,1.3.5c.3.3.5.8.5,1.3s-.2,1-.5,1.3ZM87.3,77.1c.3,0,.6,0,.8-.3.2-.2.3-.5.3-.8s0-.6-.3-.8c-.2-.2-.5-.3-.8-.3s-.5,0-.8.3-.3.4-.3.8,0,.6.3.8.5.3.8.3Z"/>
  <path class="st28" d="M90.6,79.4v-.7h.4c.4,0,.6-.3.6-.8v-3.7h.8v3.7c0,1-.4,1.5-1.3,1.5h-.5ZM91.6,73.2c0,0-.1-.2-.1-.3s0-.2.1-.3c0,0,.2-.1.4-.1s.3,0,.4.1c0,0,.1.2.1.3s0,.2-.1.3c0,0-.2.1-.4.1s-.2,0-.4-.1Z"/>
  <path class="st28" d="M96.2,77.3c-.4.3-.8.5-1.3.5s-1-.2-1.3-.5c-.3-.3-.5-.8-.5-1.3s.2-1,.5-1.3c.3-.3.8-.5,1.3-.5s1,.2,1.3.5c.3.3.5.8.5,1.3s-.2,1-.5,1.3ZM94.8,77.1c.3,0,.6,0,.8-.3.2-.2.3-.5.3-.8s0-.6-.3-.8c-.2-.2-.5-.3-.8-.3s-.5,0-.8.3c-.2.2-.3.4-.3.8s0,.6.3.8c.2.2.5.3.8.3Z"/>
  <path class="st28" d="M97.4,73.2c0,0-.1-.2-.1-.3s0-.2.1-.3c0,0,.2-.1.4-.1s.3,0,.4.1c0,0,.1.2.1.3s0,.2-.1.3c0,0-.2.1-.4.1s-.3,0-.4-.1ZM98.1,77.7v-3.5h-.8v3.5h.8Z"/>
  <path class="st28" d="M99.8,75.8v1.9h-.8v-3.5h.8v.5c0-.2.2-.3.4-.4.2,0,.4-.1.6-.1.4,0,.8.1,1,.4.2.3.3.7.3,1.1v2h-.8v-2c0-.3,0-.5-.2-.6-.1-.1-.3-.2-.5-.2s-.5,0-.6.2c-.2.1-.3.4-.3.7Z"/>
  <path class="st28" d="M104.8,73.2c0,0-.1-.2-.1-.3s0-.2.1-.3c0,0,.2-.1.4-.1s.3,0,.4.1c0,0,.1.2.1.3s0,.2-.1.3c0,0-.2.1-.4.1s-.3,0-.4-.1ZM105.6,77.7v-3.5h-.8v3.5h.8Z"/>
  <path class="st28" d="M107.2,75.8v1.9h-.8v-3.5h.8v.5c0-.2.2-.3.4-.4.2,0,.4-.1.6-.1.4,0,.8.1,1,.4.2.3.3.7.3,1.1v2h-.8v-2c0-.3,0-.5-.2-.6-.1-.1-.3-.2-.5-.2s-.5,0-.6.2c-.2.1-.3.4-.3.7Z"/>
  <path class="st28" d="M111.6,72.9v1.3h.8v.6h-.8v2.9h-.8v-2.9h-.6v-.6h.6v-1.3h.8Z"/>
  <path class="st28" d="M115.7,77.3c-.4.3-.8.5-1.3.5s-1-.2-1.3-.5c-.3-.3-.5-.8-.5-1.3s.2-1,.5-1.3c.3-.3.8-.5,1.3-.5s1,.2,1.3.5c.3.3.5.8.5,1.3s-.1,1-.5,1.3ZM114.4,77.1c.3,0,.6,0,.8-.3s.3-.5.3-.8,0-.6-.3-.8-.5-.3-.8-.3-.5,0-.8.3-.3.4-.3.8,0,.6.3.8c.2.2.5.3.8.3Z"/>
  <path class="st28" d="M118.1,73.3v-.8h3.9v.8h-1.5v4.4h-.8v-4.4h-1.5Z"/>
  <path class="st28" d="M125.2,76v.3h-2.8c0,.3.1.5.3.6.2.1.4.2.7.2s.4,0,.6-.1c.2,0,.3-.2.4-.4,0,0,.2,0,.3.1.1,0,.2,0,.3.1-.1.3-.4.5-.7.7s-.6.2-1,.2c-.5,0-1-.2-1.3-.5-.3-.3-.5-.8-.5-1.3s.2-1,.5-1.3c.3-.3.8-.5,1.3-.5s1,.1,1.2.5c.4.4.5.8.5,1.4ZM122.4,75.7h2.1c0-.3-.1-.5-.3-.6s-.4-.2-.7-.2-.5,0-.7.2c-.2.1-.3.4-.3.6Z"/>
  <path class="st28" d="M128.6,77.7v-.5c0,.2-.3.3-.5.4-.2,0-.4.1-.7.1-.5,0-.9-.2-1.2-.5-.3-.3-.5-.8-.5-1.3s.2-1,.5-1.3c.3-.3.8-.5,1.2-.5s.5,0,.7.1c.2,0,.4.2.5.4v-.5h.8v3.5h-.8ZM126.7,75.2c-.2.2-.3.5-.3.8s0,.6.3.8c.2.2.5.3.8.3s.6,0,.8-.3c.2-.2.3-.5.3-.8s0-.6-.3-.8c-.2-.2-.5-.3-.8-.3-.3,0-.5.1-.8.3Z"/>
  <path class="st28" d="M134.2,74.9c-.2,0-.5,0-.6.2-.1.2-.2.4-.2.7v1.9h-.8v-2c0-.3,0-.5-.2-.6-.1-.1-.3-.2-.5-.2s-.5,0-.6.2c-.2.1-.2.4-.2.7v1.9h-.8v-3.5h.8v.5c0-.2.3-.4.5-.5.2,0,.4-.1.6-.1.5,0,.9.2,1.1.7.2-.5.7-.7,1.2-.7s.8.1,1,.4c.2.3.3.7.3,1.1v2h-.8v-2c0-.3,0-.5-.2-.6-.1,0-.3-.1-.6-.1Z"/>
  <path class="st28" d="M138.5,77.7v-5.1h3.1v.7h-2.3v1.5h1.8v.7h-1.8v2.2h-.8Z"/>
  <path class="st28" d="M144.7,77.3c-.4.3-.8.5-1.3.5s-1-.2-1.3-.5c-.3-.3-.5-.8-.5-1.3s.2-1,.5-1.3c.3-.3.8-.5,1.3-.5s1,.2,1.3.5c.3.3.5.8.5,1.3s-.2,1-.5,1.3ZM143.4,77.1c.3,0,.6,0,.8-.3.2-.2.3-.5.3-.8s0-.6-.3-.8c-.2-.2-.5-.3-.8-.3s-.5,0-.8.3-.3.4-.3.8,0,.6.3.8.5.3.8.3Z"/>
  <path class="st28" d="M145.9,77.7v-5.4h.8v5.4h-.8Z"/>
  <path class="st28" d="M150.3,77.7v-.5c0,.2-.3.3-.5.4-.2,0-.4.1-.7.1-.5,0-.9-.2-1.2-.5-.3-.3-.5-.8-.5-1.3s.2-1,.5-1.3c.3-.3.8-.5,1.2-.5s.5,0,.7.1c.2,0,.4.2.5.4v-2.4h.8v5.4h-.8ZM150.3,76c0-.3,0-.6-.3-.8-.2-.2-.5-.3-.8-.3s-.6,0-.8.3c-.2.2-.3.5-.3.8s0,.6.3.8c.2.2.4.3.8.3s.6,0,.8-.3c.2-.2.3-.4.3-.8Z"/>
  <path class="st28" d="M155.3,76v.3h-2.8c0,.3.1.5.3.6.2.1.4.2.7.2s.4,0,.6-.1c.2,0,.3-.2.4-.4,0,0,.2,0,.3.1.1,0,.2,0,.3.1-.1.3-.4.5-.7.7-.3.1-.6.2-1,.2-.5,0-1-.2-1.3-.5-.3-.3-.5-.8-.5-1.3s.2-1,.5-1.3c.3-.3.8-.5,1.3-.5s1,.1,1.2.5c.4.4.5.8.5,1.4ZM152.5,75.7h2.1c0-.3-.1-.5-.3-.6-.2-.1-.4-.2-.7-.2s-.5,0-.7.2c-.2.1-.3.4-.3.6Z"/>
  <path class="st28" d="M156.7,76.4v1.2h-.8v-3.5h.8v.8c.2-.6.5-.9,1-.9s.5,0,.6.1v.7c-.3,0-.5-.1-.7-.1-.3,0-.6.1-.7.4-.1.3-.2.7-.2,1.1Z"/>
  <path class="st17" d="M120.7,115.5h-35.5c-2,0-3.6-1.6-3.6-3.6v-9.1c0-2,1.6-3.6,3.6-3.6h35.5c2,0,3.6,1.6,3.6,3.6v9.1c0,2-1.6,3.6-3.6,3.6Z"/>
  <path class="st27" d="M35.9,89.1v-3.9l-.8.3v-.6l1.4-.5v4.7h-.6Z"/>
  <path class="st27" d="M37.2,88.1l.6-.3c0,.2.2.4.4.5.2.1.4.2.6.2.4,0,.7,0,.9-.3.2-.2.3-.4.3-.7s0-.5-.3-.7-.4-.2-.7-.2-.4,0-.5,0c-.1,0-.4.1-.6.3l-.4-.3.4-2.3h2.5v.6h-2l-.2,1.3c0,0,.2-.1.4-.2.2,0,.3,0,.5,0,.5,0,.8.1,1.1.4.3.3.5.6.5,1.1s-.1.9-.5,1.1c-.3.3-.8.4-1.3.4s-.6,0-.9-.3c-.4,0-.7-.4-.8-.7Z"/>
  <path class="st27" d="M41.3,90.8v-.6c.1,0,.3,0,.5,0,.3,0,.5,0,.7-.3.1-.2.2-.4.2-.7v-5.1h.7v5.1c0,.5-.1.9-.4,1.1-.2.3-.6.4-1.1.4,0,0-.3,0-.5,0Z"/>
  <path class="st27" d="M46.5,87.6v-1.8h.7v3.3h-.7v-.5c0,.2-.2.3-.4.4-.2,0-.4.1-.6.1-.4,0-.7-.1-1-.4-.2-.2-.3-.6-.3-1.1v-2h.7v1.9c0,.3,0,.5.2.7.1.1.3.2.5.2s.5,0,.7-.2.3-.4.3-.7Z"/>
  <path class="st27" d="M48.6,87.3v1.8h-.7v-3.3h.7v.5c0-.2.2-.3.4-.4.2,0,.4-.1.6-.1.4,0,.7.1,1,.4.2.2.3.6.3,1.1v2h-.6v-1.9c0-.3,0-.5-.2-.7-.1-.2-.3-.2-.5-.2s-.5,0-.7.2c-.2.2-.3.5-.3.8Z"/>
  <path class="st27" d="M51.7,89c0,0-.1-.2-.1-.3s0-.2.1-.3c0,0,.2-.1.3-.1s.2,0,.3.1c0,0,.1.2.1.3s0,.2-.1.3c0,0-.2.1-.3.1s-.2,0-.3-.1Z"/>
  <path class="st27" d="M54.5,88.8l1.9-2.3c.2-.3.3-.5.3-.8s0-.4-.2-.5c-.1-.1-.3-.2-.6-.2s-.4,0-.6.2c-.1.1-.2.3-.3.5h-.6c0-.5.2-.8.5-1,.2-.2.6-.3,1-.3s.8.1,1.1.4c.3.2.4.6.4,1s-.2.8-.5,1.2c-.2.2-.4.5-.7.8-.2.2-.4.5-.6.7h1.8v.7h-2.9v-.3h0Z"/>
  <path class="st27" d="M58,86.8c0-.3,0-.7,0-1,0-.3.1-.5.2-.8.1-.2.3-.4.5-.5.2-.1.5-.2.8-.2s.6,0,.8.2c.2.1.4.3.5.5.1.2.2.5.2.8,0,.3,0,.6,0,1s0,.7,0,1c0,.3-.1.5-.2.8,0,.2-.3.4-.5.5-.2.1-.5.2-.8.2s-.5,0-.7-.1c-.2,0-.4-.2-.5-.3-.1-.1-.2-.3-.3-.5,0-.2-.1-.4-.1-.7,0-.2,0-.5,0-.8ZM58.6,86.8c0,.5,0,1,.2,1.3.1.3.4.5.8.5s.7-.1.8-.5.2-.8.2-1.3,0-1-.2-1.3c-.1-.3-.4-.5-.8-.5s-.7.1-.8.5c-.1.3-.2.8-.2,1.3Z"/>
  <path class="st27" d="M62.6,85.4l-.5-.4c.1-.2.3-.4.6-.5.2-.1.5-.2.8-.1.4,0,.7.1,1,.4.2.2.4.6.3.9,0,0,0,.2,0,.3,0,.3-.2.5-.5.6.2,0,.4.2.6.5.1.3.2.5.2.8,0,.4-.2.7-.6,1-.3.3-.7.4-1.1.3-.3,0-.6,0-.8-.3-.2-.2-.4-.4-.6-.7l.6-.3c0,.2.2.3.4.4.1.1.3.2.5.2s.5,0,.7-.2c.2-.1.3-.3.3-.6,0-.2,0-.4-.2-.6-.2-.1-.4-.2-.6-.2h-.5v-.6h.5c.1,0,.3,0,.4-.1,0,0,.2-.2.2-.4,0-.2,0-.3,0-.5,0-.2-.3-.2-.5-.3-.5-.1-.8,0-1,.3Z"/>
  <path class="st27" d="M65.5,86.8c0-.3,0-.7,0-1,0-.3.1-.5.2-.8.1-.2.3-.4.5-.5.2-.1.5-.2.8-.2s.6,0,.8.2c.2.1.4.3.5.5.1.2.2.5.2.8,0,.3,0,.6,0,1s0,.7,0,1c0,.3-.1.5-.2.8,0,.2-.3.4-.5.5-.2.1-.5.2-.8.2s-.5,0-.7-.1c-.2,0-.4-.2-.5-.3-.1-.1-.2-.3-.3-.5,0-.2-.1-.4-.1-.7,0-.2,0-.5,0-.8ZM66.1,86.8c0,.5,0,1,.2,1.3.1.3.4.5.8.5s.7-.1.8-.5c.1-.3.2-.8.2-1.3s0-1-.2-1.3c-.1-.3-.4-.5-.8-.5s-.7.1-.8.5c-.1.3-.2.8-.2,1.3Z"/>
  <path class="st27" d="M69.5,90h-.5c.3-.6.5-1.1.5-1.7h.7c0,.4,0,.8-.2,1-.1.3-.2.5-.4.7Z"/>
  <path class="st27" d="M72.4,86.8c0-.3,0-.7,0-1,0-.3.1-.5.2-.8.1-.2.3-.4.5-.5.2-.1.5-.2.8-.2s.6,0,.8.2c.2.1.4.3.5.5.1.2.2.5.2.8,0,.3,0,.6,0,1s0,.7,0,1c0,.3-.1.5-.2.8,0,.2-.3.4-.5.5-.2.1-.5.2-.8.2s-.5,0-.7-.1c-.2,0-.4-.2-.5-.3-.1-.1-.2-.3-.3-.5,0-.2-.1-.4-.1-.7,0-.2,0-.5,0-.8ZM73.1,86.8c0,.5,0,1,.2,1.3.1.3.4.5.8.5s.7-.1.8-.5c.1-.3.2-.8.2-1.3s0-1-.2-1.3c-.1-.3-.4-.5-.8-.5s-.7.1-.8.5c-.1.3-.2.8-.2,1.3Z"/>
  <path class="st27" d="M77,85.4l-.5-.4c.1-.2.3-.4.6-.5.2-.1.5-.2.8-.1.4,0,.7.1,1,.4.2.2.4.6.3.9,0,0,0,.2,0,.3,0,.3-.2.5-.5.6.2,0,.4.2.6.5.1.3.2.5.2.8,0,.4-.2.7-.6,1-.3.3-.7.4-1.1.3-.3,0-.6,0-.8-.3s-.4-.4-.6-.7l.6-.3c0,.2.2.3.4.4.1.1.3.2.5.2s.5,0,.7-.2c.2-.1.3-.3.3-.6,0-.2,0-.4-.2-.6-.2-.1-.4-.2-.6-.2h-.5v-.6h.5c.1,0,.3,0,.4-.1,0,0,.2-.2.2-.4,0-.2,0-.3,0-.5,0-.2-.3-.2-.5-.3-.5-.1-.8,0-1,.3Z"/>
  <path class="st27" d="M80.1,86.5c0,0-.1-.2-.1-.3s0-.2.1-.3c0,0,.2-.1.3-.1s.2,0,.3.1c0,0,.1.2.1.3s0,.2-.1.3c0,0-.2.1-.3.1-.1,0-.2,0-.3-.1ZM80.1,89c0,0-.1-.2-.1-.3s0-.2.1-.3c0,0,.2-.1.3-.1s.2,0,.3.1c0,0,.1.2.1.3s0,.2-.1.3c0,0-.2.1-.3.1s-.2,0-.3-.1Z"/>
  <path class="st27" d="M81.4,88.1l.6-.3c0,.2.2.4.4.5.2.1.4.2.6.2.4,0,.7,0,.9-.3.2-.2.3-.4.3-.7s0-.5-.3-.7-.4-.2-.7-.2-.4,0-.5,0c-.1,0-.4.1-.6.3l-.4-.3.4-2.3h2.5v.6h-2l-.2,1.3c0,0,.2-.1.4-.2.2,0,.3,0,.5,0,.5,0,.8.1,1.1.4.3.3.5.6.5,1.1s-.1.9-.5,1.1c-.3.3-.8.4-1.3.4s-.6,0-.9-.3c-.5,0-.7-.4-.8-.7Z"/>
  <path class="st27" d="M85.1,88.3l.6-.2c.2.4.4.5.8.5s.6-.1.8-.5c.2-.3.3-.7.2-1.2-.1.3-.5.5-1,.5s-.8-.1-1.1-.5c-.3-.3-.4-.7-.4-1.1,0-.4.2-.8.5-1.1.3-.3.7-.4,1.1-.4s.8.2,1.1.5c.3.3.4.7.5,1.1,0,.6,0,1.2,0,1.8,0,.4-.2.8-.5,1-.3.3-.6.4-1.1.4s-.6,0-.8-.2c-.3,0-.5-.3-.7-.6ZM87.5,86c0-.2,0-.5-.2-.7-.2-.2-.4-.3-.6-.3s-.4,0-.6.2c-.2.1-.3.4-.3.6s0,.5.2.7c.1.2.4.3.6.3s.5,0,.7-.2c.1-.1.2-.3.2-.6Z"/>
  <path class="st25" d="M98.4,109.4h-1.9v-4.8h1.9c.7,0,1.2.2,1.6.7.4.4.6,1,.6,1.7s-.2,1.2-.6,1.7c-.4.4-.9.7-1.6.7ZM97.4,105.5v3.1h1c.4,0,.7-.1,1-.4.2-.3.3-.7.3-1.1s0-.8-.3-1.1-.5-.4-1-.4h-1Z"/>
  <path class="st25" d="M104.5,107.8v.3h-2.5c0,.2.1.4.3.5.1.1.4.2.6.2s.3,0,.5,0c.1,0,.2-.2.3-.3,0,0,.3.2.6.3-.1.3-.3.5-.6.6-.3.1-.6.2-.9.2-.5,0-.9-.1-1.2-.5-.3-.3-.5-.7-.5-1.2s.1-.9.5-1.2c.3-.3.7-.5,1.2-.5s.9.1,1.2.5c.3.3.5.7.5,1.2ZM102,107.5h1.7c0-.2-.1-.4-.3-.5-.1-.1-.3-.2-.5-.2s-.4,0-.6.2c-.2.1-.3.3-.3.5Z"/>
  <path class="st25" d="M105.5,109c-.3-.3-.5-.7-.5-1.2s.2-.9.5-1.2c.3-.3.8-.5,1.2-.5s.5,0,.8.1c.2,0,.4.3.6.5l-.7.5c-.1-.2-.4-.3-.7-.3s-.5,0-.6.2c-.1.1-.3.4-.3.6s0,.5.3.6c.2.2.4.2.6.2s.5,0,.7-.3l.7.5c-.1.2-.3.4-.6.5-.2,0-.5.1-.8.1-.5,0-.9,0-1.2-.4Z"/>
  <path class="st25" d="M108.8,109.4v-5h.9v5h-.9Z"/>
  <path class="st25" d="M110.6,105.3c0,0-.1-.2-.1-.4s0-.3.1-.4c0,0,.2-.1.4-.1s.3,0,.4.1c0,0,.1.2.1.4s0,.3-.1.4c0,0-.2.1-.4.1s-.2,0-.4-.1ZM111.4,106.2v3.2h-.9v-3.2h.9Z"/>
  <path class="st25" d="M113.2,107.7v1.7h-.9v-3.2h.9v.5c0-.1.2-.3.4-.4.1,0,.4-.1.6-.1.4,0,.7,0,.9.3.2.2.3.6.3,1v1.9h-.9v-1.8c0-.2,0-.4-.1-.5,0-.1-.2-.2-.4-.2s-.4,0-.5.2c-.1.1-.2.3-.2.6Z"/>
  <path class="st25" d="M119.4,107.8v.3h-2.5c0,.2.1.4.3.5.1.1.4.2.6.2s.3,0,.5,0c.1,0,.2-.2.3-.3,0,0,.3.2.6.3-.1.3-.3.5-.6.6-.3.1-.6.2-.9.2-.5,0-.9-.1-1.2-.5-.3-.3-.5-.7-.5-1.2s.1-.9.5-1.2c.3-.3.7-.5,1.2-.5s.9.1,1.2.5c.3.3.5.7.5,1.2ZM116.9,107.5h1.7c0-.2-.1-.4-.3-.5-.1-.1-.3-.2-.5-.2s-.4,0-.6.2c-.2.1-.3.3-.3.5Z"/>
  <path class="st25" d="M90.4,107.4l1.7-1.7c0,0,0-.2,0-.3l-.4-.4c0,0-.2,0-.3,0l-1.7,1.7-1.7-1.7c0,0-.2,0-.3,0l-.4.4c0,0,0,.2,0,.3l1.7,1.7-1.7,1.7c0,0,0,.2,0,.3l.4.4c0,0,.2,0,.3,0l1.7-1.7,1.7,1.7c0,0,.2,0,.3,0l.4-.4c0,0,0-.2,0-.3l-1.7-1.7Z"/>
  <path class="st24" d="M72.6,115.5h-34.9c-2,0-3.6-1.6-3.6-3.6v-9.1c0-2,1.6-3.6,3.6-3.6h34.9c2,0,3.6,1.6,3.6,3.6v9.1c0,2-1.6,3.6-3.6,3.6Z"/>
  <path class="st22" d="M52,109.2l-.4-1.1h-1.8l-.4,1.1h-.9l1.8-4.7h1l1.8,4.7h-1ZM50.7,105.5l-.6,1.8h1.1l-.6-1.8Z"/>
  <path class="st22" d="M53.6,108.8c-.3-.3-.5-.7-.5-1.2s.1-.9.5-1.2c.3-.3.7-.5,1.2-.5s.5,0,.8.1c.2,0,.4.2.6.4l-.7.5c-.1-.2-.4-.3-.7-.3s-.4,0-.6.2c-.2.1-.3.3-.3.6s0,.5.3.6c.2.1.4.2.6.2s.5,0,.7-.3l.7.5c-.1.2-.3.3-.6.5-.2.1-.5.1-.8.1-.5.1-.9,0-1.2-.3Z"/>
  <path class="st22" d="M57.1,108.8c-.3-.3-.5-.7-.5-1.2s.1-.9.5-1.2c.3-.3.7-.5,1.2-.5s.5,0,.8.1c.2,0,.4.2.6.4l-.7.5c-.1-.2-.4-.3-.7-.3s-.4,0-.6.2c-.2.1-.3.3-.3.6s0,.5.3.6c.2.1.4.2.6.2s.5,0,.7-.3l.7.5c-.1.2-.3.3-.6.5-.2.1-.5.1-.8.1-.5.1-.9,0-1.2-.3Z"/>
  <path class="st22" d="M63.3,107.6v.3h-2.4c0,.2.1.4.3.5.1.1.3.2.6.2s.3,0,.5,0c.1,0,.2-.2.3-.3,0,0,.3.1.6.3-.1.2-.3.4-.6.6-.3.1-.6.2-.9.2-.5,0-.9-.1-1.1-.5-.3-.3-.5-.7-.5-1.2s.1-.9.5-1.2c.3-.3.7-.4,1.1-.4s.9.1,1.1.4c.3.3.4.7.4,1.2ZM60.9,107.3h1.6c0-.2,0-.4-.3-.5-.1,0-.3-.2-.5-.2s-.4,0-.6.2c-.1.1-.2.3-.2.5Z"/>
  <path class="st22" d="M64.9,106v.4c0-.1.2-.3.4-.4.2,0,.4-.1.6-.1.4,0,.8.1,1.1.5.3.3.4.7.4,1.2s-.1.9-.4,1.2c-.3.3-.7.5-1.1.5s-.4,0-.6-.1c-.2,0-.3-.2-.4-.4v2h-.8v-4.7h.8ZM64.9,107.6c0,.2,0,.5.2.6.1.1.4.2.6.2s.4,0,.6-.2c.1-.1.2-.4.2-.6s0-.5-.2-.6c-.1-.1-.4-.2-.6-.2s-.4,0-.6.2c-.1.1-.2.4-.2.6Z"/>
  <path class="st22" d="M69.2,104.8v1.2h.7v.7h-.7v2.5h-.8v-2.5h-.6v-.7h.6v-1.2h.8Z"/>
  <path class="st22" d="M45.3,105.1c.2.2.2.5,0,.7l-3.7,3.7c-.2.2-.5.2-.7,0l-1.8-1.8c-.2-.2-.2-.5,0-.7.2-.2.5-.2.7,0l1.5,1.5,3.3-3.3c.2-.2.5-.2.7,0Z"/>
  <path class="st14" d="M491.7,169h-150.9c-3.7,0-6.7-3-6.7-6.6v-59.2c0-3.6,3-6.6,6.7-6.6h150.9c3.7,0,6.7,3,6.7,6.6v59.2c0,3.6-3,6.6-6.7,6.6Z"/>
  <path class="st19" d="M491.7,169h-150.9c-3.7,0-6.7-3-6.7-6.6v-59.2c0-3.6,3-6.6,6.7-6.6h150.9c3.7,0,6.7,3,6.7,6.6v59.2c0,3.6-3,6.6-6.7,6.6Z"/>
  <path class="st21" d="M357.4,114.9v-.9c.3,0,.4,0,.7,0s.4,0,.5-.2c.1-.2.2-.3.2-.6v-5.1h1v5.1c0,.5-.1.9-.4,1.2-.3.3-.7.5-1.3.5s-.3,0-.7-.1Z"/>
  <path class="st21" d="M363.1,113.3v-.5c0,.2-.3.3-.5.4-.2,0-.4.1-.6.1-.5,0-.9-.2-1.3-.5-.3-.3-.5-.8-.5-1.3s.2-.9.5-1.3c.3-.3.8-.5,1.3-.5s.4,0,.6.1c.2,0,.4.2.5.4v-.4h.9v3.5h-.9ZM361.5,110.9c-.2.2-.3.4-.3.7s0,.5.3.7c.2.2.4.2.7.2s.5,0,.7-.2c.2-.2.3-.4.3-.7s0-.5-.3-.7c-.2-.2-.4-.2-.7-.2s-.5,0-.7.2Z"/>
  <path class="st21" d="M365.6,111.5v1.8h-.9v-3.5h.9v.5c0-.2.3-.3.4-.4.2-.1.4-.2.6-.2.4,0,.8.1,1,.4.2.2.3.6.3,1.1v2h-.9v-1.8c0-.2,0-.5-.2-.6-.1-.1-.3-.2-.5-.2s-.4,0-.5.2c0,.1-.2.3-.2.6Z"/>
  <path class="st21" d="M371.9,111.6v.3h-2.7c0,.2.1.4.3.5.2.1.4.2.7.2s.4,0,.5-.1c.2,0,.3-.2.4-.3.1,0,.3.2.7.4-.2.3-.4.5-.7.6-.3.1-.6.2-1,.2-.5,0-.9-.2-1.3-.5-.3-.3-.5-.8-.5-1.3s.2-.9.5-1.3c.3-.3.8-.5,1.3-.5s.9.2,1.3.5c.3.3.5.7.5,1.3ZM369.3,111.3h1.8c0-.2-.1-.4-.3-.5-.2-.1-.3-.2-.6-.2s-.5,0-.6.2c-.2.1-.3.3-.3.5Z"/>
  <path class="st21" d="M374.7,112.1v1.2h-.9v-3.5h.9v.8c0-.3.2-.5.4-.7.2-.2.4-.2.6-.2s.4,0,.6.1l-.2.8c-.1,0-.3,0-.5,0-.5,0-.8.4-.8,1.4Z"/>
  <path class="st21" d="M379.8,111.6v.3h-2.7c0,.2.1.4.3.5.2.1.4.2.7.2s.4,0,.5-.1c.2,0,.3-.2.4-.3.1,0,.3.2.7.4-.2.3-.4.5-.7.6-.3.1-.6.2-1,.2-.5,0-.9-.2-1.3-.5-.3-.3-.5-.8-.5-1.3s.2-.9.5-1.3c.3-.3.8-.5,1.3-.5s.9.2,1.3.5c.3.3.5.7.5,1.3ZM377.1,111.3h1.8c0-.2-.1-.4-.3-.5-.2-.1-.3-.2-.6-.2s-.5,0-.6.2c-.2.1-.3.3-.3.5Z"/>
  <path class="st21" d="M382.8,110.3v-.5h.9v5.1h-.9v-2.1c0,.2-.3.3-.4.4-.2,0-.4.1-.7.1-.5,0-.9-.2-1.2-.5-.3-.3-.5-.8-.5-1.3s.2-.9.5-1.3c.3-.3.8-.5,1.2-.5s.5,0,.7.1c.2.2.3.3.4.5ZM382.8,111.6c0-.3,0-.5-.3-.7-.2-.2-.4-.2-.7-.2s-.5,0-.6.2c-.2.2-.3.4-.3.7s0,.5.3.7c.2.2.4.2.6.2s.5,0,.7-.2c.2-.2.3-.4.3-.7Z"/>
  <path class="st21" d="M386.7,111.7v-1.8h.9v3.5h-.9v-.5c0,.2-.3.3-.4.4-.2,0-.4.2-.5.2-.4,0-.8-.1-1-.4-.3-.2-.4-.6-.4-1.1v-2.1h.9v1.8c0,.2,0,.5.2.6.1.1.3.2.5.2s.4,0,.5-.2c.2-.1.2-.3.2-.6Z"/>
  <path class="st21" d="M391.6,111.6v.3h-2.7c0,.2.1.4.3.5.2.1.4.2.7.2s.4,0,.5-.1c.2,0,.3-.2.4-.3.1,0,.3.2.7.4-.2.3-.4.5-.7.6-.3.1-.6.2-1,.2-.5,0-.9-.2-1.3-.5-.3-.3-.5-.8-.5-1.3s.2-.9.5-1.3c.3-.3.8-.5,1.3-.5s.9.2,1.3.5c.3.3.5.7.5,1.3ZM388.9,111.3h1.8c0-.2-.1-.4-.3-.5-.2-.1-.3-.2-.6-.2s-.5,0-.6.2c-.2.1-.3.3-.3.5Z"/>
  <path class="st21" d="M392.9,111.8c-.2,0-.4-.1-.5-.2-.1,0-.3-.2-.3-.2,0,0,0-.2-.1-.3,0,0,0-.2,0-.3,0-.3.1-.5.4-.7.3-.2.5-.3.9-.3s.7,0,1,.2c.3.2.4.5.4.8h-.9c0-.1,0-.2-.2-.2,0,0-.2,0-.3,0-.3,0-.5.1-.5.3s.1.2.4.3h.6c.2.2.3.2.5.3.1,0,.2.2.3.3,0,.1,0,.2.1.3,0,0,0,.2,0,.2,0,.3-.1.6-.4.8-.3.2-.6.3-1,.3s-.7-.1-1-.3c-.3-.2-.4-.5-.4-.8h.8c0,.1,0,.2.2.3.1,0,.3.1.4.1s.3,0,.3,0c0,0,.1-.2.1-.2s0-.2,0-.2c0,0-.2,0-.3-.1l-.5-.2Z"/>
  <path class="st21" d="M396.2,108.6v1.3h.8v.7h-.8v2.7h-.9v-2.7h-.6v-.7h.6v-1.3h.9Z"/>
  <path class="st21" d="M401.7,109.9l-2.2,5.1h-1l.8-1.9-1.4-3.2h1l.9,2.1.9-2.1h1Z"/>
  <path class="st21" d="M404.7,112.9c-.3.3-.8.5-1.3.5s-.9-.2-1.3-.5c-.3-.3-.5-.8-.5-1.3s.2-.9.5-1.3c.3-.3.8-.5,1.3-.5s.9.2,1.3.5c.4.3.5.7.5,1.3s-.2.9-.5,1.3ZM402.7,112.2c.2.2.4.2.7.2s.5,0,.7-.2c.2-.2.3-.4.3-.7s0-.5-.3-.7c-.2-.2-.4-.2-.7-.2s-.5,0-.7.2c-.2.2-.3.4-.3.7s0,.5.3.7Z"/>
  <path class="st21" d="M408,111.7v-1.8h.9v3.5h-.9v-.5c0,.2-.3.3-.4.4-.2,0-.4.2-.5.2-.4,0-.8-.1-1-.4-.3-.2-.4-.6-.4-1.1v-2.1h.9v1.8c0,.2,0,.5.2.6.1.1.3.2.5.2s.4,0,.5-.2c.2-.1.2-.3.2-.6Z"/>
  <path class="st21" d="M413.1,108v.9h-.4c-.4,0-.6.2-.6.7v.3h.8v.7h-.8v2.7h-.9v-2.7h-.7v-.7h.7v-.3c0-.5.1-.9.4-1.2.3-.3.6-.4,1.1-.4h.4Z"/>
  <path class="st21" d="M416.1,112.9c-.3.3-.8.5-1.3.5s-.9-.2-1.3-.5c-.3-.3-.5-.8-.5-1.3s.2-.9.5-1.3c.3-.3.8-.5,1.3-.5s.9.2,1.3.5c.3.3.5.7.5,1.3s-.2.9-.5,1.3ZM414.1,112.2c.2.2.4.2.7.2s.5,0,.7-.2c.2-.2.3-.4.3-.7s0-.5-.3-.7c-.2-.2-.4-.2-.7-.2s-.5,0-.7.2c-.2.2-.3.4-.3.7s0,.5.3.7Z"/>
  <path class="st21" d="M417.9,112.1v1.2h-.9v-3.5h.9v.8c0-.3.2-.5.4-.7.2-.2.4-.2.6-.2s.4,0,.6.1l-.2.8c-.1,0-.3,0-.5,0-.5,0-.8.4-.8,1.4Z"/>
  <path class="st21" d="M425,109.9v3.5h-.9v-2.7h-1.8v2.7h-.9v-2.7h-.7v-.7h.7v-.3c0-.5.1-.9.4-1.2.3-.3.6-.4,1.1-.4h.4v.9h-.4c-.4,0-.6.2-.6.7v.3h2.7ZM424.1,108.9c-.1-.1-.2-.2-.2-.4s0-.3.2-.4c.1,0,.3-.2.4-.2s.3,0,.4.2c.1.1.2.2.2.4s0,.3-.2.4c-.1.1-.3.2-.4.2s-.3,0-.4-.2Z"/>
  <path class="st21" d="M425.6,113.3v-5.3h.9v5.3h-.9Z"/>
  <path class="st21" d="M430.5,111.6v.3h-2.7c0,.2.1.4.3.5.2.1.4.2.7.2s.4,0,.5-.1c.2,0,.3-.2.4-.3.1,0,.3.2.7.4-.2.3-.4.5-.7.6-.3.1-.6.2-1,.2-.5,0-.9-.2-1.3-.5-.3-.3-.5-.8-.5-1.3s.2-.9.5-1.3c.3-.3.8-.5,1.3-.5s.9.2,1.3.5c.3.3.5.7.5,1.3ZM427.9,111.3h1.8c0-.2-.1-.4-.3-.5-.2-.1-.3-.2-.6-.2s-.5,0-.6.2c-.2.1-.3.3-.3.5Z"/>
  <path class="st21" d="M434.7,111.7v-1.8h.9v3.5h-.9v-.5c0,.2-.3.3-.4.4-.2,0-.4.2-.5.2-.4,0-.8-.1-1-.4-.3-.2-.4-.6-.4-1.1v-2.1h.9v1.8c0,.2,0,.5.2.6.1.1.3.2.5.2s.4,0,.5-.2c.2-.1.2-.3.2-.6Z"/>
  <path class="st21" d="M437.2,109.9v.5c0-.2.3-.3.4-.4.2,0,.4-.1.7-.1.5,0,.9.2,1.2.5.3.3.5.8.5,1.3s-.2,1-.5,1.3c-.3.3-.8.5-1.2.5s-.5,0-.7-.1c-.2,0-.3-.2-.4-.4v2.1h-.9v-5.1h.9ZM437.2,111.6c0,.3,0,.5.3.7.2.2.4.2.7.2s.5,0,.7-.2c.2-.2.3-.4.3-.7s0-.5-.3-.7c-.2-.2-.4-.2-.7-.2s-.5,0-.7.2c-.2.1-.3.4-.3.7Z"/>
  <path class="st21" d="M440.5,113.3v-5.3h.9v5.3h-.9Z"/>
  <path class="st21" d="M444.9,112.9c-.3.3-.8.5-1.3.5s-.9-.2-1.3-.5c-.3-.3-.5-.8-.5-1.3s.2-.9.5-1.3c.3-.3.8-.5,1.3-.5s.9.2,1.3.5c.3.3.5.7.5,1.3s-.2.9-.5,1.3ZM443,112.2c.2.2.4.2.7.2s.5,0,.7-.2c.2-.2.3-.4.3-.7s0-.5-.3-.7c-.2-.2-.4-.2-.7-.2s-.5,0-.7.2c-.2.2-.3.4-.3.7s0,.5.3.7Z"/>
  <path class="st21" d="M448.5,113.3v-.5c-.1.2-.3.3-.5.4-.2,0-.4.1-.6.1-.5,0-.9-.2-1.3-.5-.3-.3-.5-.8-.5-1.3s.2-.9.5-1.3c.3-.3.8-.5,1.3-.5s.4,0,.6.1c.2,0,.4.2.5.4v-.4h.9v3.5h-.9ZM446.9,110.9c-.2.2-.3.4-.3.7s0,.5.3.7c.2.2.4.2.7.2s.5,0,.7-.2c.2-.2.3-.4.3-.7s0-.5-.3-.7c-.2-.2-.4-.2-.7-.2s-.5,0-.7.2Z"/>
  <path class="st21" d="M452.7,113.3v-.5c0,.2-.3.3-.5.4-.2.1-.4.1-.7.1-.5,0-.9-.2-1.2-.5s-.5-.8-.5-1.3.2-1,.5-1.3c.3-.3.8-.5,1.2-.5s.5,0,.7.1c.2,0,.3.2.5.4v-2.3h.9v5.3h-.9ZM452.4,112.3c.2-.2.3-.4.3-.7s0-.5-.3-.7c-.2-.2-.4-.2-.7-.2s-.5,0-.7.2c-.2.2-.3.4-.3.7s0,.5.3.7c.2.2.4.2.7.2s.5,0,.7-.2Z"/>
  <path class="st28" d="M357.9,126.5v-4.4h1.8c.5,0,.8.1,1,.4.3.3.3.6.3,1s-.1.7-.3,1c-.2.3-.6.4-1,.4h-1.1v1.6h-.7ZM359.7,122.7h-1.1v1.6h1.1c.3,0,.4,0,.5-.2.1-.2.2-.3.2-.5s0-.4-.2-.5c-.1-.1-.3-.2-.5-.2Z"/>
  <path class="st28" d="M361.5,126.5v-4.6h.7v4.6h-.7Z"/>
  <path class="st28" d="M365.7,125v.2h-2.4c0,.2.1.4.3.5.2.1.4.2.6.2s.3,0,.5-.1c.2,0,.3-.2.3-.3,0,0,.2,0,.3.1.1,0,.2,0,.3.1-.1.2-.3.5-.6.6-.3.1-.5.2-.8.2-.5,0-.8-.2-1.1-.5-.3-.3-.5-.7-.5-1.2s.2-.9.5-1.2c.3-.3.7-.4,1.1-.4s.8.1,1.1.4c.3.4.5.7.5,1.2ZM363.3,124.7h1.8c0-.2-.1-.4-.3-.5-.2-.1-.4-.2-.6-.2s-.5,0-.6.2c-.2.1-.3.3-.3.5Z"/>
  <path class="st28" d="M368.5,126.5v-.5c0,.2-.3.3-.4.4-.2,0-.4.1-.6.1-.4,0-.8-.2-1.1-.5-.3-.3-.5-.7-.5-1.2s.2-.9.5-1.2c.3-.3.7-.5,1.1-.5s.4,0,.6.1c.2,0,.3.2.5.4v-.4h.7v3h-.7ZM366.9,124.3c-.2.2-.3.4-.3.7s0,.5.3.7c.2.2.4.2.7.2s.5,0,.7-.2c.2-.2.3-.4.3-.7s0-.5-.3-.7c-.2-.2-.4-.2-.7-.2-.3,0-.5.1-.7.3Z"/>
  <path class="st28" d="M370.5,125.2c-.3,0-.5-.2-.7-.4-.1-.2-.2-.4-.2-.6,0-.2.1-.4.3-.6.2-.2.5-.2.8-.2s.5,0,.8.2c.2.2.3.4.3.7h-.6c0-.1,0-.2-.2-.2,0,0-.2,0-.3,0s-.2,0-.3,0c0,0-.1,0-.2.1,0,0,0,.2,0,.3,0,0,.2.2.4.2h.5c.5.2.8.5.8,1s-.1.5-.3.7c-.2.2-.5.2-.9.2s-.6,0-.8-.3c-.3-.2-.4-.4-.4-.7h.6c0,.1,0,.2.2.3.1,0,.3.1.4.1s.3,0,.4,0c0,0,.2-.2.2-.2,0-.2-.1-.3-.4-.4h-.3Z"/>
  <path class="st28" d="M375.3,125v.2h-2.4c0,.2.1.4.3.5.2.1.4.2.6.2s.3,0,.5-.1c.2,0,.3-.2.3-.3,0,0,.2,0,.3.1.1,0,.2,0,.3.1-.1.2-.3.5-.6.6-.3.1-.5.2-.8.2-.5,0-.8-.2-1.1-.5-.3-.3-.5-.7-.5-1.2s.2-.9.5-1.2c.3-.3.7-.4,1.1-.4s.8.1,1.1.4c.3.4.5.7.5,1.2ZM372.9,124.7h1.8c0-.2-.1-.4-.3-.5-.2-.1-.4-.2-.6-.2s-.5,0-.6.2c-.2.1-.3.3-.3.5Z"/>
  <path class="st28" d="M377.3,126.1c-.3-.3-.5-.7-.5-1.2s.2-.8.5-1.2c.3-.3.7-.5,1.2-.5s.9.2,1.2.5l-.5.4c-.2-.2-.4-.3-.7-.3s-.5,0-.7.2c-.2.2-.3.4-.3.7s0,.5.3.7c.2.2.4.2.7.2s.5,0,.7-.3l.5.4c-.3.4-.7.5-1.2.5-.5,0-.9-.1-1.2-.4Z"/>
  <path class="st28" d="M380.1,126.5v-4.6h.7v4.6h-.7Z"/>
  <path class="st28" d="M381.4,122.5c0,0-.1-.2-.1-.3s0-.2.1-.3c0,0,.2-.1.3-.1s.3,0,.3.1c0,0,.1.2.1.3s0,.2-.1.3c0,0-.2.1-.3.1s-.2,0-.3-.1ZM382.1,126.5v-3h-.7v3h.7Z"/>
  <path class="st28" d="M383,126.1c-.3-.3-.5-.7-.5-1.2s.2-.8.5-1.2c.3-.3.7-.5,1.2-.5s.9.2,1.2.5l-.5.4c-.2-.2-.4-.3-.7-.3s-.5,0-.7.2c-.2.2-.3.4-.3.7s0,.5.3.7c.2.2.4.2.7.2s.5,0,.7-.3l.5.4c-.3.4-.7.5-1.2.5-.5,0-.9-.1-1.2-.4Z"/>
  <path class="st28" d="M387.7,126.5l-1.3-1.4v1.4h-.7v-4.6h.7v2.6l1-1h.9l-1.3,1.3,1.6,1.7h-.9Z"/>
  <path class="st28" d="M392.6,126.1c-.3.3-.7.5-1.1.5s-.8-.2-1.1-.5c-.3-.3-.5-.7-.5-1.2s.2-.8.5-1.2c.3-.3.7-.5,1.1-.5s.8.2,1.1.5c.3.3.5.7.5,1.2s-.1.9-.5,1.2ZM391.5,125.9c.3,0,.5,0,.7-.2.2-.2.3-.4.3-.7s0-.5-.3-.7c-.2-.2-.4-.2-.7-.2s-.5,0-.7.2c-.2.2-.3.4-.3.7s0,.5.3.7c.2.2.4.3.7.3Z"/>
  <path class="st28" d="M394.2,124.9v1.6h-.7v-3h.7v.5c0-.2.2-.3.4-.4.2,0,.4-.1.5-.1.4,0,.7.1.9.3.2.2.3.6.3,1v1.8h-.7v-1.7c0-.2,0-.4-.2-.5-.1-.1-.3-.2-.5-.2s-.4,0-.5.2c-.2,0-.3.3-.3.6Z"/>
  <path class="st28" d="M399.1,122.3v1.2h.7v.5h-.7v2.5h-.7v-2.5h-.5v-.5h.5v-1.2h.7Z"/>
  <path class="st28" d="M400.7,124.9v1.6h-.7v-4.6h.7v2.1c0-.2.2-.3.4-.4.2,0,.4-.1.6-.1.4,0,.7.1.9.4.2.2.3.6.3,1v1.7h-.7v-1.7c0-.2,0-.4-.2-.5-.1-.1-.3-.2-.5-.2s-.4,0-.6.2c-.2,0-.3.3-.3.6Z"/>
  <path class="st28" d="M406.4,125v.2h-2.4c0,.2.1.4.3.5.2.1.4.2.6.2s.3,0,.5-.1c.2,0,.3-.2.3-.3,0,0,.2,0,.3.1.1,0,.2,0,.3.1-.1.2-.3.5-.6.6-.3.1-.5.2-.8.2-.5,0-.8-.2-1.1-.5-.3-.3-.5-.7-.5-1.2s.2-.9.5-1.2c.3-.3.7-.4,1.1-.4s.8.1,1.1.4c.3.4.5.7.5,1.2ZM404,124.7h1.8c0-.2-.1-.4-.3-.5-.2-.1-.4-.2-.6-.2s-.5,0-.6.2c-.2.1-.3.3-.3.5Z"/>
  <path class="st28" d="M408.2,126.5v-4.6h.7v4.6h-.7Z"/>
  <path class="st28" d="M409.5,122.5c0,0-.1-.2-.1-.3s0-.2.1-.3c0,0,.2-.1.3-.1s.3,0,.3.1c0,0,.1.2.1.3s0,.2-.1.3c0,0-.2.1-.3.1s-.3,0-.3-.1ZM410.2,126.5v-3h-.7v3h.7Z"/>
  <path class="st28" d="M411.5,124.9v1.6h-.7v-3h.7v.5c0-.2.2-.3.4-.4.2,0,.4-.1.5-.1.4,0,.7.1.9.3.2.2.3.6.3,1v1.8h-.7v-1.7c0-.2,0-.4-.2-.5-.1-.1-.3-.2-.5-.2s-.4,0-.5.2c-.2,0-.3.3-.3.6Z"/>
  <path class="st28" d="M416.1,126.5l-1.3-1.4v1.4h-.7v-4.6h.7v2.6l1-1h.9l-1.3,1.3,1.6,1.7h-.9Z"/>
  <path class="st28" d="M419.2,126.5h-.7v-4.6h.7v2.1c0-.2.3-.3.4-.4.2,0,.4-.1.6-.1.4,0,.8.2,1.1.5.3.3.5.7.5,1.2s-.2.8-.5,1.2c-.3.3-.7.5-1.1.5s-.4,0-.6-.1c-.2,0-.3-.2-.4-.4v.4h0ZM419.2,125c0,.3,0,.5.3.7.2.2.4.2.7.2s.5,0,.7-.2c.2-.2.3-.4.3-.7s0-.5-.3-.7c-.2-.2-.4-.2-.7-.2s-.5,0-.7.2c-.2.1-.3.4-.3.6Z"/>
  <path class="st28" d="M425.1,125v.2h-2.4c0,.2.1.4.3.5.2.1.4.2.6.2s.3,0,.5-.1c.2,0,.3-.2.3-.3,0,0,.2,0,.3.1.1,0,.2,0,.3.1-.1.2-.3.5-.6.6-.3.1-.5.2-.8.2-.5,0-.8-.2-1.1-.5-.3-.3-.5-.7-.5-1.2s.2-.9.5-1.2c.3-.3.7-.4,1.1-.4s.8.1,1.1.4c.3.4.5.7.5,1.2ZM422.6,124.7h1.8c0-.2-.1-.4-.3-.5-.2-.1-.4-.2-.6-.2s-.5,0-.6.2c-.2.1-.3.3-.3.5Z"/>
  <path class="st28" d="M425.5,126.5v-4.6h.7v4.6h-.7Z"/>
  <path class="st28" d="M429.3,126.1c-.3.3-.7.5-1.1.5s-.8-.2-1.1-.5c-.3-.3-.5-.7-.5-1.2s.2-.8.5-1.2c.3-.3.7-.5,1.1-.5s.8.2,1.1.5c.3.3.5.7.5,1.2s-.1.9-.5,1.2ZM428.2,125.9c.3,0,.5,0,.7-.2.2-.2.3-.4.3-.7s0-.5-.3-.7c-.2-.2-.4-.2-.7-.2s-.5,0-.7.2c-.2.2-.3.4-.3.7s0,.5.3.7c.2.2.4.3.7.3Z"/>
  <path class="st28" d="M434.7,123.5l-1.1,3h-.5l-.8-2.1-.8,2.1h-.5l-1.2-3h.7l.7,2.1.7-2.1h.6l.7,2.1.7-2.1h.8Z"/>
  <path class="st28" d="M438.5,126.5v-.5c0,.2-.3.3-.4.4-.2,0-.4.1-.6.1-.4,0-.8-.2-1.1-.5-.3-.3-.5-.7-.5-1.2s.2-.9.5-1.2c.3-.3.7-.5,1.1-.5s.4,0,.6.1c.2,0,.3.2.5.4v-.4h.7v3h-.7ZM436.9,124.3c-.2.2-.3.4-.3.7s0,.5.3.7c.2.2.4.2.7.2s.5,0,.7-.2c.2-.2.3-.4.3-.7s0-.5-.3-.7c-.2-.2-.4-.2-.7-.2-.3,0-.5.1-.7.3Z"/>
  <path class="st28" d="M440.5,124.9v1.6h-.7v-3h.7v.5c0-.2.2-.3.4-.4.2,0,.4-.1.5-.1.4,0,.7.1.9.3.2.2.3.6.3,1v1.8h-.7v-1.7c0-.2,0-.4-.2-.5-.1-.1-.3-.2-.5-.2s-.4,0-.5.2c-.2,0-.3.3-.3.6Z"/>
  <path class="st28" d="M445.6,126.5v-.5c0,.2-.3.3-.4.4-.2,0-.4.1-.6.1-.4,0-.8-.2-1.1-.5-.3-.3-.5-.7-.5-1.2s.2-.9.5-1.2c.3-.3.7-.5,1.1-.5s.4,0,.6.1c.2,0,.3.2.4.4v-2.1h.7v4.6h-.7ZM445.6,125c0-.3,0-.5-.3-.7-.2-.2-.4-.2-.7-.2s-.5,0-.7.2c-.2.2-.3.4-.3.7s0,.5.3.7c.2.2.4.2.7.2s.5,0,.7-.2c.2-.1.3-.4.3-.7Z"/>
  <path class="st28" d="M450.3,125.1v-1.6h.7v3h-.7v-.5c0,.2-.2.3-.4.4-.2,0-.3.1-.5.1-.4,0-.7-.1-.9-.3-.2-.2-.3-.6-.3-1v-1.8h.7v1.7c0,.2,0,.4.2.6.1.1.3.2.5.2s.4,0,.5-.2c.1-.1.3-.3.3-.6Z"/>
  <path class="st28" d="M452.3,123.5v.5c0-.2.3-.3.4-.4.2,0,.4-.1.6-.1.4,0,.8.2,1.1.5.3.3.5.7.5,1.2s-.2.9-.5,1.1c-.3.3-.7.5-1.1.5s-.4,0-.6-.1c-.2,0-.3-.2-.4-.4v1.9h-.7v-4.5h.7ZM452.3,125c0,.3,0,.5.3.7.2.2.4.2.7.2s.5,0,.7-.2c.2-.2.3-.4.3-.7s0-.5-.3-.7c-.2-.2-.4-.2-.7-.2s-.5,0-.7.2c-.2.2-.3.4-.3.7Z"/>
  <path class="st28" d="M455.2,126.5v-4.6h.7v4.6h-.7Z"/>
  <path class="st28" d="M459.1,126.1c-.3.3-.7.5-1.1.5s-.8-.2-1.1-.5c-.3-.3-.5-.7-.5-1.2s.2-.8.5-1.2c.3-.3.7-.5,1.1-.5s.8.2,1.1.5c.3.3.5.7.5,1.2s-.2.9-.5,1.2ZM458,125.9c.3,0,.5,0,.7-.2.2-.2.3-.4.3-.7s0-.5-.3-.7c-.2-.2-.4-.2-.7-.2s-.5,0-.7.2c-.2.2-.3.4-.3.7s0,.5.3.7c.2.2.4.3.7.3Z"/>
  <path class="st28" d="M462.4,126.5v-.5c0,.2-.3.3-.4.4-.2,0-.4.1-.6.1-.4,0-.8-.2-1.1-.5-.3-.3-.5-.7-.5-1.2s.2-.9.5-1.2c.3-.3.7-.5,1.1-.5s.4,0,.6.1c.2,0,.3.2.5.4v-.4h.7v3h-.7ZM460.8,124.3c-.2.2-.3.4-.3.7s0,.5.3.7c.2.2.4.2.7.2s.5,0,.7-.2c.2-.2.3-.4.3-.7s0-.5-.3-.7c-.2-.2-.4-.2-.7-.2-.3,0-.5.1-.7.3Z"/>
  <path class="st28" d="M466,126.5v-.5c0,.2-.3.3-.4.4-.2,0-.4.1-.6.1-.4,0-.8-.2-1.1-.5-.3-.3-.5-.7-.5-1.2s.2-.9.5-1.2c.3-.3.7-.5,1.1-.5s.4,0,.6.1c.2,0,.3.2.4.4v-2.1h.7v4.6h-.7ZM466,125c0-.3,0-.5-.3-.7-.2-.2-.4-.2-.7-.2s-.5,0-.7.2c-.2.2-.3.4-.3.7s0,.5.3.7c.2.2.4.2.7.2s.5,0,.7-.2c.2-.1.3-.4.3-.7Z"/>
  <path class="st28" d="M360.6,131.2l-1.9,4.5h-.7l.7-1.6-1.2-2.9h.7l.8,2.1.9-2.1h.7Z"/>
  <path class="st28" d="M363.3,133.9c-.3.3-.7.5-1.1.5s-.8-.2-1.1-.5c-.3-.3-.5-.7-.5-1.1s.2-.8.5-1.1c.3-.3.7-.5,1.1-.5s.8.2,1.1.5c.3.3.5.7.5,1.1s-.1.9-.5,1.1ZM362.2,133.7c.3,0,.5,0,.7-.2.2-.2.3-.4.3-.7s0-.5-.3-.7c-.2-.2-.4-.2-.7-.2s-.5,0-.7.2c-.2.2-.3.4-.3.7s0,.5.3.7c.2.2.4.3.7.3Z"/>
  <path class="st28" d="M366.3,132.8v-1.6h.7v3h-.7v-.5c0,.2-.2.3-.4.4-.2,0-.3.1-.5.1-.4,0-.7-.1-.9-.3-.2-.2-.3-.6-.3-1v-1.7h.7v1.7c0,.2,0,.4.2.6.1.1.3.2.5.2s.4,0,.5-.2c.1-.1.3-.4.3-.7Z"/>
  <path class="st28" d="M368.2,133.2v1.1h-.7v-3h.7v.7c.2-.5.4-.7.8-.7s.4,0,.5.1v.6c-.3,0-.4-.1-.6-.1-.3,0-.5.1-.6.4,0,.2-.2.5-.2,1Z"/>
  <path class="st28" d="M373.7,134.2v-2.5h-1.6v2.5h-.7v-2.5h-.6v-.5h.6v-.3c0-.4,0-.7.3-1,.2-.2.5-.4.9-.4h.3v.7h-.3c-.4,0-.5.2-.5.7v.3h2.3v3h-.6ZM373.7,130.3c0,0-.1-.2-.1-.3s0-.2.1-.3c0,0,.2-.1.3-.1s.3,0,.3.1c0,0,.1.2.1.3s0,.2-.1.3c0,0-.2.1-.3.1s-.3,0-.3-.1Z"/>
  <path class="st28" d="M374.9,134.2v-4.6h.7v4.6h-.7Z"/>
  <path class="st28" d="M379.2,132.7v.2h-2.4c0,.2.1.4.3.5.2.1.4.2.6.2s.3,0,.5-.1c.2,0,.3-.2.3-.3,0,0,.2,0,.3.1.1,0,.2,0,.3.1-.1.2-.3.5-.6.6s-.5.2-.8.2c-.5,0-.8-.2-1.1-.5-.3-.3-.5-.7-.5-1.1s.2-.9.5-1.1c.3-.3.7-.4,1.1-.4s.8.1,1.1.4c.3.3.5.7.5,1.2ZM376.7,132.5h1.8c0-.2-.1-.4-.3-.5-.2-.1-.4-.2-.6-.2s-.5,0-.6.2c-.2.1-.3.3-.3.5Z"/>
  <path class="st28" d="M380.3,132.9c-.3,0-.5-.2-.7-.4-.1-.2-.2-.4-.2-.6,0-.2.1-.4.3-.6.2-.2.5-.2.8-.2s.5,0,.8.2c.2.2.3.4.3.7h-.6c0-.1,0-.2-.2-.2,0,0-.2,0-.3,0s-.2,0-.3,0c0,0-.1,0-.2.1,0,0,0,.2,0,.3,0,0,.2.2.4.2h.5c.5.2.8.5.8,1s-.1.5-.3.7c-.2.2-.5.2-.9.2s-.6,0-.8-.3c-.3-.2-.4-.4-.4-.7h.6c0,.1,0,.2.2.3.1,0,.3.1.4.1s.3,0,.4,0c0,0,.2-.2.2-.2,0-.2-.1-.3-.4-.4h-.3Z"/>
  <path class="st28" d="M385.2,129.6v.7h-.3c-.4,0-.5.2-.5.7v.3h.7v.5h-.7v2.5h-.7v-2.5h-.6v-.6h.6v-.3c0-.4,0-.7.3-1,.2-.2.5-.4.9-.4h.3Z"/>
  <path class="st28" d="M387.8,133.9c-.3.3-.7.5-1.1.5s-.8-.2-1.1-.5c-.3-.3-.5-.7-.5-1.1s.2-.8.5-1.1c.3-.3.7-.5,1.1-.5s.8.2,1.1.5c.3.3.5.7.5,1.1s-.1.9-.5,1.1ZM386.7,133.7c.3,0,.5,0,.7-.2.2-.2.3-.4.3-.7s0-.5-.3-.7c-.2-.2-.4-.2-.7-.2s-.5,0-.7.2c-.2.2-.3.4-.3.7s0,.5.3.7c.2.2.4.3.7.3Z"/>
  <path class="st28" d="M389.4,133.2v1.1h-.7v-3h.7v.7c.2-.5.4-.7.8-.7s.4,0,.5.1v.6c-.3,0-.4-.1-.6-.1-.3,0-.5.1-.6.4,0,.2-.2.5-.2,1Z"/>
  <path class="st28" d="M391.1,135.8v-.7c.2,0,.4,0,.5,0,.3,0,.4,0,.5-.2.1-.2.2-.3.2-.6v-4.6h.7v4.6c0,.4-.1.8-.3,1.1-.2.3-.6.4-1.1.4s-.3,0-.5,0Z"/>
  <path class="st28" d="M396.1,134.2v-.5c0,.2-.3.3-.4.4-.2,0-.4.1-.6.1-.4,0-.8-.2-1.1-.5-.3-.3-.5-.7-.5-1.1s.2-.9.5-1.1c.3-.3.7-.5,1.1-.5s.4,0,.6.1c.2,0,.3.2.5.4v-.4h.7v3h-.7ZM394.5,132.1c-.2.2-.3.4-.3.7s0,.5.3.7c.2.2.4.2.7.2s.5,0,.7-.2c.2-.2.3-.4.3-.7s0-.5-.3-.7c-.2-.2-.4-.2-.7-.2-.3,0-.5.1-.7.3Z"/>
  <path class="st28" d="M398.1,132.6v1.6h-.7v-3h.7v.5c0-.2.2-.3.4-.4.2,0,.4-.1.5-.1.4,0,.7.1.9.3.2.2.3.6.3,1v1.8h-.7v-1.7c0-.2,0-.4-.2-.5-.1-.1-.3-.2-.5-.2s-.4,0-.5.2c-.2,0-.3.3-.3.6Z"/>
  <path class="st28" d="M403.7,132.7v.2h-2.4c0,.2.1.4.3.5.2.1.4.2.6.2s.3,0,.5-.1c.2,0,.3-.2.3-.3,0,0,.2,0,.3.1s.2,0,.3.1c-.1.2-.3.5-.6.6-.3.1-.5.2-.8.2-.5,0-.8-.2-1.1-.5-.3-.3-.5-.7-.5-1.1s.2-.9.5-1.1c.3-.3.7-.4,1.1-.4s.8.1,1.1.4c.3.3.5.7.5,1.2ZM401.3,132.5h1.8c0-.2-.1-.4-.3-.5-.2-.1-.4-.2-.6-.2s-.5,0-.6.2c-.2.1-.3.3-.3.5Z"/>
  <path class="st27" d="M357.8,142.6c0-.3,0-.5,0-.7,0-.2.1-.4.2-.6,0-.2.3-.3.4-.4s.4-.2.7-.2.5,0,.7.2c.2,0,.3.2.4.4,0,.2.2.4.2.6,0,.2,0,.5,0,.7s0,.5,0,.7c0,.2-.1.4-.2.6s-.3.3-.4.4c-.2,0-.4.2-.7.2s-.4,0-.5,0c-.2,0-.3-.2-.4-.2,0,0-.2-.2-.3-.4,0-.2-.1-.3-.1-.5,0-.2,0-.4,0-.6ZM358.3,142.6c0,.4,0,.8.2,1,.1.2.3.4.7.4s.5-.1.7-.4c.1-.2.2-.6.2-1s0-.8-.2-1c-.1-.2-.3-.4-.7-.4s-.5.1-.7.4c-.1.2-.2.6-.2,1Z"/>
  <path class="st27" d="M363.6,140.8l-2.1,3.7h-.6l1.8-3.2h-1.7v-.5h2.6Z"/>
  <path class="st27" d="M364,145.8v-.5c.1,0,.3,0,.4,0,.3,0,.4,0,.5-.2,0-.1.2-.3.2-.5v-4.1h.5v4.1c0,.4,0,.7-.3.9-.2.2-.5.4-.9.4,0,0-.2,0-.4,0Z"/>
  <path class="st27" d="M368.2,143.2v-1.4h.5v2.6h-.5v-.4c0,.2-.2.2-.3.3-.2,0-.3.1-.5.1-.3,0-.6,0-.8-.3-.2-.2-.3-.5-.3-.9v-1.5h.5v1.5c0,.2,0,.4.2.5,0,.1.3.2.4.2s.4,0,.5-.2c0-.1.2-.3.2-.6Z"/>
  <path class="st27" d="M369.8,143v1.4h-.5v-2.6h.5v.4c0-.2.2-.2.3-.3.2,0,.3-.1.5-.1.3,0,.6,0,.8.3.2.2.3.5.3.9v1.5h-.5v-1.5c0-.2,0-.4-.2-.5-.1-.1-.3-.2-.4-.2s-.4,0-.5.2c-.2.1-.2.3-.2.6Z"/>
  <path class="st27" d="M372.3,144.4c0,0-.1-.2-.1-.2s0-.2.1-.2c0,0,.2,0,.3,0s.2,0,.3,0c0,0,.1.2.1.2s0,.2-.1.2c0,0-.2,0-.3,0s-.2,0-.3,0Z"/>
  <path class="st27" d="M374.7,144.2l1.5-1.8c.2-.2.3-.4.3-.6s0-.3-.2-.4c-.1,0-.3-.2-.5-.2s-.3,0-.5.2c-.1.1-.2.2-.3.4h-.5c0-.4.2-.7.4-.8.2-.2.5-.2.8-.2s.6,0,.8.3c.2.2.3.5.3.8s-.1.7-.4.9c-.2.2-.3.4-.5.6-.2.2-.3.4-.5.6h1.4v.5h-2.3v-.2h0Z"/>
  <path class="st27" d="M377.4,142.6c0-.3,0-.5,0-.7,0-.2.1-.4.2-.6,0-.2.3-.3.4-.4s.4-.2.7-.2.5,0,.7.2c.2,0,.3.2.4.4,0,.2.2.4.2.6,0,.2,0,.5,0,.7s0,.5,0,.7c0,.2-.1.4-.2.6,0,.2-.3.3-.4.4-.2,0-.4.2-.7.2s-.4,0-.5,0c-.2,0-.3-.2-.4-.2,0,0-.2-.2-.3-.4,0-.2-.1-.3-.1-.5,0-.2,0-.4,0-.6ZM378,142.6c0,.4,0,.8.2,1,.1.2.3.4.7.4s.5-.1.7-.4c.1-.2.2-.6.2-1s0-.8-.2-1c-.1-.2-.3-.4-.7-.4s-.5.1-.7.4c-.1.2-.2.6-.2,1Z"/>
  <path class="st27" d="M381.1,141.6l-.4-.3c0-.2.3-.3.5-.4.2,0,.4-.1.6-.1s.5.1.8.3c.2.2.3.5.3.7s0,.2,0,.2c0,.2-.2.4-.4.5.2,0,.3.2.5.4.1.2.2.4.1.6,0,.3-.2.6-.5.8-.3.2-.6.3-.9.2-.3,0-.5,0-.7-.2-.2-.1-.3-.3-.5-.5l.5-.2c0,.1.2.2.3.3.1,0,.3.2.4.2s.4,0,.5-.2c.2-.1.3-.2.3-.5s0-.3-.2-.5c-.1-.1-.3-.2-.5-.2h-.4v-.5h.4c.1,0,.3,0,.3-.1,0,0,.2-.2.2-.3,0-.2,0-.3,0-.4,0-.1-.3-.2-.4-.2-.2,0-.5,0-.6.3Z"/>
  <path class="st27" d="M383.4,142.6c0-.3,0-.5,0-.7,0-.2.1-.4.2-.6,0-.2.3-.3.4-.4.2,0,.4-.2.7-.2s.5,0,.7.2c.2,0,.3.2.4.4,0,.2.2.4.2.6,0,.2,0,.5,0,.7s0,.5,0,.7c0,.2-.1.4-.2.6,0,.2-.3.3-.4.4-.2,0-.4.2-.7.2s-.4,0-.5,0c-.2,0-.3-.2-.4-.2,0,0-.2-.2-.3-.4,0-.2-.1-.3-.1-.5,0-.2,0-.4,0-.6ZM383.9,142.6c0,.4,0,.8.2,1,.1.2.3.4.7.4s.5-.1.7-.4c.1-.2.2-.6.2-1s0-.8-.2-1c-.1-.2-.3-.4-.7-.4s-.5.1-.7.4c0,.2-.2.6-.2,1Z"/>
  <path class="st27" d="M386.7,145.2h-.4c.3-.5.4-.9.4-1.4h.5c0,.3,0,.6-.2.8,0,.2-.2.4-.3.5Z"/>
  <path class="st27" d="M389.1,142.6c0-.3,0-.5,0-.7,0-.2.1-.4.2-.6,0-.2.3-.3.4-.4.2,0,.4-.2.7-.2s.5,0,.7.2c.2,0,.3.2.4.4,0,.2.2.4.2.6,0,.2,0,.5,0,.7s0,.5,0,.7c0,.2-.1.4-.2.6,0,.2-.3.3-.4.4-.2,0-.4.2-.7.2s-.4,0-.5,0c-.2,0-.3-.2-.4-.2,0,0-.2-.2-.3-.4,0-.2-.1-.3-.1-.5,0-.2,0-.4,0-.6ZM389.6,142.6c0,.4,0,.8.2,1,.1.2.3.4.7.4s.5-.1.7-.4c.1-.2.2-.6.2-1s0-.8-.2-1c-.1-.2-.3-.4-.7-.4s-.5.1-.7.4c0,.2-.2.6-.2,1Z"/>
  <path class="st27" d="M394.5,143.7v.7h-.5v-.7h-2l2.1-3h.4v2.5h.5v.5h-.5ZM392.9,143.2h1.1v-1.5l-1.1,1.5Z"/>
  <path class="st27" d="M395.5,142.4c0,0-.1-.2-.1-.2s0-.2.1-.2c0,0,.2,0,.3,0s.2,0,.3,0c0,0,.1.2.1.2s0,.2-.1.2c0,0-.2,0-.3,0s-.2,0-.3,0ZM395.5,144.4c0,0-.1-.2-.1-.2s0-.2.1-.2c0,0,.2,0,.3,0s.2,0,.3,0c0,0,.1.2.1.2s0,.2-.1.2c0,0-.2,0-.3,0s-.2,0-.3,0Z"/>
  <path class="st27" d="M396.6,142.6c0-.3,0-.5,0-.7,0-.2.1-.4.2-.6,0-.2.3-.3.4-.4.2,0,.4-.2.7-.2s.5,0,.7.2c.2,0,.3.2.4.4,0,.2.2.4.2.6,0,.2,0,.5,0,.7s0,.5,0,.7c0,.2-.1.4-.2.6,0,.2-.3.3-.4.4-.2,0-.4.2-.7.2s-.4,0-.5,0c-.2,0-.3-.2-.4-.2,0,0-.2-.2-.3-.4,0-.2-.1-.3-.1-.5,0-.2,0-.4,0-.6ZM397.1,142.6c0,.4,0,.8.2,1,.1.2.3.4.7.4s.5-.1.7-.4c.1-.2.2-.6.2-1s0-.8-.2-1c-.1-.2-.3-.4-.7-.4s-.5.1-.7.4c0,.2-.2.6-.2,1Z"/>
  <path class="st27" d="M399.8,143.8l.5-.2c.1.3.3.4.6.4s.5-.1.6-.4c.2-.2.2-.5.2-.9-.1.3-.4.4-.8.4s-.6-.1-.8-.4c-.2-.2-.3-.5-.3-.9s.2-.6.4-.9c.3-.2.5-.3.9-.3s.6.1.8.4c.2.2.3.5.4.9,0,.5,0,.9,0,1.4,0,.3-.2.6-.4.8-.3.2-.5.3-.8.3-.3,0-.5,0-.6-.2-.2,0-.3-.2-.5-.5ZM401.7,142c0-.2,0-.4-.2-.5-.1-.2-.3-.2-.5-.2s-.4,0-.5.2c-.1.1-.2.3-.2.5s0,.4.2.5c.1.1.3.2.5.2s.4,0,.5-.2c.1,0,.2-.2.2-.5Z"/>
  <path class="st21" d="M358.9,156.2c.2.1.3.2.5.2s.4,0,.5-.2c.2-.1.2-.3.2-.5v-2.5h.8v2.5c0,.4-.2.8-.5,1-.3.2-.7.4-1.1.4s-.8-.1-1.1-.4c-.3-.3-.5-.6-.5-1v-2.5h.8v2.5c0,.2.1.4.3.5Z"/>
  <path class="st21" d="M362.1,154.4v.4c0-.1.2-.2.3-.3.2,0,.3-.1.5-.1.4,0,.7.1.9.4.3.2.4.6.4,1s-.1.7-.4,1c-.3.2-.6.4-.9.4s-.3,0-.5-.1c-.2,0-.3-.2-.3-.3v1.6h-.7v-3.9h.7ZM362.2,155.7c0,.2,0,.4.2.5.1.1.3.2.5.2s.4,0,.5-.2c.1-.1.2-.3.2-.5s0-.4-.2-.5c-.1-.1-.3-.2-.5-.2s-.4,0-.5.2c-.2.2-.2.3-.2.5Z"/>
  <path class="st21" d="M364.6,157v-4.1h.7v4.1h-.7Z"/>
  <path class="st21" d="M368.1,156.7c-.3.2-.6.4-1,.4s-.7-.1-1-.4c-.3-.2-.4-.6-.4-1s.1-.7.4-1c.3-.2.6-.4,1-.4s.7.1,1,.4c.3.2.4.6.4,1s-.2.7-.4,1ZM366.6,156.2c.1.1.3.2.5.2s.4,0,.5-.2c.1-.1.2-.3.2-.5s0-.4-.2-.5c-.1-.1-.3-.2-.5-.2s-.4,0-.5.2c-.1.1-.2.3-.2.5s0,.4.2.5Z"/>
  <path class="st21" d="M370.9,157v-.3c0,.1-.2.2-.4.3-.2,0-.3,0-.5,0-.4,0-.7-.1-1-.4-.3-.2-.4-.6-.4-1s.1-.7.4-1c.3-.2.6-.4,1-.4s.3,0,.5,0c.2,0,.3.2.4.3v-.3h.7v2.7h-.7ZM369.7,155.2c-.2.1-.2.3-.2.5s0,.4.2.5c.2.1.3.2.5.2s.4,0,.5-.2c.2-.1.2-.3.2-.5s0-.4-.2-.5c-.2-.1-.3-.2-.5-.2-.3,0-.4,0-.5.2Z"/>
  <path class="st21" d="M374.1,157v-.4c0,.1-.2.2-.3.3-.2,0-.3.1-.5.1-.4,0-.7-.1-.9-.4-.3-.2-.4-.6-.4-1s.1-.7.4-1c.3-.2.6-.4.9-.4s.3,0,.5.1c.2,0,.3.2.3.3v-1.8h.7v4.1h-.7ZM373.9,156.2c.1-.1.2-.3.2-.5s0-.4-.2-.5c-.1-.1-.3-.2-.5-.2s-.4,0-.5.2c-.1.1-.2.3-.2.5s0,.4.2.5c.1.1.3.2.5.2s.3,0,.5-.2Z"/>
  <path class="st21" d="M376.6,157v-3.9h2.4v.7h-1.7v1h1.3v.7h-1.3v1.6h-.7Z"/>
  <path class="st21" d="M379.3,153.6c0,0-.1-.2-.1-.3s0-.2.1-.3c0,0,.2-.1.3-.1s.2,0,.3.1c0,0,.1.2.1.3s0,.2-.1.3c0,0-.2.1-.3.1s-.3,0-.3-.1ZM380,154.4v2.7h-.7v-2.7h.7Z"/>
  <path class="st21" d="M380.5,157v-4.1h.7v4.1h-.7Z"/>
  <path class="st21" d="M384.4,155.7v.2h-2.1c0,.2,0,.3.3.4.2,0,.3.2.5.2s.3,0,.4,0c.1,0,.2-.1.3-.2,0,0,.3.1.5.3-.1.2-.3.4-.5.5-.2.1-.5.2-.8.2s-.7-.1-1-.4c-.3-.2-.4-.6-.4-1s.1-.7.4-1c.3-.2.6-.4,1-.4s.7.1,1,.4c.2.2.3.5.3.9ZM382.3,155.4h1.4c0-.2,0-.3-.2-.4-.1,0-.3-.2-.5-.2s-.3,0-.5.2c-.1.1-.2.2-.3.4Z"/>
  <path class="st21" d="M385.3,155.9c-.2,0-.3,0-.4-.2-.1,0-.2-.1-.3-.2,0,0,0-.2,0-.2,0,0,0-.2,0-.2,0-.2,0-.4.3-.6.2-.2.4-.2.7-.2s.5,0,.8.2c.2.1.3.3.3.6h-.7c0,0,0-.2-.1-.2,0,0-.2,0-.3,0-.2,0-.3,0-.3.2s0,.2.3.2h.5c.2.2.3.2.4.3.1,0,.2.1.2.2,0,0,0,.2,0,.2,0,0,0,.1,0,.2,0,.2-.1.5-.3.6-.2.2-.5.2-.8.2s-.5,0-.8-.2c-.2-.2-.3-.4-.3-.7h.7c0,0,0,.2.2.2,0,0,.2,0,.3,0s.2,0,.3,0c0,0,0-.1,0-.2s0-.1,0-.2c0,0-.1,0-.2,0h-.4Z"/>
  <path class="st26" d="M392.7,152.9l2,2.1c0,0,0,.2,0,.2s0,.2,0,.2l-2,2.1c-.1.1-.3.1-.5,0-.1-.1-.1-.3,0-.5l1.8-1.8-1.8-1.8c-.1-.1-.1-.3,0-.5.1-.2.3-.2.5,0Z"/>
  <path class="st26" d="M346.8,109.8c-.1-.1-.4-.1-.5,0l-1.2,1.2c-.1.1-.1.4,0,.5.1.1.4.1.5,0l.6-.6v1.5c0,.2.2.4.4.4s.4-.2.4-.4v-1.5l.6.6c0,0,.2.1.3.1s.2,0,.3,0c.1-.1.1-.4,0-.5l-1.3-1.2ZM349.5,108.4h-2.6l-.7-.7c-.2-.2-.4-.3-.7-.3h-1.8c-.5,0-1,.4-1,.9v4.6c0,.5.4.9,1,.9h5.7c.5,0,1-.4,1-.9v-3.7c0-.5-.5-.9-1-.9ZM349.7,113c0,.1-.1.2-.3.2h-5.7c-.1,0-.3-.1-.3-.2v-4.6c0-.1.1-.2.3-.2h1.8c0,0,.1,0,.2,0l.9.9h2.8c.1,0,.3.1.3.2v3.7h0Z"/>
</svg>